/* XPM */
static char * printer_remote_xpm[] = {
"16 16 85 1",
" 	c None",
".	c #8E8F8B",
"+	c #888A85",
"@	c #FFFFFF",
"#	c #E7E8E5",
"$	c #8E908B",
"%	c #ECEDEB",
"&	c #B7B9B5",
"*	c #F8F8F8",
"=	c #606462",
"-	c #454947",
";	c #F3F3F1",
">	c #3C4140",
",	c #939796",
"'	c #8F9392",
")	c #939695",
"!	c #E5E6E2",
"~	c #33383A",
"{	c #727676",
"]	c #5A5F5F",
"^	c #515656",
"/	c #505555",
"(	c #535858",
"_	c #575C5C",
":	c #DDDFDA",
"<	c #454B4C",
"[	c #2E3436",
"}	c #D5D9D1",
"|	c #ACBF88",
"1	c #F5F6F5",
"2	c #B2B4B0",
"3	c #747875",
"4	c #6C706D",
"5	c #747775",
"6	c #4E514E",
"7	c #4B4E4B",
"8	c #5C615E",
"9	c #EBECEB",
"0	c #F5F5F4",
"a	c #F4F4F2",
"b	c #F2F3F1",
"c	c #F1F2F0",
"d	c #F1F1EF",
"e	c #F0F0EE",
"f	c #EFF0ED",
"g	c #EEEFEC",
"h	c #E4E6E3",
"i	c #3D4242",
"j	c #3B4040",
"k	c #494D4D",
"l	c #EFEFED",
"m	c #EDEEEB",
"n	c #EBECE9",
"o	c #DFE0DE",
"p	c #DEDFDC",
"q	c #DDDEDA",
"r	c #DBDDD8",
"s	c #E2E4E0",
"t	c #E2E4DF",
"u	c #E0E3DE",
"v	c #3D4241",
"w	c #363C3D",
"x	c #353B3C",
"y	c #4C4E4D",
"z	c #585A56",
"A	c #555753",
"B	c #4C504D",
"C	c #464646",
"D	c #474747",
"E	c #494949",
"F	c #5A5C58",
"G	c #D7D7D7",
"H	c #D6D6D6",
"I	c #D3D3D3",
"J	c #595B57",
"K	c #D9D9D9",
"L	c #D5D5D5",
"M	c #575955",
"N	c #9F9F9F",
"O	c #A1A1A0",
"P	c #9D9E9D",
"Q	c #D0D0D0",
"R	c #515350",
"S	c #565854",
"T	c #535451",
"    .++++++.    ",
"    +@@@@@@+    ",
"    +@####@+    ",
"  $++@%%%%@++$  ",
" &*=--------=*& ",
".*;>,,,''),,>;*.",
"+@!~{]^///(_~!@+",
"+@:<[[[[[[[[<:@+",
"+@}}}}}}}}}}}|@+",
"+12344444444521+",
"67890abcdefgh876",
"ijklmnopqrstukjv",
"  wwxyzAAABwww  ",
" CDDEF9GHIJDDDD ",
" KKKLMNOOPzQKKK ",
" CDDDRSSSSTDDDD "};
