/* XPM */
static char * printer_xpm[] = {
"16 16 63 1",
" 	c None",
".	c #8E8F8B",
"+	c #888A85",
"@	c #FFFFFF",
"#	c #E7E8E5",
"$	c #ECEDEB",
"%	c #8E908B",
"&	c #F2F3F2",
"*	c #B7B9B5",
"=	c #F8F8F8",
"-	c #606462",
";	c #454947",
">	c #F3F3F1",
",	c #3C4140",
"'	c #939796",
")	c #8F9392",
"!	c #939695",
"~	c #E5E6E2",
"{	c #33383A",
"]	c #727676",
"^	c #5A5F5F",
"/	c #515656",
"(	c #505555",
"_	c #535858",
":	c #575C5C",
"<	c #DDDFDA",
"[	c #454B4C",
"}	c #2E3436",
"|	c #D5D9D1",
"1	c #ACBF88",
"2	c #F5F6F5",
"3	c #B2B4B0",
"4	c #747875",
"5	c #6C706D",
"6	c #747775",
"7	c #4E514E",
"8	c #4B4E4B",
"9	c #5C615E",
"0	c #EBECEB",
"a	c #F5F5F4",
"b	c #F4F4F2",
"c	c #F2F3F1",
"d	c #F1F2F0",
"e	c #F1F1EF",
"f	c #F0F0EE",
"g	c #EFF0ED",
"h	c #EEEFEC",
"i	c #E4E6E3",
"j	c #3D4242",
"k	c #3B4040",
"l	c #494D4D",
"m	c #EFEFED",
"n	c #EDEEEB",
"o	c #EBECE9",
"p	c #E9EAE8",
"q	c #E8E9E6",
"r	c #E7E8E4",
"s	c #E5E7E2",
"t	c #E3E5E1",
"u	c #E2E4DF",
"v	c #E0E3DE",
"w	c #3D4241",
"x	c #363C3D",
"                ",
"    .++++++.    ",
"    +@@@@@@+    ",
"    +@####@+    ",
"    +@$$$$@+    ",
"  %++@&&&&@++%  ",
" *=-;;;;;;;;-=* ",
".=>,'''))!'',>=.",
"+@~{]^/(((_:{~@+",
"+@<[}}}}}}}}[<@+",
"+@|||||||||||1@+",
"+23455555555632+",
"7890abcdefghi987",
"jklmnopqrstuvlkw",
"  xxxxxxxxxxxx  ",
"                "};
