/* XPM */
static char * printer_stopped_xpm[] = {
"16 16 92 2",
"  	c None",
". 	c #8E8F8B",
"+ 	c #888A85",
"@ 	c #FFFFFF",
"# 	c #E7E8E5",
"$ 	c #ECEDEB",
"% 	c #8E908B",
"& 	c #F2F3F2",
"* 	c #B7B9B5",
"= 	c #F8F8F8",
"- 	c #606462",
"; 	c #454947",
"> 	c #F3F3F1",
", 	c #3C4140",
"' 	c #939796",
") 	c #8F9392",
"! 	c #8F908F",
"~ 	c #9B4B4B",
"{ 	c #A31212",
"] 	c #A30202",
"^ 	c #980808",
"/ 	c #CC7A79",
"( 	c #F6F4F4",
"_ 	c #E5E6E2",
": 	c #33383A",
"< 	c #727676",
"[ 	c #5A5F5F",
"} 	c #515656",
"| 	c #515353",
"1 	c #951010",
"2 	c #B31F1F",
"3 	c #D55151",
"4 	c #DE6A6A",
"5 	c #B82525",
"6 	c #B73232",
"7 	c #888782",
"8 	c #DDDFDA",
"9 	c #454B4C",
"0 	c #2E3436",
"a 	c #681A1B",
"b 	c #B21D1D",
"c 	c #E06A6A",
"d 	c #DB4E4E",
"e 	c #FAE8E8",
"f 	c #D22222",
"g 	c #D94545",
"h 	c #B92424",
"i 	c #964543",
"j 	c #D5D9D1",
"k 	c #AB1B1A",
"l 	c #D44E4E",
"m 	c #D63333",
"n 	c #FCF1F1",
"o 	c #A21110",
"p 	c #F5F6F5",
"q 	c #B2B4B0",
"r 	c #747875",
"s 	c #6C706D",
"t 	c #A30101",
"u 	c #DB5A5A",
"v 	c #D73B3B",
"w 	c #FCF2F2",
"x 	c #D84F4F",
"y 	c #4E514E",
"z 	c #4B4E4B",
"A 	c #5C615E",
"B 	c #EBECEB",
"C 	c #F5F5F4",
"D 	c #F4F4F2",
"E 	c #F2F3F1",
"F 	c #AF1E1E",
"G 	c #CD3030",
"H 	c #9B0909",
"I 	c #3D4242",
"J 	c #3B4040",
"K 	c #494D4D",
"L 	c #EFEFED",
"M 	c #EDEEEB",
"N 	c #EBECE9",
"O 	c #E9EAE8",
"P 	c #C67574",
"Q 	c #B41818",
"R 	c #FAECEC",
"S 	c #D22525",
"T 	c #AE1212",
"U 	c #7C1919",
"V 	c #363C3D",
"W 	c #373B3C",
"X 	c #900B0B",
"Y 	c #D74747",
"Z 	c #A60000",
"` 	c #A40000",
"                                ",
"        . + + + + + + .         ",
"        + @ @ @ @ @ @ +         ",
"        + @ # # # # @ +         ",
"        + @ $ $ $ $ @ +         ",
"    % + + @ & & & & @ + + %     ",
"  * = - ; ; ; ; ; ; ; ; - = *   ",
". = > , ' ' ' ) ! ~ { ] ^ / ( . ",
"+ @ _ : < [ } | 1 2 3 4 3 5 6 7 ",
"+ @ 8 9 0 0 0 a b c d e f g h i ",
"+ @ j j j j j k l d m n m f l o ",
"+ p q r s s s t u v m w m m x ] ",
"y z A B C D E F G d m m m f G H ",
"I J K L M N O P Q c d R S g T U ",
"    V V V V V W X T G Y G T Z   ",
"                    Z ` Z       "};
