/* XPM */
static char * printer_remote_stopped_xpm[] = {
"16 16 111 2",
"  	c None",
". 	c #8E8F8B",
"+ 	c #888A85",
"@ 	c #FFFFFF",
"# 	c #E7E8E5",
"$ 	c #8E908B",
"% 	c #ECEDEB",
"& 	c #B7B9B5",
"* 	c #F8F8F8",
"= 	c #606462",
"- 	c #454947",
"; 	c #F3F3F1",
"> 	c #3C4140",
", 	c #939796",
"' 	c #8F9392",
") 	c #939695",
"! 	c #E5E6E2",
"~ 	c #33383A",
"{ 	c #727676",
"] 	c #5A5F5F",
"^ 	c #515656",
"/ 	c #505555",
"( 	c #535858",
"_ 	c #575C5C",
": 	c #DDDFDA",
"< 	c #454B4C",
"[ 	c #2E3436",
"} 	c #333436",
"| 	c #7B2425",
"1 	c #9D0E0F",
"2 	c #A30202",
"3 	c #9E1718",
"4 	c #C4A4A1",
"5 	c #FEFDFD",
"6 	c #D5D9D1",
"7 	c #D4D7D0",
"8 	c #B16763",
"9 	c #B31F1F",
"0 	c #D55151",
"a 	c #DE6A6A",
"b 	c #B82525",
"c 	c #BC7A7A",
"d 	c #888984",
"e 	c #F5F6F5",
"f 	c #B2B4B0",
"g 	c #747875",
"h 	c #6C706D",
"i 	c #793736",
"j 	c #B21D1D",
"k 	c #E06A6A",
"l 	c #DB4E4E",
"m 	c #FAE8E8",
"n 	c #D22222",
"o 	c #D94545",
"p 	c #AE1212",
"q 	c #7E4340",
"r 	c #4E514E",
"s 	c #4B4E4B",
"t 	c #5C615E",
"u 	c #EBECEB",
"v 	c #F5F5F4",
"w 	c #F4F4F2",
"x 	c #F2F3F1",
"y 	c #AB1B1A",
"z 	c #D44E4E",
"A 	c #D63333",
"B 	c #FCF1F1",
"C 	c #A21110",
"D 	c #3D4242",
"E 	c #3B4040",
"F 	c #494D4D",
"G 	c #EFEFED",
"H 	c #EDEEEB",
"I 	c #EBECE9",
"J 	c #DFE0DE",
"K 	c #A30101",
"L 	c #DB5A5A",
"M 	c #D73B3B",
"N 	c #FCF2F2",
"O 	c #D84F4F",
"P 	c #363C3D",
"Q 	c #353B3C",
"R 	c #4C4E4D",
"S 	c #585A56",
"T 	c #AF1E1E",
"U 	c #CD3030",
"V 	c #9B0909",
"W 	c #464646",
"X 	c #474747",
"Y 	c #494949",
"Z 	c #5A5C58",
"` 	c #936767",
" .	c #FAECEC",
"..	c #D22525",
"+.	c #7A1C1C",
"@.	c #D9D9D9",
"#.	c #D5D5D5",
"$.	c #575955",
"%.	c #9F9F9F",
"&.	c #A1A09F",
"*.	c #A54B4A",
"=.	c #D74747",
"-.	c #B16767",
";.	c #515350",
">.	c #565854",
",.	c #585753",
"'.	c #853F3C",
").	c #A01817",
"!.	c #A10F0F",
"~.	c #8C2A2A",
"{.	c #4C4646",
"        . + + + + + + .         ",
"        + @ @ @ @ @ @ +         ",
"        + @ # # # # @ +         ",
"    $ + + @ % % % % @ + + $     ",
"  & * = - - - - - - - - = * &   ",
". * ; > , , , ' ' ) , , > ; * . ",
"+ @ ! ~ { ] ^ / / / ( _ ~ ! @ + ",
"+ @ : < [ [ [ [ } | 1 2 3 4 5 + ",
"+ @ 6 6 6 6 6 7 8 9 0 a 0 b c d ",
"+ e f g h h h i j k l m n o p q ",
"r s t u v w x y z l A B A n z C ",
"D E F G H I J K L M A N A A O 2 ",
"    P P Q R S T U l A A A n U V ",
"  W X X Y Z u ` p k l  ...o p +.",
"  @.@.@.#.$.%.&.*.p U =.U p -.  ",
"  W X X X ;.>.>.,.'.).2 !.~.{.  "};
