<svg version="1.1" viewBox="0 0 256 256" xmlns="http://www.w3.org/2000/svg" xmlns:xlink="http://www.w3.org/1999/xlink">
 <defs>
  <radialGradient id="c" cx="192.973" cy="140" r="120.973" gradientTransform="matrix(1.05808 -6.65236e-6 6.67747e-6 1.05808 -76.1827 -20.1304)" gradientUnits="userSpaceOnUse">
   <stop stop-color="#b3c9ec" offset="0"/>
   <stop stop-color="#f2f6fc" offset="1"/>
  </radialGradient>
  <filter id="f" x="-.0338974" y="-.0819911" width="1.06779" height="1.16398" color-interpolation-filters="sRGB">
   <feGaussianBlur stdDeviation="0.63750234"/>
  </filter>
  <radialGradient id="d" cx="128.044" cy="155.945" r="24.0982" gradientTransform="matrix(.717326 -8.18028e-7 2.70362e-7 .218409 36.1945 123.926)" gradientUnits="userSpaceOnUse">
   <stop stop-color="#666666" offset="0"/>
   <stop stop-color="#595959" offset="1"/>
  </radialGradient>
  <linearGradient id="e" x1="128" x2="128" y1="154" y2="179" gradientUnits="userSpaceOnUse">
   <stop stop-color="#000000" offset="0"/>
   <stop stop-color="#4d4d4d" offset="1"/>
  </linearGradient>
 </defs>
 <filter id="a" x="-6.10233e-5" y="-.000238723" width="1.00012" height="1.00048" color-interpolation-filters="sRGB">
  <feGaussianBlur stdDeviation="0.001094148"/>
 </filter>
 <radialGradient id="b" cx="-37.1669" cy="23.2967" r="19.3" gradientTransform="matrix(6.63212 0 0 6.63208 374.495 -26.5065)" gradientUnits="userSpaceOnUse">
  <stop stop-color="#598bd4" offset="0"/>
  <stop stop-color="#9ab8e5" offset=".567"/>
  <stop stop-color="#ffffff" offset="1"/>
 </radialGradient>
 <path d="m28.7141 204.037-16.2095-28.0749c-10.5695-18.3063 18.2557-16.4667 18.2383-47.9627-0.017089-31.5552-28.7841-29.6107-18.2372-47.9621l16.2095-28.0749c10.5678-18.3038 23.4086 7.56707 50.6563-8.18768 27.2693-15.7674 11.2759-39.7746 32.4193-39.7746h32.419c21.1447 0 5.15871 24.0439 32.424 39.7776 27.2943 15.7505 40.0799-10.1243 50.6508 8.18444l16.2095 28.0749c10.562 18.2937-18.2333 16.4786-18.2373 47.9622-2e-3 31.4908 28.8054 29.6584 18.2373 47.9621l-16.2095 28.0749c-10.5669 18.3021-23.4273-7.57106-50.6563 8.18767-27.3438 15.8256-11.2884 39.7788-32.4184 39.7762l-32.4192-3e-3c-21.1155-3e-3 -5.1365-24.0484-32.4195-39.7729-20.3103-11.7057-41.6496 7.41439-50.6573-8.18727z" fill="url(#c)" fill-rule="evenodd"/>
 <path d="m236.252 67.4927c-4.41589 11.5117-13.9554 24.9292-28.0158 31.5549-29.8311 14.0575-48.1044 10.2726-66.9242 17.3442-17.8883 6.72157-29.7201 15.5094-46.584 40.0065-10.6007 15.399-31.1152 14.4172-41.7623 19.6753-9.87797 4.87826-20.0906 17.932-24.2512 27.9632 11.8685 20.5564 19.2025-9.95721 49.4445 7.503 30.242 17.4602 1.90556 40.4602 49.8414 40.4602 47.9358 0 19.6396-23.0395 48.6989-39.8169s37.9642 13.715 58.5746-21.9833c20.6104-35.6982-10.0164-32.8369-10.0164-62.1998 0-29.363 30.743-26.3023 10.9947-60.5073z" fill="url(#b)"/>
 <path d="m98 122c-1.51 4.47-5.62 14.7-13.5 24-4.94 5.81-8.65 12.2-7.5 20.5 1 7.2 1.66 17.3 7.5 19-0.61 3.26 0.866 3.63-2 6-6.99-2.72-8.63-15.3-9.5-25-0.76-8.43 1.21-17.2 8.5-25 14.1-15.1 16-28.1 11.5-41.5-1.49-4.42-0.84-4.12-13.5-3.5s-19.6-9.19-22.5-17.5c-3.15-1.74-10.2 0.296-15 1.5 4.12-7.04 25-10.5 36-10.5s19.6 3.36 20.5 14c1.54 18 2.53 29.1-0.5 38z" fill="#333333"/>
 <path d="m158 122c1.51 4.47 5.62 14.7 13.5 24 4.94 5.81 8.65 12.2 7.5 20.5-1 7.2-1.66 17.3-7.5 19 0.608 3.26-0.87 3.63 2 6 6.99-2.72 8.63-15.3 9.5-25 0.761-8.43-1.21-17.2-8.5-25-14.1-15.1-16-28.1-11.5-41.5 1.49-4.42 0.842-4.12 13.5-3.5s19.6-9.19 22.5-17.5c3.15-1.74 10.2 0.296 15 1.5-4.12-7.04-25-10.5-36-10.5s-19.6 3.36-20.5 14c-1.54 18-2.53 29.1 0.5 38z" fill="#333333"/>
 <path d="m128 46-3 24 3 19 3-19z" fill="#333333"/>
 <path d="m163 85.3a8.38 14.3 82.9 0 0 15.2 6.56 8.38 14.3 82.9 0 0 13.2-10.1 8.38 14.3 82.9 0 0-15.2-6.56 8.38 14.3 82.9 0 0-13.2 10.1z" fill="#ffffff"/>
 <path d="m183 80.2a7.5 5.75 0 0 1-7.5 5.75 7.5 5.75 0 0 1-7.5-5.75 7.5 5.75 0 0 1 7.5-5.75 7.5 5.75 0 0 1 7.5 5.75z" fill="#550000"/>
 <path d="m92.9 85.3a14.3 8.38 7.13 0 1-15.2 6.56 14.3 8.38 7.13 0 1-13.2-10.1 14.3 8.38 7.13 0 1 15.2-6.56 14.3 8.38 7.13 0 1 13.2 10.1z" fill="#ffffff"/>
 <path d="m88 80.2a7.5 5.75 0 0 1-7.5 5.75 7.5 5.75 0 0 1-7.5-5.75 7.5 5.75 0 0 1 7.5-5.75 7.5 5.75 0 0 1 7.5 5.75z" fill="#550000"/>
 <path d="m175 79a2.25 2.25 0 0 1-2.25 2.25 2.25 2.25 0 0 1-2.25-2.25 2.25 2.25 0 0 1 2.25-2.25 2.25 2.25 0 0 1 2.25 2.25z" fill="#ffffff"/>
 <path d="m79.8 79a2.25 2.25 0 0 1-2.25 2.25 2.25 2.25 0 0 1-2.25-2.25 2.25 2.25 0 0 1 2.25-2.25 2.25 2.25 0 0 1 2.25 2.25z" fill="#ffffff"/>
 <path d="m110 164c11 7.34 12.9 11.5 16 15.5l0.5 9c-3.75 1.22-32.5 6-30 8.5 8.75-1.88 22-3.5 31.5-3.5s22.8 1.62 31.5 3.5c2.5-2.5-26.2-7.28-30-8.5l0.5-9c3.12-3.96 5.02-8.16 16-15.5 8.51-5.69 6.5497-14.6231-2-14.5-8.54036 0.12293-7.70281 3.5-16 3.5s-7.46-3.35-16-3.5-10.5 8.81-2 14.5z" fill="url(#e)"/>
 <path transform="matrix(1.04129 0 0 1.04498 -5.3305 -7.59239)" d="m112.678 150.33c-7.20261 0-7.20261 4.78478-7.20261 6.69869 0 3.47515 3.57797 6.69868 9.12331 6.69868 0.92971-2e-3 0.92945-0.95537 0-0.95695-5.01849 0-6.93619-2.98072-7.20261-5.74173-0.19575-2.02862 0.43073-4.78478 5.28062-4.78478 2.75103-1e-5 4.24267 2.05337 6.24356 3.34935 9.60348 6.2202 3.36121 13.3974 9.1233 13.3974s-0.48017-7.17717 9.12331-13.3974c2.0009-1.29599 3.49124-3.34936 6.24226-3.34935 4.84857 0 5.47803 2.75238 5.28192 4.78478-0.26642 2.76101-2.18411 5.74173-7.20261 5.74173-0.92885 2e-3 -0.9291 0.9554 0 0.95695 5.54534 0 9.1233-3.82782 9.1233-6.69868 0-1.91391 0-6.69869-7.20261-6.69869-3.84139 0-5.17036 0.69203-7.37996 1.52514-2.20961 0.83311-4.48904 1.63086-7.98633 1.63086s-5.77673-0.79775-7.98633-1.63086-4.0173-1.52514-7.37852-1.52514z" fill="url(#d)" filter="url(#f)" stop-color="#000000"/>
 <path d="m52.9623 208.754c-7.01434 4.06005-20.1959 2.30153-24.2483-4.71731l-16.2095-28.0749c-4.05238-7.01867 1.02444-19.2975 8.03878-23.3576 7.0145-4.06005 10.2066-11.6798 10.1995-24.6052-7e-3 -12.9254-3.1795-20.5523-10.1984-24.6045-7.01889-4.05226-12.0772-16.3308-8.03878-23.3576l16.2095-28.0749c4.05237-7.01884 17.2294-8.76958 24.2483-4.71732 7.0192 4.0521 15.2611 2.97485 26.408-3.47036 11.1468-6.4452 16.2114-13.0548 16.2097-21.1594-2e-3 -8.10436 8.10492-18.6151 16.2097-18.6151h32.419c8.10476 0 16.2076 10.5108 16.2095 18.6151 2e-3 8.10468 5.04862 14.7191 16.2145 21.1625 11.1659 6.44342 19.3843 7.52083 26.4025 3.46728 7.01807-4.05372 20.1959-2.30152 24.2483 4.71716l16.2095 28.0749c4.05238 7.01883-1.0212 19.304-8.03878 23.3577-7.01807 4.05356-10.1969 11.7483-10.1986 24.6045-1e-3 12.8562 3.17692 20.5568 10.1986 24.6045 7.02163 4.04756 12.0912 16.3389 8.03878 23.3576l-16.2095 28.0749c-4.05238 7.01884-17.2267 8.76504-24.2483 4.71732-7.02163-4.04756-15.2509-2.98684-26.408 3.47035-11.1572 6.45736-16.2121 12.9938-16.209 21.0983 3e-3 8.10453-8.10475 18.6788-16.2094 18.6778l-32.4192-3e-3c-8.10459-9.7e-4 -16.2063-10.5702-16.2095-18.6746-3e-3 -8.10452-5.07049-14.6781-16.21-21.0983-11.1393-6.42008-19.3945-7.52975-26.409-3.46971z" fill="none" stroke="#2e4f72" stroke-linecap="round" stroke-linejoin="round" stroke-miterlimit="8" stroke-width="8"/>
</svg>
