<?xml version="1.0" encoding="UTF-8" standalone="no"?>
<svg
   xmlns:dc="http://purl.org/dc/elements/1.1/"
   xmlns:cc="http://creativecommons.org/ns#"
   xmlns:rdf="http://www.w3.org/1999/02/22-rdf-syntax-ns#"
   xmlns:svg="http://www.w3.org/2000/svg"
   xmlns="http://www.w3.org/2000/svg"
   xmlns:sodipodi="http://sodipodi.sourceforge.net/DTD/sodipodi-0.dtd"
   xmlns:inkscape="http://www.inkscape.org/namespaces/inkscape"
   width="16"
   height="16"
   fill="currentColor"
   class="bi bi-reply-all"
   viewBox="0 0 16 16"
   version="1.1"
   id="svg6"
   sodipodi:docname="ttemplateloader.svg"
   inkscape:export-filename="/home/michael/Documents/ttemplateloader_200.png"
   inkscape:export-xdpi="288"
   inkscape:export-ydpi="288"
   inkscape:version="0.92.5 (2060ec1f9f, 2020-04-08)">
  <metadata
     id="metadata12">
    <rdf:RDF>
      <cc:Work
         rdf:about="">
        <dc:format>image/svg+xml</dc:format>
        <dc:type
           rdf:resource="http://purl.org/dc/dcmitype/StillImage" />
      </cc:Work>
    </rdf:RDF>
  </metadata>
  <defs
     id="defs10" />
  <sodipodi:namedview
     pagecolor="#ffffff"
     bordercolor="#666666"
     borderopacity="1"
     objecttolerance="10"
     gridtolerance="10"
     guidetolerance="10"
     inkscape:pageopacity="0"
     inkscape:pageshadow="2"
     inkscape:window-width="1367"
     inkscape:window-height="797"
     id="namedview8"
     showgrid="false"
     inkscape:zoom="14.75"
     inkscape:cx="0.88135593"
     inkscape:cy="8"
     inkscape:window-x="2225"
     inkscape:window-y="82"
     inkscape:window-maximized="0"
     inkscape:current-layer="svg6" />
  <path
     d="m 12.030217,8.0798096 a 0.144,0.144 0 0 0 -0.134,-0.202 h -1.153 a 0.5,0.5 0 0 1 -0.5,-0.4999997 c 0,-0.667 -0.005,-2.013 -0.8220003,-3.3 -0.624,-0.984 -1.76,-1.99 -3.876,-2.595 0.983,1.02 1.516,2.185 1.799,3.205 a 8.74,8.74 0 0 1 0.306,1.921 7.404,7.404 0 0 1 -0.008,0.798 v 0.013 l -10e-4,0.005 v 0.001 l -0.498,-0.048 0.498,0.05 a 0.5,0.5 0 0 1 -0.498,0.4499997 h -1.153 c -0.108,0 -0.176,0.11 -0.134,0.202 l 2.933,3.9840004 a 0.502,0.502 0 0 1 0.028,0.042 0.147,0.147 0 0 0 0.252,0 0.497,0.497 0 0 1 0.028,-0.042 z M 6.6572167,6.8778099 c 0,-0.068 -0.003,-0.143 -0.006,-0.223 -0.02,-0.434 -0.086,-1.034 -0.271,-1.7 -0.368,-1.326 -1.202,-2.896 -3.08,-3.94 a 0.5,0.5 0 0 1 0.305,-0.93299996 c 3.71,0.464 5.662,1.88599996 6.6600003,3.45999996 0.79,1.245 0.942,2.527 0.971,3.336 h 0.66 a 1.144,1.144 0 0 1 0.96,1.7669997 L 9.9162167,12.63881 a 1.147,1.147 0 0 1 -1.946,0 l -2.94,-3.9940004 a 1.144,1.144 0 0 1 0.96,-1.7669997 z"
     id="path2"
     inkscape:connector-curvature="0" />
  <path
     d="m 12.766035,10.556506 a 0.5,0.5 0 0 1 0.106,0.7 l -2.9399993,3.992 a 1.147,1.147 0 0 1 -1.946,0 l -2.9399996,-3.994 a 0.5,0.5 0 1 1 0.8049996,-0.593 l 2.954,4.013 a 0.503,0.503 0 0 1 0.028,0.042 0.147,0.147 0 0 0 0.252,0 0.5,0.5 0 0 1 0.028,-0.042 l 2.9539993,-4.012 a 0.5,0.5 0 0 1 0.699,-0.106 z"
     id="path4"
     inkscape:connector-curvature="0" />
</svg>
