<?xml version="1.0" encoding="UTF-8"?>
<!DOCTYPE svg PUBLIC "-//W3C//DTD SVG 1.1//EN" "http://www.w3.org/Graphics/SVG/1.1/DTD/svg11.dtd">
<!-- Creator: CorelDRAW -->
<svg xmlns="http://www.w3.org/2000/svg" xml:space="preserve" width="79.7056mm" height="79.7056mm" version="1.1" style="shape-rendering:geometricPrecision; text-rendering:geometricPrecision; image-rendering:optimizeQuality; fill-rule:evenodd; clip-rule:evenodd"
viewBox="0 0 6795.2 6795.2"
 xmlns:xlink="http://www.w3.org/1999/xlink"
 xmlns:xodm="http://www.corel.com/coreldraw/odm/2003">
 <defs>
  <style type="text/css">
   <![CDATA[
    .str1 {stroke:#1F1B20;stroke-width:6.5;stroke-miterlimit:22.9256}
    .str0 {stroke:#434242;stroke-width:6.5;stroke-miterlimit:22.9256}
    .fil0 {fill:none}
    .fil6 {fill:none;fill-rule:nonzero}
    .fil1 {fill:#FEFEFE}
    .fil2 {fill:#1F1B20}
    .fil3 {fill:#008DD2}
    .fil5 {fill:#E31E24;fill-rule:nonzero}
    .fil4 {fill:#1F1B20;fill-rule:nonzero}
   ]]>
  </style>
 </defs>
 <g id="Layer_x0020_1">
  <metadata id="CorelCorpID_0Corel-Layer"/>
  <g id="_1672903236464">
   <g>
    <polygon class="fil0 str0" points="3.25,3.25 6791.95,3.25 6791.95,6791.95 3.25,6791.95 "/>
    <polygon id="_1" class="fil1" points="3.25,3.25 6791.95,3.25 6791.95,6791.95 3.25,6791.95 "/>
   </g>
   <rect class="fil2" x="200.21" y="3.25" width="6447.16" height="6768.31"/>
   <rect class="fil3" x="787.6" y="630.87" width="5299.39" height="5519.46"/>
   <path class="fil4" d="M981.71 2384.78c82.26,-2.17 149.26,-23.96 201.01,-66.46 51.75,-41.94 86.61,-99.69 103.5,-172.68 16.89,-73.54 26.15,-198.83 27.24,-376.41 0.55,-177.58 3.27,-294.7 8.17,-351.36 9.8,-89.34 27.24,-160.69 53.39,-215.16 25.6,-53.93 57.74,-97.51 95.88,-130.19 38.13,-32.14 87.15,-57.21 146.53,-74.09 40.31,-10.35 105.67,-15.8 197.19,-15.8l88.79 0 0 251.67 -49.03 0c-109.49,0 -181.94,20.15 -217.89,59.92 -35.41,39.76 -53.39,128.55 -53.39,266.92 0,278.36 -5.99,454.31 -17.97,527.85 -19.07,113.85 -52.29,201.55 -98.6,263.1 -46.85,61.56 -119.84,116.58 -220.07,163.97 118.2,49.03 203.73,123.65 257.12,223.88 52.83,100.23 79.52,264.74 79.52,492.99 0,207 1.09,330.1 3.27,369.33 8.71,72.45 29.96,122.57 64.27,151.44 34.87,28.87 102.42,43.04 203.19,43.04l49.58 0 0 251.67 -89.34 0c-104.04,0 -179.77,-8.72 -226.61,-25.61 -67.55,-24.51 -124.2,-63.73 -168.86,-118.75 -44.67,-54.47 -73.54,-123.65 -86.62,-207.54 -13.62,-83.89 -20.7,-221.71 -21.78,-412.91 -1.09,-191.2 -10.35,-323.57 -27.24,-396.57 -16.89,-73.54 -50.67,-131.28 -101.87,-173.77 -51.75,-42.49 -117.66,-64.82 -199.37,-67l0 -261.47z"/>
   <path class="fil4" d="M5843.85 2384.78c-82.26,-2.17 -149.26,-23.96 -201.01,-66.46 -51.75,-41.94 -86.61,-99.69 -103.5,-172.68 -16.89,-73.54 -26.15,-198.83 -27.24,-376.41 -0.55,-177.58 -3.27,-294.7 -8.17,-351.36 -9.8,-89.34 -27.24,-160.69 -53.39,-215.16 -25.6,-53.93 -57.74,-97.51 -95.88,-130.19 -38.13,-32.14 -87.15,-57.21 -146.53,-74.09 -40.31,-10.35 -105.67,-15.8 -197.19,-15.8l-88.79 0 0 251.67 49.03 0c109.49,0 181.94,20.15 217.89,59.92 35.41,39.76 53.39,128.55 53.39,266.92 0,278.36 5.99,454.31 17.97,527.85 19.07,113.85 52.29,201.55 98.6,263.1 46.85,61.56 119.84,116.58 220.07,163.97 -118.2,49.03 -203.73,123.65 -257.12,223.88 -52.83,100.23 -79.52,264.74 -79.52,492.99 0,207 -1.09,330.1 -3.27,369.33 -8.71,72.45 -29.96,122.57 -64.27,151.44 -34.87,28.87 -102.42,43.04 -203.19,43.04l-49.58 0 0 251.67 89.34 0c104.04,0 179.77,-8.72 226.61,-25.61 67.55,-24.51 124.2,-63.73 168.86,-118.75 44.67,-54.47 73.54,-123.65 86.62,-207.54 13.62,-83.89 20.7,-221.71 21.78,-412.91 1.09,-191.2 10.35,-323.57 27.24,-396.57 16.89,-73.54 50.67,-131.28 101.87,-173.77 51.75,-42.49 117.66,-64.82 199.37,-67l0 -261.47z"/>
   <path class="fil5" d="M1634.07 4558.13l254.82 0 0 797.27c0,104.27 -9.08,184.53 -27.53,240.77 -24.6,73.22 -69.12,132.1 -133.86,176.62 -64.44,44.23 -149.67,66.49 -255.7,66.49 -124.19,0 -219.67,-34.56 -286.45,-103.98 -67.08,-69.41 -100.76,-171.34 -101.35,-305.49l240.77 -28.12c2.93,71.76 13.18,122.43 31.34,152.02 27.24,45.1 68.54,67.66 124.19,67.66 55.94,0 95.78,-16.11 118.92,-48.62 23.14,-32.23 34.85,-99.3 34.85,-201.22l0 -813.38z"/>
   <path id="_1_0" class="fil5" d="M2093.05 5408.7l247.79 -24.6c14.94,82.89 44.82,143.52 90.22,182.48 45.4,38.96 106.61,58.29 183.65,58.29 81.43,0 142.94,-17.28 184.23,-51.84 41.3,-34.56 62.1,-74.98 62.1,-121.26 0,-29.88 -8.79,-55.07 -26.07,-76.16 -17.28,-20.79 -47.74,-38.95 -91.09,-54.19 -29.58,-10.55 -96.95,-28.7 -202.39,-55.07 -135.61,-33.97 -230.81,-75.57 -285.57,-125.07 -77.04,-69.41 -115.41,-154.06 -115.41,-253.95 0,-64.14 18.17,-124.48 54.19,-180.42 36.33,-55.94 88.46,-98.42 156.7,-127.7 68.25,-29.29 150.26,-43.94 246.91,-43.94 157.28,0 275.92,34.86 355.29,104.86 79.67,70 121.26,163.14 125.37,280.01l-254.82 8.79c-10.84,-65.02 -33.98,-111.6 -69.42,-140 -35.44,-28.42 -88.75,-42.76 -159.63,-42.76 -73.22,0 -130.63,15.23 -171.93,45.69 -26.65,19.63 -40.13,45.7 -40.13,78.5 0,29.87 12.6,55.36 37.78,76.45 31.93,27.24 109.55,55.36 232.85,84.64 123.31,29 214.4,59.46 273.28,90.51 59.17,31.34 105.44,73.8 138.84,127.99 33.39,54.19 50.09,120.97 50.09,200.35 0,72.05 -19.92,139.71 -60.04,202.68 -40.13,62.98 -96.66,109.84 -169.89,140.3 -73.22,30.75 -164.61,45.99 -273.86,45.99 -159.04,0 -281.18,-36.62 -366.42,-110.13 -85.23,-73.22 -135.9,-180.13 -152.6,-320.43z"/>
   <path id="_2" class="fil5" d="M3279.29 5194.89c0,-128.29 19.33,-236.08 57.7,-323.36 28.42,-64.14 67.66,-121.84 117.16,-172.81 49.5,-50.96 103.69,-88.75 162.55,-113.64 78.5,-33.1 169.01,-49.8 271.52,-49.8 185.7,0 333.9,57.7 445.5,172.81 111.3,115.41 166.95,275.62 166.95,480.94 0,203.57 -55.36,362.9 -165.78,477.72 -110.43,115.11 -258.34,172.52 -443.16,172.52 -187.17,0 -336.25,-57.12 -446.68,-171.64 -110.42,-114.23 -165.78,-271.81 -165.78,-472.74zm261.85 -8.49c0,142.64 33.1,250.72 99.01,324.54 65.9,73.51 149.67,110.42 251.01,110.42 101.64,0 184.82,-36.62 250.13,-109.54 65.02,-73.22 97.54,-182.78 97.54,-328.93 0,-144.4 -31.64,-252.19 -95.19,-323.07 -63.27,-71.18 -147.33,-106.62 -252.48,-106.62 -104.86,0 -189.51,36.03 -253.66,107.79 -64.14,72.06 -96.36,180.43 -96.36,325.41z"/>
   <polygon id="_3" class="fil5" points="4698.96,5816.42 4698.96,4558.13 4945.59,4558.13 5463.43,5401.38 5463.43,4558.13 5698.92,4558.13 5698.92,5816.42 5444.39,5816.42 4934.45,4989.27 4934.45,5816.42 "/>
   <g>
    <polygon class="fil6 str1" points="1904.17,2211.84 2498.74,2211.84 2498.74,2819.2 1904.17,2819.2 "/>
    <polygon id="_1_1" class="fil2" points="1904.17,2211.84 2498.74,2211.84 2498.74,2819.2 1904.17,2819.2 "/>
   </g>
   <g>
    <polygon class="fil6 str1" points="2855.72,2211.84 3927.21,2211.84 3927.21,2819.2 2855.72,2819.2 "/>
    <polygon id="_1_2" class="fil2" points="2855.72,2211.84 3927.21,2211.84 3927.21,2819.2 2855.72,2819.2 "/>
   </g>
   <g>
    <polygon class="fil6 str1" points="4283.86,2211.84 4878.43,2211.84 4878.43,2819.2 4283.86,2819.2 "/>
    <polygon id="_1_3" class="fil2" points="4283.86,2211.84 4878.43,2211.84 4878.43,2819.2 4283.86,2819.2 "/>
   </g>
  </g>
 </g>
</svg>
