<?xml version="1.0" encoding="UTF-8"?>
<!DOCTYPE svg PUBLIC "-//W3C//DTD SVG 1.1//EN" "http://www.w3.org/Graphics/SVG/1.1/DTD/svg11.dtd">
<!-- Creator: CorelDRAW -->
<svg xmlns="http://www.w3.org/2000/svg" xml:space="preserve" width="79.7056mm" height="79.7056mm" version="1.1" style="shape-rendering:geometricPrecision; text-rendering:geometricPrecision; image-rendering:optimizeQuality; fill-rule:evenodd; clip-rule:evenodd"
viewBox="0 0 6795.2 6795.2"
 xmlns:xlink="http://www.w3.org/1999/xlink"
 xmlns:xodm="http://www.corel.com/coreldraw/odm/2003">
 <defs>
  <style type="text/css">
   <![CDATA[
    .str0 {stroke:#434242;stroke-width:6.5;stroke-miterlimit:22.9256}
    .fil0 {fill:none}
    .fil1 {fill:#FEFEFE}
    .fil7 {fill:#E31E24}
    .fil2 {fill:#1F1B20}
    .fil3 {fill:#008DD2}
    .fil5 {fill:#E31E24;fill-rule:nonzero}
    .fil6 {fill:#1F1B20;fill-rule:nonzero}
    .fil4 {fill:#1F1B20;fill-rule:nonzero}
   ]]>
  </style>
 </defs>
 <g id="Layer_x0020_1">
  <metadata id="CorelCorpID_0Corel-Layer"/>
  <g id="_1673622301328">
   <g>
    <polygon class="fil0 str0" points="3.25,3.25 6791.95,3.25 6791.95,6791.95 3.25,6791.95 "/>
    <polygon id="_1" class="fil1" points="3.25,3.25 6791.95,3.25 6791.95,6791.95 3.25,6791.95 "/>
   </g>
   <rect class="fil2" x="200.21" y="3.25" width="6447.16" height="6768.31"/>
   <rect class="fil3" x="787.6" y="630.87" width="5299.39" height="5519.46"/>
   <path class="fil4" d="M981.71 2384.78c82.26,-2.17 149.26,-23.96 201.01,-66.46 51.75,-41.94 86.61,-99.69 103.5,-172.68 16.89,-73.54 26.15,-198.83 27.24,-376.41 0.55,-177.58 3.27,-294.7 8.17,-351.36 9.8,-89.34 27.24,-160.69 53.39,-215.16 25.6,-53.93 57.74,-97.51 95.88,-130.19 38.13,-32.14 87.15,-57.21 146.53,-74.09 40.31,-10.35 105.67,-15.8 197.19,-15.8l88.79 0 0 251.67 -49.03 0c-109.49,0 -181.94,20.15 -217.89,59.92 -35.41,39.76 -53.39,128.55 -53.39,266.92 0,278.36 -5.99,454.31 -17.97,527.85 -19.07,113.85 -52.29,201.55 -98.6,263.1 -46.85,61.56 -119.84,116.58 -220.07,163.97 118.2,49.03 203.73,123.65 257.12,223.88 52.83,100.23 79.52,264.74 79.52,492.99 0,207 1.09,330.1 3.27,369.33 8.71,72.45 29.96,122.57 64.27,151.44 34.87,28.87 102.42,43.04 203.19,43.04l49.58 0 0 251.67 -89.34 0c-104.04,0 -179.77,-8.72 -226.61,-25.61 -67.55,-24.51 -124.2,-63.73 -168.86,-118.75 -44.67,-54.47 -73.54,-123.65 -86.62,-207.54 -13.62,-83.89 -20.7,-221.71 -21.78,-412.91 -1.09,-191.2 -10.35,-323.57 -27.24,-396.57 -16.89,-73.54 -50.67,-131.28 -101.87,-173.77 -51.75,-42.49 -117.66,-64.82 -199.37,-67l0 -261.47z"/>
   <path class="fil4" d="M3319.61 2384.78c-82.26,-2.17 -149.26,-23.96 -201.01,-66.46 -51.75,-41.94 -86.61,-99.69 -103.5,-172.68 -16.89,-73.54 -26.15,-198.83 -27.24,-376.41 -0.55,-177.58 -3.27,-294.7 -8.17,-351.36 -9.8,-89.34 -27.24,-160.69 -53.39,-215.16 -25.6,-53.93 -57.74,-97.51 -95.88,-130.19 -38.13,-32.14 -87.15,-57.21 -146.53,-74.09 -40.31,-10.35 -105.67,-15.8 -197.19,-15.8l-88.79 0 0 251.67 49.03 0c109.49,0 181.94,20.15 217.89,59.92 35.41,39.76 53.39,128.55 53.39,266.92 0,278.36 5.99,454.31 17.97,527.85 19.07,113.85 52.29,201.55 98.6,263.1 46.85,61.56 119.84,116.58 220.07,163.97 -118.2,49.03 -203.73,123.65 -257.12,223.88 -52.83,100.23 -79.52,264.74 -79.52,492.99 0,207 -1.09,330.1 -3.27,369.33 -8.71,72.45 -29.96,122.57 -64.27,151.44 -34.87,28.87 -102.42,43.04 -203.19,43.04l-49.58 0 0 251.67 89.34 0c104.04,0 179.77,-8.72 226.61,-25.61 67.55,-24.51 124.2,-63.73 168.86,-118.75 44.67,-54.47 73.54,-123.65 86.62,-207.54 13.62,-83.89 20.7,-221.71 21.78,-412.91 1.09,-191.2 10.35,-323.57 27.24,-396.57 16.89,-73.54 50.67,-131.28 101.87,-173.77 51.75,-42.49 117.66,-64.82 199.37,-67l0 -261.47z"/>
   <polygon class="fil5" points="787.62,5782.77 787.62,4601.47 1662.05,4601.47 1662.05,4801.1 1026.85,4801.1 1026.85,5063.43 1617.5,5063.43 1617.5,5263.06 1026.85,5263.06 1026.85,5583.14 1685.14,5583.14 1685.14,5782.77 "/>
   <polygon id="_1_0" class="fil5" points="1768.47,5782.77 2176.26,5166.82 1806.42,4601.47 2084.97,4601.47 2317.6,4953.17 2550.23,4601.47 2829.33,4601.47 2458.66,5167.09 2865.63,5782.77 2579.1,5782.77 2317.32,5382.67 2055.27,5782.77 "/>
   <polygon id="_2" class="fil5" points="3254.18,5782.77 3254.18,4801.1 2904.41,4801.1 2904.41,4601.47 3841.53,4601.47 3841.53,4801.1 3493.41,4801.1 3493.41,5782.77 "/>
   <polygon id="_3" class="fil5" points="3810.18,5782.77 3810.18,5556.74 4036.21,5556.74 4036.21,5782.77 "/>
   <path id="_4" class="fil5" d="M4695.88 4601.47l239.23 0 0 748.49c0,97.9 -8.53,173.24 -25.85,226.03 -23.1,68.74 -64.9,124.02 -125.66,165.81 -60.5,41.53 -140.52,62.42 -240.06,62.42 -116.58,0 -206.23,-32.45 -268.92,-97.62 -62.97,-65.18 -94.6,-160.87 -95.14,-286.8l226.03 -26.4c2.75,67.38 12.37,114.95 29.42,142.71 25.57,42.35 64.34,63.52 116.59,63.52 52.52,0 89.92,-15.12 111.64,-45.64 21.72,-30.25 32.72,-93.22 32.72,-188.91l0 -763.61z"/>
   <path id="_5" class="fil5" d="M5126.77 5400l232.63 -23.1c14.02,77.82 42.07,134.74 84.69,171.31 42.63,36.57 100.1,54.72 172.42,54.72 76.44,0 134.19,-16.22 172.95,-48.67 38.77,-32.45 58.3,-70.39 58.3,-113.84 0,-28.05 -8.24,-51.7 -24.47,-71.49 -16.22,-19.52 -44.83,-36.57 -85.52,-50.87 -27.78,-9.9 -91.02,-26.95 -190.01,-51.7 -127.31,-31.89 -216.68,-70.95 -268.1,-117.41 -72.32,-65.18 -108.35,-144.64 -108.35,-238.41 0,-60.21 17.05,-116.87 50.87,-169.38 34.1,-52.52 83.05,-92.39 147.11,-119.89 64.08,-27.49 141.07,-41.25 231.8,-41.25 147.67,0 259.03,32.72 333.56,98.44 74.79,65.72 113.84,153.16 117.68,262.88l-239.23 8.24c-10.17,-61.04 -31.89,-104.76 -65.17,-131.44 -33.27,-26.68 -83.32,-40.15 -149.86,-40.15 -68.75,0 -122.65,14.3 -161.41,42.9 -25.03,18.42 -37.67,42.89 -37.67,73.69 0,28.04 11.82,51.97 35.47,71.77 29.97,25.57 102.84,51.97 218.6,79.47 115.77,27.22 201.28,55.82 256.55,84.97 55.55,29.42 99,69.29 130.34,120.17 31.35,50.87 47.02,113.57 47.02,188.09 0,67.64 -18.7,131.16 -56.37,190.28 -37.67,59.12 -90.74,103.12 -159.48,131.72 -68.75,28.88 -154.54,43.17 -257.11,43.17 -149.3,0 -263.97,-34.37 -343.99,-103.4 -80.02,-68.74 -127.59,-169.11 -143.27,-300.83z"/>
   <path class="fil6" d="M4897.19 2415.69l312 0.08 -14.32 -603.72c-5.58,-234.93 -76.08,-385.91 -249.4,-554.17 -126.76,-123.06 -398.5,-237.17 -713.96,-248.59l-685.06 -26.65 0 385.16 676.33 -4.28c259.54,-1.63 648.14,162.89 657.22,470.4l17.19 581.77z"/>
   <polygon class="fil7" points="4325.28,2399.63 5787.86,2398.72 5128.92,4257.72 "/>
  </g>
 </g>
</svg>
