<?xml version="1.0" encoding="UTF-8"?>
<!DOCTYPE svg PUBLIC "-//W3C//DTD SVG 1.1//EN" "http://www.w3.org/Graphics/SVG/1.1/DTD/svg11.dtd">
<!-- Creator: CorelDRAW -->
<svg xmlns="http://www.w3.org/2000/svg" xml:space="preserve" width="79.7087mm" height="79.7626mm" version="1.1" style="shape-rendering:geometricPrecision; text-rendering:geometricPrecision; image-rendering:optimizeQuality; fill-rule:evenodd; clip-rule:evenodd"
viewBox="0 0 6757.87 6762.44"
 xmlns:xlink="http://www.w3.org/1999/xlink"
 xmlns:xodm="http://www.corel.com/coreldraw/odm/2003">
 <defs>
  <style type="text/css">
   <![CDATA[
    .str0 {stroke:#1F1B20;stroke-width:6.46;stroke-miterlimit:22.9256}
    .fil2 {fill:none;fill-rule:nonzero}
    .fil0 {fill:#FEFEFE}
    .fil6 {fill:#E31E24}
    .fil3 {fill:#1F1B20}
    .fil1 {fill:#008DD2}
    .fil4 {fill:#E31E24;fill-rule:nonzero}
    .fil5 {fill:#1F1B20;fill-rule:nonzero}
   ]]>
  </style>
 </defs>
 <g id="Layer_x0020_1">
  <metadata id="CorelCorpID_0Corel-Layer"/>
  <rect class="fil0" y="9.41" width="6751.14" height="6751.14"/>
  <path class="fil1" d="M254.72 2679.68c3.11,3.58 7.86,4.48 9.16,10.84 1.29,6.36 7.35,8.61 9.13,10.89 158.98,203.71 210.79,418.26 384.6,435.62 249.14,24.89 33.99,-9.1 219.68,80.4 42.26,20.36 37.27,7.82 76.27,43.76l73.05 87.12c81.65,79.7 105.79,70.8 188.37,51.57 68.03,291.98 -191.85,320.4 -43.99,523.16 137.3,188.3 85.46,152.94 133.11,227.95 93.96,147.94 210.11,-99.86 211.09,529.24 0.28,170.39 40.63,278.48 -99.48,202.89 -167.24,-90.22 -507.94,-343.61 -625.7,-478.11 -174.4,-199.18 -328.32,-411.12 -448.67,-651.63 -127,-253.83 -316.81,-826.72 -226.65,-1213.73 130.21,87.19 71.88,240.83 180.05,320.09 -7.1,-85.36 -32.91,-94.69 -40.02,-180.05zm5021.34 -188.08l0 322.1c-19.5,302.76 -94.7,605.19 -233.37,892.95 -78.09,162.06 -121.92,296.98 -232.64,427.53l-142.3 177.8c-225.29,290.27 -589.12,535.43 -918.72,701.71 -650.68,328.22 -1555.7,326.55 -2207.53,0.19 -438.85,-219.71 -784.36,-489.15 -1063,-897.53 -89.9,-131.76 -157.32,-257.86 -230.79,-409.38 -66.94,-138.1 -129.64,-337.36 -164.7,-495.47 -34.91,-157.42 -68.35,-395 -68.35,-571.82 0,-173.15 33.71,-439.52 71.87,-588.3 215.51,-840.14 695.33,-1456.03 1488.2,-1812.67 434.79,-195.58 544,-180.23 937.56,-222.8 299.3,-32.37 112.53,-6.82 303.47,2.7 1391.32,69.49 2380.41,1230.43 2460.29,2473zm-320.09 -392.07c-172.46,45.73 -120.06,-20.01 -220.05,-20.01 -88.81,0 -78.39,20.01 -180.05,20.01 2.14,-96.47 20.93,-141.7 60.01,-200.06l160.04 80.03c7.74,-92.91 -21.45,-34.99 40.01,-80.03l3.4 32.19c0.6,2.24 1.53,8.86 2.44,11.32 16.13,43.84 0.55,19.14 39.44,49.54 43.41,33.94 33.24,-9.24 94.76,107.01zm-680.18 -920.25c86.16,20.08 137.97,2.58 180.05,60.02 -114.77,30.65 -106.23,120.55 -180.05,260.07l-240.06 0c52.24,-78.01 160.03,-134.51 160.03,-260.07 0,-105.1 -62.92,-75.18 -16.19,-174 29.44,-62.22 76.5,-100.37 116.22,-146.09 0,141.88 -48.02,139.82 -20,260.07zm-3180.84 -420.1c71.62,37.9 44.9,35.91 120.03,20 0,126.29 49.87,220.06 -240.07,220.06 -29.25,0 -29.34,-24.67 -40.01,-40.02 58.47,-13.62 92.64,-34.94 140.03,-60.01 -19.48,-83.65 -37.66,-54.98 -40.01,-160.05 -65.57,43.91 -35.45,39.71 -120.03,20.02 128.05,-191.22 223.86,-148.32 360.09,-180.05l0 80.02c-95.24,0 -109.7,-5.01 -180.03,100.03zm400.1 -280.08l-39.01 23 39.01 -23zm2680.71 1760.47l60.02 -120.03c-72.13,-38.16 -151.54,-77.86 -160.04,-180.05 138.58,73.33 239.99,168.06 280.08,340.09l60.01 0c1.97,-87.92 13.54,-62.31 20.01,-140.04 125.11,33.41 62.19,95.93 125.55,154.54 37.47,34.65 168.28,45.52 234.55,45.52 -8.28,371.73 -322.74,137.02 -404.89,132.74 -57.16,-2.98 -80.65,50.75 -135.24,87.31l-220.06 -120.03 0 -140.03c-159.03,-13.24 -157.89,-37.06 -325.08,15.01 -113.65,35.39 -201.9,25.46 -270.65,109.45 -75.4,92.12 -44.1,168.36 -133.3,246.79 -59.05,51.92 -126.67,82.56 -148.83,251.29 -30.02,228.57 -35.48,435.74 141.79,593.65 137.64,122.61 371.24,-28.03 484.44,14.05l131.59 70.11c0,367.97 115.1,436.72 32.37,632.53 -72.12,170.67 -54.11,93.61 -34.28,289.51 11.56,114.3 18.93,219.63 41.92,318.3 -520.71,275.52 -1015.16,413.35 -1635.38,335.02 -150.48,-18.99 -425.83,-77.7 -545.2,-134.97 31.29,-134.34 154.44,-154.38 245.1,-235.03 170.24,-151.47 112.65,-147.24 146.94,-213.16 15.07,-28.97 46.31,-47.98 77.6,-62.44 202.64,-93.65 121.76,-91.79 182.27,-297.85 27.82,-94.73 205.66,-209.28 96.69,-339.65 -41.93,-50.17 -258.42,-120.1 -329.13,-151.57 -175.85,-78.25 -80.39,-232.4 -225.05,-275.08 -128.52,-37.91 -60.15,13.25 -171.92,-68.15 -164.71,-119.94 -401.95,-177.73 -522.64,2.5 -139.7,-93.56 -196.23,19.41 -200.98,-119.29 -4.81,-140.19 91.17,-140.79 -139.1,-140.79 5.28,-63.37 37.55,-153.24 60.02,-200.05 -96.47,8.03 -77.66,21.07 -134.38,65.67 -66.88,52.58 -56.49,34.35 -165.7,34.35 0,-202.04 -82.98,-419.59 341.71,-422.2 125.09,-0.77 118.41,44.67 118.41,162.13 127.71,-34.1 6.4,-132.18 98.4,-261.69 29.85,-42.02 54.43,-55.14 84.79,-95.27 29.33,-38.76 47.75,-83.39 76.52,-123.54 49.61,-69.23 112.37,-141.64 175.22,-204.88 99.53,-100.14 78.25,-114.84 265.26,-114.84 -16.99,-63.65 -19.97,-32.47 -48.27,-91.76l-51.76 -148.31c131.36,0 182.26,-27.91 260.08,-80.03 -20.46,87.82 -51.99,83.6 -60.02,180.05 106.11,0 118.14,0.92 200.05,20.01 -8.62,-103.57 -28.35,-102.12 -100.03,-140.03l0 -180.05c-157.74,-65.16 -51.55,80.37 -145.91,-194.18 -19.43,-56.53 -19.69,-34.44 -54.15,-85.9 -136.12,49.28 92.45,-55.79 -36.79,26.49 -123.3,78.47 -49.95,-171.42 -223.27,-126.51 -127.5,85.39 -82.66,139.61 -90.17,280.87 -0.79,14.82 -88.22,228.76 -129.89,259.28 -60.79,-126.71 43.37,-104.59 -125.37,-174.7 -108.72,-45.17 -95.25,-72.17 -174.71,-125.38 220.7,-329.59 165.96,-256.53 440.12,-440.12 0,-84.18 8.41,-80.81 -20,-140.03 -75.43,20.14 -92.68,51.62 -100.03,140.03 -117.97,-31.5 -100.03,-117.37 -100.03,-260.07 215.19,113.87 69.61,104.2 360.09,80.03 46.58,199.91 107.57,113.54 -40.95,259.01 -24.61,24.1 -40.2,52.9 -59.08,81.08 76.58,16.23 64.04,-6.1 122.15,17.69 80.76,33.06 31.37,42.33 157.93,42.33 37.09,-89.78 -108,-76.28 60.02,-80.02 -24.82,-92.95 -31.5,-17.69 -40.02,-120.03 12.92,3.01 106.45,66.71 144.29,-59.19 31.1,-103.47 -67.33,-27.83 -122.98,-79.82 -51.2,-47.83 -1.75,21.03 -15.34,-74.46 -0.45,-3.22 -2.2,-10.74 -2.63,-13.34 -9.39,-57.49 -40.85,-52.94 -175.19,-183.21 -2.88,-2.81 -7.72,-6.64 -10.59,-9.28 -69.01,-63.6 -60.28,26.17 -37.62,-80.83l-140.03 0c50.75,-35.27 99.03,-30.84 149.7,-50.35 50.81,-19.56 87.98,-65.13 114.03,-106.03 55.56,-87.22 5.75,-88.69 92.73,-128.28 56.84,-25.86 110.06,-26.78 163.67,-15.43l0 40.01c-72.29,6.02 -95.34,24.93 -160.05,40.02 13.72,58.86 20.01,61.05 20.01,140.03 100.58,0 175.73,-28.22 233.05,5.72 68.56,40.6 105.57,114.02 67.03,194.33 41.24,21.82 47.42,27.76 100.03,40.01 -54.15,34.36 -50.04,7.32 -100.03,60.02 17.56,65.75 29.02,65.88 80.03,100.03 -69.47,103.75 -67.68,121.54 -6.96,266.98 40.96,98.08 99.61,150.3 227.01,153.13 5.28,-63.4 38.19,-153.69 58.14,-201.93 70.67,-171.02 -13.4,24.33 203.71,-176.38 68.26,-63.09 187.48,-100.65 278.31,-121.81l13.29 -86.72c1.59,-4.58 4.36,-9.42 6.13,-13.87 1.75,-4.39 4.76,-9.11 6.6,-13.41 1.83,-4.31 4.82,-9.05 6.63,-13.37 38.28,-92.02 47.35,-352.35 47.35,-472.79 243.39,0 1012.03,328.57 1140.31,520.14 -76.24,104.05 -2.7,-46.55 -157.2,162.89 -21.8,29.54 -33.79,34.41 -57.19,62.83 -117.59,142.69 -19.45,125.26 -225.72,234.41 8.34,100.14 41.87,142.17 60.02,220.05l139.11 -42.8 20.94 222.85c-62.23,-45.6 -40.02,-53.47 -40.02,-160.04 -109.21,73.12 -40.01,74.46 -40.01,220.05 -155.05,0 -100.43,18.5 -191.89,88.19 -48.08,36.63 -133.74,97.33 -188.22,111.87 32.49,121.69 100.03,43.65 100.03,240.06 -299.88,0 -240.06,-80.59 -240.06,260.07 362.01,173.71 149.85,-179.82 580.15,-280.07 104.62,197.71 166.54,97.64 180.05,260.07z"/>
  <path class="fil1" d="M3015.46 919.22c0,45.51 39.45,90.29 76.52,104.58 50.55,19.5 152.62,-13.31 163.54,-144.59 -91.09,-21.22 -33.43,-13.78 -122.48,-4.1 -50.11,5.44 -117.58,-4.48 -117.58,44.11z"/>
  <path class="fil1" d="M4175.76 2239.57l-80.03 0c16.1,60.26 -0.25,43.92 60.02,60.02 15.15,-26.96 10.94,-22.11 20.01,-60.02z"/>
  <polygon class="fil1" points="294.74,2859.73 294.74,2879.73 318.08,2863.06 "/>
  <g>
   <polygon class="fil2 str0" points="14.66,4002.18 6751.14,4002.18 6751.14,6760.56 14.66,6760.56 "/>
   <polygon id="_1" class="fil3" points="14.66,4002.18 6751.14,4002.18 6751.14,6760.56 14.66,6760.56 "/>
  </g>
  <g>
   <polygon class="fil2 str0" points="428.51,4437.71 6320.49,4437.71 6320.49,6353.78 428.51,6353.78 "/>
   <polygon id="_1_0" class="fil0" points="428.51,4437.71 6320.49,4437.71 6320.49,6353.78 428.51,6353.78 "/>
  </g>
  <path class="fil4" d="M1013.09 4806.46l232.85 0 0 728.53c0,95.28 -8.3,168.61 -25.16,220 -22.48,66.92 -63.16,120.71 -122.32,161.39 -58.88,40.42 -136.76,60.75 -233.65,60.75 -113.48,0 -200.74,-31.58 -261.76,-95.02 -61.29,-63.43 -92.07,-156.57 -92.61,-279.15l220 -25.69c2.68,65.57 12.05,111.87 28.64,138.91 24.89,41.21 62.63,61.82 113.48,61.82 51.12,0 87.52,-14.72 108.67,-44.43 21.14,-29.44 31.85,-90.73 31.85,-183.88l0 -743.25z"/>
  <path id="_1_1" class="fil4" d="M1432.49 5583.7l226.44 -22.48c13.65,75.74 40.95,131.14 82.43,166.74 41.48,35.6 97.42,53.26 167.81,53.26 74.4,0 130.62,-15.79 168.35,-47.38 37.74,-31.58 56.74,-68.51 56.74,-110.8 0,-27.3 -8.03,-50.32 -23.82,-69.59 -15.79,-19 -43.63,-35.59 -83.24,-49.51 -27.03,-9.64 -88.59,-26.23 -184.94,-50.32 -123.92,-31.05 -210.9,-69.05 -260.95,-114.29 -70.39,-63.43 -105.45,-140.78 -105.45,-232.05 0,-58.61 16.59,-113.74 49.51,-164.87 33.18,-51.12 80.82,-89.93 143.19,-116.69 62.36,-26.77 137.3,-40.14 225.62,-40.14 143.73,0 252.12,31.84 324.66,95.81 72.8,63.97 110.81,149.08 114.56,255.87l-232.85 8.03c-9.9,-59.42 -31.05,-101.98 -63.43,-127.94 -32.39,-25.96 -81.09,-39.08 -145.87,-39.08 -66.91,0 -119.37,13.92 -157.11,41.76 -24.35,17.93 -36.67,41.76 -36.67,71.73 0,27.3 11.51,50.59 34.53,69.86 29.17,24.89 100.09,50.58 212.78,77.35 112.68,26.49 195.91,54.33 249.71,82.7 54.07,28.64 96.35,67.44 126.87,116.96 30.51,49.51 45.77,110.54 45.77,183.07 0,65.84 -18.19,127.66 -54.86,185.21 -36.67,57.54 -88.33,100.37 -155.24,128.2 -66.91,28.11 -150.42,42.02 -250.25,42.02 -145.33,0 -256.94,-33.46 -334.82,-100.63 -77.89,-66.92 -124.19,-164.6 -139.45,-292.81z"/>
  <polygon id="_2" class="fil4" points="2894.38,5956.27 3291.3,5356.74 2931.31,4806.46 3202.44,4806.46 3428.87,5148.78 3655.29,4806.46 3926.96,4806.46 3566.17,5357.01 3962.29,5956.27 3683.4,5956.27 3428.6,5566.85 3173.54,5956.27 "/>
  <polygon id="_3" class="fil4" points="4078.71,5956.27 4078.71,4806.46 4427.45,4806.46 4633.54,5590.66 4837.22,4806.46 5186.77,4806.46 5186.77,5956.27 4971.58,5956.27 4970.78,5051.09 4744.08,5956.27 4520.33,5956.27 4294.7,5051.09 4293.9,5956.27 "/>
  <polygon id="_4" class="fil4" points="5426.04,5956.27 5426.04,4816.1 5658.89,4816.1 5658.89,5761.96 6235.4,5761.96 6235.4,5956.27 "/>
  <path class="fil5" d="M5276.13 947.4l-0.08 -310.28 600.38 14.24c233.63,5.54 383.77,75.66 551.1,248.02 122.37,126.05 235.86,396.3 247.22,710.01l12.12 2392.79 -383.03 0 18.64 -2384.11c1.62,-258.1 -161.99,-644.56 -467.8,-653.58l-578.55 -17.09z"/>
  <polygon class="fil6" points="5275.15,1463.9 5276.06,9.41 3427.34,664.71 "/>
 </g>
</svg>
