<?xml version="1.0" encoding="UTF-8"?>
<!DOCTYPE svg PUBLIC "-//W3C//DTD SVG 1.1//EN" "http://www.w3.org/Graphics/SVG/1.1/DTD/svg11.dtd">
<!-- Creator: CorelDRAW -->
<svg xmlns="http://www.w3.org/2000/svg" xml:space="preserve" width="79.6889mm" height="79.7626mm" version="1.1" style="shape-rendering:geometricPrecision; text-rendering:geometricPrecision; image-rendering:optimizeQuality; fill-rule:evenodd; clip-rule:evenodd"
viewBox="0 0 6754.51 6760.76"
 xmlns:xlink="http://www.w3.org/1999/xlink"
 xmlns:xodm="http://www.corel.com/coreldraw/odm/2003">
 <defs>
  <style type="text/css">
   <![CDATA[
    .str0 {stroke:#1F1B20;stroke-width:6.46;stroke-miterlimit:22.9256}
    .fil3 {fill:none;fill-rule:nonzero}
    .fil0 {fill:#FEFEFE}
    .fil6 {fill:#E31E24}
    .fil4 {fill:#1F1B20}
    .fil2 {fill:#008DD2}
    .fil5 {fill:#E31E24;fill-rule:nonzero}
    .fil1 {fill:#1F1B20;fill-rule:nonzero}
   ]]>
  </style>
 </defs>
 <g id="Layer_x0020_1">
  <metadata id="CorelCorpID_0Corel-Layer"/>
  <g id="_1636520908080">
   <rect class="fil0" y="9.41" width="6749.47" height="6749.47"/>
   <path class="fil1" d="M5831.41 2150.39l310.2 0.08 -14.24 -600.24c-5.54,-233.58 -75.64,-383.68 -247.96,-550.96 -126.02,-122.34 -396.2,-235.8 -709.83,-247.15l-681.11 -26.5 0 382.93 672.43 -4.26c258.04,-1.62 644.4,161.95 653.42,467.69l17.09 578.41z"/>
   <path class="fil2" d="M254.66 2679.02c3.11,3.58 7.86,4.48 9.16,10.83 1.29,6.36 7.35,8.6 9.13,10.88 158.94,203.66 210.74,418.15 384.5,435.51 249.08,24.89 33.98,-9.09 219.62,80.38 42.25,20.36 37.26,7.81 76.25,43.75l73.03 87.1c81.63,79.68 105.76,70.78 188.32,51.56 68.01,291.91 -191.81,320.32 -43.98,523.03 137.26,188.25 85.44,152.9 133.07,227.89 93.94,147.91 210.05,-99.84 211.04,529.1 0.28,170.34 40.62,278.41 -99.46,202.84 -167.2,-90.19 -507.81,-343.53 -625.54,-477.99 -174.35,-199.13 -328.24,-411.01 -448.56,-651.46 -126.97,-253.77 -316.73,-826.51 -226.59,-1213.43 130.18,87.17 71.86,240.77 180.01,320.01 -7.1,-85.34 -32.9,-94.67 -40.01,-180.01zm5020.09 -188.03l0 322.02c-19.5,302.68 -94.68,605.04 -233.31,892.73 -78.07,162.02 -121.89,296.91 -232.58,427.42l-142.26 177.75c-225.24,290.2 -588.97,535.3 -918.5,701.53 -650.52,328.14 -1555.31,326.47 -2206.98,0.19 -438.74,-219.66 -784.17,-489.03 -1062.73,-897.31 -89.88,-131.73 -157.28,-257.8 -230.73,-409.28 -66.93,-138.07 -129.61,-337.28 -164.66,-495.35 -34.9,-157.38 -68.33,-394.9 -68.33,-571.68 0,-173.11 33.7,-439.41 71.85,-588.16 215.45,-839.93 695.16,-1455.67 1487.84,-1812.22 434.68,-195.53 543.86,-180.18 937.33,-222.74 299.22,-32.36 112.5,-6.82 303.39,2.7 1390.98,69.47 2379.82,1230.12 2459.68,2472.39zm-320.01 -391.97c-172.42,45.72 -120.03,-20 -220,-20 -88.79,0 -78.37,20 -180.01,20 2.14,-96.44 20.93,-141.67 59.99,-200.01l160 80.01c7.74,-92.89 -21.44,-34.98 40,-80.01l3.4 32.18c0.6,2.24 1.53,8.86 2.44,11.32 16.13,43.83 0.55,19.13 39.43,49.53 43.4,33.93 33.23,-9.24 94.74,106.99zm-680.01 -920.02c86.14,20.07 137.93,2.58 180.01,60 -114.74,30.64 -106.21,120.52 -180.01,260l-240 0c52.23,-77.99 159.99,-134.47 159.99,-260 0,-105.08 -62.9,-75.16 -16.19,-173.95 29.43,-62.21 76.48,-100.35 116.19,-146.05 0,141.85 -48.01,139.79 -20,260zm-3180.05 -420c71.61,37.89 44.89,35.9 120,20 0,126.26 49.86,220.01 -240.01,220.01 -29.24,0 -29.34,-24.67 -40,-40.01 58.45,-13.61 92.62,-34.93 140,-59.99 -19.48,-83.63 -37.65,-54.97 -40,-160.01 -65.55,43.9 -35.44,39.7 -120,20.01 128.01,-191.17 223.8,-148.28 360,-180.01l0 80c-95.21,0 -109.67,-5.01 -179.99,100.01zm400 -280.01l-39 23 39 -23zm2680.04 1760.03l60 -120c-72.11,-38.15 -151.5,-77.84 -160,-180.01 138.55,73.31 239.93,168.02 280.01,340.01l59.99 0c1.97,-87.9 13.54,-62.3 20,-140.01 125.08,33.4 62.17,95.91 125.51,154.5 37.46,34.64 168.23,45.51 234.49,45.51 -8.28,371.63 -322.66,136.99 -404.79,132.71 -57.15,-2.98 -80.63,50.74 -135.21,87.29l-220.01 -120 0 -140c-158.99,-13.24 -157.85,-37.05 -325,15 -113.62,35.38 -201.85,25.45 -270.58,109.43 -75.38,92.09 -44.08,168.32 -133.27,246.73 -59.04,51.91 -126.64,82.54 -148.79,251.22 -30.01,228.52 -35.47,435.63 141.75,593.5 137.61,122.58 371.15,-28.02 484.32,14.04l131.56 70.09c0,367.88 115.07,436.61 32.36,632.37 -72.1,170.62 -54.09,93.58 -34.27,289.43 11.56,114.27 18.93,219.57 41.91,318.22 -520.58,275.46 -1014.91,413.24 -1634.97,334.94 -150.44,-18.99 -425.73,-77.68 -545.06,-134.94 31.29,-134.3 154.4,-154.34 245.04,-234.97 170.2,-151.43 112.62,-147.2 146.9,-213.11 15.07,-28.96 46.3,-47.97 77.58,-62.43 202.59,-93.63 121.73,-91.76 182.23,-297.77 27.81,-94.7 205.6,-209.22 96.67,-339.56 -41.92,-50.15 -258.35,-120.07 -329.05,-151.54 -175.81,-78.23 -80.37,-232.35 -224.99,-275.02 -128.49,-37.91 -60.14,13.25 -171.88,-68.13 -164.67,-119.91 -401.85,-177.68 -522.51,2.5 -139.66,-93.53 -196.18,19.4 -200.93,-119.26 -4.81,-140.15 91.15,-140.75 -139.07,-140.75 5.28,-63.35 37.54,-153.2 60,-200 -96.44,8.03 -77.64,21.06 -134.35,65.66 -66.86,52.57 -56.48,34.35 -165.66,34.35 0,-201.99 -82.96,-419.48 341.63,-422.09 125.06,-0.77 118.38,44.66 118.38,162.09 127.68,-34.09 6.4,-132.15 98.37,-261.62 29.84,-42.01 54.42,-55.13 84.77,-95.25 29.32,-38.75 47.74,-83.37 76.5,-123.51 49.6,-69.22 112.34,-141.6 175.18,-204.82 99.51,-100.11 78.23,-114.81 265.19,-114.81 -16.99,-63.63 -19.97,-32.46 -48.25,-91.74l-51.75 -148.27c131.33,0 182.21,-27.9 260.01,-80.01 -20.45,87.8 -51.98,83.58 -60,180.01 106.09,0 118.11,0.92 200,20 -8.62,-103.54 -28.34,-102.09 -100,-140l0 -180.01c-157.7,-65.15 -51.53,80.35 -145.87,-194.13 -19.43,-56.52 -19.68,-34.43 -54.14,-85.88 -136.08,49.26 92.43,-55.77 -36.78,26.48 -123.27,78.45 -49.94,-171.38 -223.22,-126.48 -127.47,85.37 -82.64,139.58 -90.15,280.8 -0.79,14.82 -88.19,228.7 -129.86,259.22 -60.77,-126.68 43.36,-104.56 -125.34,-174.66 -108.7,-45.16 -95.23,-72.16 -174.67,-125.34 220.65,-329.51 165.92,-256.46 440.01,-440.01 0,-84.16 8.41,-80.79 -20,-140 -75.41,20.13 -92.65,51.61 -100,140 -117.94,-31.49 -100,-117.34 -100,-260 215.14,113.84 69.6,104.17 360,80.01 46.57,199.86 107.54,113.51 -40.94,258.94 -24.61,24.1 -40.19,52.89 -59.06,81.06 76.56,16.22 64.03,-6.09 122.12,17.68 80.74,33.05 31.36,42.32 157.89,42.32 37.08,-89.75 -107.98,-76.26 60,-80 -24.81,-92.92 -31.49,-17.69 -40.01,-120 12.92,3.01 106.43,66.69 144.25,-59.17 31.09,-103.44 -67.31,-27.83 -122.95,-79.8 -51.19,-47.81 -1.75,21.03 -15.33,-74.44 -0.45,-3.22 -2.2,-10.74 -2.63,-13.34 -9.38,-57.48 -40.84,-52.92 -175.14,-183.16 -2.88,-2.81 -7.71,-6.64 -10.59,-9.28 -69,-63.58 -60.27,26.17 -37.61,-80.81l-140 0c50.74,-35.26 99,-30.84 149.66,-50.34 50.8,-19.55 87.96,-65.11 114,-106 55.54,-87.19 5.75,-88.67 92.71,-128.24 56.82,-25.85 110.04,-26.78 163.63,-15.43l0 40c-72.27,6.02 -95.31,24.93 -160.01,40.01 13.71,58.84 20,61.04 20,140 100.55,0 175.68,-28.22 232.99,5.72 68.55,40.59 105.54,114 67.01,194.28 41.23,21.82 47.41,27.75 100,40 -54.14,34.35 -50.03,7.31 -100,60 17.55,65.73 29.01,65.86 80.01,100 -69.45,103.72 -67.66,121.5 -6.96,266.91 40.95,98.05 99.59,150.26 226.96,153.1 5.28,-63.38 38.18,-153.65 58.12,-201.88 70.65,-170.98 -13.39,24.33 203.66,-176.34 68.24,-63.08 187.43,-100.63 278.24,-121.78l13.29 -86.7c1.59,-4.58 4.36,-9.42 6.13,-13.87 1.75,-4.39 4.76,-9.1 6.6,-13.41 1.83,-4.31 4.82,-9.04 6.63,-13.37 38.27,-92 47.34,-352.27 47.34,-472.67 243.33,0 1011.78,328.49 1140.03,520.01 -76.22,104.03 -2.7,-46.54 -157.16,162.85 -21.79,29.53 -33.79,34.4 -57.18,62.82 -117.56,142.65 -19.44,125.23 -225.67,234.35 8.34,100.11 41.86,142.14 60,220l139.08 -42.79 20.94 222.79c-62.21,-45.58 -40.01,-53.46 -40.01,-160 -109.18,73.11 -40,74.45 -40,220 -155.01,0 -100.41,18.49 -191.84,88.17 -48.07,36.63 -133.71,97.31 -188.17,111.84 32.48,121.66 100,43.64 100,240 -299.81,0 -240,-80.57 -240,260 361.92,173.67 149.82,-179.78 580,-280 104.6,197.66 166.5,97.61 180.01,260z"/>
   <path class="fil2" d="M3014.71 918.99c0,45.5 39.44,90.27 76.5,104.55 50.53,19.5 152.58,-13.31 163.5,-144.55 -91.07,-21.22 -33.42,-13.77 -122.45,-4.1 -50.1,5.44 -117.56,-4.48 -117.56,44.1z"/>
   <path class="fil2" d="M4174.72 2239.01l-80.01 0c16.1,60.25 -0.25,43.91 60,60 15.15,-26.95 10.93,-22.11 20,-60z"/>
   <polygon class="fil2" points="294.66,2859.02 294.66,2879.02 318,2862.35 "/>
   <g>
    <polygon class="fil3 str0" points="1694.26,4001.19 6749.46,4001.19 6749.46,6758.88 1694.26,6758.88 "/>
    <polygon id="_1" class="fil4" points="1694.26,4001.19 6749.46,4001.19 6749.46,6758.88 1694.26,6758.88 "/>
   </g>
   <g>
    <polygon class="fil3 str0" points="2118.64,4436.61 6318.92,4436.61 6318.92,6352.2 2118.64,6352.2 "/>
    <polygon id="_1_0" class="fil2" points="2118.64,4436.61 6318.92,4436.61 6318.92,6352.2 2118.64,6352.2 "/>
   </g>
   <polygon class="fil5" points="2575.02,5954.79 2971.84,5355.41 2611.94,4805.27 2883,4805.27 3109.37,5147.5 3335.74,4805.27 3607.34,4805.27 3246.64,5355.68 3642.66,5954.79 3363.84,5954.79 3109.11,5565.47 2854.11,5954.79 "/>
   <polygon id="_1_1" class="fil5" points="3759.06,5954.79 3759.06,4805.27 4107.71,4805.27 4313.75,5589.28 4517.38,4805.27 4866.84,4805.27 4866.84,5954.79 4651.7,5954.79 4650.9,5049.84 4424.26,5954.79 4200.57,5954.79 3974.99,5049.84 3974.19,5954.79 "/>
   <polygon id="_2" class="fil5" points="5106.05,5954.79 5106.05,4814.9 5338.84,4814.9 5338.84,5760.53 5915.21,5760.53 5915.21,5954.79 "/>
   <polygon class="fil6" points="5262.81,2134.42 6716.94,2133.51 6061.8,3981.77 "/>
  </g>
 </g>
</svg>
