<?xml version="1.0" encoding="UTF-8"?>
<!DOCTYPE svg PUBLIC "-//W3C//DTD SVG 1.1//EN" "http://www.w3.org/Graphics/SVG/1.1/DTD/svg11.dtd">
<!-- Creator: CorelDRAW -->
<svg xmlns="http://www.w3.org/2000/svg" xml:space="preserve" width="190mm" height="260mm" version="1.1" style="shape-rendering:geometricPrecision; text-rendering:geometricPrecision; image-rendering:optimizeQuality; fill-rule:evenodd; clip-rule:evenodd"
viewBox="0 0 19000 26000"
 xmlns:xlink="http://www.w3.org/1999/xlink"
 xmlns:xodm="http://www.corel.com/coreldraw/odm/2003">
 <defs>
  <style type="text/css">
   <![CDATA[
    .str0 {stroke:#1F1B20;stroke-width:7.62;stroke-miterlimit:22.9256}
    .fil5 {fill:none;fill-rule:nonzero}
    .fil1 {fill:#FEFEFE}
    .fil7 {fill:#E31E24}
    .fil6 {fill:#1F1B20}
    .fil3 {fill:#28203A}
    .fil2 {fill:#008DD2}
    .fil8 {fill:#E31E24;fill-rule:nonzero}
    .fil4 {fill:#1F1B20;fill-rule:nonzero}
    .fil0 {fill:#1F1B20;fill-rule:nonzero}
   ]]>
  </style>
 </defs>
 <g id="Layer_x0020_1">
  <metadata id="CorelCorpID_0Corel-Layer"/>
  <path class="fil0" d="M4435.96 15745.13c0,16.88 1.56,29.39 4.61,37.54 3.04,8.06 8.07,15.39 15.14,21.81l-91.86 0c7.24,-6.42 12.35,-13.75 15.31,-21.81 2.96,-8.15 4.45,-20.66 4.45,-37.54l0 -238.96 -27 0c-18.69,0 -33.83,1.4 -45.44,4.28 -11.61,2.88 -20.91,7.57 -27.82,13.99l16.71 -54.82 239.62 0 -15.64 53.84c-5.03,-5.93 -11.61,-10.29 -19.68,-13.09 -8.15,-2.8 -18.44,-4.2 -30.78,-4.2l-37.62 0 0 238.96z"/>
  <path id="_1" class="fil0" d="M4573.75 15804.48c7.08,-6.42 12.1,-13.75 15.15,-21.81 3.05,-8.15 4.61,-20.66 4.61,-37.54l0 -216.9c0,-16.79 -1.56,-29.22 -4.61,-37.21 -3.05,-8.06 -8.07,-15.14 -15.15,-21.4l183.73 0 0 52.35c-8.23,-6.42 -17.2,-11.03 -27.08,-13.91 -9.8,-2.88 -21.16,-4.36 -34,-4.36 -6.66,0 -14.07,0.49 -22.22,1.56 -8.23,1.08 -17.53,2.64 -27.82,4.7l0 94.49 81.98 0 0 48.9c-3.87,-4.53 -9.05,-7.74 -15.64,-9.55 -6.58,-1.89 -18.68,-2.8 -36.22,-2.8l-30.12 0 0 120.1c12.67,1.98 24.2,3.37 34.49,4.36 10.29,0.99 19.18,1.48 26.75,1.48 17.04,0 33.09,-2.3 48.23,-6.91 15.15,-4.61 29.97,-11.69 44.62,-21.24l-23.3 65.69 -203.4 0z"/>
  <path id="_2" class="fil0" d="M4794.44 15804.48l106.18 -121.99 -52.76 -72.6c-5.02,-6.75 -10.7,-13.34 -17.04,-19.84 -6.34,-6.59 -13.66,-13.25 -22.06,-20.17l61.74 0c3.54,2.72 6.91,5.93 10.2,9.55 3.3,3.62 6.83,7.99 10.54,13.09l40 55.48 27.25 -31.12c5.76,-6.75 10.29,-12.59 13.5,-17.61 3.21,-4.94 4.86,-8.64 4.86,-11.03 0,-2.8 -0.91,-5.6 -2.72,-8.56 -1.73,-3.05 -4.44,-6.26 -8.15,-9.8l77.87 0 -91.37 106.85 70.13 96.63c3.87,5.19 8.65,10.38 14.24,15.73 5.68,5.27 11.94,10.37 18.85,15.39l-61.24 0c-6.01,-2.39 -13.42,-9.8 -22.22,-22.14 -2.06,-3.13 -3.71,-5.44 -4.86,-7l-46.01 -63.71 -46.26 54.24c-4.53,5.19 -7.74,9.55 -9.72,13.09 -1.89,3.54 -2.88,6.92 -2.88,10.29 0,1.98 0.82,4.28 2.47,6.92 1.56,2.63 3.7,5.43 6.5,8.31l-77.04 0z"/>
  <path id="_3" class="fil0" d="M5081.39 15603.96l-32.1 0 0 -17.29c19.34,-1.72 34.49,-10.61 45.52,-26.67 10.95,-15.96 16.87,-37.7 17.7,-65.19l14.32 0 0 75.07 69.64 0 0 43.96c-3.87,-3.46 -8.56,-6.01 -14.08,-7.57 -5.6,-1.57 -12.84,-2.31 -21.81,-2.31l-33.75 0 0 114.17c0,20.83 3.46,36.22 10.45,46.02 7,9.79 17.78,14.65 32.44,14.65 3.37,-0.17 6.91,-0.5 10.61,-1.07 3.71,-0.58 7.41,-1.32 11.12,-2.31l-23.63 34.49c-0.33,0 -0.74,0 -1.23,0 -6.42,0.66 -11.12,0.99 -14,0.99 -23.62,0 -41.4,-5.93 -53.34,-17.86 -11.93,-11.86 -17.86,-29.47 -17.86,-52.77l0 -136.31z"/>
  <path id="_4" class="fil0" d="M5311.13 15798.47c0,26.51 -1.73,45.03 -5.27,55.65 -3.54,10.61 -9.71,20.08 -18.6,28.48 -8.97,8.48 -20.91,15.64 -35.81,21.32 -14.81,5.68 -31.85,9.79 -50.95,12.18 21.81,-15.39 37.04,-31.03 45.52,-46.92 8.48,-15.8 12.76,-39.35 12.76,-70.71l0 -269.99c0,-16.88 -1.56,-29.39 -4.61,-37.37 -3.05,-8.07 -8.07,-15.23 -15.15,-21.49l91.87 0c-7.25,6.26 -12.35,13.42 -15.31,21.49 -2.97,7.98 -4.45,20.49 -4.45,37.37l0 269.99z"/>
  <path id="_5" class="fil0" d="M5384.8 15796.99l-15.97 -60.67c19.51,13.01 38.36,22.64 56.72,28.98 18.35,6.34 36.46,9.55 54.49,9.55 23.05,0 41.49,-4.94 55.48,-14.82 13.99,-9.88 20.99,-22.72 20.99,-38.44 0,-4.53 -0.74,-8.97 -2.14,-13.5 -1.48,-4.53 -3.54,-8.73 -6.34,-12.76 -6.09,-9.22 -26.59,-22.31 -61.49,-39.35 -8.81,-4.19 -15.64,-7.49 -20.49,-9.87 -32.6,-16.47 -54.99,-31.53 -67.17,-45.36 -12.1,-13.83 -18.19,-30.29 -18.19,-49.22 0,-27.25 11.11,-48.82 33.25,-64.79 22.23,-16.05 52.6,-24.03 91.21,-24.03 11.03,0 23.29,0.74 36.63,2.14 13.33,1.48 27.82,3.7 43.38,6.83l0 56.22c-13.83,-10.45 -27.74,-18.27 -41.74,-23.38 -13.99,-5.18 -28.56,-7.73 -43.71,-7.73 -19.18,0 -34.57,4.11 -46.18,12.26 -11.68,8.23 -17.53,18.93 -17.53,32.1 0,11.78 4.61,22.15 13.75,31.12 9.22,9.05 29.8,21.07 61.82,36.22 1.81,0.82 4.52,2.06 8.23,3.87 27,12.34 47.16,23.79 60.5,34.16 9.96,7.74 17.7,17.12 23.21,28.23 5.52,11.11 8.32,22.89 8.32,35.48 0,28.73 -13.17,53.09 -39.52,73.1 -26.34,20 -59.34,30.04 -98.86,30.04 -12.67,0 -26.34,-1.4 -40.99,-4.12 -14.57,-2.71 -30.46,-6.83 -47.66,-12.26z"/>
  <path id="_6" class="fil0" d="M5727.81 15798.47c0,26.51 -1.73,45.03 -5.27,55.65 -3.54,10.61 -9.71,20.08 -18.6,28.48 -8.97,8.48 -20.91,15.64 -35.81,21.32 -14.81,5.68 -31.85,9.79 -50.95,12.18 21.81,-15.39 37.04,-31.03 45.52,-46.92 8.48,-15.8 12.76,-39.35 12.76,-70.71l0 -269.99c0,-16.88 -1.56,-29.39 -4.61,-37.37 -3.05,-8.07 -8.07,-15.23 -15.15,-21.49l91.87 0c-7.25,6.26 -12.35,13.42 -15.31,21.49 -2.97,7.98 -4.45,20.49 -4.45,37.37l0 269.99z"/>
  <path id="_7" class="fil0" d="M5801.48 15796.99l-15.97 -60.67c19.51,13.01 38.36,22.64 56.72,28.98 18.35,6.34 36.46,9.55 54.49,9.55 23.05,0 41.49,-4.94 55.48,-14.82 13.99,-9.88 20.99,-22.72 20.99,-38.44 0,-4.53 -0.74,-8.97 -2.14,-13.5 -1.48,-4.53 -3.54,-8.73 -6.34,-12.76 -6.09,-9.22 -26.59,-22.31 -61.49,-39.35 -8.81,-4.19 -15.64,-7.49 -20.49,-9.87 -32.6,-16.47 -54.99,-31.53 -67.17,-45.36 -12.1,-13.83 -18.19,-30.29 -18.19,-49.22 0,-27.25 11.11,-48.82 33.25,-64.79 22.23,-16.05 52.6,-24.03 91.21,-24.03 11.03,0 23.29,0.74 36.63,2.14 13.33,1.48 27.82,3.7 43.38,6.83l0 56.22c-13.83,-10.45 -27.74,-18.27 -41.74,-23.38 -13.99,-5.18 -28.56,-7.73 -43.71,-7.73 -19.18,0 -34.57,4.11 -46.18,12.26 -11.68,8.23 -17.53,18.93 -17.53,32.1 0,11.78 4.61,22.15 13.75,31.12 9.22,9.05 29.8,21.07 61.82,36.22 1.81,0.82 4.52,2.06 8.23,3.87 27,12.34 47.16,23.79 60.5,34.16 9.96,7.74 17.7,17.12 23.21,28.23 5.52,11.11 8.32,22.89 8.32,35.48 0,28.73 -13.17,53.09 -39.52,73.1 -26.34,20 -59.34,30.04 -98.86,30.04 -12.67,0 -26.34,-1.4 -40.99,-4.12 -14.57,-2.71 -30.46,-6.83 -47.66,-12.26z"/>
  <path id="_8" class="fil0" d="M6250.27 15497.28c-37.29,0 -68,12.76 -92.2,38.36 -24.2,25.52 -36.3,58.2 -36.3,97.87 0,41.08 11.94,75.07 35.89,102.15 23.96,27.09 53.92,40.67 89.73,40.67 37.12,0 67.74,-12.84 91.94,-38.44 24.2,-25.69 36.3,-58.45 36.3,-98.29 0,-40.99 -11.93,-74.99 -35.89,-101.9 -23.95,-26.92 -53.83,-40.42 -89.47,-40.42zm-2.06 315.1c-25.52,0 -49.64,-4.11 -72.19,-12.26 -22.64,-8.23 -41.98,-20.01 -58.28,-35.23 -17.04,-16.14 -30.13,-35.07 -39.43,-56.8 -9.22,-21.81 -13.83,-44.7 -13.83,-68.65 0,-18.77 2.97,-37.04 8.81,-54.74 5.84,-17.7 14.4,-34.16 25.68,-49.39 17.53,-23.71 39.18,-41.82 64.95,-54.57 25.85,-12.68 53.91,-19.02 84.29,-19.02 26.09,0 50.38,4.03 72.93,12.18 22.64,8.15 41.98,19.84 58.28,35.07 17.37,16.13 30.62,35.15 39.76,57.04 9.13,21.98 13.74,45.61 13.74,71.04 0,23.3 -5.1,46.18 -15.39,68.49 -10.29,22.39 -24.78,42.14 -43.46,59.35 -16.71,15.55 -35.73,27.41 -57.13,35.47 -21.4,7.99 -44.28,12.02 -68.73,12.02z"/>
  <path id="_9" class="fil0" d="M6801.94 15469.62c-7.24,6.26 -12.34,13.42 -15.31,21.49 -2.96,7.98 -4.44,20.49 -4.44,37.37l0 283.9c-11.77,-0.33 -22.89,-4.11 -33.42,-11.36 -10.54,-7.24 -23.79,-21.07 -39.76,-41.4l-172.78 -217.89 0 203.48c0,17.45 1.48,30.21 4.36,38.03 2.89,7.9 7.82,14.98 14.9,21.24l-76.06 0c7.08,-6.42 12.1,-13.66 15.15,-21.81 3.05,-8.15 4.61,-20.58 4.61,-37.46l0 -216.73c0,-16.88 -1.56,-29.39 -4.61,-37.37 -3.05,-8.07 -8.07,-15.23 -15.15,-21.49l68 0 198.21 251.47 0 -192.61c0,-16.88 -1.56,-29.39 -4.61,-37.37 -3.04,-8.07 -8.07,-15.23 -15.14,-21.49l76.05 0z"/>
  <path id="_10" class="fil0" d="M6925 15763.9c12.19,1.89 22.72,3.29 31.61,4.2 8.81,0.9 16.47,1.31 22.89,1.31 37.29,0 68.07,-12.59 92.35,-37.7 24.29,-25.18 36.39,-57.04 36.39,-95.65 0,-39.51 -12.02,-71.28 -36.14,-95.32 -24.12,-24.03 -56.22,-36.05 -96.22,-36.05 -8.24,0 -16.55,0.57 -25.11,1.65 -8.48,1.15 -17.12,2.96 -25.77,5.35l0 252.21zm-72.1 40.58c7.08,-6.26 12.01,-13.34 14.9,-21.24 2.88,-7.9 4.36,-20.66 4.36,-38.19l0 -216.74c0,-17.45 -1.48,-30.12 -4.36,-37.86 -2.89,-7.82 -7.82,-14.74 -14.9,-20.83l116.72 0c31.36,0 57.21,3.05 77.62,9.14 20.42,6.09 39.35,16.13 56.72,29.88 19.42,15.48 34.08,33.58 43.87,54.25 9.8,20.74 14.74,43.79 14.74,69.22 0,22.97 -3.63,44.29 -10.95,63.88 -7.33,19.59 -18.28,37.37 -32.93,53.26 -17.86,19.51 -39.59,33.5 -65.27,42.22 -25.6,8.65 -58.86,13.01 -99.69,13.01l-100.83 0z"/>
  <path id="_11" class="fil0" d="M7437.25 15771.88l-20.17 31.53c-23.78,0 -40.74,-4.28 -50.95,-12.84 -10.21,-8.64 -15.31,-22.97 -15.31,-43.05l0 -69.48c-2.55,0.66 -6.5,1.73 -11.85,3.13 -59.6,16.3 -89.4,34 -89.4,53.1 0,12.26 5.02,22.14 14.98,29.71 9.96,7.57 23.14,11.36 39.52,11.36 4.52,0 9.63,-0.41 15.39,-1.32 5.84,-0.9 12.35,-2.3 19.51,-4.03l-26.75 35.89c-5.93,1.4 -11.36,2.47 -16.22,3.13 -4.94,0.57 -9.71,0.9 -14.32,0.9 -23.96,0 -43.71,-6.99 -59.19,-20.99 -15.56,-13.99 -23.29,-31.52 -23.29,-52.76 0,-8.07 1.48,-15.64 4.36,-22.89 2.88,-7.24 7,-13.74 12.43,-19.59 9.96,-9.96 31.44,-18.6 64.45,-26.01 6.75,-1.4 11.94,-2.63 15.64,-3.62 22.06,-4.94 36.55,-9.71 43.63,-14.32 7.08,-4.61 10.62,-10.79 10.62,-18.69 0,-10.12 -4.78,-18.27 -14.49,-24.36 -9.63,-6.09 -22.55,-9.14 -38.85,-9.14 -8.48,0 -18.03,1.48 -28.48,4.53 -10.46,3.04 -21.82,7.65 -34.25,13.74l31.69 -50.21c8.24,-1.15 15.97,-2.06 23.3,-2.63 7.33,-0.66 13.99,-0.99 20.17,-0.99 12.01,0 22.96,1.4 32.76,4.2 9.79,2.8 18.52,6.99 26.09,12.67 9.8,7.17 16.71,16.22 20.83,26.92 4.11,10.78 6.17,27.49 6.17,50.05l0 56.71c0,26.1 2.8,42.15 8.4,48.24 5.59,6.09 16.79,9.8 33.58,11.11z"/>
  <path id="_12" class="fil0" d="M7482.19 15603.96l-32.1 0 0 -17.29c19.34,-1.72 34.49,-10.61 45.52,-26.67 10.95,-15.96 16.87,-37.7 17.7,-65.19l14.32 0 0 75.07 69.64 0 0 43.96c-3.87,-3.46 -8.56,-6.01 -14.08,-7.57 -5.6,-1.57 -12.84,-2.31 -21.81,-2.31l-33.75 0 0 114.17c0,20.83 3.46,36.22 10.45,46.02 7,9.79 17.78,14.65 32.44,14.65 3.37,-0.17 6.91,-0.5 10.61,-1.07 3.71,-0.58 7.41,-1.32 11.12,-2.31l-23.63 34.49c-0.33,0 -0.74,0 -1.23,0 -6.42,0.66 -11.12,0.99 -14,0.99 -23.62,0 -41.4,-5.93 -53.34,-17.86 -11.93,-11.86 -17.86,-29.47 -17.86,-52.77l0 -136.31z"/>
  <path id="_13" class="fil0" d="M7865.53 15771.88l-20.17 31.53c-23.78,0 -40.74,-4.28 -50.95,-12.84 -10.21,-8.64 -15.31,-22.97 -15.31,-43.05l0 -69.48c-2.55,0.66 -6.5,1.73 -11.85,3.13 -59.6,16.3 -89.4,34 -89.4,53.1 0,12.26 5.02,22.14 14.98,29.71 9.96,7.57 23.14,11.36 39.52,11.36 4.52,0 9.63,-0.41 15.39,-1.32 5.84,-0.9 12.35,-2.3 19.51,-4.03l-26.75 35.89c-5.93,1.4 -11.36,2.47 -16.22,3.13 -4.94,0.57 -9.71,0.9 -14.32,0.9 -23.96,0 -43.71,-6.99 -59.19,-20.99 -15.56,-13.99 -23.29,-31.52 -23.29,-52.76 0,-8.07 1.48,-15.64 4.36,-22.89 2.88,-7.24 7,-13.74 12.43,-19.59 9.96,-9.96 31.44,-18.6 64.45,-26.01 6.75,-1.4 11.94,-2.63 15.64,-3.62 22.06,-4.94 36.55,-9.71 43.63,-14.32 7.08,-4.61 10.62,-10.79 10.62,-18.69 0,-10.12 -4.78,-18.27 -14.49,-24.36 -9.63,-6.09 -22.55,-9.14 -38.85,-9.14 -8.48,0 -18.03,1.48 -28.48,4.53 -10.46,3.04 -21.82,7.65 -34.25,13.74l31.69 -50.21c8.24,-1.15 15.97,-2.06 23.3,-2.63 7.33,-0.66 13.99,-0.99 20.17,-0.99 12.01,0 22.96,1.4 32.76,4.2 9.79,2.8 18.52,6.99 26.09,12.67 9.8,7.17 16.71,16.22 20.83,26.92 4.11,10.78 6.17,27.49 6.17,50.05l0 56.71c0,26.1 2.8,42.15 8.4,48.24 5.59,6.09 16.79,9.8 33.58,11.11z"/>
  <path id="_14" class="fil0" d="M7970.23 15745.21c0,16.88 1.48,29.31 4.45,37.46 2.96,8.15 8.06,15.39 15.31,21.81l-91.87 0c7.08,-6.42 12.1,-13.66 15.15,-21.81 3.05,-8.15 4.61,-20.58 4.61,-37.46l0 -216.98c0,-16.79 -1.56,-29.22 -4.61,-37.21 -3.05,-8.06 -8.07,-15.14 -15.15,-21.4l183.73 0 0 52.35c-8.23,-6.42 -17.2,-11.03 -27.08,-13.91 -9.8,-2.88 -21.16,-4.36 -34,-4.36 -6.66,0 -14.07,0.49 -22.22,1.56 -8.23,1.08 -17.53,2.64 -27.82,4.7l0 94.49 81.98 0 0 48.9c-3.87,-4.53 -9.05,-7.74 -15.64,-9.55 -6.67,-1.89 -18.68,-2.8 -36.22,-2.8l-30.62 0 0 104.21z"/>
  <path id="_15" class="fil0" d="M8118.56 15680.1c0,29.22 7.49,52.93 22.56,71.04 15.06,18.11 34.65,27.16 58.77,27.16 22.72,0 41.24,-8.06 55.65,-24.28 14.4,-16.13 21.56,-37.04 21.56,-62.64 0,-27.49 -7.65,-50.21 -23.05,-68.08 -15.39,-17.86 -34.9,-26.75 -58.52,-26.75 -22.23,0 -40.58,7.9 -55.15,23.79 -14.57,15.81 -21.82,35.73 -21.82,59.76zm-51.86 9.88c0,-17.7 3.38,-34.33 10.05,-49.8 6.66,-15.48 16.38,-29.39 29.3,-41.57 12.35,-11.61 26.84,-20.58 43.38,-27 16.63,-6.42 33.83,-9.63 51.61,-9.63 18.52,0 35.23,2.96 50.21,8.89 14.99,6.01 28.49,15.06 40.59,27.25 11.85,11.93 20.99,25.27 27.24,40.17 6.26,14.81 9.39,30.37 9.39,46.59 0,17.86 -3.3,34.49 -9.88,50.04 -6.59,15.48 -16.38,29.23 -29.22,41.33 -12.19,11.36 -26.59,20.25 -43.14,26.58 -16.62,6.34 -33.83,9.55 -51.69,9.55 -18.77,0 -35.56,-2.88 -50.38,-8.64 -14.81,-5.85 -28.31,-14.82 -40.58,-27 -11.85,-11.94 -20.99,-25.35 -27.33,-40.42 -6.34,-14.98 -9.55,-30.45 -9.55,-46.34z"/>
  <path id="_16" class="fil0" d="M8501.41 15613.84c-3.7,-2.8 -7.49,-4.86 -11.36,-6.09 -3.87,-1.24 -8.15,-1.81 -12.76,-1.81 -17.12,0 -30.12,5.76 -39.01,17.28 -8.97,11.53 -13.42,28.15 -13.42,49.89l0 87.5c0,10.29 1.32,18.85 4.03,25.76 2.64,6.92 6.92,13.01 12.76,18.11l-79.02 0c6.01,-5.1 10.29,-11.19 12.92,-18.11 2.56,-6.91 3.87,-15.47 3.87,-25.76l0 -146.03c0,-10.45 -1.31,-19.26 -4.03,-26.34 -2.64,-7.08 -6.92,-13.17 -12.76,-18.36l5.35 0c7.9,0 16.22,-0.49 24.94,-1.4 8.81,-0.9 18.36,-2.22 28.81,-4.03l3.62 37.37c7.08,-12.51 15.23,-21.81 24.37,-27.82 9.22,-6.01 19.67,-9.06 31.44,-9.06 2.88,0 5.85,0.17 8.89,0.5 3.05,0.33 6.84,0.99 11.36,1.97l0 46.43z"/>
  <path id="_17" class="fil0" d="M8593.69 15760.61c0,10.29 1.32,18.85 4.03,25.76 2.64,6.92 6.92,13.01 12.76,18.11l-79.02 0c6.01,-5.1 10.29,-11.19 12.92,-18.11 2.56,-6.91 3.87,-15.47 3.87,-25.76l0 -146.03c0,-10.45 -1.31,-19.26 -4.03,-26.34 -2.64,-7.08 -6.92,-13.17 -12.76,-18.36l5.35 0c7.9,0 16.22,-0.49 24.94,-1.4 8.81,-0.9 18.36,-2.22 28.81,-4.03l2.14 37.54c11.94,-12.76 24.04,-22.23 36.47,-28.32 12.35,-6.17 25.35,-9.22 39.02,-9.22 16.38,0 31.19,3.37 44.36,10.21 13.17,6.75 25.11,17.12 35.73,30.95 14.65,-14.16 28.56,-24.62 41.81,-31.2 13.34,-6.67 26.84,-9.96 40.67,-9.96 25.93,0 47,7.9 63.13,23.71 16.22,15.72 24.29,36.54 24.29,62.31l0 110.14c0,10.29 1.31,18.85 3.95,25.76 2.63,6.92 6.91,13.01 12.84,18.11l-79.02 0c5.92,-5.1 10.2,-11.19 12.84,-18.11 2.63,-6.91 3.95,-15.47 3.95,-25.76l0 -83.88c0,-25.52 -4.61,-44.12 -13.91,-55.81 -9.22,-11.61 -23.87,-17.45 -44.04,-17.45 -20.91,0 -35.89,5.35 -44.95,16.05 -9.13,10.7 -13.66,28.56 -13.66,53.59l0 87.5c0,10.29 1.32,18.85 3.87,25.76 2.63,6.92 6.91,13.01 12.92,18.11l-79.51 0c5.92,-5.1 10.2,-11.19 12.84,-18.11 2.63,-6.91 3.95,-15.47 3.95,-25.76l0 -83.88c0,-25.52 -4.61,-44.12 -13.91,-55.81 -9.22,-11.61 -23.87,-17.45 -44.04,-17.45 -20.91,0 -35.89,5.35 -44.95,16.05 -9.13,10.7 -13.66,28.56 -13.66,53.59l0 87.5z"/>
  <path id="_18" class="fil0" d="M9205.21 15771.88l-20.17 31.53c-23.78,0 -40.74,-4.28 -50.95,-12.84 -10.21,-8.64 -15.31,-22.97 -15.31,-43.05l0 -69.48c-2.55,0.66 -6.5,1.73 -11.85,3.13 -59.6,16.3 -89.4,34 -89.4,53.1 0,12.26 5.02,22.14 14.98,29.71 9.96,7.57 23.14,11.36 39.52,11.36 4.52,0 9.63,-0.41 15.39,-1.32 5.84,-0.9 12.35,-2.3 19.51,-4.03l-26.75 35.89c-5.93,1.4 -11.36,2.47 -16.22,3.13 -4.94,0.57 -9.71,0.9 -14.32,0.9 -23.96,0 -43.71,-6.99 -59.19,-20.99 -15.56,-13.99 -23.29,-31.52 -23.29,-52.76 0,-8.07 1.48,-15.64 4.36,-22.89 2.88,-7.24 7,-13.74 12.43,-19.59 9.96,-9.96 31.44,-18.6 64.45,-26.01 6.75,-1.4 11.94,-2.63 15.64,-3.62 22.06,-4.94 36.55,-9.71 43.63,-14.32 7.08,-4.61 10.62,-10.79 10.62,-18.69 0,-10.12 -4.78,-18.27 -14.49,-24.36 -9.63,-6.09 -22.55,-9.14 -38.85,-9.14 -8.48,0 -18.03,1.48 -28.48,4.53 -10.46,3.04 -21.82,7.65 -34.25,13.74l31.69 -50.21c8.24,-1.15 15.97,-2.06 23.3,-2.63 7.33,-0.66 13.99,-0.99 20.17,-0.99 12.01,0 22.96,1.4 32.76,4.2 9.79,2.8 18.52,6.99 26.09,12.67 9.8,7.17 16.71,16.22 20.83,26.92 4.11,10.78 6.17,27.49 6.17,50.05l0 56.71c0,26.1 2.8,42.15 8.4,48.24 5.59,6.09 16.79,9.8 33.58,11.11z"/>
  <path id="_19" class="fil0" d="M9250.15 15603.96l-32.1 0 0 -17.29c19.34,-1.72 34.49,-10.61 45.52,-26.67 10.95,-15.96 16.87,-37.7 17.7,-65.19l14.32 0 0 75.07 69.64 0 0 43.96c-3.87,-3.46 -8.56,-6.01 -14.08,-7.57 -5.6,-1.57 -12.84,-2.31 -21.81,-2.31l-33.75 0 0 114.17c0,20.83 3.46,36.22 10.45,46.02 7,9.79 17.78,14.65 32.44,14.65 3.37,-0.17 6.91,-0.5 10.61,-1.07 3.71,-0.58 7.41,-1.32 11.12,-2.31l-23.63 34.49c-0.33,0 -0.74,0 -1.23,0 -6.42,0.66 -11.12,0.99 -14,0.99 -23.62,0 -41.4,-5.93 -53.34,-17.86 -11.93,-11.86 -17.86,-29.47 -17.86,-52.77l0 -136.31z"/>
  <path id="_20" class="fil0" d="M9420.13 15603.96l-32.1 0 0 -17.29c19.34,-1.72 34.49,-10.61 45.52,-26.67 10.95,-15.96 16.87,-37.7 17.7,-65.19l14.32 0 0 75.07 69.64 0 0 43.96c-3.87,-3.46 -8.56,-6.01 -14.08,-7.57 -5.6,-1.57 -12.84,-2.31 -21.81,-2.31l-33.75 0 0 114.17c0,20.83 3.46,36.22 10.45,46.02 7,9.79 17.78,14.65 32.44,14.65 3.37,-0.17 6.91,-0.5 10.61,-1.07 3.71,-0.58 7.41,-1.32 11.12,-2.31l-23.63 34.49c-0.33,0 -0.74,0 -1.23,0 -6.42,0.66 -11.12,0.99 -14,0.99 -23.62,0 -41.4,-5.93 -53.34,-17.86 -11.93,-11.86 -17.86,-29.47 -17.86,-52.77l0 -136.31z"/>
  <path id="_21" class="fil0" d="M9622.63 15648.41l125.53 0c-0.99,-16.54 -7.08,-30.04 -18.36,-40.58 -11.28,-10.45 -25.27,-15.72 -41.98,-15.72 -18.03,0 -32.84,5.02 -44.45,15.06 -11.53,9.96 -18.52,23.79 -20.74,41.24zm-3.38 33.09c1.15,29.31 10.45,52.6 27.91,69.89 17.45,17.28 40.25,25.93 68.4,25.93 12.51,0 25.76,-2.06 39.68,-6.18 13.91,-4.11 29.05,-10.45 45.27,-19.01l-26.01 45.35c-14.08,5.11 -27.08,8.98 -39.1,11.53 -12.1,2.55 -23.46,3.87 -34.08,3.87 -39.1,0 -71.29,-11.86 -96.56,-35.48 -25.27,-23.63 -37.86,-53.59 -37.86,-89.89 0,-37.29 11.6,-67.83 34.9,-91.7 23.21,-23.87 52.93,-35.81 89.15,-35.81 33.33,0 59.76,10.87 79.43,32.68 19.59,21.73 29.63,51.37 30.13,88.82l-181.26 0z"/>
  <path id="_22" class="fil0" d="M9975.84 15613.84c-3.7,-2.8 -7.49,-4.86 -11.36,-6.09 -3.87,-1.24 -8.15,-1.81 -12.76,-1.81 -17.12,0 -30.12,5.76 -39.01,17.28 -8.97,11.53 -13.42,28.15 -13.42,49.89l0 87.5c0,10.29 1.32,18.85 4.03,25.76 2.64,6.92 6.92,13.01 12.76,18.11l-79.02 0c6.01,-5.1 10.29,-11.19 12.92,-18.11 2.56,-6.91 3.87,-15.47 3.87,-25.76l0 -146.03c0,-10.45 -1.31,-19.26 -4.03,-26.34 -2.64,-7.08 -6.92,-13.17 -12.76,-18.36l5.35 0c7.9,0 16.22,-0.49 24.94,-1.4 8.81,-0.9 18.36,-2.22 28.81,-4.03l3.62 37.37c7.08,-12.51 15.23,-21.81 24.37,-27.82 9.22,-6.01 19.67,-9.06 31.44,-9.06 2.88,0 5.85,0.17 8.89,0.5 3.05,0.33 6.84,0.99 11.36,1.97l0 46.43z"/>
  <path class="fil0" d="M992.8 16860.19c0,16.88 1.48,29.31 4.45,37.46 2.96,8.15 8.06,15.39 15.31,21.81l-91.87 0c7.08,-6.42 12.1,-13.66 15.15,-21.81 3.05,-8.15 4.61,-20.58 4.61,-37.46l0 -216.98c0,-16.79 -1.56,-29.22 -4.61,-37.21 -3.05,-8.06 -8.07,-15.14 -15.15,-21.4l183.73 0 0 52.35c-8.23,-6.42 -17.2,-11.03 -27.08,-13.91 -9.8,-2.88 -21.16,-4.36 -34,-4.36 -6.66,0 -14.07,0.49 -22.22,1.56 -8.23,1.08 -17.53,2.64 -27.82,4.7l0 94.49 81.98 0 0 48.9c-3.87,-4.53 -9.05,-7.74 -15.64,-9.55 -6.67,-1.89 -18.68,-2.8 -36.22,-2.8l-30.62 0 0 104.21z"/>
  <path id="_1_0" class="fil0" d="M1141.13 16795.08c0,29.22 7.49,52.93 22.56,71.04 15.06,18.11 34.65,27.16 58.77,27.16 22.72,0 41.24,-8.06 55.65,-24.28 14.4,-16.13 21.56,-37.04 21.56,-62.64 0,-27.49 -7.65,-50.21 -23.05,-68.08 -15.39,-17.86 -34.9,-26.75 -58.52,-26.75 -22.23,0 -40.58,7.9 -55.15,23.79 -14.57,15.81 -21.82,35.73 -21.82,59.76zm-51.86 9.88c0,-17.7 3.38,-34.33 10.05,-49.8 6.66,-15.48 16.38,-29.39 29.3,-41.57 12.35,-11.61 26.84,-20.58 43.38,-27 16.63,-6.42 33.83,-9.63 51.61,-9.63 18.52,0 35.23,2.96 50.21,8.89 14.99,6.01 28.49,15.06 40.59,27.25 11.85,11.93 20.99,25.27 27.24,40.17 6.26,14.81 9.39,30.37 9.39,46.59 0,17.86 -3.3,34.49 -9.88,50.04 -6.59,15.48 -16.38,29.23 -29.22,41.33 -12.19,11.36 -26.59,20.25 -43.14,26.58 -16.62,6.34 -33.83,9.55 -51.69,9.55 -18.77,0 -35.56,-2.88 -50.38,-8.64 -14.81,-5.85 -28.31,-14.82 -40.58,-27 -11.85,-11.94 -20.99,-25.35 -27.33,-40.42 -6.34,-14.98 -9.55,-30.45 -9.55,-46.34z"/>
  <path id="_2_1" class="fil0" d="M1523.98 16728.82c-3.7,-2.8 -7.49,-4.86 -11.36,-6.09 -3.87,-1.24 -8.15,-1.81 -12.76,-1.81 -17.12,0 -30.12,5.76 -39.01,17.28 -8.97,11.53 -13.42,28.15 -13.42,49.89l0 87.5c0,10.29 1.32,18.85 4.03,25.76 2.64,6.92 6.92,13.01 12.76,18.11l-79.02 0c6.01,-5.1 10.29,-11.19 12.92,-18.11 2.56,-6.91 3.87,-15.47 3.87,-25.76l0 -146.03c0,-10.45 -1.31,-19.26 -4.03,-26.34 -2.64,-7.08 -6.92,-13.17 -12.76,-18.36l5.35 0c7.9,0 16.22,-0.49 24.94,-1.4 8.81,-0.9 18.36,-2.22 28.81,-4.03l3.62 37.37c7.08,-12.51 15.23,-21.81 24.37,-27.82 9.22,-6.01 19.67,-9.06 31.44,-9.06 2.88,0 5.85,0.17 8.89,0.5 3.05,0.33 6.84,0.99 11.36,1.97l0 46.43z"/>
  <path id="_3_2" class="fil0" d="M1616.26 16875.59c0,10.29 1.32,18.85 4.03,25.76 2.64,6.92 6.92,13.01 12.76,18.11l-79.02 0c6.01,-5.1 10.29,-11.19 12.92,-18.11 2.56,-6.91 3.87,-15.47 3.87,-25.76l0 -146.03c0,-10.45 -1.31,-19.26 -4.03,-26.34 -2.64,-7.08 -6.92,-13.17 -12.76,-18.36l5.35 0c7.9,0 16.22,-0.49 24.94,-1.4 8.81,-0.9 18.36,-2.22 28.81,-4.03l2.14 37.54c11.94,-12.76 24.04,-22.23 36.47,-28.32 12.35,-6.17 25.35,-9.22 39.02,-9.22 16.38,0 31.19,3.37 44.36,10.21 13.17,6.75 25.11,17.12 35.73,30.95 14.65,-14.16 28.56,-24.62 41.81,-31.2 13.34,-6.67 26.84,-9.96 40.67,-9.96 25.93,0 47,7.9 63.13,23.71 16.22,15.72 24.29,36.54 24.29,62.31l0 110.14c0,10.29 1.31,18.85 3.95,25.76 2.63,6.92 6.91,13.01 12.84,18.11l-79.02 0c5.92,-5.1 10.2,-11.19 12.84,-18.11 2.63,-6.91 3.95,-15.47 3.95,-25.76l0 -83.88c0,-25.52 -4.61,-44.12 -13.91,-55.81 -9.22,-11.61 -23.87,-17.45 -44.04,-17.45 -20.91,0 -35.89,5.35 -44.95,16.05 -9.13,10.7 -13.66,28.56 -13.66,53.59l0 87.5c0,10.29 1.32,18.85 3.87,25.76 2.63,6.92 6.91,13.01 12.92,18.11l-79.51 0c5.92,-5.1 10.2,-11.19 12.84,-18.11 2.63,-6.91 3.95,-15.47 3.95,-25.76l0 -83.88c0,-25.52 -4.61,-44.12 -13.91,-55.81 -9.22,-11.61 -23.87,-17.45 -44.04,-17.45 -20.91,0 -35.89,5.35 -44.95,16.05 -9.13,10.7 -13.66,28.56 -13.66,53.59l0 87.5z"/>
  <path id="_4_3" class="fil0" d="M2227.78 16886.86l-20.17 31.53c-23.78,0 -40.74,-4.28 -50.95,-12.84 -10.21,-8.64 -15.31,-22.97 -15.31,-43.05l0 -69.48c-2.55,0.66 -6.5,1.73 -11.85,3.13 -59.6,16.3 -89.4,34 -89.4,53.1 0,12.26 5.02,22.14 14.98,29.71 9.96,7.57 23.14,11.36 39.52,11.36 4.52,0 9.63,-0.41 15.39,-1.32 5.84,-0.9 12.35,-2.3 19.51,-4.03l-26.75 35.89c-5.93,1.4 -11.36,2.47 -16.22,3.13 -4.94,0.57 -9.71,0.9 -14.32,0.9 -23.96,0 -43.71,-6.99 -59.19,-20.99 -15.56,-13.99 -23.29,-31.52 -23.29,-52.76 0,-8.07 1.48,-15.64 4.36,-22.89 2.88,-7.24 7,-13.74 12.43,-19.59 9.96,-9.96 31.44,-18.6 64.45,-26.01 6.75,-1.4 11.94,-2.63 15.64,-3.62 22.06,-4.94 36.55,-9.71 43.63,-14.32 7.08,-4.61 10.62,-10.79 10.62,-18.69 0,-10.12 -4.78,-18.27 -14.49,-24.36 -9.63,-6.09 -22.55,-9.14 -38.85,-9.14 -8.48,0 -18.03,1.48 -28.48,4.53 -10.46,3.04 -21.82,7.65 -34.25,13.74l31.69 -50.21c8.24,-1.15 15.97,-2.06 23.3,-2.63 7.33,-0.66 13.99,-0.99 20.17,-0.99 12.01,0 22.96,1.4 32.76,4.2 9.79,2.8 18.52,6.99 26.09,12.67 9.8,7.17 16.71,16.22 20.83,26.92 4.11,10.78 6.17,27.49 6.17,50.05l0 56.71c0,26.1 2.8,42.15 8.4,48.24 5.59,6.09 16.79,9.8 33.58,11.11z"/>
  <path id="_5_4" class="fil0" d="M2272.72 16718.94l-32.1 0 0 -17.29c19.34,-1.72 34.49,-10.61 45.52,-26.67 10.95,-15.96 16.87,-37.7 17.7,-65.19l14.32 0 0 75.07 69.64 0 0 43.96c-3.87,-3.46 -8.56,-6.01 -14.08,-7.57 -5.6,-1.57 -12.84,-2.31 -21.81,-2.31l-33.75 0 0 114.17c0,20.83 3.46,36.22 10.45,46.02 7,9.79 17.78,14.65 32.44,14.65 3.37,-0.17 6.91,-0.5 10.61,-1.07 3.71,-0.58 7.41,-1.32 11.12,-2.31l-23.63 34.49c-0.33,0 -0.74,0 -1.23,0 -6.42,0.66 -11.12,0.99 -14,0.99 -23.62,0 -41.4,-5.93 -53.34,-17.86 -11.93,-11.86 -17.86,-29.47 -17.86,-52.77l0 -136.31z"/>
  <path id="_6_5" class="fil0" d="M2808.59 16874.19c0,9.63 1.48,18.02 4.45,25.27 2.96,7.24 7.57,13.58 13.83,19.01l-63.22 0 0 -118.61c0,-15.15 -0.99,-27 -3.05,-35.56 -1.97,-8.65 -5.18,-16.14 -9.71,-22.56 -6.26,-9.05 -14.73,-16.13 -25.44,-21.4 -10.7,-5.19 -22.14,-7.82 -34.32,-7.82 -21.32,0 -39.18,8.07 -53.59,24.12 -14.4,16.13 -21.56,36.22 -21.56,60.34 0,26.99 8.23,49.47 24.61,67.41 16.38,17.95 36.87,26.92 61.4,26.92 7.08,0 14.82,-0.91 23.3,-2.64 8.4,-1.81 17.29,-4.52 26.59,-8.23l-29.14 42.31c-6.42,0.99 -12.1,1.65 -17.04,2.06 -4.86,0.41 -9.39,0.58 -13.58,0.58 -38.61,0 -69.4,-11.2 -92.28,-33.67 -22.8,-22.39 -34.24,-52.52 -34.24,-90.3 0,-34.08 11.52,-62.97 34.65,-86.76 23.05,-23.79 50.96,-35.72 83.8,-35.72 14.16,0 27.74,2.3 40.91,6.99 13.09,4.69 26.01,11.69 38.69,20.99l0 -74.99c0,-14.24 -1.32,-24.94 -3.87,-32.1 -2.55,-7.16 -6.83,-13.42 -12.92,-18.68l6 0c5.6,0 12.6,-0.5 20.83,-1.4 8.31,-0.91 19.92,-2.39 34.9,-4.53l0 298.97z"/>
  <path id="_7_6" class="fil0" d="M3097.6 16886.86l-20.17 31.53c-23.78,0 -40.74,-4.28 -50.95,-12.84 -10.21,-8.64 -15.31,-22.97 -15.31,-43.05l0 -69.48c-2.55,0.66 -6.5,1.73 -11.85,3.13 -59.6,16.3 -89.4,34 -89.4,53.1 0,12.26 5.02,22.14 14.98,29.71 9.96,7.57 23.14,11.36 39.52,11.36 4.52,0 9.63,-0.41 15.39,-1.32 5.84,-0.9 12.35,-2.3 19.51,-4.03l-26.75 35.89c-5.93,1.4 -11.36,2.47 -16.22,3.13 -4.94,0.57 -9.71,0.9 -14.32,0.9 -23.96,0 -43.71,-6.99 -59.19,-20.99 -15.56,-13.99 -23.29,-31.52 -23.29,-52.76 0,-8.07 1.48,-15.64 4.36,-22.89 2.88,-7.24 7,-13.74 12.43,-19.59 9.96,-9.96 31.44,-18.6 64.45,-26.01 6.75,-1.4 11.94,-2.63 15.64,-3.62 22.06,-4.94 36.55,-9.71 43.63,-14.32 7.08,-4.61 10.62,-10.79 10.62,-18.69 0,-10.12 -4.78,-18.27 -14.49,-24.36 -9.63,-6.09 -22.55,-9.14 -38.85,-9.14 -8.48,0 -18.03,1.48 -28.48,4.53 -10.46,3.04 -21.82,7.65 -34.25,13.74l31.69 -50.21c8.24,-1.15 15.97,-2.06 23.3,-2.63 7.33,-0.66 13.99,-0.99 20.17,-0.99 12.01,0 22.96,1.4 32.76,4.2 9.79,2.8 18.52,6.99 26.09,12.67 9.8,7.17 16.71,16.22 20.83,26.92 4.11,10.78 6.17,27.49 6.17,50.05l0 56.71c0,26.1 2.8,42.15 8.4,48.24 5.59,6.09 16.79,9.8 33.58,11.11z"/>
  <path id="_8_7" class="fil0" d="M3142.54 16718.94l-32.1 0 0 -17.29c19.34,-1.72 34.49,-10.61 45.52,-26.67 10.95,-15.96 16.87,-37.7 17.7,-65.19l14.32 0 0 75.07 69.64 0 0 43.96c-3.87,-3.46 -8.56,-6.01 -14.08,-7.57 -5.6,-1.57 -12.84,-2.31 -21.81,-2.31l-33.75 0 0 114.17c0,20.83 3.46,36.22 10.45,46.02 7,9.79 17.78,14.65 32.44,14.65 3.37,-0.17 6.91,-0.5 10.61,-1.07 3.71,-0.58 7.41,-1.32 11.12,-2.31l-23.63 34.49c-0.33,0 -0.74,0 -1.23,0 -6.42,0.66 -11.12,0.99 -14,0.99 -23.62,0 -41.4,-5.93 -53.34,-17.86 -11.93,-11.86 -17.86,-29.47 -17.86,-52.77l0 -136.31z"/>
  <path id="_9_8" class="fil0" d="M3525.88 16886.86l-20.17 31.53c-23.78,0 -40.74,-4.28 -50.95,-12.84 -10.21,-8.64 -15.31,-22.97 -15.31,-43.05l0 -69.48c-2.55,0.66 -6.5,1.73 -11.85,3.13 -59.6,16.3 -89.4,34 -89.4,53.1 0,12.26 5.02,22.14 14.98,29.71 9.96,7.57 23.14,11.36 39.52,11.36 4.52,0 9.63,-0.41 15.39,-1.32 5.84,-0.9 12.35,-2.3 19.51,-4.03l-26.75 35.89c-5.93,1.4 -11.36,2.47 -16.22,3.13 -4.94,0.57 -9.71,0.9 -14.32,0.9 -23.96,0 -43.71,-6.99 -59.19,-20.99 -15.56,-13.99 -23.29,-31.52 -23.29,-52.76 0,-8.07 1.48,-15.64 4.36,-22.89 2.88,-7.24 7,-13.74 12.43,-19.59 9.96,-9.96 31.44,-18.6 64.45,-26.01 6.75,-1.4 11.94,-2.63 15.64,-3.62 22.06,-4.94 36.55,-9.71 43.63,-14.32 7.08,-4.61 10.62,-10.79 10.62,-18.69 0,-10.12 -4.78,-18.27 -14.49,-24.36 -9.63,-6.09 -22.55,-9.14 -38.85,-9.14 -8.48,0 -18.03,1.48 -28.48,4.53 -10.46,3.04 -21.82,7.65 -34.25,13.74l31.69 -50.21c8.24,-1.15 15.97,-2.06 23.3,-2.63 7.33,-0.66 13.99,-0.99 20.17,-0.99 12.01,0 22.96,1.4 32.76,4.2 9.79,2.8 18.52,6.99 26.09,12.67 9.8,7.17 16.71,16.22 20.83,26.92 4.11,10.78 6.17,27.49 6.17,50.05l0 56.71c0,26.1 2.8,42.15 8.4,48.24 5.59,6.09 16.79,9.8 33.58,11.11z"/>
  <path id="_10_9" class="fil0" d="M3705.08 16622.14c0,-8.23 2.88,-15.15 8.72,-20.99 5.77,-5.76 12.84,-8.65 20.99,-8.65 8.07,0 14.98,2.89 20.58,8.65 5.68,5.84 8.48,12.76 8.48,20.99 0,8.31 -2.8,15.39 -8.31,21.07 -5.6,5.68 -12.51,8.56 -20.75,8.56 -8.31,0 -15.39,-2.88 -21.15,-8.64 -5.68,-5.85 -8.56,-12.84 -8.56,-20.99zm54.33 253.45c0,10.29 1.31,18.85 3.95,25.76 2.63,6.92 6.91,12.92 12.84,18.11l-78.53 0c5.93,-5.19 10.21,-11.19 12.84,-18.11 2.63,-6.91 3.95,-15.47 3.95,-25.76l0 -146.11c0,-10.46 -1.4,-19.18 -4.11,-26.26 -2.72,-7.08 -6.92,-13.25 -12.68,-18.36 13.83,-0.33 25.76,-0.99 35.72,-1.89 9.96,-0.91 18.61,-2.06 26.02,-3.54l0 196.16z"/>
  <path id="_11_10" class="fil0" d="M3876.05 16875.59c0,10.29 1.32,18.85 4.03,25.76 2.64,6.92 6.92,13.01 12.76,18.11l-79.02 0c6.01,-5.1 10.29,-11.19 12.92,-18.11 2.56,-6.91 3.87,-15.47 3.87,-25.76l0 -146.03c0,-10.45 -1.31,-19.26 -4.03,-26.34 -2.64,-7.08 -6.92,-13.17 -12.76,-18.36l5.35 0c7.9,0 16.22,-0.49 24.94,-1.4 8.81,-0.9 18.36,-2.22 28.81,-4.03l2.14 37.54c12.1,-12.93 24.2,-22.39 36.47,-28.49 12.18,-6 25.19,-9.05 39.02,-9.05 26.01,0 47.24,7.9 63.54,23.79 16.3,15.89 24.45,36.63 24.45,62.23l0 110.14c0,10.29 1.32,18.85 3.87,25.76 2.63,6.92 6.91,13.01 12.92,18.11l-79.51 0c5.92,-5.1 10.2,-11.19 12.84,-18.11 2.63,-6.91 3.95,-15.47 3.95,-25.76l0 -83.88c0,-25.52 -4.61,-44.12 -13.91,-55.81 -9.22,-11.61 -23.87,-17.45 -44.04,-17.45 -20.91,0 -35.89,5.35 -44.95,16.05 -9.13,10.7 -13.66,28.56 -13.66,53.59l0 87.5z"/>
  <path id="_12_11" class="fil0" d="M4197.49 16919.46l135.32 -178.13 -74.99 -118.62c-4.44,-6.91 -9.79,-13.58 -15.88,-19.92 -6.09,-6.33 -13.01,-12.43 -20.75,-18.19l71.62 0c2.71,3.71 6.17,8.4 10.29,14.08 4.03,5.76 6.42,9.14 7.08,10.29l58.85 92.27 53.26 -69.64c3.54,-4.69 6.17,-8.89 7.9,-12.67 1.65,-3.79 2.47,-7.41 2.47,-10.95 0,-3.37 -1.07,-6.83 -3.37,-10.45 -2.23,-3.63 -5.93,-7.99 -11.03,-12.93l90.87 0 -116.97 154.01 91.45 138.46c4.78,7.16 10.21,14.16 16.3,20.82 6.09,6.67 13.58,13.83 22.56,21.57l-72.03 0 -93.92 -143.72 -65.61 87.99c-0.82,0.99 -1.81,2.23 -2.88,3.62 -9.71,12.43 -14.48,21.57 -14.48,27.5 0,5.35 5.02,12.92 15.14,22.88l1.73 1.73 -92.93 0z"/>
  <path id="_13_12" class="fil0" d="M4500.16 16919.46c8.4,-8.56 14.73,-17.2 19.18,-26.01 4.44,-8.89 7.57,-19.18 9.55,-30.87l33.5 -224.97c0.82,-5.43 1.4,-10.04 1.81,-13.83 0.41,-3.78 0.58,-7.16 0.58,-10.04 0,-4.94 -0.99,-9.3 -2.88,-13 -1.9,-3.71 -6.51,-9.06 -13.75,-16.14l85.36 0 100.34 248.51 98.12 -248.51 81.58 0c-5.03,4.69 -8.65,9.72 -10.87,15.07 -2.3,5.35 -3.37,11.93 -3.37,19.67 0,3.7 0.08,6.83 0.24,9.38 0.17,2.56 0.41,5.11 0.66,7.74l29.22 229.74c1.24,11.2 3.79,21.07 7.58,29.55 3.78,8.4 9.13,16.3 16.05,23.71l-90.88 0c6.26,-4.69 10.87,-10.12 13.83,-16.38 2.96,-6.26 4.45,-13.5 4.45,-21.73 0,-2.06 0,-3.71 -0.09,-4.94 -0.08,-1.15 -0.24,-2.31 -0.41,-3.21l-27.24 -235.59 -115.99 285.8c-8.64,-5.35 -16.38,-12.59 -23.04,-21.73 -6.67,-9.22 -13.26,-21.65 -19.84,-37.45l-93.35 -225.63 -33.09 220.61c-1.07,6.91 -1.81,11.85 -2.14,14.89 -0.33,3.05 -0.49,5.52 -0.49,7.25 0,8.07 1.56,14.9 4.61,20.66 3.04,5.68 8.23,11.52 15.64,17.45l-84.87 0z"/>
  <path id="_14_13" class="fil0" d="M4989.11 16919.46c7.08,-6.42 12.1,-13.75 15.15,-21.81 3.05,-8.15 4.61,-20.66 4.61,-37.54l0 -216.73c0,-16.88 -1.56,-29.31 -4.61,-37.29 -3.05,-8.07 -8.07,-15.23 -15.15,-21.49l91.87 0c-7.25,6.26 -12.35,13.42 -15.31,21.49 -2.97,7.98 -4.45,20.41 -4.45,37.29l0 232.7c13.01,1.98 24.7,3.37 34.99,4.36 10.29,0.99 19.18,1.48 26.75,1.48 16.87,0 32.92,-2.3 48.23,-6.91 15.32,-4.61 30.13,-11.69 44.62,-21.24l-23.38 65.69 -203.32 0z"/>
  <path id="_15_14" class="fil0" d="M5451.39 16875.5c0,10.38 1.32,18.94 3.87,25.85 2.64,6.92 6.92,12.92 12.92,18.11l-79.02 0c5.93,-5.19 10.21,-11.19 12.84,-18.11 2.64,-6.91 3.95,-15.47 3.95,-25.85l0 -156.56 -26.67 0 26.67 -34.08c0,-1.31 -0.08,-3.21 -0.24,-5.76 -0.17,-2.55 -0.25,-4.44 -0.25,-5.6 0,-33.25 8.64,-58.03 25.93,-74.33 17.29,-16.3 43.54,-24.45 78.78,-24.45 4.19,0 8.64,0.17 13.33,0.5 4.77,0.33 9.38,0.74 13.83,1.15l-26.92 34.41c-5.18,-1.07 -9.79,-1.89 -13.99,-2.55 -4.2,-0.58 -7.99,-0.91 -11.44,-0.91 -12.19,0 -20.91,3.54 -25.93,10.62 -5.11,7.16 -7.66,19.43 -7.66,36.88l0 30.04 59.27 0 0 34.08 -59.27 0 0 156.56z"/>
  <path id="_16_15" class="fil0" d="M5587.21 16795.08c0,29.22 7.49,52.93 22.56,71.04 15.06,18.11 34.65,27.16 58.77,27.16 22.72,0 41.24,-8.06 55.65,-24.28 14.4,-16.13 21.56,-37.04 21.56,-62.64 0,-27.49 -7.65,-50.21 -23.05,-68.08 -15.39,-17.86 -34.9,-26.75 -58.52,-26.75 -22.23,0 -40.58,7.9 -55.15,23.79 -14.57,15.81 -21.82,35.73 -21.82,59.76zm-51.86 9.88c0,-17.7 3.38,-34.33 10.05,-49.8 6.66,-15.48 16.38,-29.39 29.3,-41.57 12.35,-11.61 26.84,-20.58 43.38,-27 16.63,-6.42 33.83,-9.63 51.61,-9.63 18.52,0 35.23,2.96 50.21,8.89 14.99,6.01 28.49,15.06 40.59,27.25 11.85,11.93 20.99,25.27 27.24,40.17 6.26,14.81 9.39,30.37 9.39,46.59 0,17.86 -3.3,34.49 -9.88,50.04 -6.59,15.48 -16.38,29.23 -29.22,41.33 -12.19,11.36 -26.59,20.25 -43.14,26.58 -16.62,6.34 -33.83,9.55 -51.69,9.55 -18.77,0 -35.56,-2.88 -50.38,-8.64 -14.81,-5.85 -28.31,-14.82 -40.58,-27 -11.85,-11.94 -20.99,-25.35 -27.33,-40.42 -6.34,-14.98 -9.55,-30.45 -9.55,-46.34z"/>
  <path id="_17_16" class="fil0" d="M5970.06 16728.82c-3.7,-2.8 -7.49,-4.86 -11.36,-6.09 -3.87,-1.24 -8.15,-1.81 -12.76,-1.81 -17.12,0 -30.12,5.76 -39.01,17.28 -8.97,11.53 -13.42,28.15 -13.42,49.89l0 87.5c0,10.29 1.32,18.85 4.03,25.76 2.64,6.92 6.92,13.01 12.76,18.11l-79.02 0c6.01,-5.1 10.29,-11.19 12.92,-18.11 2.56,-6.91 3.87,-15.47 3.87,-25.76l0 -146.03c0,-10.45 -1.31,-19.26 -4.03,-26.34 -2.64,-7.08 -6.92,-13.17 -12.76,-18.36l5.35 0c7.9,0 16.22,-0.49 24.94,-1.4 8.81,-0.9 18.36,-2.22 28.81,-4.03l3.62 37.37c7.08,-12.51 15.23,-21.81 24.37,-27.82 9.22,-6.01 19.67,-9.06 31.44,-9.06 2.88,0 5.85,0.17 8.89,0.5 3.05,0.33 6.84,0.99 11.36,1.97l0 46.43z"/>
  <path id="_18_17" class="fil0" d="M6062.34 16875.59c0,10.29 1.32,18.85 4.03,25.76 2.64,6.92 6.92,13.01 12.76,18.11l-79.02 0c6.01,-5.1 10.29,-11.19 12.92,-18.11 2.56,-6.91 3.87,-15.47 3.87,-25.76l0 -146.03c0,-10.45 -1.31,-19.26 -4.03,-26.34 -2.64,-7.08 -6.92,-13.17 -12.76,-18.36l5.35 0c7.9,0 16.22,-0.49 24.94,-1.4 8.81,-0.9 18.36,-2.22 28.81,-4.03l2.14 37.54c11.94,-12.76 24.04,-22.23 36.47,-28.32 12.35,-6.17 25.35,-9.22 39.02,-9.22 16.38,0 31.19,3.37 44.36,10.21 13.17,6.75 25.11,17.12 35.73,30.95 14.65,-14.16 28.56,-24.62 41.81,-31.2 13.34,-6.67 26.84,-9.96 40.67,-9.96 25.93,0 47,7.9 63.13,23.71 16.22,15.72 24.29,36.54 24.29,62.31l0 110.14c0,10.29 1.31,18.85 3.95,25.76 2.63,6.92 6.91,13.01 12.84,18.11l-79.02 0c5.92,-5.1 10.2,-11.19 12.84,-18.11 2.63,-6.91 3.95,-15.47 3.95,-25.76l0 -83.88c0,-25.52 -4.61,-44.12 -13.91,-55.81 -9.22,-11.61 -23.87,-17.45 -44.04,-17.45 -20.91,0 -35.89,5.35 -44.95,16.05 -9.13,10.7 -13.66,28.56 -13.66,53.59l0 87.5c0,10.29 1.32,18.85 3.87,25.76 2.63,6.92 6.91,13.01 12.92,18.11l-79.51 0c5.92,-5.1 10.2,-11.19 12.84,-18.11 2.63,-6.91 3.95,-15.47 3.95,-25.76l0 -83.88c0,-25.52 -4.61,-44.12 -13.91,-55.81 -9.22,-11.61 -23.87,-17.45 -44.04,-17.45 -20.91,0 -35.89,5.35 -44.95,16.05 -9.13,10.7 -13.66,28.56 -13.66,53.59l0 87.5z"/>
  <path id="_19_18" class="fil0" d="M6673.86 16886.86l-20.17 31.53c-23.78,0 -40.74,-4.28 -50.95,-12.84 -10.21,-8.64 -15.31,-22.97 -15.31,-43.05l0 -69.48c-2.55,0.66 -6.5,1.73 -11.85,3.13 -59.6,16.3 -89.4,34 -89.4,53.1 0,12.26 5.02,22.14 14.98,29.71 9.96,7.57 23.14,11.36 39.52,11.36 4.52,0 9.63,-0.41 15.39,-1.32 5.84,-0.9 12.35,-2.3 19.51,-4.03l-26.75 35.89c-5.93,1.4 -11.36,2.47 -16.22,3.13 -4.94,0.57 -9.71,0.9 -14.32,0.9 -23.96,0 -43.71,-6.99 -59.19,-20.99 -15.56,-13.99 -23.29,-31.52 -23.29,-52.76 0,-8.07 1.48,-15.64 4.36,-22.89 2.88,-7.24 7,-13.74 12.43,-19.59 9.96,-9.96 31.44,-18.6 64.45,-26.01 6.75,-1.4 11.94,-2.63 15.64,-3.62 22.06,-4.94 36.55,-9.71 43.63,-14.32 7.08,-4.61 10.62,-10.79 10.62,-18.69 0,-10.12 -4.78,-18.27 -14.49,-24.36 -9.63,-6.09 -22.55,-9.14 -38.85,-9.14 -8.48,0 -18.03,1.48 -28.48,4.53 -10.46,3.04 -21.82,7.65 -34.25,13.74l31.69 -50.21c8.24,-1.15 15.97,-2.06 23.3,-2.63 7.33,-0.66 13.99,-0.99 20.17,-0.99 12.01,0 22.96,1.4 32.76,4.2 9.79,2.8 18.52,6.99 26.09,12.67 9.8,7.17 16.71,16.22 20.83,26.92 4.11,10.78 6.17,27.49 6.17,50.05l0 56.71c0,26.1 2.8,42.15 8.4,48.24 5.59,6.09 16.79,9.8 33.58,11.11z"/>
  <path id="_20_19" class="fil0" d="M6718.8 16718.94l-32.1 0 0 -17.29c19.34,-1.72 34.49,-10.61 45.52,-26.67 10.95,-15.96 16.87,-37.7 17.7,-65.19l14.32 0 0 75.07 69.64 0 0 43.96c-3.87,-3.46 -8.56,-6.01 -14.08,-7.57 -5.6,-1.57 -12.84,-2.31 -21.81,-2.31l-33.75 0 0 114.17c0,20.83 3.46,36.22 10.45,46.02 7,9.79 17.78,14.65 32.44,14.65 3.37,-0.17 6.91,-0.5 10.61,-1.07 3.71,-0.58 7.41,-1.32 11.12,-2.31l-23.63 34.49c-0.33,0 -0.74,0 -1.23,0 -6.42,0.66 -11.12,0.99 -14,0.99 -23.62,0 -41.4,-5.93 -53.34,-17.86 -11.93,-11.86 -17.86,-29.47 -17.86,-52.77l0 -136.31z"/>
  <path id="_21_20" class="fil0" d="M7063.04 16795.08c0,29.22 7.49,52.93 22.56,71.04 15.06,18.11 34.65,27.16 58.77,27.16 22.72,0 41.24,-8.06 55.65,-24.28 14.4,-16.13 21.56,-37.04 21.56,-62.64 0,-27.49 -7.65,-50.21 -23.05,-68.08 -15.39,-17.86 -34.9,-26.75 -58.52,-26.75 -22.23,0 -40.58,7.9 -55.15,23.79 -14.57,15.81 -21.82,35.73 -21.82,59.76zm-51.86 9.88c0,-17.7 3.38,-34.33 10.05,-49.8 6.66,-15.48 16.38,-29.39 29.3,-41.57 12.35,-11.61 26.84,-20.58 43.38,-27 16.63,-6.42 33.83,-9.63 51.61,-9.63 18.52,0 35.23,2.96 50.21,8.89 14.99,6.01 28.49,15.06 40.59,27.25 11.85,11.93 20.99,25.27 27.24,40.17 6.26,14.81 9.39,30.37 9.39,46.59 0,17.86 -3.3,34.49 -9.88,50.04 -6.59,15.48 -16.38,29.23 -29.22,41.33 -12.19,11.36 -26.59,20.25 -43.14,26.58 -16.62,6.34 -33.83,9.55 -51.69,9.55 -18.77,0 -35.56,-2.88 -50.38,-8.64 -14.81,-5.85 -28.31,-14.82 -40.58,-27 -11.85,-11.94 -20.99,-25.35 -27.33,-40.42 -6.34,-14.98 -9.55,-30.45 -9.55,-46.34z"/>
  <path id="_22_21" class="fil0" d="M7369.34 16875.59c0,10.29 1.32,18.85 4.03,25.76 2.64,6.92 6.92,13.01 12.76,18.11l-79.02 0c6.01,-5.1 10.29,-11.19 12.92,-18.11 2.56,-6.91 3.87,-15.47 3.87,-25.76l0 -146.03c0,-10.45 -1.31,-19.26 -4.03,-26.34 -2.64,-7.08 -6.92,-13.17 -12.76,-18.36l5.35 0c7.9,0 16.22,-0.49 24.94,-1.4 8.81,-0.9 18.36,-2.22 28.81,-4.03l2.14 37.54c12.1,-12.93 24.2,-22.39 36.47,-28.49 12.18,-6 25.19,-9.05 39.02,-9.05 26.01,0 47.24,7.9 63.54,23.79 16.3,15.89 24.45,36.63 24.45,62.23l0 110.14c0,10.29 1.32,18.85 3.87,25.76 2.63,6.92 6.91,13.01 12.92,18.11l-79.51 0c5.92,-5.1 10.2,-11.19 12.84,-18.11 2.63,-6.91 3.95,-15.47 3.95,-25.76l0 -83.88c0,-25.52 -4.61,-44.12 -13.91,-55.81 -9.22,-11.61 -23.87,-17.45 -44.04,-17.45 -20.91,0 -35.89,5.35 -44.95,16.05 -9.13,10.7 -13.66,28.56 -13.66,53.59l0 87.5z"/>
  <path id="_23" class="fil0" d="M7792.02 16882.42c6.26,3.54 12.68,6.17 19.35,7.82 6.58,1.73 13.66,2.55 21.24,2.55 27.16,0 48.73,-8.15 64.53,-24.37 15.89,-16.21 23.79,-38.19 23.79,-65.85 0,-25.02 -6.5,-45.35 -19.59,-60.83 -13.01,-15.56 -30.05,-23.29 -51.12,-23.29 -6.01,0 -12.51,0.82 -19.59,2.55 -7.08,1.64 -15.06,4.11 -23.87,7.32l25.35 -45.02c5.27,-0.74 10.04,-1.4 14.32,-1.81 4.28,-0.41 8.32,-0.58 12.19,-0.58 33.58,0 60.58,10.62 80.83,31.94 20.25,21.32 30.37,49.64 30.37,85.03 0,40.01 -13.08,71.86 -39.34,95.49 -26.18,23.62 -61.66,35.47 -106.35,35.47 -11.94,0 -25.77,-0.98 -41.49,-3.04 -15.8,-1.98 -33.58,-4.86 -53.34,-8.73 5.84,-5.1 10.12,-11.27 12.76,-18.27 2.72,-7.08 4.03,-15.81 4.03,-26.26l0 -252.95c0,-10.46 -1.31,-19.18 -4.03,-26.18 -2.64,-7 -6.92,-13.01 -12.76,-18.19l62.72 0 0 307.2z"/>
  <path id="_24" class="fil0" d="M8057.74 16763.39l125.53 0c-0.99,-16.54 -7.08,-30.04 -18.36,-40.58 -11.28,-10.45 -25.27,-15.72 -41.98,-15.72 -18.03,0 -32.84,5.02 -44.45,15.06 -11.53,9.96 -18.52,23.79 -20.74,41.24zm-3.38 33.09c1.15,29.31 10.45,52.6 27.91,69.89 17.45,17.28 40.25,25.93 68.4,25.93 12.51,0 25.76,-2.06 39.68,-6.18 13.91,-4.11 29.05,-10.45 45.27,-19.01l-26.01 45.35c-14.08,5.11 -27.08,8.98 -39.1,11.53 -12.1,2.55 -23.46,3.87 -34.08,3.87 -39.1,0 -71.29,-11.86 -96.56,-35.48 -25.27,-23.63 -37.86,-53.59 -37.86,-89.89 0,-37.29 11.6,-67.83 34.9,-91.7 23.21,-23.87 52.93,-35.81 89.15,-35.81 33.33,0 59.76,10.87 79.43,32.68 19.59,21.73 29.63,51.37 30.13,88.82l-181.26 0z"/>
  <path id="_25" class="fil0" d="M8334.4 16875.59c0,10.29 1.32,18.85 4.03,25.76 2.64,6.92 6.92,12.92 12.76,18.11l-79.02 0c6.01,-5.19 10.29,-11.19 12.92,-18.11 2.56,-6.91 3.87,-15.47 3.87,-25.76l0 -250.57c0,-10.29 -1.31,-18.93 -3.87,-25.85 -2.63,-6.83 -6.91,-12.92 -12.92,-18.02l4.36 0c6.92,0 15.07,-0.5 24.45,-1.49 9.47,-0.98 20.25,-2.47 32.43,-4.44l0 141.75c12.1,-12.93 24.2,-22.39 36.47,-28.49 12.18,-6 25.19,-9.05 39.02,-9.05 26.01,0 47.24,7.9 63.54,23.79 16.3,15.89 24.45,36.63 24.45,62.23l0 110.14c0,10.29 1.32,18.85 3.87,25.76 2.63,6.92 6.91,12.92 12.92,18.11l-79.51 0c5.92,-5.19 10.2,-11.19 12.84,-18.11 2.63,-6.91 3.95,-15.47 3.95,-25.76l0 -83.88c0,-25.69 -4.61,-44.45 -13.91,-56.14 -9.22,-11.77 -23.87,-17.62 -44.04,-17.62 -20.91,0 -35.89,5.35 -44.95,16.14 -9.13,10.78 -13.66,28.81 -13.66,54l0 87.5z"/>
  <path id="_26" class="fil0" d="M8783.34 16886.86l-20.17 31.53c-23.78,0 -40.74,-4.28 -50.95,-12.84 -10.21,-8.64 -15.31,-22.97 -15.31,-43.05l0 -69.48c-2.55,0.66 -6.5,1.73 -11.85,3.13 -59.6,16.3 -89.4,34 -89.4,53.1 0,12.26 5.02,22.14 14.98,29.71 9.96,7.57 23.14,11.36 39.52,11.36 4.52,0 9.63,-0.41 15.39,-1.32 5.84,-0.9 12.35,-2.3 19.51,-4.03l-26.75 35.89c-5.93,1.4 -11.36,2.47 -16.22,3.13 -4.94,0.57 -9.71,0.9 -14.32,0.9 -23.96,0 -43.71,-6.99 -59.19,-20.99 -15.56,-13.99 -23.29,-31.52 -23.29,-52.76 0,-8.07 1.48,-15.64 4.36,-22.89 2.88,-7.24 7,-13.74 12.43,-19.59 9.96,-9.96 31.44,-18.6 64.45,-26.01 6.75,-1.4 11.94,-2.63 15.64,-3.62 22.06,-4.94 36.55,-9.71 43.63,-14.32 7.08,-4.61 10.62,-10.79 10.62,-18.69 0,-10.12 -4.78,-18.27 -14.49,-24.36 -9.63,-6.09 -22.55,-9.14 -38.85,-9.14 -8.48,0 -18.03,1.48 -28.48,4.53 -10.46,3.04 -21.82,7.65 -34.25,13.74l31.69 -50.21c8.24,-1.15 15.97,-2.06 23.3,-2.63 7.33,-0.66 13.99,-0.99 20.17,-0.99 12.01,0 22.96,1.4 32.76,4.2 9.79,2.8 18.52,6.99 26.09,12.67 9.8,7.17 16.71,16.22 20.83,26.92 4.11,10.78 6.17,27.49 6.17,50.05l0 56.71c0,26.1 2.8,42.15 8.4,48.24 5.59,6.09 16.79,9.8 33.58,11.11z"/>
  <path id="_27" class="fil0" d="M8868.78 16875.59c0,10.29 1.32,18.85 4.03,25.76 2.64,6.92 6.92,12.92 12.76,18.11l-78.53 0c6.01,-5.19 10.29,-11.19 12.93,-18.11 2.55,-6.91 3.87,-15.47 3.87,-25.76l0 -250.57c0,-10.29 -1.32,-18.85 -3.87,-25.77 -2.64,-6.91 -6.92,-13 -12.93,-18.1l5.35 0c5.19,0 11.45,-0.42 18.94,-1.16 7.49,-0.74 19.92,-2.3 37.45,-4.77l0 300.37z"/>
  <path id="_28" class="fil0" d="M8990.27 16875.5c0,10.38 1.32,18.94 3.87,25.85 2.64,6.92 6.92,12.92 12.92,18.11l-79.02 0c5.93,-5.19 10.21,-11.19 12.84,-18.11 2.64,-6.91 3.95,-15.47 3.95,-25.85l0 -156.56 -26.67 0 26.67 -34.08c0,-1.31 -0.08,-3.21 -0.24,-5.76 -0.17,-2.55 -0.25,-4.44 -0.25,-5.6 0,-33.25 8.64,-58.03 25.93,-74.33 17.29,-16.3 43.54,-24.45 78.78,-24.45 4.19,0 8.64,0.17 13.33,0.5 4.77,0.33 9.38,0.74 13.83,1.15l-26.92 34.41c-5.18,-1.07 -9.79,-1.89 -13.99,-2.55 -4.2,-0.58 -7.99,-0.91 -11.44,-0.91 -12.19,0 -20.91,3.54 -25.93,10.62 -5.11,7.16 -7.66,19.43 -7.66,36.88l0 30.04 59.27 0 0 34.08 -59.27 0 0 156.56z"/>
  <path id="_29" class="fil0" d="M9272.2 16795.08c0,29.22 7.49,52.93 22.56,71.04 15.06,18.11 34.65,27.16 58.77,27.16 22.72,0 41.24,-8.06 55.65,-24.28 14.4,-16.13 21.56,-37.04 21.56,-62.64 0,-27.49 -7.65,-50.21 -23.05,-68.08 -15.39,-17.86 -34.9,-26.75 -58.52,-26.75 -22.23,0 -40.58,7.9 -55.15,23.79 -14.57,15.81 -21.82,35.73 -21.82,59.76zm-51.86 9.88c0,-17.7 3.38,-34.33 10.05,-49.8 6.66,-15.48 16.38,-29.39 29.3,-41.57 12.35,-11.61 26.84,-20.58 43.38,-27 16.63,-6.42 33.83,-9.63 51.61,-9.63 18.52,0 35.23,2.96 50.21,8.89 14.99,6.01 28.49,15.06 40.59,27.25 11.85,11.93 20.99,25.27 27.24,40.17 6.26,14.81 9.39,30.37 9.39,46.59 0,17.86 -3.3,34.49 -9.88,50.04 -6.59,15.48 -16.38,29.23 -29.22,41.33 -12.19,11.36 -26.59,20.25 -43.14,26.58 -16.62,6.34 -33.83,9.55 -51.69,9.55 -18.77,0 -35.56,-2.88 -50.38,-8.64 -14.81,-5.85 -28.31,-14.82 -40.58,-27 -11.85,-11.94 -20.99,-25.35 -27.33,-40.42 -6.34,-14.98 -9.55,-30.45 -9.55,-46.34z"/>
  <path id="_30" class="fil0" d="M9586.4 16875.5c0,10.38 1.32,18.94 3.87,25.85 2.64,6.92 6.92,12.92 12.92,18.11l-79.02 0c5.93,-5.19 10.21,-11.19 12.84,-18.11 2.64,-6.91 3.95,-15.47 3.95,-25.85l0 -156.56 -26.67 0 26.67 -34.08c0,-1.31 -0.08,-3.21 -0.24,-5.76 -0.17,-2.55 -0.25,-4.44 -0.25,-5.6 0,-33.25 8.64,-58.03 25.93,-74.33 17.29,-16.3 43.54,-24.45 78.78,-24.45 4.19,0 8.64,0.17 13.33,0.5 4.77,0.33 9.38,0.74 13.83,1.15l-26.92 34.41c-5.18,-1.07 -9.79,-1.89 -13.99,-2.55 -4.2,-0.58 -7.99,-0.91 -11.44,-0.91 -12.19,0 -20.91,3.54 -25.93,10.62 -5.11,7.16 -7.66,19.43 -7.66,36.88l0 30.04 59.27 0 0 34.08 -59.27 0 0 156.56z"/>
  <path id="_31" class="fil0" d="M10053.54 16886.86l-20.17 31.53c-23.78,0 -40.74,-4.28 -50.95,-12.84 -10.21,-8.64 -15.31,-22.97 -15.31,-43.05l0 -69.48c-2.55,0.66 -6.5,1.73 -11.85,3.13 -59.6,16.3 -89.4,34 -89.4,53.1 0,12.26 5.02,22.14 14.98,29.71 9.96,7.57 23.14,11.36 39.52,11.36 4.52,0 9.63,-0.41 15.39,-1.32 5.84,-0.9 12.35,-2.3 19.51,-4.03l-26.75 35.89c-5.93,1.4 -11.36,2.47 -16.22,3.13 -4.94,0.57 -9.71,0.9 -14.32,0.9 -23.96,0 -43.71,-6.99 -59.19,-20.99 -15.56,-13.99 -23.29,-31.52 -23.29,-52.76 0,-8.07 1.48,-15.64 4.36,-22.89 2.88,-7.24 7,-13.74 12.43,-19.59 9.96,-9.96 31.44,-18.6 64.45,-26.01 6.75,-1.4 11.94,-2.63 15.64,-3.62 22.06,-4.94 36.55,-9.71 43.63,-14.32 7.08,-4.61 10.62,-10.79 10.62,-18.69 0,-10.12 -4.78,-18.27 -14.49,-24.36 -9.63,-6.09 -22.55,-9.14 -38.85,-9.14 -8.48,0 -18.03,1.48 -28.48,4.53 -10.46,3.04 -21.82,7.65 -34.25,13.74l31.69 -50.21c8.24,-1.15 15.97,-2.06 23.3,-2.63 7.33,-0.66 13.99,-0.99 20.17,-0.99 12.01,0 22.96,1.4 32.76,4.2 9.79,2.8 18.52,6.99 26.09,12.67 9.8,7.17 16.71,16.22 20.83,26.92 4.11,10.78 6.17,27.49 6.17,50.05l0 56.71c0,26.1 2.8,42.15 8.4,48.24 5.59,6.09 16.79,9.8 33.58,11.11z"/>
  <path id="_32" class="fil0" d="M10363.62 16860.11c0,16.88 1.56,29.39 4.61,37.54 3.04,8.06 8.07,15.39 15.14,21.81l-91.86 0c7.24,-6.42 12.35,-13.75 15.31,-21.81 2.96,-8.15 4.45,-20.66 4.45,-37.54l0 -238.96 -27 0c-18.69,0 -33.83,1.4 -45.44,4.28 -11.61,2.88 -20.91,7.57 -27.82,13.99l16.71 -54.82 239.62 0 -15.64 53.84c-5.03,-5.93 -11.61,-10.29 -19.68,-13.09 -8.15,-2.8 -18.44,-4.2 -30.78,-4.2l-37.62 0 0 238.96z"/>
  <path id="_33" class="fil0" d="M10573.52 16860.19c0,16.88 1.48,29.31 4.45,37.46 2.96,8.15 8.06,15.39 15.31,21.81l-91.87 0c7.08,-6.42 12.1,-13.66 15.15,-21.81 3.05,-8.15 4.61,-20.58 4.61,-37.46l0 -216.98c0,-16.79 -1.56,-29.22 -4.61,-37.21 -3.05,-8.06 -8.07,-15.14 -15.15,-21.4l183.73 0 0 52.35c-8.23,-6.42 -17.2,-11.03 -27.08,-13.91 -9.8,-2.88 -21.16,-4.36 -34,-4.36 -6.66,0 -14.07,0.49 -22.22,1.56 -8.23,1.08 -17.53,2.64 -27.82,4.7l0 94.49 81.98 0 0 48.9c-3.87,-4.53 -9.05,-7.74 -15.64,-9.55 -6.67,-1.89 -18.68,-2.8 -36.22,-2.8l-30.62 0 0 104.21z"/>
  <path id="_34" class="fil0" d="M10807.71 16860.19c0,16.88 1.48,29.31 4.45,37.46 2.96,8.15 8.06,15.39 15.31,21.81l-91.87 0c7.08,-6.42 12.1,-13.66 15.15,-21.81 3.05,-8.15 4.61,-20.58 4.61,-37.46l0 -216.9c0,-16.87 -1.56,-29.22 -4.61,-37.29 -3.05,-7.98 -8.07,-15.14 -15.15,-21.4l119.85 0c36.55,0 65.61,8.32 87.26,24.94 21.65,16.63 32.43,38.77 32.43,66.43 0,27.17 -9.88,49.06 -29.72,65.77 -19.75,16.71 -45.93,25.11 -78.61,25.11 -5.51,0 -11.36,-0.33 -17.78,-0.99 -6.33,-0.66 -13,-1.65 -20.08,-2.96 30.04,-5.6 52.76,-15.23 68.24,-28.81 15.39,-13.59 23.13,-30.87 23.13,-51.7 0,-19.34 -6.75,-34.57 -20.17,-45.85 -13.42,-11.27 -31.61,-16.87 -54.57,-16.87 -5.02,0 -10.62,0.33 -17.04,1.07 -6.34,0.74 -13.26,1.81 -20.83,3.29l0 236.16z"/>
  <path id="_35" class="fil0" d="M11148.58 16927.36c-17.04,-3.54 -30.54,-10.86 -40.42,-21.89 -9.88,-11.12 -19.18,-30.46 -27.82,-58.12l-61.74 -194.51c-4.85,-15.64 -10.12,-28.89 -15.8,-39.92 -5.68,-11.03 -12.1,-20.42 -19.18,-28.32l70.13 0c0,4.2 0.41,8.56 1.24,13.26 0.82,4.69 1.97,9.79 3.62,15.47l77.13 249.99 66.1 -209.98c2.71,-8.89 4.69,-15.97 5.76,-21.41 1.15,-5.35 1.73,-10.04 1.73,-14.07 0,-4.53 -1.32,-9.3 -3.87,-14.32 -2.55,-5.11 -6.92,-11.36 -13.01,-18.94l67.75 0 0 7c0,14.16 2.96,30.62 8.89,49.39 0.98,3.04 1.64,5.27 1.97,6.5l65.53 215.09 64.37 -200.85c2.46,-7.82 4.36,-15.23 5.68,-22.06 1.39,-6.83 2.05,-12.68 2.05,-17.45 0,-5.93 -1.48,-12.02 -4.61,-18.11 -3.04,-6.09 -7.9,-12.59 -14.65,-19.51l74.25 0 -113.6 342.76c-15.72,-3.21 -28.81,-10.29 -39.26,-21.32 -10.45,-11.03 -18.85,-26.5 -25.11,-46.42l-57.12 -180.52 -80.01 248.26z"/>
  <path id="_36" class="fil0" d="M11489.04 16763.39l125.53 0c-0.99,-16.54 -7.08,-30.04 -18.36,-40.58 -11.28,-10.45 -25.27,-15.72 -41.98,-15.72 -18.03,0 -32.84,5.02 -44.45,15.06 -11.53,9.96 -18.52,23.79 -20.74,41.24zm-3.38 33.09c1.15,29.31 10.45,52.6 27.91,69.89 17.45,17.28 40.25,25.93 68.4,25.93 12.51,0 25.76,-2.06 39.68,-6.18 13.91,-4.11 29.05,-10.45 45.27,-19.01l-26.01 45.35c-14.08,5.11 -27.08,8.98 -39.1,11.53 -12.1,2.55 -23.46,3.87 -34.08,3.87 -39.1,0 -71.29,-11.86 -96.56,-35.48 -25.27,-23.63 -37.86,-53.59 -37.86,-89.89 0,-37.29 11.6,-67.83 34.9,-91.7 23.21,-23.87 52.93,-35.81 89.15,-35.81 33.33,0 59.76,10.87 79.43,32.68 19.59,21.73 29.63,51.37 30.13,88.82l-181.26 0z"/>
  <path id="_37" class="fil0" d="M11766.19 16882.42c6.26,3.54 12.68,6.17 19.35,7.82 6.58,1.73 13.66,2.55 21.24,2.55 27.16,0 48.73,-8.15 64.53,-24.37 15.89,-16.21 23.79,-38.19 23.79,-65.85 0,-25.02 -6.5,-45.35 -19.59,-60.83 -13.01,-15.56 -30.05,-23.29 -51.12,-23.29 -6.01,0 -12.51,0.82 -19.59,2.55 -7.08,1.64 -15.06,4.11 -23.87,7.32l25.35 -45.02c5.27,-0.74 10.04,-1.4 14.32,-1.81 4.28,-0.41 8.32,-0.58 12.19,-0.58 33.58,0 60.58,10.62 80.83,31.94 20.25,21.32 30.37,49.64 30.37,85.03 0,40.01 -13.08,71.86 -39.34,95.49 -26.18,23.62 -61.66,35.47 -106.35,35.47 -11.94,0 -25.77,-0.98 -41.49,-3.04 -15.8,-1.98 -33.58,-4.86 -53.34,-8.73 5.84,-5.1 10.12,-11.27 12.76,-18.27 2.72,-7.08 4.03,-15.81 4.03,-26.26l0 -252.95c0,-10.46 -1.31,-19.18 -4.03,-26.18 -2.64,-7 -6.92,-13.01 -12.76,-18.19l62.72 0 0 307.2z"/>
  <path id="_38" class="fil0" d="M12055.69 16878.88c12.19,1.89 22.72,3.29 31.61,4.2 8.81,0.9 16.47,1.31 22.89,1.31 37.29,0 68.07,-12.59 92.35,-37.7 24.29,-25.18 36.39,-57.04 36.39,-95.65 0,-39.51 -12.02,-71.28 -36.14,-95.32 -24.12,-24.03 -56.22,-36.05 -96.22,-36.05 -8.24,0 -16.55,0.57 -25.11,1.65 -8.48,1.15 -17.12,2.96 -25.77,5.35l0 252.21zm-72.1 40.58c7.08,-6.26 12.01,-13.34 14.9,-21.24 2.88,-7.9 4.36,-20.66 4.36,-38.19l0 -216.74c0,-17.45 -1.48,-30.12 -4.36,-37.86 -2.89,-7.82 -7.82,-14.74 -14.9,-20.83l116.72 0c31.36,0 57.21,3.05 77.62,9.14 20.42,6.09 39.35,16.13 56.72,29.88 19.42,15.48 34.08,33.58 43.87,54.25 9.8,20.74 14.74,43.79 14.74,69.22 0,22.97 -3.63,44.29 -10.95,63.88 -7.33,19.59 -18.28,37.37 -32.93,53.26 -17.86,19.51 -39.59,33.5 -65.27,42.22 -25.6,8.65 -58.86,13.01 -99.69,13.01l-100.83 0z"/>
  <path id="_39" class="fil0" d="M12567.94 16886.86l-20.17 31.53c-23.78,0 -40.74,-4.28 -50.95,-12.84 -10.21,-8.64 -15.31,-22.97 -15.31,-43.05l0 -69.48c-2.55,0.66 -6.5,1.73 -11.85,3.13 -59.6,16.3 -89.4,34 -89.4,53.1 0,12.26 5.02,22.14 14.98,29.71 9.96,7.57 23.14,11.36 39.52,11.36 4.52,0 9.63,-0.41 15.39,-1.32 5.84,-0.9 12.35,-2.3 19.51,-4.03l-26.75 35.89c-5.93,1.4 -11.36,2.47 -16.22,3.13 -4.94,0.57 -9.71,0.9 -14.32,0.9 -23.96,0 -43.71,-6.99 -59.19,-20.99 -15.56,-13.99 -23.29,-31.52 -23.29,-52.76 0,-8.07 1.48,-15.64 4.36,-22.89 2.88,-7.24 7,-13.74 12.43,-19.59 9.96,-9.96 31.44,-18.6 64.45,-26.01 6.75,-1.4 11.94,-2.63 15.64,-3.62 22.06,-4.94 36.55,-9.71 43.63,-14.32 7.08,-4.61 10.62,-10.79 10.62,-18.69 0,-10.12 -4.78,-18.27 -14.49,-24.36 -9.63,-6.09 -22.55,-9.14 -38.85,-9.14 -8.48,0 -18.03,1.48 -28.48,4.53 -10.46,3.04 -21.82,7.65 -34.25,13.74l31.69 -50.21c8.24,-1.15 15.97,-2.06 23.3,-2.63 7.33,-0.66 13.99,-0.99 20.17,-0.99 12.01,0 22.96,1.4 32.76,4.2 9.79,2.8 18.52,6.99 26.09,12.67 9.8,7.17 16.71,16.22 20.83,26.92 4.11,10.78 6.17,27.49 6.17,50.05l0 56.71c0,26.1 2.8,42.15 8.4,48.24 5.59,6.09 16.79,9.8 33.58,11.11z"/>
  <path id="_40" class="fil0" d="M12612.88 16718.94l-32.1 0 0 -17.29c19.34,-1.72 34.49,-10.61 45.52,-26.67 10.95,-15.96 16.87,-37.7 17.7,-65.19l14.32 0 0 75.07 69.64 0 0 43.96c-3.87,-3.46 -8.56,-6.01 -14.08,-7.57 -5.6,-1.57 -12.84,-2.31 -21.81,-2.31l-33.75 0 0 114.17c0,20.83 3.46,36.22 10.45,46.02 7,9.79 17.78,14.65 32.44,14.65 3.37,-0.17 6.91,-0.5 10.61,-1.07 3.71,-0.58 7.41,-1.32 11.12,-2.31l-23.63 34.49c-0.33,0 -0.74,0 -1.23,0 -6.42,0.66 -11.12,0.99 -14,0.99 -23.62,0 -41.4,-5.93 -53.34,-17.86 -11.93,-11.86 -17.86,-29.47 -17.86,-52.77l0 -136.31z"/>
  <path id="_41" class="fil0" d="M12996.22 16886.86l-20.17 31.53c-23.78,0 -40.74,-4.28 -50.95,-12.84 -10.21,-8.64 -15.31,-22.97 -15.31,-43.05l0 -69.48c-2.55,0.66 -6.5,1.73 -11.85,3.13 -59.6,16.3 -89.4,34 -89.4,53.1 0,12.26 5.02,22.14 14.98,29.71 9.96,7.57 23.14,11.36 39.52,11.36 4.52,0 9.63,-0.41 15.39,-1.32 5.84,-0.9 12.35,-2.3 19.51,-4.03l-26.75 35.89c-5.93,1.4 -11.36,2.47 -16.22,3.13 -4.94,0.57 -9.71,0.9 -14.32,0.9 -23.96,0 -43.71,-6.99 -59.19,-20.99 -15.56,-13.99 -23.29,-31.52 -23.29,-52.76 0,-8.07 1.48,-15.64 4.36,-22.89 2.88,-7.24 7,-13.74 12.43,-19.59 9.96,-9.96 31.44,-18.6 64.45,-26.01 6.75,-1.4 11.94,-2.63 15.64,-3.62 22.06,-4.94 36.55,-9.71 43.63,-14.32 7.08,-4.61 10.62,-10.79 10.62,-18.69 0,-10.12 -4.78,-18.27 -14.49,-24.36 -9.63,-6.09 -22.55,-9.14 -38.85,-9.14 -8.48,0 -18.03,1.48 -28.48,4.53 -10.46,3.04 -21.82,7.65 -34.25,13.74l31.69 -50.21c8.24,-1.15 15.97,-2.06 23.3,-2.63 7.33,-0.66 13.99,-0.99 20.17,-0.99 12.01,0 22.96,1.4 32.76,4.2 9.79,2.8 18.52,6.99 26.09,12.67 9.8,7.17 16.71,16.22 20.83,26.92 4.11,10.78 6.17,27.49 6.17,50.05l0 56.71c0,26.1 2.8,42.15 8.4,48.24 5.59,6.09 16.79,9.8 33.58,11.11z"/>
  <path id="_42" class="fil0" d="M13100.92 16860.19c0,16.88 1.48,29.31 4.45,37.46 2.96,8.15 8.06,15.39 15.31,21.81l-91.87 0c7.08,-6.42 12.1,-13.66 15.15,-21.81 3.05,-8.15 4.61,-20.58 4.61,-37.46l0 -216.9c0,-16.87 -1.56,-29.22 -4.61,-37.29 -3.05,-7.98 -8.07,-15.14 -15.15,-21.4l119.85 0c36.55,0 65.61,8.32 87.26,24.94 21.65,16.63 32.43,38.77 32.43,66.43 0,27.17 -9.88,49.06 -29.72,65.77 -19.75,16.71 -45.93,25.11 -78.61,25.11 -5.51,0 -11.36,-0.33 -17.78,-0.99 -6.33,-0.66 -13,-1.65 -20.08,-2.96 30.04,-5.6 52.76,-15.23 68.24,-28.81 15.39,-13.59 23.13,-30.87 23.13,-51.7 0,-19.34 -6.75,-34.57 -20.17,-45.85 -13.42,-11.27 -31.61,-16.87 -54.57,-16.87 -5.02,0 -10.62,0.33 -17.04,1.07 -6.34,0.74 -13.26,1.81 -20.83,3.29l0 236.16z"/>
  <path id="_43" class="fil0" d="M13443.76 16728.82c-3.7,-2.8 -7.49,-4.86 -11.36,-6.09 -3.87,-1.24 -8.15,-1.81 -12.76,-1.81 -17.12,0 -30.12,5.76 -39.01,17.28 -8.97,11.53 -13.42,28.15 -13.42,49.89l0 87.5c0,10.29 1.32,18.85 4.03,25.76 2.64,6.92 6.92,13.01 12.76,18.11l-79.02 0c6.01,-5.1 10.29,-11.19 12.92,-18.11 2.56,-6.91 3.87,-15.47 3.87,-25.76l0 -146.03c0,-10.45 -1.31,-19.26 -4.03,-26.34 -2.64,-7.08 -6.92,-13.17 -12.76,-18.36l5.35 0c7.9,0 16.22,-0.49 24.94,-1.4 8.81,-0.9 18.36,-2.22 28.81,-4.03l3.62 37.37c7.08,-12.51 15.23,-21.81 24.37,-27.82 9.22,-6.01 19.67,-9.06 31.44,-9.06 2.88,0 5.85,0.17 8.89,0.5 3.05,0.33 6.84,0.99 11.36,1.97l0 46.43z"/>
  <path id="_44" class="fil0" d="M13523.69 16795.08c0,29.22 7.49,52.93 22.56,71.04 15.06,18.11 34.65,27.16 58.77,27.16 22.72,0 41.24,-8.06 55.65,-24.28 14.4,-16.13 21.56,-37.04 21.56,-62.64 0,-27.49 -7.65,-50.21 -23.05,-68.08 -15.39,-17.86 -34.9,-26.75 -58.52,-26.75 -22.23,0 -40.58,7.9 -55.15,23.79 -14.57,15.81 -21.82,35.73 -21.82,59.76zm-51.86 9.88c0,-17.7 3.38,-34.33 10.05,-49.8 6.66,-15.48 16.38,-29.39 29.3,-41.57 12.35,-11.61 26.84,-20.58 43.38,-27 16.63,-6.42 33.83,-9.63 51.61,-9.63 18.52,0 35.23,2.96 50.21,8.89 14.99,6.01 28.49,15.06 40.59,27.25 11.85,11.93 20.99,25.27 27.24,40.17 6.26,14.81 9.39,30.37 9.39,46.59 0,17.86 -3.3,34.49 -9.88,50.04 -6.59,15.48 -16.38,29.23 -29.22,41.33 -12.19,11.36 -26.59,20.25 -43.14,26.58 -16.62,6.34 -33.83,9.55 -51.69,9.55 -18.77,0 -35.56,-2.88 -50.38,-8.64 -14.81,-5.85 -28.31,-14.82 -40.58,-27 -11.85,-11.94 -20.99,-25.35 -27.33,-40.42 -6.34,-14.98 -9.55,-30.45 -9.55,-46.34z"/>
  <path id="_45" class="fil0" d="M13991 16684.86l-108.25 242.5c-12.34,-3.87 -22.63,-10.2 -30.95,-19.01 -8.23,-8.89 -17.04,-24.12 -26.34,-45.85l-53.34 -126.77c-5.84,-13.5 -11.36,-23.87 -16.71,-31.11 -5.27,-7.25 -11.69,-13.83 -19.26,-19.76l7.24 0c14,0 25.44,-0.66 34.33,-2.06 8.97,-1.31 15.64,-3.45 20.17,-6.33l73.59 186.77 57.12 -127.51c2.88,-6.09 4.86,-11.03 5.93,-14.81 1.07,-3.79 1.56,-7.25 1.56,-10.29 0,-3.95 -1.15,-7.99 -3.37,-11.94 -2.22,-3.87 -6.17,-8.56 -11.85,-13.83l70.13 0z"/>
  <path id="_46" class="fil0" d="M14017.59 16622.14c0,-8.23 2.88,-15.15 8.72,-20.99 5.77,-5.76 12.84,-8.65 20.99,-8.65 8.07,0 14.98,2.89 20.58,8.65 5.68,5.84 8.48,12.76 8.48,20.99 0,8.31 -2.8,15.39 -8.31,21.07 -5.6,5.68 -12.51,8.56 -20.75,8.56 -8.31,0 -15.39,-2.88 -21.15,-8.64 -5.68,-5.85 -8.56,-12.84 -8.56,-20.99zm54.33 253.45c0,10.29 1.31,18.85 3.95,25.76 2.63,6.92 6.91,12.92 12.84,18.11l-78.53 0c5.93,-5.19 10.21,-11.19 12.84,-18.11 2.63,-6.91 3.95,-15.47 3.95,-25.76l0 -146.11c0,-10.46 -1.4,-19.18 -4.11,-26.26 -2.72,-7.08 -6.92,-13.25 -12.68,-18.36 13.83,-0.33 25.76,-0.99 35.72,-1.89 9.96,-0.91 18.61,-2.06 26.02,-3.54l0 196.16z"/>
  <path id="_47" class="fil0" d="M14367.84 16874.19c0,9.63 1.48,18.02 4.45,25.27 2.96,7.24 7.57,13.58 13.83,19.01l-63.22 0 0 -118.61c0,-15.15 -0.99,-27 -3.05,-35.56 -1.97,-8.65 -5.18,-16.14 -9.71,-22.56 -6.26,-9.05 -14.73,-16.13 -25.44,-21.4 -10.7,-5.19 -22.14,-7.82 -34.32,-7.82 -21.32,0 -39.18,8.07 -53.59,24.12 -14.4,16.13 -21.56,36.22 -21.56,60.34 0,26.99 8.23,49.47 24.61,67.41 16.38,17.95 36.87,26.92 61.4,26.92 7.08,0 14.82,-0.91 23.3,-2.64 8.4,-1.81 17.29,-4.52 26.59,-8.23l-29.14 42.31c-6.42,0.99 -12.1,1.65 -17.04,2.06 -4.86,0.41 -9.39,0.58 -13.58,0.58 -38.61,0 -69.4,-11.2 -92.28,-33.67 -22.8,-22.39 -34.24,-52.52 -34.24,-90.3 0,-34.08 11.52,-62.97 34.65,-86.76 23.05,-23.79 50.96,-35.72 83.8,-35.72 14.16,0 27.74,2.3 40.91,6.99 13.09,4.69 26.01,11.69 38.69,20.99l0 -74.99c0,-14.24 -1.32,-24.94 -3.87,-32.1 -2.55,-7.16 -6.83,-13.42 -12.92,-18.68l6 0c5.6,0 12.6,-0.5 20.83,-1.4 8.31,-0.91 19.92,-2.39 34.9,-4.53l0 298.97z"/>
  <path id="_48" class="fil0" d="M14476.01 16763.39l125.53 0c-0.99,-16.54 -7.08,-30.04 -18.36,-40.58 -11.28,-10.45 -25.27,-15.72 -41.98,-15.72 -18.03,0 -32.84,5.02 -44.45,15.06 -11.53,9.96 -18.52,23.79 -20.74,41.24zm-3.38 33.09c1.15,29.31 10.45,52.6 27.91,69.89 17.45,17.28 40.25,25.93 68.4,25.93 12.51,0 25.76,-2.06 39.68,-6.18 13.91,-4.11 29.05,-10.45 45.27,-19.01l-26.01 45.35c-14.08,5.11 -27.08,8.98 -39.1,11.53 -12.1,2.55 -23.46,3.87 -34.08,3.87 -39.1,0 -71.29,-11.86 -96.56,-35.48 -25.27,-23.63 -37.86,-53.59 -37.86,-89.89 0,-37.29 11.6,-67.83 34.9,-91.7 23.21,-23.87 52.93,-35.81 89.15,-35.81 33.33,0 59.76,10.87 79.43,32.68 19.59,21.73 29.63,51.37 30.13,88.82l-181.26 0z"/>
  <path id="_49" class="fil0" d="M14829.22 16728.82c-3.7,-2.8 -7.49,-4.86 -11.36,-6.09 -3.87,-1.24 -8.15,-1.81 -12.76,-1.81 -17.12,0 -30.12,5.76 -39.01,17.28 -8.97,11.53 -13.42,28.15 -13.42,49.89l0 87.5c0,10.29 1.32,18.85 4.03,25.76 2.64,6.92 6.92,13.01 12.76,18.11l-79.02 0c6.01,-5.1 10.29,-11.19 12.92,-18.11 2.56,-6.91 3.87,-15.47 3.87,-25.76l0 -146.03c0,-10.45 -1.31,-19.26 -4.03,-26.34 -2.64,-7.08 -6.92,-13.17 -12.76,-18.36l5.35 0c7.9,0 16.22,-0.49 24.94,-1.4 8.81,-0.9 18.36,-2.22 28.81,-4.03l3.62 37.37c7.08,-12.51 15.23,-21.81 24.37,-27.82 9.22,-6.01 19.67,-9.06 31.44,-9.06 2.88,0 5.85,0.17 8.89,0.5 3.05,0.33 6.84,0.99 11.36,1.97l0 46.43z"/>
  <path id="_50" class="fil0" d="M15199.48 16734.25c-11.85,-7.41 -23.13,-13 -33.59,-16.71 -10.53,-3.7 -20.49,-5.51 -29.79,-5.51 -23.46,0 -42.31,7.57 -56.55,22.8 -14.24,15.23 -21.32,35.23 -21.32,60.17 0,27 8.97,49.39 26.91,67.17 17.87,17.78 40.34,26.67 67.34,26.67 11.44,0 23.29,-1.81 35.64,-5.35 12.43,-3.54 26.42,-9.14 41.98,-16.88l-25.76 44.37c-9.22,5.76 -18.69,10.04 -28.65,12.76 -9.88,2.72 -20.41,4.12 -31.69,4.12 -40.67,0 -74.17,-11.61 -100.59,-34.82 -26.34,-23.22 -39.51,-52.6 -39.51,-88.08 0,-36.22 12.92,-66.59 38.85,-91.37 25.85,-24.78 57.87,-37.12 95.98,-37.12 5.93,0 13.99,0.49 24.12,1.56 10.12,1.07 22.31,2.55 36.63,4.45l0 51.77z"/>
  <path id="_51" class="fil0" d="M15304.1 16795.08c0,29.22 7.49,52.93 22.56,71.04 15.06,18.11 34.65,27.16 58.77,27.16 22.72,0 41.24,-8.06 55.65,-24.28 14.4,-16.13 21.56,-37.04 21.56,-62.64 0,-27.49 -7.65,-50.21 -23.05,-68.08 -15.39,-17.86 -34.9,-26.75 -58.52,-26.75 -22.23,0 -40.58,7.9 -55.15,23.79 -14.57,15.81 -21.82,35.73 -21.82,59.76zm-51.86 9.88c0,-17.7 3.38,-34.33 10.05,-49.8 6.66,-15.48 16.38,-29.39 29.3,-41.57 12.35,-11.61 26.84,-20.58 43.38,-27 16.63,-6.42 33.83,-9.63 51.61,-9.63 18.52,0 35.23,2.96 50.21,8.89 14.99,6.01 28.49,15.06 40.59,27.25 11.85,11.93 20.99,25.27 27.24,40.17 6.26,14.81 9.39,30.37 9.39,46.59 0,17.86 -3.3,34.49 -9.88,50.04 -6.59,15.48 -16.38,29.23 -29.22,41.33 -12.19,11.36 -26.59,20.25 -43.14,26.58 -16.62,6.34 -33.83,9.55 -51.69,9.55 -18.77,0 -35.56,-2.88 -50.38,-8.64 -14.81,-5.85 -28.31,-14.82 -40.58,-27 -11.85,-11.94 -20.99,-25.35 -27.33,-40.42 -6.34,-14.98 -9.55,-30.45 -9.55,-46.34z"/>
  <path id="_52" class="fil0" d="M15610.4 16875.59c0,10.29 1.32,18.85 4.03,25.76 2.64,6.92 6.92,13.01 12.76,18.11l-79.02 0c6.01,-5.1 10.29,-11.19 12.92,-18.11 2.56,-6.91 3.87,-15.47 3.87,-25.76l0 -146.03c0,-10.45 -1.31,-19.26 -4.03,-26.34 -2.64,-7.08 -6.92,-13.17 -12.76,-18.36l5.35 0c7.9,0 16.22,-0.49 24.94,-1.4 8.81,-0.9 18.36,-2.22 28.81,-4.03l2.14 37.54c11.94,-12.76 24.04,-22.23 36.47,-28.32 12.35,-6.17 25.35,-9.22 39.02,-9.22 16.38,0 31.19,3.37 44.36,10.21 13.17,6.75 25.11,17.12 35.73,30.95 14.65,-14.16 28.56,-24.62 41.81,-31.2 13.34,-6.67 26.84,-9.96 40.67,-9.96 25.93,0 47,7.9 63.13,23.71 16.22,15.72 24.29,36.54 24.29,62.31l0 110.14c0,10.29 1.31,18.85 3.95,25.76 2.63,6.92 6.91,13.01 12.84,18.11l-79.02 0c5.92,-5.1 10.2,-11.19 12.84,-18.11 2.63,-6.91 3.95,-15.47 3.95,-25.76l0 -83.88c0,-25.52 -4.61,-44.12 -13.91,-55.81 -9.22,-11.61 -23.87,-17.45 -44.04,-17.45 -20.91,0 -35.89,5.35 -44.95,16.05 -9.13,10.7 -13.66,28.56 -13.66,53.59l0 87.5c0,10.29 1.32,18.85 3.87,25.76 2.63,6.92 6.91,13.01 12.92,18.11l-79.51 0c5.92,-5.1 10.2,-11.19 12.84,-18.11 2.63,-6.91 3.95,-15.47 3.95,-25.76l0 -83.88c0,-25.52 -4.61,-44.12 -13.91,-55.81 -9.22,-11.61 -23.87,-17.45 -44.04,-17.45 -20.91,0 -35.89,5.35 -44.95,16.05 -9.13,10.7 -13.66,28.56 -13.66,53.59l0 87.5z"/>
  <path id="_53" class="fil0" d="M15986.83 17022.19c6.01,-5.19 10.29,-11.2 12.92,-18.11 2.56,-6.91 3.87,-15.56 3.87,-25.85l0 -248.84c0,-10.37 -1.31,-19.17 -4.03,-26.25 -2.64,-7 -6.92,-13.17 -12.76,-18.28l6.34 0c8.64,0 17.45,-0.49 26.26,-1.4 8.8,-0.9 17.86,-2.22 27,-4.03l2.14 37.45c12.1,-13.17 25.35,-22.96 39.67,-29.55 14.41,-6.58 29.88,-9.88 46.26,-9.88 32.52,0 59.85,11.45 82.15,34.33 22.31,22.88 33.42,51.12 33.42,84.7 0,21.98 -4.28,42.15 -12.92,60.34 -8.56,18.27 -20.91,33.34 -36.96,45.19 -10.62,8.07 -21.9,13.99 -33.75,17.94 -11.93,3.96 -24.69,5.93 -38.36,5.93 -5.76,0 -11.85,-0.41 -18.11,-1.15 -6.25,-0.82 -12.51,-1.98 -18.76,-3.38l-29.23 -42.31c9.96,4.45 19.18,7.82 27.74,9.96 8.48,2.23 16.55,3.3 24.12,3.3 26.51,0 47.17,-7.74 62.07,-23.13 14.9,-15.48 22.3,-37.05 22.3,-64.7 0,-26.51 -7.4,-48.32 -22.22,-65.36 -14.82,-17.04 -33.5,-25.6 -56.22,-25.6 -9.63,0 -18.85,1.73 -27.49,5.1 -8.73,3.38 -16.47,8.23 -23.38,14.65 -7.08,6.42 -12.1,14.57 -14.98,24.29 -2.88,9.71 -4.37,26.17 -4.37,49.3l0 14.74 0 156.64c0,10.29 1.32,18.94 4.04,25.85 2.63,6.91 6.91,12.92 12.76,18.11l-79.52 0z"/>
  <path id="_54" class="fil0" d="M16333.54 16795.08c0,29.22 7.49,52.93 22.56,71.04 15.06,18.11 34.65,27.16 58.77,27.16 22.72,0 41.24,-8.06 55.65,-24.28 14.4,-16.13 21.56,-37.04 21.56,-62.64 0,-27.49 -7.65,-50.21 -23.05,-68.08 -15.39,-17.86 -34.9,-26.75 -58.52,-26.75 -22.23,0 -40.58,7.9 -55.15,23.79 -14.57,15.81 -21.82,35.73 -21.82,59.76zm-51.86 9.88c0,-17.7 3.38,-34.33 10.05,-49.8 6.66,-15.48 16.38,-29.39 29.3,-41.57 12.35,-11.61 26.84,-20.58 43.38,-27 16.63,-6.42 33.83,-9.63 51.61,-9.63 18.52,0 35.23,2.96 50.21,8.89 14.99,6.01 28.49,15.06 40.59,27.25 11.85,11.93 20.99,25.27 27.24,40.17 6.26,14.81 9.39,30.37 9.39,46.59 0,17.86 -3.3,34.49 -9.88,50.04 -6.59,15.48 -16.38,29.23 -29.22,41.33 -12.19,11.36 -26.59,20.25 -43.14,26.58 -16.62,6.34 -33.83,9.55 -51.69,9.55 -18.77,0 -35.56,-2.88 -50.38,-8.64 -14.81,-5.85 -28.31,-14.82 -40.58,-27 -11.85,-11.94 -20.99,-25.35 -27.33,-40.42 -6.34,-14.98 -9.55,-30.45 -9.55,-46.34z"/>
  <path id="_55" class="fil0" d="M16639.84 16875.59c0,10.29 1.32,18.85 4.03,25.76 2.64,6.92 6.92,13.01 12.76,18.11l-79.02 0c6.01,-5.1 10.29,-11.19 12.92,-18.11 2.56,-6.91 3.87,-15.47 3.87,-25.76l0 -146.03c0,-10.45 -1.31,-19.26 -4.03,-26.34 -2.64,-7.08 -6.92,-13.17 -12.76,-18.36l5.35 0c7.9,0 16.22,-0.49 24.94,-1.4 8.81,-0.9 18.36,-2.22 28.81,-4.03l2.14 37.54c12.1,-12.93 24.2,-22.39 36.47,-28.49 12.18,-6 25.19,-9.05 39.02,-9.05 26.01,0 47.24,7.9 63.54,23.79 16.3,15.89 24.45,36.63 24.45,62.23l0 110.14c0,10.29 1.32,18.85 3.87,25.76 2.63,6.92 6.91,13.01 12.92,18.11l-79.51 0c5.92,-5.1 10.2,-11.19 12.84,-18.11 2.63,-6.91 3.95,-15.47 3.95,-25.76l0 -83.88c0,-25.52 -4.61,-44.12 -13.91,-55.81 -9.22,-11.61 -23.87,-17.45 -44.04,-17.45 -20.91,0 -35.89,5.35 -44.95,16.05 -9.13,10.7 -13.66,28.56 -13.66,53.59l0 87.5z"/>
  <path id="_56" class="fil0" d="M16907.94 16763.39l125.53 0c-0.99,-16.54 -7.08,-30.04 -18.36,-40.58 -11.28,-10.45 -25.27,-15.72 -41.98,-15.72 -18.03,0 -32.84,5.02 -44.45,15.06 -11.53,9.96 -18.52,23.79 -20.74,41.24zm-3.38 33.09c1.15,29.31 10.45,52.6 27.91,69.89 17.45,17.28 40.25,25.93 68.4,25.93 12.51,0 25.76,-2.06 39.68,-6.18 13.91,-4.11 29.05,-10.45 45.27,-19.01l-26.01 45.35c-14.08,5.11 -27.08,8.98 -39.1,11.53 -12.1,2.55 -23.46,3.87 -34.08,3.87 -39.1,0 -71.29,-11.86 -96.56,-35.48 -25.27,-23.63 -37.86,-53.59 -37.86,-89.89 0,-37.29 11.6,-67.83 34.9,-91.7 23.21,-23.87 52.93,-35.81 89.15,-35.81 33.33,0 59.76,10.87 79.43,32.68 19.59,21.73 29.63,51.37 30.13,88.82l-181.26 0z"/>
  <path id="_57" class="fil0" d="M17184.6 16875.59c0,10.29 1.32,18.85 4.03,25.76 2.64,6.92 6.92,13.01 12.76,18.11l-79.02 0c6.01,-5.1 10.29,-11.19 12.92,-18.11 2.56,-6.91 3.87,-15.47 3.87,-25.76l0 -146.03c0,-10.45 -1.31,-19.26 -4.03,-26.34 -2.64,-7.08 -6.92,-13.17 -12.76,-18.36l5.35 0c7.9,0 16.22,-0.49 24.94,-1.4 8.81,-0.9 18.36,-2.22 28.81,-4.03l2.14 37.54c12.1,-12.93 24.2,-22.39 36.47,-28.49 12.18,-6 25.19,-9.05 39.02,-9.05 26.01,0 47.24,7.9 63.54,23.79 16.3,15.89 24.45,36.63 24.45,62.23l0 110.14c0,10.29 1.32,18.85 3.87,25.76 2.63,6.92 6.91,13.01 12.92,18.11l-79.51 0c5.92,-5.1 10.2,-11.19 12.84,-18.11 2.63,-6.91 3.95,-15.47 3.95,-25.76l0 -83.88c0,-25.52 -4.61,-44.12 -13.91,-55.81 -9.22,-11.61 -23.87,-17.45 -44.04,-17.45 -20.91,0 -35.89,5.35 -44.95,16.05 -9.13,10.7 -13.66,28.56 -13.66,53.59l0 87.5z"/>
  <path id="_58" class="fil0" d="M17420.18 16718.94l-32.1 0 0 -17.29c19.34,-1.72 34.49,-10.61 45.52,-26.67 10.95,-15.96 16.87,-37.7 17.7,-65.19l14.32 0 0 75.07 69.64 0 0 43.96c-3.87,-3.46 -8.56,-6.01 -14.08,-7.57 -5.6,-1.57 -12.84,-2.31 -21.81,-2.31l-33.75 0 0 114.17c0,20.83 3.46,36.22 10.45,46.02 7,9.79 17.78,14.65 32.44,14.65 3.37,-0.17 6.91,-0.5 10.61,-1.07 3.71,-0.58 7.41,-1.32 11.12,-2.31l-23.63 34.49c-0.33,0 -0.74,0 -1.23,0 -6.42,0.66 -11.12,0.99 -14,0.99 -23.62,0 -41.4,-5.93 -53.34,-17.86 -11.93,-11.86 -17.86,-29.47 -17.86,-52.77l0 -136.31z"/>
  <path id="_59" class="fil0" d="M17593.12 16895.75c0,-8.56 2.97,-15.72 8.89,-21.73 6.01,-5.92 13.26,-8.89 21.74,-8.89 8.39,0 15.55,2.97 21.56,8.89 6.01,6.01 9.06,13.17 9.06,21.73 0,8.4 -3.05,15.56 -9.06,21.57 -6.01,6.01 -13.17,9.05 -21.56,9.05 -8.48,0 -15.73,-3.04 -21.74,-9.05 -5.92,-6.01 -8.89,-13.17 -8.89,-21.57z"/>
  <g id="_1636521543568">
   <rect class="fil1" x="4799.2" y="2394.65" width="7962.94" height="7962.94"/>
   <path class="fil2" d="M7189.52 5378.61c1310.5,0 2371.77,-342.21 2372.87,-590.91l3.83 -862.43c-119.76,484.23 -1761.04,590.91 -2392.25,590.91 -245.41,0 -2225.77,-50.75 -2369.59,-556.08 -16.67,296.74 12.26,579.68 12.26,827.6 0,247.92 1062.37,590.91 2372.88,590.91z"/>
   <path class="fil2" d="M7189.52 7285.25c1310.5,0 2371.77,-342.21 2372.87,-590.91l3.83 -862.43c-119.76,484.23 -1761.04,590.91 -2392.25,590.91 -245.41,0 -2225.77,-50.75 -2369.59,-556.08 -16.67,296.74 12.26,579.68 12.26,827.6 0,247.92 1062.37,590.91 2372.88,590.91z"/>
   <path class="fil2" d="M7189.52 9071.15c1310.5,0 2371.77,-342.21 2372.87,-590.91l3.83 -862.43c-119.76,484.23 -1761.04,590.91 -2392.25,590.91 -245.41,0 -2225.77,-50.75 -2369.59,-556.08 -16.67,296.74 12.26,579.68 12.26,827.6 0,247.92 1062.37,590.91 2372.88,590.91z"/>
   <path class="fil3" d="M7193.34 3542.24c1310.5,0 2372.88,-256.91 2372.88,-573.79 0,-316.9 -1062.38,-573.8 -2372.88,-573.8 -1310.51,0 -2372.88,256.9 -2372.88,573.8 0,316.88 1062.37,573.79 2372.88,573.79z"/>
   <path class="fil4" d="M11179.03 4920.55l365.97 0.09 -16.8 -708.15c-6.54,-275.57 -89.24,-452.66 -292.54,-650.02 -148.68,-144.34 -467.43,-278.19 -837.45,-291.59l-803.56 -31.26 0 451.78 793.32 -5.02c304.43,-1.91 760.25,191.07 770.9,551.77l20.16 682.4z"/>
   <g>
    <polygon class="fil5 str0" points="6556.36,7104.1 12762.14,7104.1 12762.14,10357.59 6556.36,10357.59 "/>
    <polygon id="_1_22" class="fil6" points="6556.36,7104.1 12762.14,7104.1 12762.14,10357.59 6556.36,10357.59 "/>
   </g>
   <g>
    <polygon class="fil5 str0" points="7013.15,7617.81 12254.19,7617.81 12254.19,9877.8 7013.15,9877.8 "/>
    <polygon id="_1_23" class="fil1" points="7013.15,7617.81 12254.19,7617.81 12254.19,9877.8 7013.15,9877.8 "/>
   </g>
   <polygon class="fil7" points="10508.2,4901.71 12223.76,4900.64 11450.84,7081.19 "/>
   <polygon class="fil8" points="7315.51,9587.9 7850.29,8780.14 7365.28,8038.74 7730.57,8038.74 8035.64,8499.95 8340.71,8038.74 8706.73,8038.74 8220.63,8780.51 8754.33,9587.9 8378.58,9587.9 8035.28,9063.22 7691.62,9587.9 "/>
   <polygon id="_1_24" class="fil8" points="8911.19,9587.9 8911.19,8038.74 9381.06,8038.74 9658.72,9095.31 9933.14,8038.74 10404.09,8038.74 10404.09,9587.9 10114.17,9587.9 10113.08,8368.33 9807.65,9587.9 9506.19,9587.9 9202.2,8368.33 9201.11,9587.9 "/>
   <polygon id="_2_25" class="fil8" points="10726.47,9587.9 10726.47,8051.72 11040.2,8051.72 11040.2,9326.1 11816.94,9326.1 11816.94,9587.9 "/>
  </g>
 </g>
</svg>
