<?xml version="1.0" encoding="UTF-8"?>
<!DOCTYPE svg PUBLIC "-//W3C//DTD SVG 1.1//EN" "http://www.w3.org/Graphics/SVG/1.1/DTD/svg11.dtd">
<!-- Creator: CorelDRAW -->
<svg xmlns="http://www.w3.org/2000/svg" xml:space="preserve" width="79.6294mm" height="79.6294mm" version="1.1" style="shape-rendering:geometricPrecision; text-rendering:geometricPrecision; image-rendering:optimizeQuality; fill-rule:evenodd; clip-rule:evenodd"
viewBox="0 0 8229.13 8229.13"
 xmlns:xlink="http://www.w3.org/1999/xlink"
 xmlns:xodm="http://www.corel.com/coreldraw/odm/2003">
 <defs>
  <style type="text/css">
   <![CDATA[
    .str0 {stroke:#008DD2;stroke-width:7.87;stroke-miterlimit:22.9256}
    .fil1 {fill:none}
    .fil0 {fill:#FEFEFE}
    .fil4 {fill:#E31E24}
    .fil3 {fill:#1F1B20}
    .fil2 {fill:#008DD2}
    .fil5 {fill:#E31E24;fill-rule:nonzero}
   ]]>
  </style>
 </defs>
 <g id="Layer_x0020_1">
  <metadata id="CorelCorpID_0Corel-Layer"/>
  <g id="_1792001933120">
   <rect class="fil0" width="8229.13" height="8229.13"/>
   <g>
    <path class="fil1 str0" d="M8118.15 4123.69c0,-1322.01 -1023.31,-1916.03 -2378.72,-1739.14 -155.29,-657.77 -536.33,-1621.69 -1960.71,-1621.69 -924.41,0 -1699.46,638.94 -1907.98,1499.25 -914.27,64.64 -872.46,951.15 -777.48,1263.93 -572.35,78.58 -1013.26,542.13 -1013.26,1163.41 0,378.38 71.35,1147.41 1122.07,1181.34l5055.01 163.33c1349.46,-20.78 1861.07,-531 1861.07,-1910.45z"/>
    <path id="_1" class="fil2" d="M8118.15 4123.69c0,-1322.01 -1023.31,-1916.03 -2378.72,-1739.14 -155.29,-657.77 -536.33,-1621.69 -1960.71,-1621.69 -924.41,0 -1699.46,638.94 -1907.98,1499.25 -914.27,64.64 -872.46,951.15 -777.48,1263.93 -572.35,78.58 -1013.26,542.13 -1013.26,1163.41 0,378.38 71.35,1147.41 1122.07,1181.34l5055.01 163.33c1349.46,-20.78 1861.07,-531 1861.07,-1910.45z"/>
   </g>
   <polygon class="fil3" points="1740.66,5870.46 3668.92,4886.48 3666.14,5391.16 2508.89,5890.67 3647.76,6360.69 3659.99,6830.45 1749.79,5870.8 "/>
   <polygon class="fil4" points="6263.64,4972.01 6264.75,6744.92 4011.31,5946.16 "/>
   <path class="fil5" d="M2913.1 3538.2l422.26 -41.93c25.45,141.25 76.36,244.57 153.73,310.95 77.36,66.39 181.68,99.33 312.94,99.33 138.76,0 243.57,-29.45 313.95,-88.35 70.38,-58.9 105.81,-127.77 105.81,-206.63 0,-50.92 -14.97,-93.84 -44.42,-129.77 -29.45,-35.45 -81.36,-66.39 -155.23,-92.34 -50.41,-17.97 -165.2,-48.92 -344.89,-93.84 -231.1,-57.9 -393.31,-128.78 -486.64,-213.12 -131.27,-118.3 -196.65,-262.54 -196.65,-432.74 0,-109.31 30.94,-212.13 92.34,-307.46 61.88,-95.33 150.73,-167.7 267.03,-217.62 116.29,-49.91 256.04,-74.87 420.75,-74.87 268.03,0 470.17,59.4 605.43,178.69 135.76,119.29 206.63,278.01 213.62,477.15l-434.23 14.97c-18.47,-110.8 -57.9,-190.16 -118.3,-238.58 -60.39,-48.42 -151.23,-72.87 -272.02,-72.87 -124.78,0 -222.61,25.95 -292.98,77.86 -45.43,33.44 -68.38,77.86 -68.38,133.77 0,50.91 21.46,94.33 64.38,130.26 54.41,46.42 186.67,94.33 396.81,144.25 210.13,49.42 365.35,101.33 465.67,154.23 100.82,53.41 179.68,125.78 236.58,218.12 56.9,92.34 85.35,206.14 85.35,341.39 0,122.78 -33.94,238.08 -102.32,345.39 -68.38,107.31 -164.71,187.17 -289.49,239.08 -124.78,52.41 -280.5,78.35 -466.68,78.35 -271.02,0 -479.15,-62.39 -624.4,-187.67 -145.24,-124.78 -231.59,-306.95 -260.04,-546.03z"/>
  </g>
 </g>
</svg>
