<?xml version="1.0" encoding="UTF-8"?>
<!DOCTYPE svg PUBLIC "-//W3C//DTD SVG 1.1//EN" "http://www.w3.org/Graphics/SVG/1.1/DTD/svg11.dtd">
<!-- Creator: CorelDRAW -->
<svg xmlns="http://www.w3.org/2000/svg" xml:space="preserve" width="79.6295mm" height="79.6294mm" version="1.1" style="shape-rendering:geometricPrecision; text-rendering:geometricPrecision; image-rendering:optimizeQuality; fill-rule:evenodd; clip-rule:evenodd"
viewBox="0 0 6774.78 6774.77"
 xmlns:xlink="http://www.w3.org/1999/xlink"
 xmlns:xodm="http://www.corel.com/coreldraw/odm/2003">
 <defs>
  <style type="text/css">
   <![CDATA[
    .fil6 {fill:#FEFEFE}
    .fil0 {fill:#FEFEFE}
    .fil2 {fill:#E31E24}
    .fil5 {fill:#1F1B20}
    .fil8 {fill:#FEFEFE;fill-rule:nonzero}
    .fil4 {fill:#E31E24;fill-rule:nonzero}
    .fil1 {fill:#1F1B20;fill-rule:nonzero}
    .fil7 {fill:#1F1B20;fill-rule:nonzero}
    .fil3 {fill:#008DD2;fill-rule:nonzero}
   ]]>
  </style>
 </defs>
 <g id="Layer_x0020_1">
  <metadata id="CorelCorpID_0Corel-Layer"/>
  <g id="_1827528545600">
   <rect class="fil0" x="0.01" width="6774.77" height="6774.77"/>
   <path class="fil1" d="M1481.26 5580.98l-198.73 -0.05 9.12 384.55c3.55,149.65 48.46,245.81 158.86,352.98 80.73,78.37 253.82,151.07 454.75,158.34l1782.01 9.85 -195.67 -245.33 -1580.77 9.85c-165.32,1.04 -412.84,-103.76 -418.62,-299.63l-10.95 -370.56z"/>
   <polygon class="fil2" points="1860.61,5766.73 929,5767.3 1348.73,4583.2 "/>
   <path class="fil3" d="M4084.62 1939.34l-152.55 0 -156.37 -133.48 0 -83.91 171.62 0c-16.2,-143.97 -73.41,-243.13 -171.62,-297.47l0 -401.41c0,-483.4 -230.74,-725.58 -691.26,-725.58 -236.46,0 -409.03,87.72 -518.68,262.2 -78.19,123 -117.27,267.92 -117.27,435.73l0 954.41c408.07,307.02 612.12,715.09 612.12,1225.19 0,424.3 -148.75,785.65 -447.18,1085.04 -298.42,298.42 -659.79,448.12 -1083.13,448.12 -423.34,0 -784.69,-149.7 -1083.12,-448.12 -298.44,-299.39 -447.18,-660.75 -447.18,-1085.04 0,-426.19 149.7,-788.51 448.13,-1085.99 299.38,-298.43 658.84,-447.17 1079.33,-447.17 210.71,0 412.84,41.95 606.39,125.86l0 -745.61c0,-240.28 47.67,-444.32 142.06,-611.17 154.46,-273.64 421.43,-410.94 800.91,-410.94 312.74,0 558.73,89.63 738.93,269.84 179.25,179.24 268.87,421.43 268.87,724.62l0 944.88zm-1418.75 1246.7c0,-313.69 -111.56,-582.57 -333.7,-804.73 -222.16,-222.16 -491.03,-333.71 -804.72,-333.71 -313.69,0 -582.57,111.56 -804.73,333.71 -222.16,222.16 -333.71,491.03 -333.71,804.73 0,313.69 111.56,582.56 333.71,804.72 222.16,222.16 491.03,333.7 804.73,333.7 313.69,0 582.56,-111.55 804.72,-333.7 222.15,-222.16 333.7,-491.03 333.7,-804.72zm-311.92 -759.73l-86.05 -84.87 -194.2 194.19 86.06 84.89 194.19 -194.21zm282.56 800.05l0 -118.63 -279.09 0 0 118.63 279.09 0zm-1053.52 -872.13l0 -272.12 -118.62 0 0 272.12 118.62 0zm757.01 1533.78l-194.2 -190.7 -84.88 81.39 194.2 194.18 84.88 -84.88zm-1343.09 -1331.45l-193.03 -194.18 -86.05 84.88 194.19 194.18 84.88 -84.88zm593.05 1695.42l0 -272.11 -118.63 0 0 272.11 118.63 0zm-893.05 -1025.62l0 -118.63 -279.09 0 0 118.63 279.09 0zm287.21 573.28l-86.07 -84.89 -194.18 194.18 86.07 84.9 194.18 -194.19z"/>
   <path class="fil4" d="M2136.03 3167.35c0,-166.3 -58.14,-308.16 -175.59,-426.77 -117.45,-118.6 -259.32,-177.91 -425.6,-177.91 -167.45,0 -309.32,59.31 -427.94,177.91 -118.6,118.61 -177.91,260.48 -177.91,426.77 0,165.13 59.31,305.82 177.91,424.43 118.62,118.62 260.49,177.92 427.94,177.92 166.28,0 308.15,-59.3 425.6,-177.92 117.44,-118.61 175.59,-259.3 175.59,-424.43z"/>
   <g>
    <path class="fil5" d="M4721.5 6774.77c1117.71,0 2023.81,-906.1 2023.81,-2023.82 0,-1117.71 -906.1,-2023.81 -2023.81,-2023.81 -1117.72,0 -2023.82,906.1 -2023.82,2023.81 0,1117.72 906.1,2023.82 2023.82,2023.82zm-3.78 -165.61c1028.73,0 1862.7,-833.97 1862.7,-1862.7 0,-1028.73 -833.97,-1862.69 -1862.7,-1862.69 -1028.73,0 -1862.69,833.96 -1862.69,1862.69 0,1028.73 833.96,1862.7 1862.69,1862.7z"/>
    <path class="fil5" d="M4718.97 6451.13c945.11,0 1711.27,-766.17 1711.27,-1711.27 0,-945.11 -766.17,-1711.27 -1711.27,-1711.27 -945.1,0 -1711.27,766.17 -1711.27,1711.27 0,945.1 766.17,1711.27 1711.27,1711.27z"/>
    <path class="fil6" d="M4689.68 5638.28c522.21,0 945.55,-423.34 945.55,-945.55 0,-522.21 -423.34,-945.54 -945.55,-945.54 -522.21,0 -945.55,423.34 -945.55,945.54 0,522.21 423.34,945.55 945.55,945.55z"/>
    <path class="fil7" d="M5106.37 5023.05l0 231.03 -875.01 0c9.39,-87.93 37.89,-171 85.19,-249.53 47.3,-78.53 140.98,-182.83 280.45,-312.89 112.49,-104.9 181.31,-176.16 206.78,-213.45 34.25,-51.54 51.54,-102.48 51.54,-153.12 0,-55.79 -14.85,-98.54 -44.87,-128.55 -29.72,-30.02 -70.95,-44.87 -123.41,-44.87 -52.14,0 -93.38,15.77 -124.31,47.3 -30.62,31.23 -48.21,83.38 -53.06,156.45l-249.22 -24.86c14.85,-137.65 61.24,-236.49 139.46,-296.53 78.23,-59.73 175.86,-89.74 293.19,-89.74 128.55,0 229.52,34.87 303.2,104.3 73.37,69.42 110.06,155.84 110.06,259.23 0,58.81 -10.61,114.61 -31.53,167.97 -20.92,53.06 -54.27,108.54 -100.05,166.75 -30.02,38.8 -84.9,94.29 -163.73,166.75 -79.13,72.46 -129.16,120.37 -150.08,144.32 -21.23,23.65 -38.21,47 -51.24,69.43l496.63 0z"/>
    <path class="fil8" d="M3445.44 4235.31c-36.56,-19.92 -64.27,-42.15 -83.18,-66.63 -13.87,-18.05 -24.22,-38.19 -31.06,-60.2 -6.84,-22.02 -9.2,-43.31 -7.15,-63.95 2.75,-27.51 12.04,-55.88 27.95,-85.1 28.82,-52.91 68.27,-86.18 118.38,-100.11 50.15,-13.81 104.44,-4.8 162.94,27.07 58,31.59 94.81,72.1 110.39,121.37 15.65,49.33 9.06,100.38 -19.63,153.04 -29.05,53.33 -68.45,86.94 -118.22,100.63 -49.69,13.73 -103.18,5.05 -160.42,-26.13zm38.22 -75.93c40.63,22.14 76.57,29.48 107.83,22.16 31.17,-7.37 54.69,-25.52 70.42,-54.39 15.77,-28.95 18.25,-58.34 7.61,-88.27 -10.77,-29.89 -36.94,-56.15 -78.58,-78.83 -41.14,-22.41 -76.77,-30.13 -106.83,-23.01 -30.09,6.98 -53.23,25.43 -69.55,55.39 -16.28,29.88 -19.15,59.59 -8.65,89 10.57,29.46 36.46,55.46 77.76,77.96zm945.97 -561.9l-80.58 37.89 -71.46 -69.09 -148.17 69.68 8.85 98.55 -79.11 37.2 -30.31 -436.91 79.03 -37.16 321.75 299.83zm-205.65 -82.23l-115.65 -112.58 14.43 160.19 101.22 -47.6zm422.17 -352.78l82.44 6.22 -16.63 220.61c-2.65,35.06 -3.31,57.79 -2.09,68.27 2.25,16.95 9.48,31.02 21.79,42.05 12.41,11.13 29.94,17.5 52.69,19.22 23.02,1.74 40.81,-1.69 53.28,-10.38 12.47,-8.68 20.37,-19.81 23.79,-33.56 3.42,-13.76 6.38,-36.69 8.81,-68.91l16.99 -225.35 82.45 6.22 -16.15 214.07c-3.68,48.9 -8.47,83.33 -14.45,103.18 -5.97,19.84 -15.4,36.29 -28.4,49.32 -12.89,13.03 -29.64,22.83 -50.16,29.56 -20.61,6.74 -46.9,8.95 -79.02,6.53 -38.76,-2.92 -67.8,-9.59 -87.11,-20.1 -19.32,-10.51 -34.26,-23.35 -44.84,-38.64 -10.57,-15.28 -17.02,-30.82 -19.52,-46.93 -3.65,-23.71 -3.7,-58.41 -0.26,-103.99l16.39 -217.38zm609.45 553.32l162.27 -297.93 -106.15 -57.82 33.01 -60.59 284.41 154.91 -33 60.59 -105.65 -57.55 -162.28 297.94 -72.61 -39.55zm342.91 239.63l347.79 -213.81 43.31 70.44 -136.99 84.21 84.21 136.99 136.99 -84.21 43.29 70.43 -347.79 213.8 -43.3 -70.43 152.04 -93.47 -84.21 -136.98 -152.04 93.46 -43.3 -70.43z"/>
    <path class="fil8" d="M5975.59 5170.96c36.56,19.92 64.27,42.15 83.18,66.63 13.87,18.05 24.22,38.19 31.06,60.2 6.84,22.02 9.2,43.31 7.15,63.95 -2.75,27.51 -12.04,55.88 -27.95,85.1 -28.82,52.91 -68.27,86.18 -118.38,100.11 -50.15,13.81 -104.44,4.8 -162.94,-27.07 -58,-31.59 -94.81,-72.1 -110.39,-121.37 -15.65,-49.33 -9.06,-100.38 19.63,-153.04 29.05,-53.33 68.45,-86.94 118.22,-100.63 49.69,-13.73 103.18,-5.05 160.42,26.13zm-38.22 75.93c-40.63,-22.14 -76.57,-29.48 -107.83,-22.16 -31.17,7.37 -54.69,25.52 -70.42,54.39 -15.77,28.95 -18.25,58.34 -7.61,88.27 10.77,29.89 36.94,56.15 78.58,78.83 41.14,22.41 76.77,30.13 106.83,23.01 30.09,-6.98 53.23,-25.43 69.55,-55.39 16.28,-29.88 19.15,-59.59 8.65,-89 -10.57,-29.46 -36.46,-55.46 -77.76,-77.96zm-945.97 561.9l80.58 -37.89 71.46 69.09 148.17 -69.68 -8.85 -98.55 79.11 -37.2 30.31 436.91 -79.03 37.16 -321.75 -299.83zm205.65 82.23l115.65 112.58 -14.43 -160.19 -101.22 47.6zm-422.17 352.78l-82.44 -6.22 16.63 -220.61c2.65,-35.06 3.31,-57.79 2.09,-68.27 -2.25,-16.95 -9.48,-31.02 -21.79,-42.05 -12.41,-11.13 -29.94,-17.5 -52.69,-19.22 -23.02,-1.74 -40.81,1.69 -53.28,10.38 -12.47,8.68 -20.37,19.81 -23.79,33.56 -3.42,13.76 -6.38,36.69 -8.81,68.91l-16.99 225.35 -82.45 -6.22 16.15 -214.07c3.68,-48.9 8.47,-83.33 14.45,-103.18 5.97,-19.84 15.4,-36.29 28.4,-49.32 12.89,-13.03 29.64,-22.83 50.16,-29.56 20.61,-6.74 46.9,-8.95 79.02,-6.53 38.76,2.92 67.8,9.59 87.11,20.1 19.32,10.51 34.26,23.35 44.84,38.64 10.57,15.28 17.02,30.82 19.52,46.93 3.65,23.71 3.7,58.41 0.26,103.99l-16.39 217.38zm-609.45 -553.32l-162.27 297.93 106.15 57.82 -33.01 60.59 -284.41 -154.91 33 -60.59 105.65 57.55 162.28 -297.94 72.61 39.55zm-342.91 -239.63l-347.79 213.81 -43.31 -70.44 136.99 -84.21 -84.21 -136.99 -136.99 84.21 -43.29 -70.43 347.79 -213.8 43.3 70.43 -152.04 93.47 84.21 136.98 152.04 -93.46 43.3 70.43z"/>
   </g>
  </g>
 </g>
</svg>
