<?xml version="1.0" encoding="UTF-8"?>
<!DOCTYPE svg PUBLIC "-//W3C//DTD SVG 1.1//EN" "http://www.w3.org/Graphics/SVG/1.1/DTD/svg11.dtd">
<!-- Creator: CorelDRAW -->
<svg xmlns="http://www.w3.org/2000/svg" xml:space="preserve" width="79.7087mm" height="79.6516mm" version="1.1" style="shape-rendering:geometricPrecision; text-rendering:geometricPrecision; image-rendering:optimizeQuality; fill-rule:evenodd; clip-rule:evenodd"
viewBox="0 0 6757.87 6753.03"
 xmlns:xlink="http://www.w3.org/1999/xlink"
 xmlns:xodm="http://www.corel.com/coreldraw/odm/2003">
 <defs>
  <style type="text/css">
   <![CDATA[
    .str0 {stroke:#1F1B20;stroke-width:6.46;stroke-miterlimit:22.9256}
    .fil2 {fill:none;fill-rule:nonzero}
    .fil0 {fill:#FEFEFE}
    .fil4 {fill:#E31E24}
    .fil3 {fill:#1F1B20}
    .fil7 {fill:#28203A}
    .fil6 {fill:#008DD2}
    .fil5 {fill:#FEFEFE;fill-rule:nonzero}
    .fil1 {fill:#1F1B20;fill-rule:nonzero}
   ]]>
  </style>
 </defs>
 <g id="Layer_x0020_1">
  <metadata id="CorelCorpID_0Corel-Layer"/>
  <g id="_3146290445632">
   <rect class="fil0" width="6751.14" height="6751.14"/>
   <path class="fil1" d="M5343.96 937.99l-0.08 -310.28 600.38 14.24c233.63,5.54 383.77,75.66 551.1,248.02 122.37,126.05 235.86,396.3 247.22,710.01l12.12 2392.79 -383.03 0 18.64 -2384.11c1.62,-258.1 -161.99,-644.56 -467.8,-653.58l-578.55 -17.09z"/>
   <g>
    <polygon class="fil2 str0" points="14.66,3992.77 6751.14,3992.77 6751.14,6751.14 14.66,6751.14 "/>
    <polygon id="_1" class="fil3" points="14.66,3992.77 6751.14,3992.77 6751.14,6751.14 14.66,6751.14 "/>
   </g>
   <g>
    <polygon class="fil2 str0" points="428.51,4428.3 6320.49,4428.3 6320.49,6344.37 428.51,6344.37 "/>
    <polygon id="_1_0" class="fil4" points="428.51,4428.3 6320.49,4428.3 6320.49,6344.37 428.51,6344.37 "/>
   </g>
   <polygon class="fil5" points="803.86,5946.86 803.86,4797.05 1654.97,4797.05 1654.97,4991.37 1036.72,4991.37 1036.72,5246.7 1611.61,5246.7 1611.61,5441.01 1036.72,5441.01 1036.72,5752.55 1677.46,5752.55 1677.46,5946.86 "/>
   <polygon id="_1_1" class="fil5" points="1758.56,5946.86 2155.47,5347.33 1795.49,4797.05 2066.61,4797.05 2293.04,5139.37 2519.47,4797.05 2791.14,4797.05 2430.35,5347.6 2826.46,5946.86 2547.57,5946.86 2292.78,5557.44 2037.71,5946.86 "/>
   <polygon id="_2" class="fil5" points="3204.64,5946.86 3204.64,4991.37 2864.2,4991.37 2864.2,4797.05 3776.34,4797.05 3776.34,4991.37 3437.5,4991.37 3437.5,5946.86 "/>
   <polygon id="_3" class="fil5" points="3745.82,5946.86 3745.82,5726.86 3965.83,5726.86 3965.83,5946.86 "/>
   <path id="_4" class="fil5" d="M4607.91 4797.05l232.85 0 0 728.53c0,95.28 -8.3,168.61 -25.16,220 -22.48,66.92 -63.16,120.71 -122.32,161.39 -58.88,40.42 -136.76,60.75 -233.65,60.75 -113.48,0 -200.74,-31.58 -261.76,-95.02 -61.29,-63.43 -92.07,-156.57 -92.61,-279.15l220 -25.69c2.68,65.57 12.05,111.87 28.64,138.91 24.89,41.21 62.63,61.82 113.48,61.82 51.12,0 87.52,-14.72 108.67,-44.43 21.14,-29.44 31.85,-90.73 31.85,-183.88l0 -743.25z"/>
   <path id="_5" class="fil5" d="M5027.31 5574.29l226.44 -22.48c13.65,75.74 40.95,131.14 82.43,166.74 41.48,35.6 97.42,53.26 167.81,53.26 74.4,0 130.62,-15.79 168.35,-47.38 37.74,-31.58 56.74,-68.51 56.74,-110.8 0,-27.3 -8.03,-50.32 -23.82,-69.59 -15.79,-19 -43.63,-35.59 -83.24,-49.51 -27.03,-9.64 -88.59,-26.23 -184.94,-50.32 -123.92,-31.05 -210.9,-69.05 -260.95,-114.29 -70.39,-63.43 -105.45,-140.78 -105.45,-232.05 0,-58.61 16.59,-113.74 49.51,-164.87 33.18,-51.12 80.82,-89.93 143.19,-116.69 62.36,-26.77 137.3,-40.14 225.62,-40.14 143.73,0 252.12,31.84 324.66,95.81 72.8,63.97 110.81,149.08 114.56,255.87l-232.85 8.03c-9.9,-59.42 -31.05,-101.98 -63.43,-127.94 -32.39,-25.96 -81.09,-39.08 -145.87,-39.08 -66.91,0 -119.37,13.92 -157.11,41.76 -24.35,17.93 -36.67,41.76 -36.67,71.73 0,27.3 11.51,50.59 34.53,69.86 29.17,24.89 100.09,50.58 212.78,77.35 112.68,26.49 195.91,54.33 249.71,82.7 54.07,28.64 96.35,67.44 126.87,116.96 30.51,49.51 45.77,110.54 45.77,183.07 0,65.84 -18.19,127.66 -54.86,185.21 -36.67,57.54 -88.33,100.37 -155.24,128.2 -66.91,28.11 -150.42,42.02 -250.25,42.02 -145.33,0 -256.94,-33.46 -334.82,-100.63 -77.89,-66.92 -124.19,-164.6 -139.45,-292.81z"/>
   <polygon class="fil4" points="5792.32,1454.49 5793.23,0 3944.51,655.3 "/>
   <path class="fil6" d="M2026.56 2529.86c1111.07,0 2010.84,-290.13 2011.77,-500.99l3.25 -731.19c-101.53,410.54 -1493.05,500.99 -2028.2,500.99 -208.06,0 -1887.05,-43.03 -2008.99,-471.46 -14.13,251.58 10.39,491.46 10.39,701.66 0,210.19 900.7,500.99 2011.78,500.99z"/>
   <path class="fil6" d="M2026.56 4146.35c1111.07,0 2010.84,-290.13 2011.77,-500.99l3.25 -731.19c-101.53,410.54 -1493.05,500.99 -2028.2,500.99 -208.06,0 -1887.05,-43.03 -2008.99,-471.46 -14.13,251.58 10.39,491.46 10.39,701.66 0,210.19 900.7,500.99 2011.78,500.99z"/>
   <path class="fil7" d="M2029.8 972.95c1111.07,0 2011.78,-217.81 2011.78,-486.47 0,-268.67 -900.71,-486.48 -2011.78,-486.48 -1111.08,0 -2011.78,217.81 -2011.78,486.48 0,268.66 900.7,486.47 2011.78,486.47z"/>
  </g>
 </g>
</svg>
