<?xml version="1.0" encoding="UTF-8"?>
<!DOCTYPE svg PUBLIC "-//W3C//DTD SVG 1.1//EN" "http://www.w3.org/Graphics/SVG/1.1/DTD/svg11.dtd">
<!-- Creator: CorelDRAW -->
<svg xmlns="http://www.w3.org/2000/svg" xml:space="preserve" width="79.6294mm" height="79.6294mm" version="1.1" style="shape-rendering:geometricPrecision; text-rendering:geometricPrecision; image-rendering:optimizeQuality; fill-rule:evenodd; clip-rule:evenodd"
viewBox="0 0 6906.03 6906.03"
 xmlns:xlink="http://www.w3.org/1999/xlink"
 xmlns:xodm="http://www.corel.com/coreldraw/odm/2003">
 <defs>
  <style type="text/css">
   <![CDATA[
    .fil0 {fill:#FEFEFE}
    .fil3 {fill:#28203A}
    .fil2 {fill:#008DD2}
    .fil1 {fill:#E31E24;fill-rule:nonzero}
    .fil4 {fill:#1F1B20;fill-rule:nonzero}
   ]]>
  </style>
 </defs>
 <g id="Layer_x0020_1">
  <metadata id="CorelCorpID_0Corel-Layer"/>
  <g id="_1829121663584">
   <rect class="fil0" width="6906.03" height="6906.03"/>
   <path class="fil1" d="M5569.57 6107.2c0,36.09 17.35,65.23 52.74,85.36 145.03,86.74 290.06,173.48 433.71,260.92 241.49,142.25 378.19,213.73 410.81,213.73 68,0 102.01,-35.39 102.01,-106.17 0,-36.78 -17.35,-65.24 -52.74,-85.36 -145.03,-86.74 -290.07,-174.17 -433.71,-260.92 -241.49,-142.26 -378.2,-213.73 -410.81,-213.73 -68.01,0 -102.01,35.39 -102.01,106.17z"/>
   <path class="fil1" d="M5569.57 4616.4c0,68.01 34,102.01 102.01,102.01l915.99 0c68.01,0 102.01,-34 102.01,-102.01 0,-68 -34,-102.01 -102.01,-102.01l-915.99 0c-68.01,0 -102.01,34.01 -102.01,102.01z"/>
   <path class="fil1" d="M5569.57 3223.09c0,68.71 34,103.4 102.01,103.4 32.61,0 169.32,-70.08 410.81,-210.96 143.64,-86.74 288.67,-173.48 433.71,-260.22 35.39,-20.12 52.74,-48.58 52.74,-85.35 0,-70.09 -34.01,-105.48 -102.01,-105.48 -32.62,0 -169.32,70.08 -410.81,210.96 -143.65,86.74 -288.67,173.48 -433.71,260.22 -35.39,20.12 -52.74,49.27 -52.74,87.43z"/>
   <path class="fil2" d="M2081.73 2587.9c1136.56,0 2056.97,-296.79 2057.92,-512.48l3.32 -747.96c-103.86,419.96 -1527.3,512.48 -2074.73,512.48 -212.84,0 -1930.35,-44.01 -2055.08,-482.27 -14.46,257.35 10.63,502.74 10.63,717.75 0,215.01 921.36,512.48 2057.93,512.48z"/>
   <path class="fil2" d="M2081.73 4241.48c1136.56,0 2056.97,-296.79 2057.92,-512.48l3.32 -747.96c-103.86,419.96 -1527.3,512.48 -2074.73,512.48 -212.84,0 -1930.35,-44.01 -2055.08,-482.27 -14.46,257.35 10.63,502.74 10.63,717.75 0,215.01 921.36,512.48 2057.93,512.48z"/>
   <path class="fil2" d="M2081.73 5790.34c1136.56,0 2056.97,-296.79 2057.92,-512.48l3.32 -747.96c-103.86,419.96 -1527.3,512.48 -2074.73,512.48 -212.84,0 -1930.35,-44.01 -2055.08,-482.27 -14.46,257.35 10.63,502.74 10.63,717.75 0,215.01 921.36,512.48 2057.93,512.48z"/>
   <path class="fil3" d="M2085.04 995.27c1136.56,0 2057.93,-222.81 2057.93,-497.63 0,-274.84 -921.37,-497.64 -2057.93,-497.64 -1136.57,0 -2057.93,222.8 -2057.93,497.64 0,274.82 921.36,497.63 2057.93,497.63z"/>
   <g>
    <rect class="fil0" x="2030.28" y="1796.67" width="3788.58" height="5013.05"/>
    <path class="fil4" d="M5846.04 6791.28l-3865.94 0 0 -5013.05 2996.63 0 869.31 922.12 0 4090.94zm-114.07 -126.75l0 -3961.01 -754.18 0 0 -830.23 -2883.62 0 0 4791.24 3637.8 0zm-956.98 -2541.38l-1856.92 0 0 -2078.75 1856.92 0 0 2078.75zm652.78 709.81l-2959.67 0 0 -240.83 2959.67 0 0 240.83zm0 697.14l-2959.67 0 0 -240.83 2959.67 0 0 240.83zm0 703.48l-2959.67 0 0 -240.83 2959.67 0 0 240.83zm-754.18 -2243.52l0 -1825.23 -1641.44 0 0 1825.23 1641.44 0zm-36.97 -1117.53l-405.61 0c-4.22,-29.58 -6.34,-62.32 -6.34,-99.29 0,-127.81 32.75,-192.24 99.29,-192.24 86.61,0 132.03,31.69 136.26,96.12 0,-86.61 58.09,-149.99 176.39,-189.07l0 384.49zm-25.35 983.38c0,27.47 -1.06,51.76 -3.17,74.99l-1492.51 0c53.87,-116.19 137.32,-258.79 251.4,-427.78 -21.13,-73.94 -31.69,-151.05 -31.69,-231.33 0,-148.94 59.15,-290.48 177.45,-424.62 -14.79,-69.72 -22.18,-151.05 -22.18,-244 0,-88.73 27.46,-164.78 82.38,-228.16 53.87,-62.31 125.7,-94 214.42,-94 146.82,0 261.96,159.49 344.34,479.55 24.3,97.17 81.34,146.82 170.06,148.93 41.2,51.76 94.01,132.03 158.44,240.83 17.95,41.2 48.58,159.5 89.78,352.8 41.2,194.35 61.26,311.59 61.26,352.79zm-1164.01 -983.38l-374.97 0 0 -334.84c19.01,-24.29 43.3,-36.96 74.99,-36.96 34.86,0 62.32,13.73 83.45,40.14 20.07,27.46 25.35,57.04 14.79,89.78 31.68,-39.08 62.31,-59.15 92.95,-59.15 62.32,0 98.24,100.34 108.8,301.04zm612.64 194.35c-123.59,-129.92 -184.85,-234.49 -184.85,-315.83 0,-17.95 3.17,-46.47 11.62,-83.44 8.45,-36.97 12.67,-65.49 12.67,-86.61 0,-39.08 -11.62,-79.23 -33.8,-120.41 -29.57,-45.43 -61.26,-67.6 -96.12,-67.6 -39.09,0 -77.11,3.17 -115.14,11.62 -41.2,74.99 -61.26,140.48 -61.26,198.58 0,28.52 9.51,64.43 30.63,107.73 21.13,43.31 42.25,67.6 65.5,71.83 20.07,26.41 35.91,40.14 46.47,40.14l-6.33 83.45 -9.51 0c-92.95,-2.12 -164.77,77.11 -216.53,237.66l386.59 81.33c39.08,-79.22 96.12,-130.98 170.06,-158.44zm34.86 652.78c0,-45.42 -47.54,-90.84 -142.6,-136.26 -68.66,-26.41 -136.26,-52.82 -203.86,-80.27 -74.99,16.89 -111.96,40.14 -111.96,71.82 0,24.3 15.85,54.93 46.48,92.95l62.32 0c9.51,71.83 67.6,111.96 173.22,120.42l-28.52 -33.81 31.69 -9.51 30.63 43.31 40.14 -9.51 -36.97 -49.64 24.29 -9.51 46.48 49.64 43.31 -14.79 -67.6 -62.32 11.62 -9.51c23.23,14.79 49.64,30.63 81.33,46.48l0 -9.51zm-291.53 65.49l-70.77 -68.65 -115.13 38.02 0 83.45 68.65 51.76c24.29,-22.18 63.38,-57.04 117.25,-104.58zm59.15 -1268.58c-21.12,26.4 -49.64,43.3 -86.61,49.64 -10.55,11.61 -17.95,29.57 -22.18,51.76 -4.22,-39.09 -6.34,-60.21 -6.34,-64.44 0,-19.01 9.51,-27.46 28.52,-27.46 6.34,0 15.85,0 30.63,2.11 14.8,2.12 25.35,3.17 30.63,3.17 2.12,0 6.34,-1.06 12.68,-3.17l12.67 -11.61zm-164.77 49.64c-5.28,0 -34.86,5.28 -86.61,17.95l0 -33.8c10.56,-6.34 23.23,-9.51 38.02,-9.51 11.62,0 28.52,8.45 48.59,25.35zm74.99 114.07c-8.45,12.68 -21.13,19.02 -36.97,19.02 -23.23,0 -36.96,-9.51 -41.2,-28.52 6.34,6.34 15.85,11.62 28.52,15.85 8.45,-4.22 17.95,-9.51 27.46,-15.85l22.18 9.51zm46.48 19.02c-8.45,13.73 -31.69,29.57 -71.83,46.47 -7.39,0 -24.29,-3.17 -48.58,-9.51 20.07,0 60.21,-12.67 120.41,-36.96zm-31.69 -145.77c-7.39,-2.11 -10.56,-8.45 -8.45,-19.01l-19.01 25.35 27.46 -6.34zm-142.6 17.96l-9.51 -21.13 -14.79 21.13 24.29 0z"/>
   </g>
   <path class="fil1" d="M2117.4 6054.63c0,36.09 -17.35,65.23 -52.74,85.36 -145.03,86.74 -290.06,173.48 -433.71,260.92 -241.49,142.25 -378.19,213.73 -410.81,213.73 -68,0 -102.01,-35.39 -102.01,-106.17 0,-36.78 17.35,-65.24 52.74,-85.36 145.03,-86.74 290.07,-174.17 433.71,-260.92 241.49,-142.26 378.2,-213.73 410.81,-213.73 68.01,0 102.01,35.39 102.01,106.17z"/>
   <path class="fil1" d="M2117.4 4563.83c0,68.01 -34,102.01 -102.01,102.01l-915.99 0c-68.01,0 -102.01,-34 -102.01,-102.01 0,-68 34,-102.01 102.01,-102.01l915.99 0c68.01,0 102.01,34.01 102.01,102.01z"/>
   <path class="fil1" d="M2117.4 3170.53c0,68.71 -34,103.4 -102.01,103.4 -32.61,0 -169.32,-70.08 -410.81,-210.96 -143.64,-86.74 -288.67,-173.48 -433.71,-260.22 -35.39,-20.12 -52.74,-48.58 -52.74,-85.35 0,-70.09 34.01,-105.48 102.01,-105.48 32.62,0 169.32,70.08 410.81,210.96 143.65,86.74 288.67,173.48 433.71,260.22 35.39,20.12 52.74,49.27 52.74,87.43z"/>
  </g>
 </g>
</svg>
