<?xml version="1.0" encoding="UTF-8"?>
<!DOCTYPE svg PUBLIC "-//W3C//DTD SVG 1.1//EN" "http://www.w3.org/Graphics/SVG/1.1/DTD/svg11.dtd">
<!-- Creator: CorelDRAW -->
<svg xmlns="http://www.w3.org/2000/svg" xml:space="preserve" width="79.7056mm" height="79.7056mm" version="1.1" style="shape-rendering:geometricPrecision; text-rendering:geometricPrecision; image-rendering:optimizeQuality; fill-rule:evenodd; clip-rule:evenodd"
viewBox="0 0 8691.95 8691.95"
 xmlns:xlink="http://www.w3.org/1999/xlink"
 xmlns:xodm="http://www.corel.com/coreldraw/odm/2003">
 <defs>
  <style type="text/css">
   <![CDATA[
    .str0 {stroke:#434242;stroke-width:8.31;stroke-miterlimit:22.9256}
    .fil0 {fill:none}
    .fil3 {fill:#008DD2}
    .fil2 {fill:#1F1B20}
    .fil1 {fill:#FEFEFE}
    .fil5 {fill:#E31E24;fill-rule:nonzero}
    .fil4 {fill:#1F1B20;fill-rule:nonzero}
   ]]>
  </style>
 </defs>
 <g id="Layer_x0020_1">
  <metadata id="CorelCorpID_0Corel-Layer"/>
  <g id="_1792002561312">
   <g>
    <polygon class="fil0 str0" points="4.15,4.15 8687.8,4.15 8687.8,8687.8 4.15,8687.8 "/>
    <polygon id="_1" class="fil1" points="4.15,4.15 8687.8,4.15 8687.8,8687.8 4.15,8687.8 "/>
   </g>
   <rect class="fil2" x="223.4" y="4.15" width="8246.75" height="8657.56"/>
   <rect class="fil3" x="974.75" y="806.97" width="6778.61" height="7060.11"/>
   <polygon class="fil4" points="1914.4,3403.44 2449.27,2595.55 1964.17,1854.03 2329.52,1854.03 2634.64,2315.31 2939.77,1854.03 3305.84,1854.03 2819.67,2595.91 3353.45,3403.44 2977.64,3403.44 2634.28,2878.68 2290.58,3403.44 "/>
   <path id="_1_0" class="fil4" d="M5209.44 3857.88l-203.42 0c-108.56,-162.66 -191.14,-331.45 -248.13,-507.1 -56.62,-175.28 -85.11,-344.8 -85.11,-508.9 0,-203.41 34.98,-396.01 104.59,-577.78 60.95,-157.61 137.77,-302.96 230.83,-436.05l203.41 0c-97.02,213.16 -164.1,394.94 -200.53,544.25 -36.42,149.67 -54.82,308.36 -54.82,476.07 0,115.42 10.83,233.72 32.46,354.89 22,120.83 51.57,235.88 89.44,345.16 24.89,71.78 68.53,174.93 131.29,309.45z"/>
   <path id="_2" class="fil4" d="M5352.25 3857.88c58.79,-125.51 99.91,-221.45 124.08,-288.17 23.79,-67.09 46.16,-144.27 66.72,-231.55 20.2,-87.28 35.34,-170.24 45.44,-248.5 9.74,-78.63 14.79,-159.05 14.79,-241.29 0,-167.71 -18.03,-326.4 -54.1,-476.07 -36.06,-149.31 -102.42,-331.09 -199.08,-544.25l201.25 0c106.76,151.48 189.7,311.98 248.85,481.49 59.15,169.88 88.72,341.91 88.72,516.48 0,147.15 -23.43,304.76 -69.97,473.19 -52.66,188.63 -139.93,374.73 -261.12,558.67l-205.58 0z"/>
   <path id="_3" class="fil4" d="M6204.87 2576.79l0 -296.47 296.47 0 0 296.47 -296.47 0zm0 530.18l296.47 0 0 212.43c0,85.83 -7.21,154 -22,203.41 -14.79,49.77 -42.92,94.49 -84.03,133.81 -41.11,39.67 -93.41,70.34 -156.53,93.05l-57.71 -123.35c59.52,-19.84 101.71,-47.24 126.96,-82.22 24.89,-35.35 38.23,-82.24 39.67,-140.66l-142.82 0 0 -296.47z"/>
   <path id="_4" class="fil5" d="M4207.15 3403.44l-296.48 0 0 -1121.67c-108.2,101.71 -235.87,177.09 -383.02,225.78l0 -270.5c77.54,-25.25 161.57,-73.21 252.1,-144.26 90.88,-70.69 152.92,-153.28 186.83,-247.41l240.57 0 0 1558.07z"/>
   <polygon class="fil4" points="1914.4,6016.38 2449.27,5208.49 1964.17,4466.97 2329.52,4466.97 2634.64,4928.25 2939.77,4466.97 3305.84,4466.97 2819.67,5208.85 3353.45,6016.38 2977.64,6016.38 2634.28,5491.62 2290.58,6016.38 "/>
   <path id="_1_1" class="fil4" d="M5209.44 6470.82l-203.42 0c-108.56,-162.66 -191.14,-331.45 -248.13,-507.1 -56.62,-175.28 -85.11,-344.8 -85.11,-508.9 0,-203.41 34.98,-396.01 104.59,-577.78 60.95,-157.61 137.77,-302.96 230.83,-436.05l203.41 0c-97.02,213.16 -164.1,394.94 -200.53,544.25 -36.42,149.67 -54.82,308.36 -54.82,476.07 0,115.42 10.83,233.72 32.46,354.89 22,120.83 51.57,235.88 89.44,345.16 24.89,71.78 68.53,174.93 131.29,309.45z"/>
   <path id="_2_2" class="fil4" d="M5352.25 6470.82c58.79,-125.51 99.91,-221.45 124.08,-288.17 23.79,-67.09 46.16,-144.27 66.72,-231.55 20.2,-87.28 35.34,-170.24 45.44,-248.5 9.74,-78.63 14.79,-159.05 14.79,-241.29 0,-167.71 -18.03,-326.4 -54.1,-476.07 -36.06,-149.31 -102.42,-331.09 -199.08,-544.25l201.25 0c106.76,151.48 189.7,311.98 248.85,481.49 59.15,169.88 88.72,341.91 88.72,516.48 0,147.15 -23.43,304.76 -69.97,473.19 -52.66,188.63 -139.93,374.73 -261.12,558.67l-205.58 0z"/>
   <path id="_3_3" class="fil4" d="M6204.87 5189.73l0 -296.47 296.47 0 0 296.47 -296.47 0zm0 530.18l296.47 0 0 212.43c0,85.83 -7.21,154 -22,203.41 -14.79,49.77 -42.92,94.49 -84.03,133.81 -41.11,39.67 -93.41,70.34 -156.53,93.05l-57.71 -123.35c59.52,-19.84 101.71,-47.24 126.96,-82.22 24.89,-35.35 38.23,-82.24 39.67,-140.66l-142.82 0 0 -296.47z"/>
   <path id="_4_4" class="fil5" d="M4451.68 5741.55l0 274.83 -1040.88 0c11.18,-104.59 45.08,-203.41 101.35,-296.83 56.26,-93.41 167.71,-217.48 333.61,-372.21 133.81,-124.79 215.68,-209.54 245.97,-253.9 40.75,-61.32 61.32,-121.91 61.32,-182.14 0,-66.37 -17.68,-117.22 -53.38,-152.92 -35.34,-35.7 -84.39,-53.38 -146.79,-53.38 -62.04,0 -111.09,18.76 -147.87,56.26 -36.42,37.15 -57.35,99.19 -63.12,186.11l-296.47 -29.57c17.68,-163.74 72.86,-281.32 165.91,-352.72 93.05,-71.06 209.18,-106.76 348.76,-106.76 152.92,0 273.03,41.47 360.67,124.07 87.27,82.6 130.92,185.39 130.92,308.37 0,69.97 -12.62,136.32 -37.5,199.8 -24.9,63.12 -64.57,129.12 -119.03,198.36 -35.7,46.17 -100.98,112.17 -194.75,198.37 -94.13,86.19 -153.64,143.18 -178.53,171.67 -25.25,28.14 -45.45,55.91 -60.96,82.6l590.77 0z"/>
  </g>
 </g>
</svg>
