<?xml version="1.0" encoding="UTF-8"?>
<!DOCTYPE svg PUBLIC "-//W3C//DTD SVG 1.1//EN" "http://www.w3.org/Graphics/SVG/1.1/DTD/svg11.dtd">
<!-- Creator: CorelDRAW -->
<svg xmlns="http://www.w3.org/2000/svg" xml:space="preserve" width="79.7891mm" height="79.6294mm" version="1.1" style="shape-rendering:geometricPrecision; text-rendering:geometricPrecision; image-rendering:optimizeQuality; fill-rule:evenodd; clip-rule:evenodd"
viewBox="0 0 6802.27 6788.66"
 xmlns:xlink="http://www.w3.org/1999/xlink"
 xmlns:xodm="http://www.corel.com/coreldraw/odm/2003">
 <defs>
  <style type="text/css">
   <![CDATA[
    .str0 {stroke:#1F1B20;stroke-width:6.5;stroke-miterlimit:22.9256}
    .str1 {stroke:#1F1B20;stroke-width:6.04;stroke-miterlimit:22.9256}
    .fil6 {fill:none}
    .fil3 {fill:none;fill-rule:nonzero}
    .fil5 {fill:#FEFEFE}
    .fil0 {fill:#FEFEFE}
    .fil7 {fill:#E31E24}
    .fil4 {fill:#1F1B20}
    .fil2 {fill:#28203A}
    .fil1 {fill:#008DD2}
    .fil8 {fill:#1F1B20;fill-rule:nonzero}
   ]]>
  </style>
 </defs>
 <g id="Layer_x0020_1">
  <metadata id="CorelCorpID_0Corel-Layer"/>
  <g id="_3006478496496">
   <rect class="fil0" x="8.16" width="6788.66" height="6788.66"/>
   <path class="fil1" d="M2045.27 2543.92c1117.24,0 2022.01,-291.74 2022.95,-503.77l3.27 -735.25c-102.1,412.82 -1501.34,503.77 -2039.47,503.77 -209.22,0 -1897.54,-43.27 -2020.15,-474.08 -14.21,252.98 10.45,494.2 10.45,705.56 0,211.36 905.7,503.77 2022.95,503.77z"/>
   <path class="fil1" d="M2045.27 4169.39c1117.24,0 2022.01,-291.74 2022.95,-503.77l3.27 -735.25c-102.1,412.82 -1501.34,503.77 -2039.47,503.77 -209.22,0 -1897.54,-43.27 -2020.15,-474.08 -14.21,252.98 10.45,494.2 10.45,705.56 0,211.36 905.7,503.77 2022.95,503.77z"/>
   <path class="fil1" d="M2058.5 5459.56c1117.24,0 2022.01,-291.74 2022.95,-503.77l3.27 -735.25c-102.1,412.82 -1501.34,503.77 -2039.47,503.77 -209.22,0 -1897.54,-43.27 -2020.15,-474.08 -14.21,252.98 10.45,494.2 10.45,705.56 0,211.36 905.7,503.77 2022.95,503.77z"/>
   <path class="fil2" d="M2022.95 978.36c1117.24,0 2022.95,-219.02 2022.95,-489.17 0,-270.17 -905.71,-489.18 -2022.95,-489.18 -1117.25,0 -2022.95,219.02 -2022.95,489.18 0,270.15 905.7,489.17 2022.95,489.17z"/>
   <g>
    <g>
     <polygon class="fil3 str0" points="1338.76,1827.65 6796.82,1827.65 6796.82,6770.22 1338.76,6770.22 "/>
     <polygon id="_1" class="fil4" points="1338.76,1827.65 6796.82,1827.65 6796.82,6770.22 1338.76,6770.22 "/>
    </g>
    <g>
     <polygon class="fil3 str0" points="1702.06,2239.93 6443.15,2239.93 6443.15,6415.26 1702.06,6415.26 "/>
     <polygon id="_1_0" class="fil5" points="1702.06,2239.93 6443.15,2239.93 6443.15,6415.26 1702.06,6415.26 "/>
    </g>
    <g>
     <polygon class="fil3 str0" points="1702.06,2625.57 6443.16,2625.57 6443.16,2980.53 1702.06,2980.53 "/>
     <polygon id="_1_1" class="fil4" points="1702.06,2625.57 6443.16,2625.57 6443.16,2980.53 1702.06,2980.53 "/>
    </g>
    <g>
     <polygon class="fil3 str0" points="2178.7,6535.76 2178.7,2206.77 2533.66,2206.77 2533.66,6535.76 "/>
     <polygon id="_1_2" class="fil4" points="2178.7,6535.76 2178.7,2206.77 2533.66,2206.77 2533.66,6535.76 "/>
    </g>
    <g>
     <polygon class="fil3 str0" points="4146.34,6522.33 4146.34,2193.34 4501.3,2193.34 4501.3,6522.33 "/>
     <polygon id="_1_3" class="fil4" points="4146.34,6522.33 4146.34,2193.34 4501.3,2193.34 4501.3,6522.33 "/>
    </g>
    <g>
     <polygon class="fil3 str0" points="1702.06,3383.51 6443.16,3383.51 6443.16,3738.47 1702.06,3738.47 "/>
     <polygon id="_1_4" class="fil4" points="1702.06,3383.51 6443.16,3383.51 6443.16,3738.47 1702.06,3738.47 "/>
    </g>
    <g>
     <polygon class="fil3 str0" points="1702.06,4141.44 6443.16,4141.44 6443.16,4496.4 1702.06,4496.4 "/>
     <polygon id="_1_5" class="fil4" points="1702.06,4141.44 6443.16,4141.44 6443.16,4496.4 1702.06,4496.4 "/>
    </g>
    <g>
     <polygon class="fil3 str0" points="1702.06,4899.38 6443.16,4899.38 6443.16,5254.34 1702.06,5254.34 "/>
     <polygon id="_1_6" class="fil4" points="1702.06,4899.38 6443.16,4899.38 6443.16,5254.34 1702.06,5254.34 "/>
    </g>
    <g>
     <polygon class="fil3 str0" points="1702.06,5657.32 6443.16,5657.32 6443.16,6012.28 1702.06,6012.28 "/>
     <polygon id="_1_7" class="fil4" points="1702.06,5657.32 6443.16,5657.32 6443.16,6012.28 1702.06,6012.28 "/>
    </g>
    <g>
     <polygon class="fil6 str1" points="1702.06,2239.93 2178.7,2239.93 2178.7,2625.57 1702.06,2625.57 "/>
     <polygon id="_1_8" class="fil7" points="1702.06,2239.93 2178.7,2239.93 2178.7,2625.57 1702.06,2625.57 "/>
    </g>
   </g>
   <g>
    <path class="fil8" d="M5803.32 1747.36l312 0.08 -14.32 -603.72c-5.58,-234.93 -76.08,-385.91 -249.4,-554.16 -126.75,-123.05 -398.5,-237.17 -713.95,-248.59l-2406.08 -12.19 0 385.16 2397.35 -18.74c259.54,-1.63 648.14,162.89 657.22,470.4l17.19 581.77z"/>
    <polygon class="fil7" points="5283.95,1296.5 6746.52,1295.59 6087.58,3154.58 "/>
   </g>
  </g>
 </g>
</svg>
