<?xml version="1.0" encoding="UTF-8"?>
<!DOCTYPE svg PUBLIC "-//W3C//DTD SVG 1.1//EN" "http://www.w3.org/Graphics/SVG/1.1/DTD/svg11.dtd">
<!-- Creator: CorelDRAW -->
<svg xmlns="http://www.w3.org/2000/svg" xml:space="preserve" width="79.6294mm" height="79.6294mm" version="1.1" style="shape-rendering:geometricPrecision; text-rendering:geometricPrecision; image-rendering:optimizeQuality; fill-rule:evenodd; clip-rule:evenodd"
viewBox="0 0 6744.43 6744.43"
 xmlns:xlink="http://www.w3.org/1999/xlink"
 xmlns:xodm="http://www.corel.com/coreldraw/odm/2003">
 <defs>
  <style type="text/css">
   <![CDATA[
    .str0 {stroke:#1F1B20;stroke-width:6.45;stroke-miterlimit:22.9256}
    .fil4 {fill:none;fill-rule:nonzero}
    .fil0 {fill:#FEFEFE}
    .fil6 {fill:#E31E24}
    .fil5 {fill:#1F1B20}
    .fil2 {fill:#28203A}
    .fil1 {fill:#008DD2}
    .fil3 {fill:#1F1B20;fill-rule:nonzero}
   ]]>
  </style>
 </defs>
 <g id="Layer_x0020_1">
  <metadata id="CorelCorpID_0Corel-Layer"/>
  <g id="_1827794425424">
   <rect class="fil0" width="6744.43" height="6744.43"/>
   <path class="fil1" d="M2024.55 2527.35c1109.96,0 2008.83,-289.84 2009.77,-500.49l3.24 -730.46c-101.43,410.13 -1491.56,500.49 -2026.18,500.49 -207.86,0 -1885.18,-42.98 -2006.99,-470.99 -14.12,251.33 10.38,490.98 10.38,700.96 0,209.98 899.8,500.49 2009.78,500.49z"/>
   <path class="fil1" d="M2024.55 4142.23c1109.96,0 2008.83,-289.84 2009.77,-500.49l3.24 -730.46c-101.43,410.13 -1491.56,500.49 -2026.18,500.49 -207.86,0 -1885.18,-42.98 -2006.99,-470.99 -14.12,251.33 10.38,490.98 10.38,700.96 0,209.98 899.8,500.49 2009.78,500.49z"/>
   <path class="fil1" d="M2024.55 5654.84c1109.96,0 2008.83,-289.84 2009.77,-500.49l3.24 -730.46c-101.43,410.13 -1491.56,500.49 -2026.18,500.49 -207.86,0 -1885.18,-42.98 -2006.99,-470.99 -14.12,251.33 10.38,490.98 10.38,700.96 0,209.98 899.8,500.49 2009.78,500.49z"/>
   <path class="fil2" d="M2027.78 971.98c1109.96,0 2009.78,-217.6 2009.78,-485.99 0,-268.41 -899.81,-486 -2009.78,-486 -1109.97,0 -2009.78,217.59 -2009.78,486 0,268.39 899.8,485.99 2009.78,485.99z"/>
   <path class="fil3" d="M2400.21 5769.42l0.08 309.97 -599.79 -14.23c-233.4,-5.54 -383.39,-75.58 -550.55,-247.77 -122.25,-125.93 -235.62,-395.9 -246.97,-709.3l-26.48 -680.6 382.65 0 -4.25 671.92c-1.62,257.85 161.83,643.91 467.34,652.93l577.98 17.08z"/>
   <g>
    <polygon class="fil4 str0" points="3214.67,1939.07 6626.21,1939.07 6626.21,6664.88 3214.67,6664.88 "/>
    <polygon id="_1" class="fil5" points="3214.67,1939.07 6626.21,1939.07 6626.21,6664.88 3214.67,6664.88 "/>
   </g>
   <g>
    <polygon class="fil4 str0" points="3569.91,2248.09 6262.69,2248.09 6262.69,6338.06 3569.91,6338.06 "/>
    <polygon id="_1_0" class="fil0" points="3569.91,2248.09 6262.69,2248.09 6262.69,6338.06 3569.91,6338.06 "/>
   </g>
   <g>
    <polygon class="fil4 str0" points="3920.77,2647.28 5936.66,2647.28 5936.66,3056.84 3920.77,3056.84 "/>
    <polygon id="_1_1" class="fil5" points="3920.77,2647.28 5936.66,2647.28 5936.66,3056.84 3920.77,3056.84 "/>
   </g>
   <g>
    <polygon class="fil4 str0" points="3920.77,3457.98 5390.48,3457.98 5390.48,3867.53 3920.77,3867.53 "/>
    <polygon id="_1_2" class="fil5" points="3920.77,3457.98 5390.48,3457.98 5390.48,3867.53 3920.77,3867.53 "/>
   </g>
   <g>
    <polygon class="fil4 str0" points="3884.41,4277.09 5900.3,4277.09 5900.3,4686.65 3884.41,4686.65 "/>
    <polygon id="_1_3" class="fil5" points="3884.41,4277.09 5900.3,4277.09 5900.3,4686.65 3884.41,4686.65 "/>
   </g>
   <g>
    <polygon class="fil4 str0" points="3884.41,5106.31 5900.29,5106.31 5900.29,5515.86 3884.41,5515.86 "/>
    <polygon id="_1_4" class="fil5" points="3884.41,5106.31 5900.29,5106.31 5900.29,5515.86 3884.41,5515.86 "/>
   </g>
   <polygon class="fil6" points="2384.26,5201.24 2383.35,6654.28 4230.23,5999.64 "/>
  </g>
 </g>
</svg>
