<?xml version="1.0" encoding="UTF-8"?>
<!DOCTYPE svg PUBLIC "-//W3C//DTD SVG 1.1//EN" "http://www.w3.org/Graphics/SVG/1.1/DTD/svg11.dtd">
<!-- Creator: CorelDRAW -->
<svg xmlns="http://www.w3.org/2000/svg" xml:space="preserve" width="80.0065mm" height="79.6733mm" version="1.1" style="shape-rendering:geometricPrecision; text-rendering:geometricPrecision; image-rendering:optimizeQuality; fill-rule:evenodd; clip-rule:evenodd"
viewBox="0 0 6808.46 6780.1"
 xmlns:xlink="http://www.w3.org/1999/xlink"
 xmlns:xodm="http://www.corel.com/coreldraw/odm/2003">
 <defs>
  <style type="text/css">
   <![CDATA[
    .str0 {stroke:#1F1B20;stroke-width:6.48;stroke-miterlimit:22.9256}
    .str1 {stroke:#1F1B20;stroke-width:6.48;stroke-miterlimit:22.9256}
    .fil7 {fill:none}
    .fil4 {fill:none;fill-rule:nonzero}
    .fil6 {fill:#FEFEFE}
    .fil0 {fill:#FEFEFE}
    .fil8 {fill:#E31E24}
    .fil5 {fill:#1F1B20}
    .fil3 {fill:#28203A}
    .fil2 {fill:#008DD2}
    .fil1 {fill:#1F1B20;fill-rule:nonzero}
   ]]>
  </style>
 </defs>
 <g id="Layer_x0020_1">
  <metadata id="CorelCorpID_0Corel-Layer"/>
  <g id="_3107972752560">
   <rect class="fil0" width="6776.37" height="6776.37"/>
   <path class="fil1" d="M5363.92 941.49l-0.08 -311.44 602.63 14.3c234.51,5.57 385.21,75.94 553.16,248.95 122.83,126.52 236.74,397.78 248.14,712.66l12.17 2401.73 -384.46 0 18.7 -2393.01c1.63,-259.07 -162.6,-646.96 -469.55,-656.03l-580.71 -17.16z"/>
   <path class="fil2" d="M2034.13 2539.31c1115.22,0 2018.35,-291.22 2019.28,-502.86l3.26 -733.92c-101.91,412.07 -1498.62,502.86 -2035.78,502.86 -208.84,0 -1894.1,-43.19 -2016.49,-473.22 -14.19,252.52 10.43,493.3 10.43,704.28 0,210.98 904.06,502.86 2019.29,502.86z"/>
   <path class="fil2" d="M2034.13 4161.84c1115.22,0 2018.35,-291.22 2019.28,-502.86l3.26 -733.92c-101.91,412.07 -1498.62,502.86 -2035.78,502.86 -208.84,0 -1894.1,-43.19 -2016.49,-473.22 -14.19,252.52 10.43,493.3 10.43,704.28 0,210.98 904.06,502.86 2019.29,502.86z"/>
   <path class="fil2" d="M2055.84 5449.68c1115.22,0 2018.35,-291.22 2019.28,-502.86l3.26 -733.92c-101.91,412.07 -1498.62,502.86 -2035.78,502.86 -208.84,0 -1894.1,-43.19 -2016.49,-473.22 -14.19,252.52 10.43,493.3 10.43,704.28 0,210.98 904.06,502.86 2019.29,502.86z"/>
   <path class="fil3" d="M2037.38 976.59c1115.22,0 2019.29,-218.63 2019.29,-488.29 0,-269.68 -904.07,-488.3 -2019.29,-488.3 -1115.23,0 -2019.29,218.62 -2019.29,488.3 0,269.66 904.06,488.29 2019.29,488.29z"/>
   <g>
    <polygon class="fil4 str0" points="947.36,1302.54 6802.6,1302.54 6802.6,6776.37 947.36,6776.37 "/>
    <polygon id="_1" class="fil5" points="947.36,1302.54 6802.6,1302.54 6802.6,6776.37 947.36,6776.37 "/>
   </g>
   <g>
    <polygon class="fil4 str0" points="1337.1,1744.82 6265.03,1744.82 6265.03,6353.26 1337.1,6353.26 "/>
    <polygon id="_1_0" class="fil6" points="1337.1,1744.82 6265.03,1744.82 6265.03,6353.26 1337.1,6353.26 "/>
   </g>
   <polygon class="fil1" points="1719.91,3116.36 1719.91,1962.26 1953.63,1962.26 1953.63,2416.81 2408.18,2416.81 2408.18,1962.26 2641.9,1962.26 2641.9,3116.36 2408.18,3116.36 2408.18,2611.84 1953.63,2611.84 1953.63,3116.36 "/>
   <polygon id="_1_1" class="fil1" points="3143.46,3116.36 3143.46,2157.3 2801.74,2157.3 2801.74,1962.26 3717.29,1962.26 3717.29,2157.3 3377.18,2157.3 3377.18,3116.36 "/>
   <polygon id="_2" class="fil1" points="3865.31,3116.36 3865.31,1962.26 4215.35,1962.26 4422.21,2749.39 4626.65,1962.26 4977.51,1962.26 4977.51,3116.36 4761.51,3116.36 4760.71,2207.8 4533.16,3116.36 4308.58,3116.36 4082.1,2207.8 4081.3,3116.36 "/>
   <polygon id="_3" class="fil1" points="5217.67,3116.36 5217.67,1971.93 5451.39,1971.93 5451.39,2921.32 6030.05,2921.32 6030.05,3116.36 "/>
   <g>
    <polygon class="fil7 str1" points="1705.47,3565.71 3373.75,3565.71 3373.75,3946.5 1705.47,3946.5 "/>
    <polygon id="_1_2" class="fil5" points="1705.47,3565.71 3373.75,3565.71 3373.75,3946.5 1705.47,3946.5 "/>
   </g>
   <g>
    <polygon class="fil4 str0" points="1705.47,4321.45 2823.89,4321.45 2823.89,4702.24 1705.47,4702.24 "/>
    <polygon id="_1_3" class="fil5" points="1705.47,4321.45 2823.89,4321.45 2823.89,4702.24 1705.47,4702.24 "/>
   </g>
   <g>
    <polygon class="fil4 str0" points="1719.91,5068.89 3123.31,5068.89 3123.31,5449.68 1719.91,5449.68 "/>
    <polygon id="_1_4" class="fil5" points="1719.91,5068.89 3123.31,5068.89 3123.31,5449.68 1719.91,5449.68 "/>
   </g>
   <g>
    <polygon class="fil4 str0" points="1719.91,5803.02 2347.54,5803.02 2347.54,6183.82 1719.91,6183.82 "/>
    <polygon id="_1_5" class="fil5" points="1719.91,5803.02 2347.54,5803.02 2347.54,6183.82 1719.91,6183.82 "/>
   </g>
   <g>
    <polygon class="fil4 str0" points="3874.99,3570.5 5869.64,3570.5 5869.64,3951.29 3874.99,3951.29 "/>
    <polygon id="_1_6" class="fil5" points="3874.99,3570.5 5869.64,3570.5 5869.64,3951.29 3874.99,3951.29 "/>
   </g>
   <g>
    <polygon class="fil7 str1" points="3860.55,4325.86 5653.11,4325.86 5653.11,4706.65 3860.55,4706.65 "/>
    <polygon id="_1_7" class="fil5" points="3860.55,4325.86 5653.11,4325.86 5653.11,4706.65 3860.55,4706.65 "/>
   </g>
   <g>
    <polygon class="fil4 str0" points="3874.98,5068.89 5364.42,5068.89 5364.42,5449.68 3874.98,5449.68 "/>
    <polygon id="_1_8" class="fil5" points="3874.98,5068.89 5364.42,5068.89 5364.42,5449.68 3874.98,5449.68 "/>
   </g>
   <g>
    <polygon class="fil7 str1" points="3874.98,5803.02 5667.55,5803.02 5667.55,6183.82 3874.98,6183.82 "/>
    <polygon id="_1_9" class="fil5" points="3874.98,5803.02 5667.55,5803.02 5667.55,6183.82 3874.98,6183.82 "/>
   </g>
   <polygon class="fil8" points="5813.96,1459.92 5814.87,0 3959.25,657.75 "/>
  </g>
 </g>
</svg>
