<?xml version="1.0" encoding="UTF-8"?>
<!DOCTYPE svg PUBLIC "-//W3C//DTD SVG 1.1//EN" "http://www.w3.org/Graphics/SVG/1.1/DTD/svg11.dtd">
<!-- Creator: CorelDRAW -->
<svg xmlns="http://www.w3.org/2000/svg" xml:space="preserve" width="79.7056mm" height="79.7056mm" version="1.1" style="shape-rendering:geometricPrecision; text-rendering:geometricPrecision; image-rendering:optimizeQuality; fill-rule:evenodd; clip-rule:evenodd"
viewBox="0 0 6795.2 6795.2"
 xmlns:xlink="http://www.w3.org/1999/xlink"
 xmlns:xodm="http://www.corel.com/coreldraw/odm/2003">
 <defs>
  <style type="text/css">
   <![CDATA[
    .str1 {stroke:#1F1B20;stroke-width:6.5;stroke-miterlimit:22.9256}
    .str0 {stroke:#434242;stroke-width:6.5;stroke-miterlimit:22.9256}
    .fil0 {fill:none}
    .fil7 {fill:none;fill-rule:nonzero}
    .fil3 {fill:#FEFEFE}
    .fil1 {fill:#FEFEFE}
    .fil2 {fill:#1F1B20}
    .fil5 {fill:#E31E24;fill-rule:nonzero}
    .fil4 {fill:#1F1B20;fill-rule:nonzero}
    .fil6 {fill:#008DD2;fill-rule:nonzero}
   ]]>
  </style>
 </defs>
 <g id="Layer_x0020_1">
  <metadata id="CorelCorpID_0Corel-Layer"/>
  <g id="_3007678752784">
   <g>
    <polygon class="fil0 str0" points="3.25,3.25 6791.95,3.25 6791.95,6791.95 3.25,6791.95 "/>
    <polygon id="_1" class="fil1" points="3.25,3.25 6791.95,3.25 6791.95,6791.95 3.25,6791.95 "/>
   </g>
   <rect class="fil2" x="3.24" y="3.25" width="6788.71" height="6768.31"/>
   <rect class="fil3" x="579.68" y="630.87" width="5712.14" height="5519.46"/>
   <path class="fil4" d="M1143.69 2088.36c77.37,-2.05 140.39,-22.54 189.07,-62.51 48.67,-39.46 81.46,-93.77 97.35,-162.43 15.88,-69.17 24.59,-187.01 25.62,-354.05 0.51,-167.03 3.07,-277.19 7.68,-330.48 9.22,-84.03 25.62,-151.15 50.21,-202.39 24.08,-50.73 54.31,-91.72 90.17,-122.46 35.87,-30.22 81.98,-53.8 137.83,-69.68 37.92,-9.74 99.41,-14.86 185.48,-14.86l83.52 0 0 236.72 -46.11 0c-102.99,0 -171.14,18.96 -204.95,56.36 -33.31,37.4 -50.21,120.92 -50.21,251.06 0,261.82 -5.64,427.32 -16.91,496.49 -17.94,107.09 -49.19,189.58 -92.74,247.47 -44.07,57.9 -112.72,109.64 -207,154.22 111.19,46.11 191.63,116.31 241.84,210.59 49.7,94.27 74.81,249.02 74.81,463.7 0,194.7 1.02,310.5 3.08,347.39 8.19,68.14 28.18,115.28 60.45,142.44 32.8,27.15 96.33,40.48 191.12,40.48l46.63 0 0 236.72 -84.03 0c-97.86,0 -169.08,-8.2 -213.14,-24.08 -63.54,-23.05 -116.82,-59.95 -158.84,-111.7 -42.01,-51.24 -69.17,-116.3 -81.47,-195.21 -12.81,-78.9 -19.47,-208.53 -20.49,-388.37 -1.02,-179.84 -9.74,-304.36 -25.62,-373.01 -15.88,-69.17 -47.65,-123.48 -95.82,-163.45 -48.67,-39.97 -110.67,-60.97 -187.52,-63.02l0 -245.94z"/>
   <path class="fil4" d="M5717.01 2088.36c-77.37,-2.05 -140.39,-22.54 -189.07,-62.51 -48.67,-39.46 -81.46,-93.77 -97.35,-162.43 -15.88,-69.17 -24.59,-187.01 -25.62,-354.05 -0.51,-167.03 -3.07,-277.19 -7.68,-330.48 -9.22,-84.03 -25.62,-151.15 -50.21,-202.39 -24.08,-50.73 -54.31,-91.72 -90.17,-122.46 -35.87,-30.22 -81.98,-53.8 -137.83,-69.68 -37.92,-9.74 -99.41,-14.86 -185.48,-14.86l-83.52 0 0 236.72 46.11 0c102.99,0 171.14,18.96 204.95,56.36 33.31,37.4 50.21,120.92 50.21,251.06 0,261.82 5.64,427.32 16.91,496.49 17.94,107.09 49.19,189.58 92.74,247.47 44.07,57.9 112.72,109.64 207,154.22 -111.19,46.11 -191.63,116.31 -241.84,210.59 -49.7,94.27 -74.81,249.02 -74.81,463.7 0,194.7 -1.02,310.5 -3.08,347.39 -8.19,68.14 -28.18,115.28 -60.45,142.44 -32.8,27.15 -96.33,40.48 -191.12,40.48l-46.63 0 0 236.72 84.03 0c97.86,0 169.08,-8.2 213.14,-24.08 63.54,-23.05 116.82,-59.95 158.84,-111.7 42.01,-51.24 69.17,-116.3 81.47,-195.21 12.81,-78.9 19.47,-208.53 20.49,-388.37 1.02,-179.84 9.74,-304.36 25.62,-373.01 15.88,-69.17 47.65,-123.48 95.82,-163.45 48.67,-39.97 110.67,-60.97 187.52,-63.02l0 -245.94z"/>
   <path class="fil5" d="M1794.68 3832.55l215.72 0 0 674.93c0,88.27 -7.68,156.21 -23.31,203.82 -20.83,61.99 -58.51,111.83 -113.31,149.51 -54.55,37.44 -126.7,56.29 -216.47,56.29 -105.13,0 -185.96,-29.26 -242.5,-88.02 -56.79,-58.77 -85.3,-145.06 -85.79,-258.62l203.82 -23.8c2.48,60.74 11.16,103.64 26.53,128.68 23.06,38.19 58.02,57.28 105.13,57.28 47.36,0 81.08,-13.64 100.67,-41.16 19.59,-27.27 29.51,-84.06 29.51,-170.35l0 -688.57z"/>
   <path id="_1_0" class="fil5" d="M2183.22 4552.61l209.77 -20.83c12.64,70.16 37.94,121.5 76.37,154.47 38.43,32.98 90.26,49.34 155.47,49.34 68.93,0 121,-14.63 155.96,-43.89 34.96,-29.26 52.57,-63.48 52.57,-102.65 0,-25.29 -7.44,-46.62 -22.07,-64.47 -14.63,-17.6 -40.41,-32.98 -77.11,-45.88 -25.04,-8.93 -82.07,-24.3 -171.33,-46.61 -114.8,-28.76 -195.39,-63.97 -241.75,-105.88 -65.22,-58.77 -97.7,-130.43 -97.7,-214.98 0,-54.3 15.38,-105.37 45.88,-152.73 30.74,-47.37 74.88,-83.32 132.65,-108.11 57.78,-24.8 127.2,-37.2 209.03,-37.2 133.15,0 233.58,29.51 300.77,88.77 67.44,59.26 102.65,138.11 106.13,237.05l-215.73 7.43c-9.17,-55.04 -28.76,-94.47 -58.77,-118.52 -30,-24.05 -75.13,-36.2 -135.14,-36.2 -61.99,0 -110.58,12.89 -145.55,38.68 -22.57,16.62 -33.97,38.68 -33.97,66.46 0,25.29 10.67,46.86 31.99,64.72 27.03,23.05 92.74,46.86 197.12,71.66 104.39,24.54 181.51,50.33 231.34,76.62 50.09,26.53 89.26,62.48 117.53,108.36 28.26,45.88 42.4,102.41 42.4,169.6 0,60.99 -16.86,118.27 -50.83,171.58 -33.97,53.31 -81.83,92.99 -143.81,118.77 -61.99,26.04 -139.35,38.94 -231.84,38.94 -134.64,0 -238.04,-31 -310.19,-93.23 -72.16,-61.99 -115.05,-152.49 -129.18,-271.26z"/>
   <path id="_2" class="fil5" d="M3187.44 4371.6c0,-108.6 16.36,-199.85 48.84,-273.74 24.06,-54.31 57.28,-103.15 99.18,-146.3 41.9,-43.14 87.78,-75.13 137.62,-96.21 66.46,-28.01 143.07,-42.15 229.85,-42.15 157.21,0 282.67,48.85 377.14,146.3 94.22,97.69 141.33,233.32 141.33,407.14 0,172.33 -46.86,307.22 -140.34,404.42 -93.48,97.45 -218.7,146.05 -375.16,146.05 -158.44,0 -284.65,-48.36 -378.13,-145.31 -93.47,-96.7 -140.34,-230.1 -140.34,-400.2zm221.67 -7.19c0,120.75 28.02,212.25 83.81,274.73 55.79,62.24 126.7,93.48 212.49,93.48 86.04,0 156.46,-31 211.75,-92.74 55.05,-61.99 82.57,-154.72 82.57,-278.45 0,-122.25 -26.78,-213.49 -80.58,-273.49 -53.56,-60.26 -124.73,-90.26 -213.74,-90.26 -88.77,0 -160.43,30.5 -214.73,91.25 -54.31,61 -81.58,152.74 -81.58,275.48z"/>
   <polygon id="_3" class="fil5" points="4389.28,4897.76 4389.28,3832.55 4598.06,3832.55 5036.44,4546.4 5036.44,3832.55 5235.8,3832.55 5235.8,4897.76 5020.33,4897.76 4588.64,4197.54 4588.64,4897.76 "/>
   <path id="_4" class="fil6" d="M1867.46 6055.74l0 -1065.21 453.01 0c113.81,0 196.63,9.67 248.2,28.76 51.83,19.1 92.99,53.07 123.98,101.91 30.99,49.1 46.61,104.89 46.61,167.86 0,80.09 -23.3,146.05 -70.16,198.12 -46.86,52.06 -116.79,84.79 -210.02,98.43 46.37,27.03 84.55,56.78 114.56,89.26 30.25,32.49 70.91,90.26 122,173.07l129.93 207.79 -257.13 0 -154.22 -232.58c-55.3,-82.57 -93.23,-134.64 -113.81,-156.21 -20.33,-21.32 -41.9,-36.21 -64.72,-44.14 -23.06,-7.94 -59.26,-11.9 -108.85,-11.9l-43.64 0 0 444.83 -215.72 0zm215.72 -614.43l159.19 0c103.16,0 167.37,-4.46 193.16,-13.14 25.54,-8.68 45.88,-23.81 60.26,-45.13 14.63,-21.32 21.82,-48.1 21.82,-80.09 0,-35.95 -9.67,-64.72 -28.76,-87.04 -19.09,-22.06 -46.11,-35.95 -80.83,-41.65 -17.6,-2.48 -69.93,-3.72 -156.96,-3.72l-167.86 0 0 270.77z"/>
   <path id="_5" class="fil6" d="M2941.84 6055.74l0 -1065.21 344.9 0c130.68,0 215.73,5.2 255.39,15.87 61,16.12 112.07,50.83 153.24,104.39 41.16,53.56 61.74,122.73 61.74,207.53 0,65.46 -11.9,120.26 -35.46,164.89 -23.8,44.63 -53.8,79.59 -90.26,105.13 -36.45,25.29 -73.64,42.15 -111.32,50.33 -51.33,10.17 -125.47,15.37 -222.67,15.37l-139.85 0 0 401.69 -215.72 0zm215.72 -885.2l0 303.49 117.28 0c84.55,0 140.84,-5.7 169.36,-16.86 28.51,-11.15 50.83,-28.51 66.95,-52.56 16.11,-23.81 24.3,-51.33 24.3,-83.07 0,-38.93 -11.41,-70.91 -33.97,-96.2 -22.81,-25.29 -51.32,-41.16 -86.29,-47.61 -25.54,-4.71 -76.86,-7.19 -154.23,-7.19l-103.4 0z"/>
   <path id="_6" class="fil6" d="M4615.54 5662.98l208.28 63.97c-31.99,117.28 -85.3,204.32 -159.69,261.35 -74.38,56.78 -168.61,85.3 -282.91,85.3 -141.58,0 -257.88,-48.35 -349.12,-145.05 -91,-96.7 -136.62,-228.86 -136.62,-396.73 0,-177.29 45.87,-315.15 137.37,-413.34 91.49,-98.19 212,-147.28 361.26,-147.28 130.43,0 236.31,38.68 317.63,115.8 48.6,45.62 84.8,111.08 109.11,196.62l-212.75 50.59c-12.64,-55.05 -38.93,-98.69 -78.85,-130.68 -40.16,-31.99 -88.77,-47.85 -145.79,-47.85 -79.1,0 -143.32,28.26 -192.42,85.05 -49.34,56.53 -73.89,148.27 -73.89,275.22 0,134.39 24.3,230.36 72.65,287.38 48.59,57.28 111.58,85.79 189.19,85.79 57.28,0 106.62,-18.1 147.78,-54.55 41.16,-36.45 70.92,-93.48 88.77,-171.59z"/>
   <g>
    <polygon class="fil7 str1" points="2011.35,1925.69 2570.61,1925.69 2570.61,2496.97 2011.35,2496.97 "/>
    <polygon id="_1_1" class="fil2" points="2011.35,1925.69 2570.61,1925.69 2570.61,2496.97 2011.35,2496.97 "/>
   </g>
   <g>
    <polygon class="fil7 str1" points="2906.38,1925.69 3914.21,1925.69 3914.21,2496.97 2906.38,2496.97 "/>
    <polygon id="_1_2" class="fil2" points="2906.38,1925.69 3914.21,1925.69 3914.21,2496.97 2906.38,2496.97 "/>
   </g>
   <g>
    <polygon class="fil7 str1" points="4249.68,1925.69 4808.93,1925.69 4808.93,2496.97 4249.68,2496.97 "/>
    <polygon id="_1_3" class="fil2" points="4249.68,1925.69 4808.93,1925.69 4808.93,2496.97 4249.68,2496.97 "/>
   </g>
  </g>
 </g>
</svg>
