<?xml version="1.0" encoding="UTF-8"?>
<!DOCTYPE svg PUBLIC "-//W3C//DTD SVG 1.1//EN" "http://www.w3.org/Graphics/SVG/1.1/DTD/svg11.dtd">
<!-- Creator: CorelDRAW -->
<svg xmlns="http://www.w3.org/2000/svg" xml:space="preserve" width="190mm" height="260mm" version="1.1" style="shape-rendering:geometricPrecision; text-rendering:geometricPrecision; image-rendering:optimizeQuality; fill-rule:evenodd; clip-rule:evenodd"
viewBox="0 0 19000 26000"
 xmlns:xlink="http://www.w3.org/1999/xlink"
 xmlns:xodm="http://www.corel.com/coreldraw/odm/2003">
 <defs>
  <style type="text/css">
   <![CDATA[
    .str1 {stroke:#1F1B20;stroke-width:5.92;stroke-miterlimit:22.9256}
    .str4 {stroke:#1F1B20;stroke-width:5.92;stroke-miterlimit:22.9256}
    .str3 {stroke:#1F1B20;stroke-width:5.92;stroke-miterlimit:22.9256}
    .str2 {stroke:#1F1B20;stroke-width:5.92;stroke-miterlimit:22.9256}
    .str5 {stroke:#1F1B20;stroke-width:5.92;stroke-miterlimit:22.9256}
    .str0 {stroke:#434242;stroke-width:7.62;stroke-miterlimit:22.9256}
    .fil1 {fill:none}
    .fil4 {fill:#FEFEFE}
    .fil2 {fill:#FEFEFE}
    .fil3 {fill:#1F1B20}
    .fil5 {fill:#E31E24;fill-rule:nonzero}
    .fil0 {fill:#1F1B20;fill-rule:nonzero}
    .fil6 {fill:#008DD2;fill-rule:nonzero}
   ]]>
  </style>
 </defs>
 <g id="Layer_x0020_1">
  <metadata id="CorelCorpID_0Corel-Layer"/>
  <path class="fil0" d="M1117.96 15052.47c0,16.88 1.56,29.39 4.61,37.54 3.04,8.06 8.07,15.39 15.14,21.81l-91.86 0c7.24,-6.42 12.35,-13.75 15.31,-21.81 2.96,-8.15 4.45,-20.66 4.45,-37.54l0 -238.96 -27 0c-18.69,0 -33.83,1.4 -45.44,4.28 -11.61,2.88 -20.91,7.57 -27.82,13.99l16.71 -54.82 239.62 0 -15.64 53.84c-5.03,-5.93 -11.61,-10.29 -19.68,-13.09 -8.15,-2.8 -18.44,-4.2 -30.78,-4.2l-37.62 0 0 238.96z"/>
  <path id="_1" class="fil0" d="M1327.86 15105.81c0,26.51 -1.73,45.03 -5.27,55.65 -3.54,10.61 -9.71,20.08 -18.6,28.48 -8.97,8.48 -20.91,15.64 -35.81,21.32 -14.81,5.68 -31.85,9.79 -50.95,12.18 21.81,-15.39 37.04,-31.03 45.52,-46.92 8.48,-15.8 12.76,-39.35 12.76,-70.71l0 -269.99c0,-16.88 -1.56,-29.39 -4.61,-37.37 -3.05,-8.07 -8.07,-15.23 -15.15,-21.49l91.87 0c-7.25,6.26 -12.35,13.42 -15.31,21.49 -2.97,7.98 -4.45,20.49 -4.45,37.37l0 269.99z"/>
  <path id="_2" class="fil0" d="M1401.53 15104.33l-15.97 -60.67c19.51,13.01 38.36,22.64 56.72,28.98 18.35,6.34 36.46,9.55 54.49,9.55 23.05,0 41.49,-4.94 55.48,-14.82 13.99,-9.88 20.99,-22.72 20.99,-38.44 0,-4.53 -0.74,-8.97 -2.14,-13.5 -1.48,-4.53 -3.54,-8.73 -6.34,-12.76 -6.09,-9.22 -26.59,-22.31 -61.49,-39.35 -8.81,-4.19 -15.64,-7.49 -20.49,-9.87 -32.6,-16.47 -54.99,-31.53 -67.17,-45.36 -12.1,-13.83 -18.19,-30.29 -18.19,-49.22 0,-27.25 11.11,-48.82 33.25,-64.79 22.23,-16.05 52.6,-24.03 91.21,-24.03 11.03,0 23.29,0.74 36.63,2.14 13.33,1.48 27.82,3.7 43.38,6.83l0 56.22c-13.83,-10.45 -27.74,-18.27 -41.74,-23.38 -13.99,-5.18 -28.56,-7.73 -43.71,-7.73 -19.18,0 -34.57,4.11 -46.18,12.26 -11.68,8.23 -17.53,18.93 -17.53,32.1 0,11.78 4.61,22.15 13.75,31.12 9.22,9.05 29.8,21.07 61.82,36.22 1.81,0.82 4.52,2.06 8.23,3.87 27,12.34 47.16,23.79 60.5,34.16 9.96,7.74 17.7,17.12 23.21,28.23 5.52,11.11 8.32,22.89 8.32,35.48 0,28.73 -13.17,53.09 -39.52,73.1 -26.34,20 -59.34,30.04 -98.86,30.04 -12.67,0 -26.34,-1.4 -40.99,-4.12 -14.57,-2.71 -30.46,-6.83 -47.66,-12.26z"/>
  <path id="_3" class="fil0" d="M1850.32 14804.62c-37.29,0 -68,12.76 -92.2,38.36 -24.2,25.52 -36.3,58.2 -36.3,97.87 0,41.08 11.94,75.07 35.89,102.15 23.96,27.09 53.92,40.67 89.73,40.67 37.12,0 67.74,-12.84 91.94,-38.44 24.2,-25.69 36.3,-58.45 36.3,-98.29 0,-40.99 -11.93,-74.99 -35.89,-101.9 -23.95,-26.92 -53.83,-40.42 -89.47,-40.42zm-2.06 315.1c-25.52,0 -49.64,-4.11 -72.19,-12.26 -22.64,-8.23 -41.98,-20.01 -58.28,-35.23 -17.04,-16.14 -30.13,-35.07 -39.43,-56.8 -9.22,-21.81 -13.83,-44.7 -13.83,-68.65 0,-18.77 2.97,-37.04 8.81,-54.74 5.84,-17.7 14.4,-34.16 25.68,-49.39 17.53,-23.71 39.18,-41.82 64.95,-54.57 25.85,-12.68 53.91,-19.02 84.29,-19.02 26.09,0 50.38,4.03 72.93,12.18 22.64,8.15 41.98,19.84 58.28,35.07 17.37,16.13 30.62,35.15 39.76,57.04 9.13,21.98 13.74,45.61 13.74,71.04 0,23.3 -5.1,46.18 -15.39,68.49 -10.29,22.39 -24.78,42.14 -43.46,59.35 -16.71,15.55 -35.73,27.41 -57.13,35.47 -21.4,7.99 -44.28,12.02 -68.73,12.02z"/>
  <path id="_4" class="fil0" d="M2401.99 14776.96c-7.24,6.26 -12.34,13.42 -15.31,21.49 -2.96,7.98 -4.44,20.49 -4.44,37.37l0 283.9c-11.77,-0.33 -22.89,-4.11 -33.42,-11.36 -10.54,-7.24 -23.79,-21.07 -39.76,-41.4l-172.78 -217.89 0 203.48c0,17.45 1.48,30.21 4.36,38.03 2.89,7.9 7.82,14.98 14.9,21.24l-76.06 0c7.08,-6.42 12.1,-13.66 15.15,-21.81 3.05,-8.15 4.61,-20.58 4.61,-37.46l0 -216.73c0,-16.88 -1.56,-29.39 -4.61,-37.37 -3.05,-8.07 -8.07,-15.23 -15.15,-21.49l68 0 198.21 251.47 0 -192.61c0,-16.88 -1.56,-29.39 -4.61,-37.37 -3.04,-8.07 -8.07,-15.23 -15.14,-21.49l76.05 0z"/>
  <path id="_5" class="fil0" d="M2528.51 15052.47c0,16.88 1.48,29.39 4.45,37.54 2.96,8.06 8.06,15.39 15.31,21.81l-91.87 0c7.08,-6.42 12.1,-13.75 15.15,-21.81 3.05,-8.15 4.61,-20.66 4.61,-37.54l0 -216.82c0,-16.87 -1.56,-29.3 -4.61,-37.29 -3.05,-7.98 -8.07,-15.14 -15.15,-21.4l116.07 0c33.09,0 59.84,7.9 80.17,23.63 20.33,15.72 30.46,36.22 30.46,61.4 0,18.36 -6.09,34.49 -18.27,48.49 -12.19,13.99 -31.2,26.26 -56.8,36.87l86.92 115.99c5.11,6.91 11.36,14.24 18.61,21.97 7.24,7.74 15.55,15.73 24.86,24.12l-26.1 2.39 -4.11 0c-12.19,0 -24.04,-3.21 -35.65,-9.63 -11.52,-6.42 -21.32,-15.31 -29.38,-26.51l-99.93 -137.71c29.79,-6.58 51.53,-15.64 65.35,-27.16 13.75,-11.53 20.67,-26.34 20.67,-44.54 0,-16.87 -5.93,-30.62 -17.78,-41.24 -11.86,-10.61 -27.33,-15.96 -46.51,-15.96 -4.37,0 -9.55,0.32 -15.72,1.07 -6.1,0.74 -13.01,1.81 -20.75,3.29l0 239.04z"/>
  <path id="_6" class="fil0" d="M2827.31 15052.55c0,16.88 1.48,29.31 4.45,37.46 2.96,8.15 8.06,15.39 15.31,21.81l-91.87 0c7.08,-6.42 12.1,-13.66 15.15,-21.81 3.05,-8.15 4.61,-20.58 4.61,-37.46l0 -216.9c0,-16.87 -1.56,-29.22 -4.61,-37.29 -3.05,-7.98 -8.07,-15.14 -15.15,-21.4l119.85 0c36.55,0 65.61,8.32 87.26,24.94 21.65,16.63 32.43,38.77 32.43,66.43 0,27.17 -9.88,49.06 -29.72,65.77 -19.75,16.71 -45.93,25.11 -78.61,25.11 -5.51,0 -11.36,-0.33 -17.78,-0.99 -6.33,-0.66 -13,-1.65 -20.08,-2.96 30.04,-5.6 52.76,-15.23 68.24,-28.81 15.39,-13.59 23.13,-30.87 23.13,-51.7 0,-19.34 -6.75,-34.57 -20.17,-45.85 -13.42,-11.27 -31.61,-16.87 -54.57,-16.87 -5.02,0 -10.62,0.33 -17.04,1.07 -6.34,0.74 -13.26,1.81 -20.83,3.29l0 236.16z"/>
  <path id="_7" class="fil0" d="M3326.22 15044.65l-25.27 60.09c-15.72,5.19 -30.54,9.06 -44.37,11.61 -13.83,2.55 -27,3.87 -39.51,3.87 -18.68,0 -36.79,-2.39 -54.49,-7.25 -17.7,-4.77 -34.41,-11.93 -50.13,-21.48 -25.11,-14.9 -44.61,-35.4 -58.61,-61.49 -13.99,-26.01 -20.99,-54.74 -20.99,-86.1 0,-23.46 5.11,-46.26 15.23,-68.49 10.12,-22.22 24.45,-41.9 43.13,-59.1 17.04,-15.56 36.47,-27.41 58.36,-35.56 21.82,-8.15 45.11,-12.18 69.89,-12.18 11.77,0 24.12,1.07 37.04,3.29 12.93,2.14 26.75,5.51 41.57,9.96l0 53.92c-15.15,-8.07 -29.39,-14 -42.97,-17.87 -13.5,-3.87 -26.67,-5.84 -39.51,-5.84 -37.45,0 -67.5,11.61 -90.05,34.74 -22.64,23.13 -33.92,53.83 -33.92,92.11 0,41.98 11.69,75.81 35.15,101.66 23.38,25.76 54.17,38.68 92.28,38.68 15.64,0 32.27,-2.88 49.88,-8.56 17.62,-5.68 36.71,-14.32 57.29,-26.01z"/>
  <path id="_8" class="fil0" d="M3436.28 15052.55c0,16.88 1.48,29.31 4.45,37.46 2.96,8.15 8.06,15.39 15.31,21.81l-91.87 0c7.08,-6.42 12.1,-13.66 15.15,-21.81 3.05,-8.15 4.61,-20.58 4.61,-37.46l0 -216.73c0,-16.88 -1.56,-29.39 -4.61,-37.37 -3.05,-8.07 -8.07,-15.23 -15.15,-21.49l91.87 0c-7.25,6.26 -12.35,13.42 -15.31,21.49 -2.97,7.98 -4.45,20.49 -4.45,37.37l0 74.99 180.77 0 0 -74.99c0,-16.88 -1.49,-29.39 -4.45,-37.37 -2.96,-8.07 -8.07,-15.23 -15.31,-21.49l91.86 0c-7.08,6.26 -12.1,13.42 -15.14,21.49 -3.05,7.98 -4.61,20.49 -4.61,37.37l0 216.73c0,16.88 1.48,29.31 4.44,37.46 2.97,8.15 8.07,15.39 15.31,21.81l-91.86 0c7.24,-6.42 12.35,-13.66 15.31,-21.81 2.96,-8.15 4.45,-20.58 4.45,-37.46l0 -103.22 -180.77 0 0 103.22z"/>
  <path id="_9" class="fil0" d="M3969.68 15079.22l-20.17 31.53c-23.78,0 -40.74,-4.28 -50.95,-12.84 -10.21,-8.64 -15.31,-22.97 -15.31,-43.05l0 -69.48c-2.55,0.66 -6.5,1.73 -11.85,3.13 -59.6,16.3 -89.4,34 -89.4,53.1 0,12.26 5.02,22.14 14.98,29.71 9.96,7.57 23.14,11.36 39.52,11.36 4.52,0 9.63,-0.41 15.39,-1.32 5.84,-0.9 12.35,-2.3 19.51,-4.03l-26.75 35.89c-5.93,1.4 -11.36,2.47 -16.22,3.13 -4.94,0.57 -9.71,0.9 -14.32,0.9 -23.96,0 -43.71,-6.99 -59.19,-20.99 -15.56,-13.99 -23.29,-31.52 -23.29,-52.76 0,-8.07 1.48,-15.64 4.36,-22.89 2.88,-7.24 7,-13.74 12.43,-19.59 9.96,-9.96 31.44,-18.6 64.45,-26.01 6.75,-1.4 11.94,-2.63 15.64,-3.62 22.06,-4.94 36.55,-9.71 43.63,-14.32 7.08,-4.61 10.62,-10.79 10.62,-18.69 0,-10.12 -4.78,-18.27 -14.49,-24.36 -9.63,-6.09 -22.55,-9.14 -38.85,-9.14 -8.48,0 -18.03,1.48 -28.48,4.53 -10.46,3.04 -21.82,7.65 -34.25,13.74l31.69 -50.21c8.24,-1.15 15.97,-2.06 23.3,-2.63 7.33,-0.66 13.99,-0.99 20.17,-0.99 12.01,0 22.96,1.4 32.76,4.2 9.79,2.8 18.52,6.99 26.09,12.67 9.8,7.17 16.71,16.22 20.83,26.92 4.11,10.78 6.17,27.49 6.17,50.05l0 56.71c0,26.1 2.8,42.15 8.4,48.24 5.59,6.09 16.79,9.8 33.58,11.11z"/>
  <path id="_10" class="fil0" d="M4055.12 15067.95c0,10.29 1.32,18.85 4.03,25.76 2.64,6.92 6.92,13.01 12.76,18.11l-79.02 0c6.01,-5.1 10.29,-11.19 12.92,-18.11 2.56,-6.91 3.87,-15.47 3.87,-25.76l0 -146.03c0,-10.45 -1.31,-19.26 -4.03,-26.34 -2.64,-7.08 -6.92,-13.17 -12.76,-18.36l5.35 0c7.9,0 16.22,-0.49 24.94,-1.4 8.81,-0.9 18.36,-2.22 28.81,-4.03l2.14 37.54c12.1,-12.93 24.2,-22.39 36.47,-28.49 12.18,-6 25.19,-9.05 39.02,-9.05 26.01,0 47.24,7.9 63.54,23.79 16.3,15.89 24.45,36.63 24.45,62.23l0 110.14c0,10.29 1.32,18.85 3.87,25.76 2.63,6.92 6.91,13.01 12.92,18.11l-79.51 0c5.92,-5.1 10.2,-11.19 12.84,-18.11 2.63,-6.91 3.95,-15.47 3.95,-25.76l0 -83.88c0,-25.52 -4.61,-44.12 -13.91,-55.81 -9.22,-11.61 -23.87,-17.45 -44.04,-17.45 -20.91,0 -35.89,5.35 -44.95,16.05 -9.13,10.7 -13.66,28.56 -13.66,53.59l0 87.5z"/>
  <path id="_11" class="fil0" d="M4510.48 15066.55c0,9.63 1.48,18.02 4.45,25.27 2.96,7.24 7.57,13.58 13.83,19.01l-63.22 0 0 -118.61c0,-15.15 -0.99,-27 -3.05,-35.56 -1.97,-8.65 -5.18,-16.14 -9.71,-22.56 -6.26,-9.05 -14.73,-16.13 -25.44,-21.4 -10.7,-5.19 -22.14,-7.82 -34.32,-7.82 -21.32,0 -39.18,8.07 -53.59,24.12 -14.4,16.13 -21.56,36.22 -21.56,60.34 0,26.99 8.23,49.47 24.61,67.41 16.38,17.95 36.87,26.92 61.4,26.92 7.08,0 14.82,-0.91 23.3,-2.64 8.4,-1.81 17.29,-4.52 26.59,-8.23l-29.14 42.31c-6.42,0.99 -12.1,1.65 -17.04,2.06 -4.86,0.41 -9.39,0.58 -13.58,0.58 -38.61,0 -69.4,-11.2 -92.28,-33.67 -22.8,-22.39 -34.24,-52.52 -34.24,-90.3 0,-34.08 11.52,-62.97 34.65,-86.76 23.05,-23.79 50.96,-35.72 83.8,-35.72 14.16,0 27.74,2.3 40.91,6.99 13.09,4.69 26.01,11.69 38.69,20.99l0 -74.99c0,-14.24 -1.32,-24.94 -3.87,-32.1 -2.55,-7.16 -6.83,-13.42 -12.92,-18.68l6 0c5.6,0 12.6,-0.5 20.83,-1.4 8.31,-0.91 19.92,-2.39 34.9,-4.53l0 298.97z"/>
  <path id="_12" class="fil0" d="M4626.63 15067.95c0,10.29 1.32,18.85 4.03,25.76 2.64,6.92 6.92,12.92 12.76,18.11l-78.53 0c6.01,-5.19 10.29,-11.19 12.93,-18.11 2.55,-6.91 3.87,-15.47 3.87,-25.76l0 -250.57c0,-10.29 -1.32,-18.85 -3.87,-25.77 -2.64,-6.91 -6.92,-13 -12.93,-18.1l5.35 0c5.19,0 11.45,-0.42 18.94,-1.16 7.49,-0.74 19.92,-2.3 37.45,-4.77l0 300.37z"/>
  <path id="_13" class="fil0" d="M4732.24 14955.75l125.53 0c-0.99,-16.54 -7.08,-30.04 -18.36,-40.58 -11.28,-10.45 -25.27,-15.72 -41.98,-15.72 -18.03,0 -32.84,5.02 -44.45,15.06 -11.53,9.96 -18.52,23.79 -20.74,41.24zm-3.38 33.09c1.15,29.31 10.45,52.6 27.91,69.89 17.45,17.28 40.25,25.93 68.4,25.93 12.51,0 25.76,-2.06 39.68,-6.18 13.91,-4.11 29.05,-10.45 45.27,-19.01l-26.01 45.35c-14.08,5.11 -27.08,8.98 -39.1,11.53 -12.1,2.55 -23.46,3.87 -34.08,3.87 -39.1,0 -71.29,-11.86 -96.56,-35.48 -25.27,-23.63 -37.86,-53.59 -37.86,-89.89 0,-37.29 11.6,-67.83 34.9,-91.7 23.21,-23.87 52.93,-35.81 89.15,-35.81 33.33,0 59.76,10.87 79.43,32.68 19.59,21.73 29.63,51.37 30.13,88.82l-181.26 0z"/>
  <path id="_14" class="fil0" d="M5085.45 14921.18c-3.7,-2.8 -7.49,-4.86 -11.36,-6.09 -3.87,-1.24 -8.15,-1.81 -12.76,-1.81 -17.12,0 -30.12,5.76 -39.01,17.28 -8.97,11.53 -13.42,28.15 -13.42,49.89l0 87.5c0,10.29 1.32,18.85 4.03,25.76 2.64,6.92 6.92,13.01 12.76,18.11l-79.02 0c6.01,-5.1 10.29,-11.19 12.92,-18.11 2.56,-6.91 3.87,-15.47 3.87,-25.76l0 -146.03c0,-10.45 -1.31,-19.26 -4.03,-26.34 -2.64,-7.08 -6.92,-13.17 -12.76,-18.36l5.35 0c7.9,0 16.22,-0.49 24.94,-1.4 8.81,-0.9 18.36,-2.22 28.81,-4.03l3.62 37.37c7.08,-12.51 15.23,-21.81 24.37,-27.82 9.22,-6.01 19.67,-9.06 31.44,-9.06 2.88,0 5.85,0.17 8.89,0.5 3.05,0.33 6.84,0.99 11.36,1.97l0 46.43z"/>
  <path class="fil0" d="M1806.52 16239.1c0,16.88 1.49,29.31 4.45,37.46 2.96,8.15 8.07,15.39 15.31,21.81l-91.86 0c7.24,-6.42 12.34,-13.66 15.31,-21.81 2.96,-8.15 4.44,-20.58 4.44,-37.46l0 -216.73c0,-16.88 -1.48,-29.39 -4.44,-37.37 -2.97,-8.07 -8.07,-15.23 -15.31,-21.49l91.86 0c-7.24,6.26 -12.35,13.42 -15.31,21.49 -2.96,7.98 -4.45,20.49 -4.45,37.37l0 216.73z"/>
  <path id="_1_0" class="fil0" d="M1934.85 16254.5c0,10.29 1.32,18.85 4.03,25.76 2.64,6.92 6.92,13.01 12.76,18.11l-79.02 0c6.01,-5.1 10.29,-11.19 12.92,-18.11 2.56,-6.91 3.87,-15.47 3.87,-25.76l0 -146.03c0,-10.45 -1.31,-19.26 -4.03,-26.34 -2.64,-7.08 -6.92,-13.17 -12.76,-18.36l5.35 0c7.9,0 16.22,-0.49 24.94,-1.4 8.81,-0.9 18.36,-2.22 28.81,-4.03l2.14 37.54c11.94,-12.76 24.04,-22.23 36.47,-28.32 12.35,-6.17 25.35,-9.22 39.02,-9.22 16.38,0 31.19,3.37 44.36,10.21 13.17,6.75 25.11,17.12 35.73,30.95 14.65,-14.16 28.56,-24.62 41.81,-31.2 13.34,-6.67 26.84,-9.96 40.67,-9.96 25.93,0 47,7.9 63.13,23.71 16.22,15.72 24.29,36.54 24.29,62.31l0 110.14c0,10.29 1.31,18.85 3.95,25.76 2.63,6.92 6.91,13.01 12.84,18.11l-79.02 0c5.92,-5.1 10.2,-11.19 12.84,-18.11 2.63,-6.91 3.95,-15.47 3.95,-25.76l0 -83.88c0,-25.52 -4.61,-44.12 -13.91,-55.81 -9.22,-11.61 -23.87,-17.45 -44.04,-17.45 -20.91,0 -35.89,5.35 -44.95,16.05 -9.13,10.7 -13.66,28.56 -13.66,53.59l0 87.5c0,10.29 1.32,18.85 3.87,25.76 2.63,6.92 6.91,13.01 12.92,18.11l-79.51 0c5.92,-5.1 10.2,-11.19 12.84,-18.11 2.63,-6.91 3.95,-15.47 3.95,-25.76l0 -83.88c0,-25.52 -4.61,-44.12 -13.91,-55.81 -9.22,-11.61 -23.87,-17.45 -44.04,-17.45 -20.91,0 -35.89,5.35 -44.95,16.05 -9.13,10.7 -13.66,28.56 -13.66,53.59l0 87.5z"/>
  <path id="_2_1" class="fil0" d="M2311.28 16401.1c6.01,-5.19 10.29,-11.2 12.92,-18.11 2.56,-6.91 3.87,-15.56 3.87,-25.85l0 -248.84c0,-10.37 -1.31,-19.17 -4.03,-26.25 -2.64,-7 -6.92,-13.17 -12.76,-18.28l6.34 0c8.64,0 17.45,-0.49 26.26,-1.4 8.8,-0.9 17.86,-2.22 27,-4.03l2.14 37.45c12.1,-13.17 25.35,-22.96 39.67,-29.55 14.41,-6.58 29.88,-9.88 46.26,-9.88 32.52,0 59.85,11.45 82.15,34.33 22.31,22.88 33.42,51.12 33.42,84.7 0,21.98 -4.28,42.15 -12.92,60.34 -8.56,18.27 -20.91,33.34 -36.96,45.19 -10.62,8.07 -21.9,13.99 -33.75,17.94 -11.93,3.96 -24.69,5.93 -38.36,5.93 -5.76,0 -11.85,-0.41 -18.11,-1.15 -6.25,-0.82 -12.51,-1.98 -18.76,-3.38l-29.23 -42.31c9.96,4.45 19.18,7.82 27.74,9.96 8.48,2.23 16.55,3.3 24.12,3.3 26.51,0 47.17,-7.74 62.07,-23.13 14.9,-15.48 22.3,-37.05 22.3,-64.7 0,-26.51 -7.4,-48.32 -22.22,-65.36 -14.82,-17.04 -33.5,-25.6 -56.22,-25.6 -9.63,0 -18.85,1.73 -27.49,5.1 -8.73,3.38 -16.47,8.23 -23.38,14.65 -7.08,6.42 -12.1,14.57 -14.98,24.29 -2.88,9.71 -4.37,26.17 -4.37,49.3l0 14.74 0 156.64c0,10.29 1.32,18.94 4.04,25.85 2.63,6.91 6.91,12.92 12.76,18.11l-79.52 0z"/>
  <path id="_3_2" class="fil0" d="M2670.34 16254.5c0,10.29 1.32,18.85 4.03,25.76 2.64,6.92 6.92,12.92 12.76,18.11l-78.53 0c6.01,-5.19 10.29,-11.19 12.93,-18.11 2.55,-6.91 3.87,-15.47 3.87,-25.76l0 -250.57c0,-10.29 -1.32,-18.85 -3.87,-25.77 -2.64,-6.91 -6.92,-13 -12.93,-18.1l5.35 0c5.19,0 11.45,-0.42 18.94,-1.16 7.49,-0.74 19.92,-2.3 37.45,-4.77l0 300.37z"/>
  <path id="_4_3" class="fil0" d="M2775.95 16142.3l125.53 0c-0.99,-16.54 -7.08,-30.04 -18.36,-40.58 -11.28,-10.45 -25.27,-15.72 -41.98,-15.72 -18.03,0 -32.84,5.02 -44.45,15.06 -11.53,9.96 -18.52,23.79 -20.74,41.24zm-3.38 33.09c1.15,29.31 10.45,52.6 27.91,69.89 17.45,17.28 40.25,25.93 68.4,25.93 12.51,0 25.76,-2.06 39.68,-6.18 13.91,-4.11 29.05,-10.45 45.27,-19.01l-26.01 45.35c-14.08,5.11 -27.08,8.98 -39.1,11.53 -12.1,2.55 -23.46,3.87 -34.08,3.87 -39.1,0 -71.29,-11.86 -96.56,-35.48 -25.27,-23.63 -37.86,-53.59 -37.86,-89.89 0,-37.29 11.6,-67.83 34.9,-91.7 23.21,-23.87 52.93,-35.81 89.15,-35.81 33.33,0 59.76,10.87 79.43,32.68 19.59,21.73 29.63,51.37 30.13,88.82l-181.26 0z"/>
  <path id="_5_4" class="fil0" d="M3052.61 16254.5c0,10.29 1.32,18.85 4.03,25.76 2.64,6.92 6.92,13.01 12.76,18.11l-79.02 0c6.01,-5.1 10.29,-11.19 12.92,-18.11 2.56,-6.91 3.87,-15.47 3.87,-25.76l0 -146.03c0,-10.45 -1.31,-19.26 -4.03,-26.34 -2.64,-7.08 -6.92,-13.17 -12.76,-18.36l5.35 0c7.9,0 16.22,-0.49 24.94,-1.4 8.81,-0.9 18.36,-2.22 28.81,-4.03l2.14 37.54c11.94,-12.76 24.04,-22.23 36.47,-28.32 12.35,-6.17 25.35,-9.22 39.02,-9.22 16.38,0 31.19,3.37 44.36,10.21 13.17,6.75 25.11,17.12 35.73,30.95 14.65,-14.16 28.56,-24.62 41.81,-31.2 13.34,-6.67 26.84,-9.96 40.67,-9.96 25.93,0 47,7.9 63.13,23.71 16.22,15.72 24.29,36.54 24.29,62.31l0 110.14c0,10.29 1.31,18.85 3.95,25.76 2.63,6.92 6.91,13.01 12.84,18.11l-79.02 0c5.92,-5.1 10.2,-11.19 12.84,-18.11 2.63,-6.91 3.95,-15.47 3.95,-25.76l0 -83.88c0,-25.52 -4.61,-44.12 -13.91,-55.81 -9.22,-11.61 -23.87,-17.45 -44.04,-17.45 -20.91,0 -35.89,5.35 -44.95,16.05 -9.13,10.7 -13.66,28.56 -13.66,53.59l0 87.5c0,10.29 1.32,18.85 3.87,25.76 2.63,6.92 6.91,13.01 12.92,18.11l-79.51 0c5.92,-5.1 10.2,-11.19 12.84,-18.11 2.63,-6.91 3.95,-15.47 3.95,-25.76l0 -83.88c0,-25.52 -4.61,-44.12 -13.91,-55.81 -9.22,-11.61 -23.87,-17.45 -44.04,-17.45 -20.91,0 -35.89,5.35 -44.95,16.05 -9.13,10.7 -13.66,28.56 -13.66,53.59l0 87.5z"/>
  <path id="_6_5" class="fil0" d="M3483.29 16142.3l125.53 0c-0.99,-16.54 -7.08,-30.04 -18.36,-40.58 -11.28,-10.45 -25.27,-15.72 -41.98,-15.72 -18.03,0 -32.84,5.02 -44.45,15.06 -11.53,9.96 -18.52,23.79 -20.74,41.24zm-3.38 33.09c1.15,29.31 10.45,52.6 27.91,69.89 17.45,17.28 40.25,25.93 68.4,25.93 12.51,0 25.76,-2.06 39.68,-6.18 13.91,-4.11 29.05,-10.45 45.27,-19.01l-26.01 45.35c-14.08,5.11 -27.08,8.98 -39.1,11.53 -12.1,2.55 -23.46,3.87 -34.08,3.87 -39.1,0 -71.29,-11.86 -96.56,-35.48 -25.27,-23.63 -37.86,-53.59 -37.86,-89.89 0,-37.29 11.6,-67.83 34.9,-91.7 23.21,-23.87 52.93,-35.81 89.15,-35.81 33.33,0 59.76,10.87 79.43,32.68 19.59,21.73 29.63,51.37 30.13,88.82l-181.26 0z"/>
  <path id="_7_6" class="fil0" d="M3759.95 16254.5c0,10.29 1.32,18.85 4.03,25.76 2.64,6.92 6.92,13.01 12.76,18.11l-79.02 0c6.01,-5.1 10.29,-11.19 12.92,-18.11 2.56,-6.91 3.87,-15.47 3.87,-25.76l0 -146.03c0,-10.45 -1.31,-19.26 -4.03,-26.34 -2.64,-7.08 -6.92,-13.17 -12.76,-18.36l5.35 0c7.9,0 16.22,-0.49 24.94,-1.4 8.81,-0.9 18.36,-2.22 28.81,-4.03l2.14 37.54c12.1,-12.93 24.2,-22.39 36.47,-28.49 12.18,-6 25.19,-9.05 39.02,-9.05 26.01,0 47.24,7.9 63.54,23.79 16.3,15.89 24.45,36.63 24.45,62.23l0 110.14c0,10.29 1.32,18.85 3.87,25.76 2.63,6.92 6.91,13.01 12.92,18.11l-79.51 0c5.92,-5.1 10.2,-11.19 12.84,-18.11 2.63,-6.91 3.95,-15.47 3.95,-25.76l0 -83.88c0,-25.52 -4.61,-44.12 -13.91,-55.81 -9.22,-11.61 -23.87,-17.45 -44.04,-17.45 -20.91,0 -35.89,5.35 -44.95,16.05 -9.13,10.7 -13.66,28.56 -13.66,53.59l0 87.5z"/>
  <path id="_8_7" class="fil0" d="M3995.53 16097.85l-32.1 0 0 -17.29c19.34,-1.72 34.49,-10.61 45.52,-26.67 10.95,-15.96 16.87,-37.7 17.7,-65.19l14.32 0 0 75.07 69.64 0 0 43.96c-3.87,-3.46 -8.56,-6.01 -14.08,-7.57 -5.6,-1.57 -12.84,-2.31 -21.81,-2.31l-33.75 0 0 114.17c0,20.83 3.46,36.22 10.45,46.02 7,9.79 17.78,14.65 32.44,14.65 3.37,-0.17 6.91,-0.5 10.61,-1.07 3.71,-0.58 7.41,-1.32 11.12,-2.31l-23.63 34.49c-0.33,0 -0.74,0 -1.23,0 -6.42,0.66 -11.12,0.99 -14,0.99 -23.62,0 -41.4,-5.93 -53.34,-17.86 -11.93,-11.86 -17.86,-29.47 -17.86,-52.77l0 -136.31z"/>
  <path id="_9_8" class="fil0" d="M4524.98 16265.77l-20.17 31.53c-23.78,0 -40.74,-4.28 -50.95,-12.84 -10.21,-8.64 -15.31,-22.97 -15.31,-43.05l0 -69.48c-2.55,0.66 -6.5,1.73 -11.85,3.13 -59.6,16.3 -89.4,34 -89.4,53.1 0,12.26 5.02,22.14 14.98,29.71 9.96,7.57 23.14,11.36 39.52,11.36 4.52,0 9.63,-0.41 15.39,-1.32 5.84,-0.9 12.35,-2.3 19.51,-4.03l-26.75 35.89c-5.93,1.4 -11.36,2.47 -16.22,3.13 -4.94,0.57 -9.71,0.9 -14.32,0.9 -23.96,0 -43.71,-6.99 -59.19,-20.99 -15.56,-13.99 -23.29,-31.52 -23.29,-52.76 0,-8.07 1.48,-15.64 4.36,-22.89 2.88,-7.24 7,-13.74 12.43,-19.59 9.96,-9.96 31.44,-18.6 64.45,-26.01 6.75,-1.4 11.94,-2.63 15.64,-3.62 22.06,-4.94 36.55,-9.71 43.63,-14.32 7.08,-4.61 10.62,-10.79 10.62,-18.69 0,-10.12 -4.78,-18.27 -14.49,-24.36 -9.63,-6.09 -22.55,-9.14 -38.85,-9.14 -8.48,0 -18.03,1.48 -28.48,4.53 -10.46,3.04 -21.82,7.65 -34.25,13.74l31.69 -50.21c8.24,-1.15 15.97,-2.06 23.3,-2.63 7.33,-0.66 13.99,-0.99 20.17,-0.99 12.01,0 22.96,1.4 32.76,4.2 9.79,2.8 18.52,6.99 26.09,12.67 9.8,7.17 16.71,16.22 20.83,26.92 4.11,10.78 6.17,27.49 6.17,50.05l0 56.71c0,26.1 2.8,42.15 8.4,48.24 5.59,6.09 16.79,9.8 33.58,11.11z"/>
  <path id="_10_9" class="fil0" d="M4888.4 16113.16c-11.85,-7.41 -23.13,-13 -33.59,-16.71 -10.53,-3.7 -20.49,-5.51 -29.79,-5.51 -23.46,0 -42.31,7.57 -56.55,22.8 -14.24,15.23 -21.32,35.23 -21.32,60.17 0,27 8.97,49.39 26.91,67.17 17.87,17.78 40.34,26.67 67.34,26.67 11.44,0 23.29,-1.81 35.64,-5.35 12.43,-3.54 26.42,-9.14 41.98,-16.88l-25.76 44.37c-9.22,5.76 -18.69,10.04 -28.65,12.76 -9.88,2.72 -20.41,4.12 -31.69,4.12 -40.67,0 -74.17,-11.61 -100.59,-34.82 -26.34,-23.22 -39.51,-52.6 -39.51,-88.08 0,-36.22 12.92,-66.59 38.85,-91.37 25.85,-24.78 57.87,-37.12 95.98,-37.12 5.93,0 13.99,0.49 24.12,1.56 10.12,1.07 22.31,2.55 36.63,4.45l0 51.77z"/>
  <path id="_11_10" class="fil0" d="M5178.23 16265.77l-20.17 31.53c-23.78,0 -40.74,-4.28 -50.95,-12.84 -10.21,-8.64 -15.31,-22.97 -15.31,-43.05l0 -69.48c-2.55,0.66 -6.5,1.73 -11.85,3.13 -59.6,16.3 -89.4,34 -89.4,53.1 0,12.26 5.02,22.14 14.98,29.71 9.96,7.57 23.14,11.36 39.52,11.36 4.52,0 9.63,-0.41 15.39,-1.32 5.84,-0.9 12.35,-2.3 19.51,-4.03l-26.75 35.89c-5.93,1.4 -11.36,2.47 -16.22,3.13 -4.94,0.57 -9.71,0.9 -14.32,0.9 -23.96,0 -43.71,-6.99 -59.19,-20.99 -15.56,-13.99 -23.29,-31.52 -23.29,-52.76 0,-8.07 1.48,-15.64 4.36,-22.89 2.88,-7.24 7,-13.74 12.43,-19.59 9.96,-9.96 31.44,-18.6 64.45,-26.01 6.75,-1.4 11.94,-2.63 15.64,-3.62 22.06,-4.94 36.55,-9.71 43.63,-14.32 7.08,-4.61 10.62,-10.79 10.62,-18.69 0,-10.12 -4.78,-18.27 -14.49,-24.36 -9.63,-6.09 -22.55,-9.14 -38.85,-9.14 -8.48,0 -18.03,1.48 -28.48,4.53 -10.46,3.04 -21.82,7.65 -34.25,13.74l31.69 -50.21c8.24,-1.15 15.97,-2.06 23.3,-2.63 7.33,-0.66 13.99,-0.99 20.17,-0.99 12.01,0 22.96,1.4 32.76,4.2 9.79,2.8 18.52,6.99 26.09,12.67 9.8,7.17 16.71,16.22 20.83,26.92 4.11,10.78 6.17,27.49 6.17,50.05l0 56.71c0,26.1 2.8,42.15 8.4,48.24 5.59,6.09 16.79,9.8 33.58,11.11z"/>
  <path id="_12_11" class="fil0" d="M5263.67 16254.5c0,10.29 1.32,18.85 4.03,25.76 2.64,6.92 6.92,12.92 12.76,18.11l-78.53 0c6.01,-5.19 10.29,-11.19 12.93,-18.11 2.55,-6.91 3.87,-15.47 3.87,-25.76l0 -250.57c0,-10.29 -1.32,-18.85 -3.87,-25.77 -2.64,-6.91 -6.92,-13 -12.93,-18.1l5.35 0c5.19,0 11.45,-0.42 18.94,-1.16 7.49,-0.74 19.92,-2.3 37.45,-4.77l0 300.37z"/>
  <path id="_13_12" class="fil0" d="M5377.26 16254.5c0,10.29 1.32,18.85 4.03,25.76 2.64,6.92 6.92,12.92 12.76,18.11l-78.53 0c6.01,-5.19 10.29,-11.19 12.93,-18.11 2.55,-6.91 3.87,-15.47 3.87,-25.76l0 -250.57c0,-10.29 -1.32,-18.85 -3.87,-25.77 -2.64,-6.91 -6.92,-13 -12.93,-18.1l5.35 0c5.19,0 11.45,-0.42 18.94,-1.16 7.49,-0.74 19.92,-2.3 37.45,-4.77l0 300.37z"/>
  <path id="_14_13" class="fil0" d="M5644.86 16254.41c0,10.38 1.32,18.94 3.87,25.85 2.64,6.92 6.92,12.92 12.92,18.11l-79.02 0c5.93,-5.19 10.21,-11.19 12.84,-18.11 2.64,-6.91 3.95,-15.47 3.95,-25.85l0 -156.56 -26.67 0 26.67 -34.08c0,-1.31 -0.08,-3.21 -0.24,-5.76 -0.17,-2.55 -0.25,-4.44 -0.25,-5.6 0,-33.25 8.64,-58.03 25.93,-74.33 17.29,-16.3 43.54,-24.45 78.78,-24.45 4.19,0 8.64,0.17 13.33,0.5 4.77,0.33 9.38,0.74 13.83,1.15l-26.92 34.41c-5.18,-1.07 -9.79,-1.89 -13.99,-2.55 -4.2,-0.58 -7.99,-0.91 -11.44,-0.91 -12.19,0 -20.91,3.54 -25.93,10.62 -5.11,7.16 -7.66,19.43 -7.66,36.88l0 30.04 59.27 0 0 34.08 -59.27 0 0 156.56z"/>
  <path id="_15" class="fil0" d="M5780.68 16173.99c0,29.22 7.49,52.93 22.56,71.04 15.06,18.11 34.65,27.16 58.77,27.16 22.72,0 41.24,-8.06 55.65,-24.28 14.4,-16.13 21.56,-37.04 21.56,-62.64 0,-27.49 -7.65,-50.21 -23.05,-68.08 -15.39,-17.86 -34.9,-26.75 -58.52,-26.75 -22.23,0 -40.58,7.9 -55.15,23.79 -14.57,15.81 -21.82,35.73 -21.82,59.76zm-51.86 9.88c0,-17.7 3.38,-34.33 10.05,-49.8 6.66,-15.48 16.38,-29.39 29.3,-41.57 12.35,-11.61 26.84,-20.58 43.38,-27 16.63,-6.42 33.83,-9.63 51.61,-9.63 18.52,0 35.23,2.96 50.21,8.89 14.99,6.01 28.49,15.06 40.59,27.25 11.85,11.93 20.99,25.27 27.24,40.17 6.26,14.81 9.39,30.37 9.39,46.59 0,17.86 -3.3,34.49 -9.88,50.04 -6.59,15.48 -16.38,29.23 -29.22,41.33 -12.19,11.36 -26.59,20.25 -43.14,26.58 -16.62,6.34 -33.83,9.55 -51.69,9.55 -18.77,0 -35.56,-2.88 -50.38,-8.64 -14.81,-5.85 -28.31,-14.82 -40.58,-27 -11.85,-11.94 -20.99,-25.35 -27.33,-40.42 -6.34,-14.98 -9.55,-30.45 -9.55,-46.34z"/>
  <path id="_16" class="fil0" d="M6163.53 16107.73c-3.7,-2.8 -7.49,-4.86 -11.36,-6.09 -3.87,-1.24 -8.15,-1.81 -12.76,-1.81 -17.12,0 -30.12,5.76 -39.01,17.28 -8.97,11.53 -13.42,28.15 -13.42,49.89l0 87.5c0,10.29 1.32,18.85 4.03,25.76 2.64,6.92 6.92,13.01 12.76,18.11l-79.02 0c6.01,-5.1 10.29,-11.19 12.92,-18.11 2.56,-6.91 3.87,-15.47 3.87,-25.76l0 -146.03c0,-10.45 -1.31,-19.26 -4.03,-26.34 -2.64,-7.08 -6.92,-13.17 -12.76,-18.36l5.35 0c7.9,0 16.22,-0.49 24.94,-1.4 8.81,-0.9 18.36,-2.22 28.81,-4.03l3.62 37.37c7.08,-12.51 15.23,-21.81 24.37,-27.82 9.22,-6.01 19.67,-9.06 31.44,-9.06 2.88,0 5.85,0.17 8.89,0.5 3.05,0.33 6.84,0.99 11.36,1.97l0 46.43z"/>
  <path id="_17" class="fil0" d="M6574.78 16265.77l-20.17 31.53c-23.78,0 -40.74,-4.28 -50.95,-12.84 -10.21,-8.64 -15.31,-22.97 -15.31,-43.05l0 -69.48c-2.55,0.66 -6.5,1.73 -11.85,3.13 -59.6,16.3 -89.4,34 -89.4,53.1 0,12.26 5.02,22.14 14.98,29.71 9.96,7.57 23.14,11.36 39.52,11.36 4.52,0 9.63,-0.41 15.39,-1.32 5.84,-0.9 12.35,-2.3 19.51,-4.03l-26.75 35.89c-5.93,1.4 -11.36,2.47 -16.22,3.13 -4.94,0.57 -9.71,0.9 -14.32,0.9 -23.96,0 -43.71,-6.99 -59.19,-20.99 -15.56,-13.99 -23.29,-31.52 -23.29,-52.76 0,-8.07 1.48,-15.64 4.36,-22.89 2.88,-7.24 7,-13.74 12.43,-19.59 9.96,-9.96 31.44,-18.6 64.45,-26.01 6.75,-1.4 11.94,-2.63 15.64,-3.62 22.06,-4.94 36.55,-9.71 43.63,-14.32 7.08,-4.61 10.62,-10.79 10.62,-18.69 0,-10.12 -4.78,-18.27 -14.49,-24.36 -9.63,-6.09 -22.55,-9.14 -38.85,-9.14 -8.48,0 -18.03,1.48 -28.48,4.53 -10.46,3.04 -21.82,7.65 -34.25,13.74l31.69 -50.21c8.24,-1.15 15.97,-2.06 23.3,-2.63 7.33,-0.66 13.99,-0.99 20.17,-0.99 12.01,0 22.96,1.4 32.76,4.2 9.79,2.8 18.52,6.99 26.09,12.67 9.8,7.17 16.71,16.22 20.83,26.92 4.11,10.78 6.17,27.49 6.17,50.05l0 56.71c0,26.1 2.8,42.15 8.4,48.24 5.59,6.09 16.79,9.8 33.58,11.11z"/>
  <path id="_18" class="fil0" d="M6825.59 16292.36c0,26.51 -1.73,45.03 -5.27,55.65 -3.54,10.61 -9.71,20.08 -18.6,28.48 -8.97,8.48 -20.91,15.64 -35.81,21.32 -14.81,5.68 -31.85,9.79 -50.95,12.18 21.81,-15.39 37.04,-31.03 45.52,-46.92 8.48,-15.8 12.76,-39.35 12.76,-70.71l0 -269.99c0,-16.88 -1.56,-29.39 -4.61,-37.37 -3.05,-8.07 -8.07,-15.23 -15.15,-21.49l91.87 0c-7.25,6.26 -12.35,13.42 -15.31,21.49 -2.97,7.98 -4.45,20.49 -4.45,37.37l0 269.99z"/>
  <path id="_19" class="fil0" d="M6899.26 16290.88l-15.97 -60.67c19.51,13.01 38.36,22.64 56.72,28.98 18.35,6.34 36.46,9.55 54.49,9.55 23.05,0 41.49,-4.94 55.48,-14.82 13.99,-9.88 20.99,-22.72 20.99,-38.44 0,-4.53 -0.74,-8.97 -2.14,-13.5 -1.48,-4.53 -3.54,-8.73 -6.34,-12.76 -6.09,-9.22 -26.59,-22.31 -61.49,-39.35 -8.81,-4.19 -15.64,-7.49 -20.49,-9.87 -32.6,-16.47 -54.99,-31.53 -67.17,-45.36 -12.1,-13.83 -18.19,-30.29 -18.19,-49.22 0,-27.25 11.11,-48.82 33.25,-64.79 22.23,-16.05 52.6,-24.03 91.21,-24.03 11.03,0 23.29,0.74 36.63,2.14 13.33,1.48 27.82,3.7 43.38,6.83l0 56.22c-13.83,-10.45 -27.74,-18.27 -41.74,-23.38 -13.99,-5.18 -28.56,-7.73 -43.71,-7.73 -19.18,0 -34.57,4.11 -46.18,12.26 -11.68,8.23 -17.53,18.93 -17.53,32.1 0,11.78 4.61,22.15 13.75,31.12 9.22,9.05 29.8,21.07 61.82,36.22 1.81,0.82 4.52,2.06 8.23,3.87 27,12.34 47.16,23.79 60.5,34.16 9.96,7.74 17.7,17.12 23.21,28.23 5.52,11.11 8.32,22.89 8.32,35.48 0,28.73 -13.17,53.09 -39.52,73.1 -26.34,20 -59.34,30.04 -98.86,30.04 -12.67,0 -26.34,-1.4 -40.99,-4.12 -14.57,-2.71 -30.46,-6.83 -47.66,-12.26z"/>
  <path id="_20" class="fil0" d="M7348.05 15991.17c-37.29,0 -68,12.76 -92.2,38.36 -24.2,25.52 -36.3,58.2 -36.3,97.87 0,41.08 11.94,75.07 35.89,102.15 23.96,27.09 53.92,40.67 89.73,40.67 37.12,0 67.74,-12.84 91.94,-38.44 24.2,-25.69 36.3,-58.45 36.3,-98.29 0,-40.99 -11.93,-74.99 -35.89,-101.9 -23.95,-26.92 -53.83,-40.42 -89.47,-40.42zm-2.06 315.1c-25.52,0 -49.64,-4.11 -72.19,-12.26 -22.64,-8.23 -41.98,-20.01 -58.28,-35.23 -17.04,-16.14 -30.13,-35.07 -39.43,-56.8 -9.22,-21.81 -13.83,-44.7 -13.83,-68.65 0,-18.77 2.97,-37.04 8.81,-54.74 5.84,-17.7 14.4,-34.16 25.68,-49.39 17.53,-23.71 39.18,-41.82 64.95,-54.57 25.85,-12.68 53.91,-19.02 84.29,-19.02 26.09,0 50.38,4.03 72.93,12.18 22.64,8.15 41.98,19.84 58.28,35.07 17.37,16.13 30.62,35.15 39.76,57.04 9.13,21.98 13.74,45.61 13.74,71.04 0,23.3 -5.1,46.18 -15.39,68.49 -10.29,22.39 -24.78,42.14 -43.46,59.35 -16.71,15.55 -35.73,27.41 -57.13,35.47 -21.4,7.99 -44.28,12.02 -68.73,12.02z"/>
  <path id="_21" class="fil0" d="M7899.72 15963.51c-7.24,6.26 -12.34,13.42 -15.31,21.49 -2.96,7.98 -4.44,20.49 -4.44,37.37l0 283.9c-11.77,-0.33 -22.89,-4.11 -33.42,-11.36 -10.54,-7.24 -23.79,-21.07 -39.76,-41.4l-172.78 -217.89 0 203.48c0,17.45 1.48,30.21 4.36,38.03 2.89,7.9 7.82,14.98 14.9,21.24l-76.06 0c7.08,-6.42 12.1,-13.66 15.15,-21.81 3.05,-8.15 4.61,-20.58 4.61,-37.46l0 -216.73c0,-16.88 -1.56,-29.39 -4.61,-37.37 -3.05,-8.07 -8.07,-15.23 -15.15,-21.49l68 0 198.21 251.47 0 -192.61c0,-16.88 -1.56,-29.39 -4.61,-37.37 -3.04,-8.07 -8.07,-15.23 -15.14,-21.49l76.05 0z"/>
  <path id="_22" class="fil0" d="M8172.35 16239.02c0,16.88 1.48,29.39 4.45,37.54 2.96,8.06 8.06,15.39 15.31,21.81l-91.87 0c7.08,-6.42 12.1,-13.75 15.15,-21.81 3.05,-8.15 4.61,-20.66 4.61,-37.54l0 -216.82c0,-16.87 -1.56,-29.3 -4.61,-37.29 -3.05,-7.98 -8.07,-15.14 -15.15,-21.4l116.07 0c33.09,0 59.84,7.9 80.17,23.63 20.33,15.72 30.46,36.22 30.46,61.4 0,18.36 -6.09,34.49 -18.27,48.49 -12.19,13.99 -31.2,26.26 -56.8,36.87l86.92 115.99c5.11,6.91 11.36,14.24 18.61,21.97 7.24,7.74 15.55,15.73 24.86,24.12l-26.1 2.39 -4.11 0c-12.19,0 -24.04,-3.21 -35.65,-9.63 -11.52,-6.42 -21.32,-15.31 -29.38,-26.51l-99.93 -137.71c29.79,-6.58 51.53,-15.64 65.35,-27.16 13.75,-11.53 20.67,-26.34 20.67,-44.54 0,-16.87 -5.93,-30.62 -17.78,-41.24 -11.86,-10.61 -27.33,-15.96 -46.51,-15.96 -4.37,0 -9.55,0.32 -15.72,1.07 -6.1,0.74 -13.01,1.81 -20.75,3.29l0 239.04z"/>
  <path id="_23" class="fil0" d="M8471.15 16239.1c0,16.88 1.48,29.31 4.45,37.46 2.96,8.15 8.06,15.39 15.31,21.81l-91.87 0c7.08,-6.42 12.1,-13.66 15.15,-21.81 3.05,-8.15 4.61,-20.58 4.61,-37.46l0 -216.9c0,-16.87 -1.56,-29.22 -4.61,-37.29 -3.05,-7.98 -8.07,-15.14 -15.15,-21.4l119.85 0c36.55,0 65.61,8.32 87.26,24.94 21.65,16.63 32.43,38.77 32.43,66.43 0,27.17 -9.88,49.06 -29.72,65.77 -19.75,16.71 -45.93,25.11 -78.61,25.11 -5.51,0 -11.36,-0.33 -17.78,-0.99 -6.33,-0.66 -13,-1.65 -20.08,-2.96 30.04,-5.6 52.76,-15.23 68.24,-28.81 15.39,-13.59 23.13,-30.87 23.13,-51.7 0,-19.34 -6.75,-34.57 -20.17,-45.85 -13.42,-11.27 -31.61,-16.87 -54.57,-16.87 -5.02,0 -10.62,0.33 -17.04,1.07 -6.34,0.74 -13.26,1.81 -20.83,3.29l0 236.16z"/>
  <path id="_24" class="fil0" d="M8970.06 16231.2l-25.27 60.09c-15.72,5.19 -30.54,9.06 -44.37,11.61 -13.83,2.55 -27,3.87 -39.51,3.87 -18.68,0 -36.79,-2.39 -54.49,-7.25 -17.7,-4.77 -34.41,-11.93 -50.13,-21.48 -25.11,-14.9 -44.61,-35.4 -58.61,-61.49 -13.99,-26.01 -20.99,-54.74 -20.99,-86.1 0,-23.46 5.11,-46.26 15.23,-68.49 10.12,-22.22 24.45,-41.9 43.13,-59.1 17.04,-15.56 36.47,-27.41 58.36,-35.56 21.82,-8.15 45.11,-12.18 69.89,-12.18 11.77,0 24.12,1.07 37.04,3.29 12.93,2.14 26.75,5.51 41.57,9.96l0 53.92c-15.15,-8.07 -29.39,-14 -42.97,-17.87 -13.5,-3.87 -26.67,-5.84 -39.51,-5.84 -37.45,0 -67.5,11.61 -90.05,34.74 -22.64,23.13 -33.92,53.83 -33.92,92.11 0,41.98 11.69,75.81 35.15,101.66 23.38,25.76 54.17,38.68 92.28,38.68 15.64,0 32.27,-2.88 49.88,-8.56 17.62,-5.68 36.71,-14.32 57.29,-26.01z"/>
  <path id="_25" class="fil0" d="M9206.97 16254.5c0,10.29 1.32,18.85 4.03,25.76 2.64,6.92 6.92,13.01 12.76,18.11l-79.02 0c6.01,-5.1 10.29,-11.19 12.92,-18.11 2.56,-6.91 3.87,-15.47 3.87,-25.76l0 -146.03c0,-10.45 -1.31,-19.26 -4.03,-26.34 -2.64,-7.08 -6.92,-13.17 -12.76,-18.36l5.35 0c7.9,0 16.22,-0.49 24.94,-1.4 8.81,-0.9 18.36,-2.22 28.81,-4.03l2.14 37.54c11.94,-12.76 24.04,-22.23 36.47,-28.32 12.35,-6.17 25.35,-9.22 39.02,-9.22 16.38,0 31.19,3.37 44.36,10.21 13.17,6.75 25.11,17.12 35.73,30.95 14.65,-14.16 28.56,-24.62 41.81,-31.2 13.34,-6.67 26.84,-9.96 40.67,-9.96 25.93,0 47,7.9 63.13,23.71 16.22,15.72 24.29,36.54 24.29,62.31l0 110.14c0,10.29 1.31,18.85 3.95,25.76 2.63,6.92 6.91,13.01 12.84,18.11l-79.02 0c5.92,-5.1 10.2,-11.19 12.84,-18.11 2.63,-6.91 3.95,-15.47 3.95,-25.76l0 -83.88c0,-25.52 -4.61,-44.12 -13.91,-55.81 -9.22,-11.61 -23.87,-17.45 -44.04,-17.45 -20.91,0 -35.89,5.35 -44.95,16.05 -9.13,10.7 -13.66,28.56 -13.66,53.59l0 87.5c0,10.29 1.32,18.85 3.87,25.76 2.63,6.92 6.91,13.01 12.92,18.11l-79.51 0c5.92,-5.1 10.2,-11.19 12.84,-18.11 2.63,-6.91 3.95,-15.47 3.95,-25.76l0 -83.88c0,-25.52 -4.61,-44.12 -13.91,-55.81 -9.22,-11.61 -23.87,-17.45 -44.04,-17.45 -20.91,0 -35.89,5.35 -44.95,16.05 -9.13,10.7 -13.66,28.56 -13.66,53.59l0 87.5z"/>
  <path id="_26" class="fil0" d="M9637.65 16142.3l125.53 0c-0.99,-16.54 -7.08,-30.04 -18.36,-40.58 -11.28,-10.45 -25.27,-15.72 -41.98,-15.72 -18.03,0 -32.84,5.02 -44.45,15.06 -11.53,9.96 -18.52,23.79 -20.74,41.24zm-3.38 33.09c1.15,29.31 10.45,52.6 27.91,69.89 17.45,17.28 40.25,25.93 68.4,25.93 12.51,0 25.76,-2.06 39.68,-6.18 13.91,-4.11 29.05,-10.45 45.27,-19.01l-26.01 45.35c-14.08,5.11 -27.08,8.98 -39.1,11.53 -12.1,2.55 -23.46,3.87 -34.08,3.87 -39.1,0 -71.29,-11.86 -96.56,-35.48 -25.27,-23.63 -37.86,-53.59 -37.86,-89.89 0,-37.29 11.6,-67.83 34.9,-91.7 23.21,-23.87 52.93,-35.81 89.15,-35.81 33.33,0 59.76,10.87 79.43,32.68 19.59,21.73 29.63,51.37 30.13,88.82l-181.26 0z"/>
  <path id="_27" class="fil0" d="M9873.81 16097.85l-32.1 0 0 -17.29c19.34,-1.72 34.49,-10.61 45.52,-26.67 10.95,-15.96 16.87,-37.7 17.7,-65.19l14.32 0 0 75.07 69.64 0 0 43.96c-3.87,-3.46 -8.56,-6.01 -14.08,-7.57 -5.6,-1.57 -12.84,-2.31 -21.81,-2.31l-33.75 0 0 114.17c0,20.83 3.46,36.22 10.45,46.02 7,9.79 17.78,14.65 32.44,14.65 3.37,-0.17 6.91,-0.5 10.61,-1.07 3.71,-0.58 7.41,-1.32 11.12,-2.31l-23.63 34.49c-0.33,0 -0.74,0 -1.23,0 -6.42,0.66 -11.12,0.99 -14,0.99 -23.62,0 -41.4,-5.93 -53.34,-17.86 -11.93,-11.86 -17.86,-29.47 -17.86,-52.77l0 -136.31z"/>
  <path id="_28" class="fil0" d="M10084.29 16254.5c0,10.29 1.32,18.85 4.03,25.76 2.64,6.92 6.92,12.92 12.76,18.11l-79.02 0c6.01,-5.19 10.29,-11.19 12.92,-18.11 2.56,-6.91 3.87,-15.47 3.87,-25.76l0 -250.57c0,-10.29 -1.31,-18.93 -3.87,-25.85 -2.63,-6.83 -6.91,-12.92 -12.92,-18.02l4.36 0c6.92,0 15.07,-0.5 24.45,-1.49 9.47,-0.98 20.25,-2.47 32.43,-4.44l0 141.75c12.1,-12.93 24.2,-22.39 36.47,-28.49 12.18,-6 25.19,-9.05 39.02,-9.05 26.01,0 47.24,7.9 63.54,23.79 16.3,15.89 24.45,36.63 24.45,62.23l0 110.14c0,10.29 1.32,18.85 3.87,25.76 2.63,6.92 6.91,12.92 12.92,18.11l-79.51 0c5.92,-5.19 10.2,-11.19 12.84,-18.11 2.63,-6.91 3.95,-15.47 3.95,-25.76l0 -83.88c0,-25.69 -4.61,-44.45 -13.91,-56.14 -9.22,-11.77 -23.87,-17.62 -44.04,-17.62 -20.91,0 -35.89,5.35 -44.95,16.14 -9.13,10.78 -13.66,28.81 -13.66,54l0 87.5z"/>
  <path id="_29" class="fil0" d="M10348.02 16173.99c0,29.22 7.49,52.93 22.56,71.04 15.06,18.11 34.65,27.16 58.77,27.16 22.72,0 41.24,-8.06 55.65,-24.28 14.4,-16.13 21.56,-37.04 21.56,-62.64 0,-27.49 -7.65,-50.21 -23.05,-68.08 -15.39,-17.86 -34.9,-26.75 -58.52,-26.75 -22.23,0 -40.58,7.9 -55.15,23.79 -14.57,15.81 -21.82,35.73 -21.82,59.76zm-51.86 9.88c0,-17.7 3.38,-34.33 10.05,-49.8 6.66,-15.48 16.38,-29.39 29.3,-41.57 12.35,-11.61 26.84,-20.58 43.38,-27 16.63,-6.42 33.83,-9.63 51.61,-9.63 18.52,0 35.23,2.96 50.21,8.89 14.99,6.01 28.49,15.06 40.59,27.25 11.85,11.93 20.99,25.27 27.24,40.17 6.26,14.81 9.39,30.37 9.39,46.59 0,17.86 -3.3,34.49 -9.88,50.04 -6.59,15.48 -16.38,29.23 -29.22,41.33 -12.19,11.36 -26.59,20.25 -43.14,26.58 -16.62,6.34 -33.83,9.55 -51.69,9.55 -18.77,0 -35.56,-2.88 -50.38,-8.64 -14.81,-5.85 -28.31,-14.82 -40.58,-27 -11.85,-11.94 -20.99,-25.35 -27.33,-40.42 -6.34,-14.98 -9.55,-30.45 -9.55,-46.34z"/>
  <path id="_30" class="fil0" d="M10833.6 16253.1c0,9.63 1.48,18.02 4.45,25.27 2.96,7.24 7.57,13.58 13.83,19.01l-63.22 0 0 -118.61c0,-15.15 -0.99,-27 -3.05,-35.56 -1.97,-8.65 -5.18,-16.14 -9.71,-22.56 -6.26,-9.05 -14.73,-16.13 -25.44,-21.4 -10.7,-5.19 -22.14,-7.82 -34.32,-7.82 -21.32,0 -39.18,8.07 -53.59,24.12 -14.4,16.13 -21.56,36.22 -21.56,60.34 0,26.99 8.23,49.47 24.61,67.41 16.38,17.95 36.87,26.92 61.4,26.92 7.08,0 14.82,-0.91 23.3,-2.64 8.4,-1.81 17.29,-4.52 26.59,-8.23l-29.14 42.31c-6.42,0.99 -12.1,1.65 -17.04,2.06 -4.86,0.41 -9.39,0.58 -13.58,0.58 -38.61,0 -69.4,-11.2 -92.28,-33.67 -22.8,-22.39 -34.24,-52.52 -34.24,-90.3 0,-34.08 11.52,-62.97 34.65,-86.76 23.05,-23.79 50.96,-35.72 83.8,-35.72 14.16,0 27.74,2.3 40.91,6.99 13.09,4.69 26.01,11.69 38.69,20.99l0 -74.99c0,-14.24 -1.32,-24.94 -3.87,-32.1 -2.55,-7.16 -6.83,-13.42 -12.92,-18.68l6 0c5.6,0 12.6,-0.5 20.83,-1.4 8.31,-0.91 19.92,-2.39 34.9,-4.53l0 298.97z"/>
  <path id="_31" class="fil0" d="M11095.86 16254.5c0,10.29 1.32,18.85 4.03,25.76 2.64,6.92 6.92,12.92 12.76,18.11l-79.02 0c6.01,-5.19 10.29,-11.19 12.92,-18.11 2.56,-6.91 3.87,-15.47 3.87,-25.76l0 -250.57c0,-10.29 -1.31,-18.93 -3.87,-25.85 -2.63,-6.83 -6.91,-12.92 -12.92,-18.02l4.36 0c6.92,0 15.07,-0.5 24.45,-1.49 9.47,-0.98 20.25,-2.47 32.43,-4.44l0 141.75c12.1,-12.93 24.2,-22.39 36.47,-28.49 12.18,-6 25.19,-9.05 39.02,-9.05 26.01,0 47.24,7.9 63.54,23.79 16.3,15.89 24.45,36.63 24.45,62.23l0 110.14c0,10.29 1.32,18.85 3.87,25.76 2.63,6.92 6.91,12.92 12.92,18.11l-79.51 0c5.92,-5.19 10.2,-11.19 12.84,-18.11 2.63,-6.91 3.95,-15.47 3.95,-25.76l0 -83.88c0,-25.69 -4.61,-44.45 -13.91,-56.14 -9.22,-11.77 -23.87,-17.62 -44.04,-17.62 -20.91,0 -35.89,5.35 -44.95,16.14 -9.13,10.78 -13.66,28.81 -13.66,54l0 87.5z"/>
  <path id="_32" class="fil0" d="M11544.8 16265.77l-20.17 31.53c-23.78,0 -40.74,-4.28 -50.95,-12.84 -10.21,-8.64 -15.31,-22.97 -15.31,-43.05l0 -69.48c-2.55,0.66 -6.5,1.73 -11.85,3.13 -59.6,16.3 -89.4,34 -89.4,53.1 0,12.26 5.02,22.14 14.98,29.71 9.96,7.57 23.14,11.36 39.52,11.36 4.52,0 9.63,-0.41 15.39,-1.32 5.84,-0.9 12.35,-2.3 19.51,-4.03l-26.75 35.89c-5.93,1.4 -11.36,2.47 -16.22,3.13 -4.94,0.57 -9.71,0.9 -14.32,0.9 -23.96,0 -43.71,-6.99 -59.19,-20.99 -15.56,-13.99 -23.29,-31.52 -23.29,-52.76 0,-8.07 1.48,-15.64 4.36,-22.89 2.88,-7.24 7,-13.74 12.43,-19.59 9.96,-9.96 31.44,-18.6 64.45,-26.01 6.75,-1.4 11.94,-2.63 15.64,-3.62 22.06,-4.94 36.55,-9.71 43.63,-14.32 7.08,-4.61 10.62,-10.79 10.62,-18.69 0,-10.12 -4.78,-18.27 -14.49,-24.36 -9.63,-6.09 -22.55,-9.14 -38.85,-9.14 -8.48,0 -18.03,1.48 -28.48,4.53 -10.46,3.04 -21.82,7.65 -34.25,13.74l31.69 -50.21c8.24,-1.15 15.97,-2.06 23.3,-2.63 7.33,-0.66 13.99,-0.99 20.17,-0.99 12.01,0 22.96,1.4 32.76,4.2 9.79,2.8 18.52,6.99 26.09,12.67 9.8,7.17 16.71,16.22 20.83,26.92 4.11,10.78 6.17,27.49 6.17,50.05l0 56.71c0,26.1 2.8,42.15 8.4,48.24 5.59,6.09 16.79,9.8 33.58,11.11z"/>
  <path id="_33" class="fil0" d="M11630.24 16254.5c0,10.29 1.32,18.85 4.03,25.76 2.64,6.92 6.92,13.01 12.76,18.11l-79.02 0c6.01,-5.1 10.29,-11.19 12.92,-18.11 2.56,-6.91 3.87,-15.47 3.87,-25.76l0 -146.03c0,-10.45 -1.31,-19.26 -4.03,-26.34 -2.64,-7.08 -6.92,-13.17 -12.76,-18.36l5.35 0c7.9,0 16.22,-0.49 24.94,-1.4 8.81,-0.9 18.36,-2.22 28.81,-4.03l2.14 37.54c12.1,-12.93 24.2,-22.39 36.47,-28.49 12.18,-6 25.19,-9.05 39.02,-9.05 26.01,0 47.24,7.9 63.54,23.79 16.3,15.89 24.45,36.63 24.45,62.23l0 110.14c0,10.29 1.32,18.85 3.87,25.76 2.63,6.92 6.91,13.01 12.92,18.11l-79.51 0c5.92,-5.1 10.2,-11.19 12.84,-18.11 2.63,-6.91 3.95,-15.47 3.95,-25.76l0 -83.88c0,-25.52 -4.61,-44.12 -13.91,-55.81 -9.22,-11.61 -23.87,-17.45 -44.04,-17.45 -20.91,0 -35.89,5.35 -44.95,16.05 -9.13,10.7 -13.66,28.56 -13.66,53.59l0 87.5z"/>
  <path id="_34" class="fil0" d="M12085.6 16253.1c0,9.63 1.48,18.02 4.45,25.27 2.96,7.24 7.57,13.58 13.83,19.01l-63.22 0 0 -118.61c0,-15.15 -0.99,-27 -3.05,-35.56 -1.97,-8.65 -5.18,-16.14 -9.71,-22.56 -6.26,-9.05 -14.73,-16.13 -25.44,-21.4 -10.7,-5.19 -22.14,-7.82 -34.32,-7.82 -21.32,0 -39.18,8.07 -53.59,24.12 -14.4,16.13 -21.56,36.22 -21.56,60.34 0,26.99 8.23,49.47 24.61,67.41 16.38,17.95 36.87,26.92 61.4,26.92 7.08,0 14.82,-0.91 23.3,-2.64 8.4,-1.81 17.29,-4.52 26.59,-8.23l-29.14 42.31c-6.42,0.99 -12.1,1.65 -17.04,2.06 -4.86,0.41 -9.39,0.58 -13.58,0.58 -38.61,0 -69.4,-11.2 -92.28,-33.67 -22.8,-22.39 -34.24,-52.52 -34.24,-90.3 0,-34.08 11.52,-62.97 34.65,-86.76 23.05,-23.79 50.96,-35.72 83.8,-35.72 14.16,0 27.74,2.3 40.91,6.99 13.09,4.69 26.01,11.69 38.69,20.99l0 -74.99c0,-14.24 -1.32,-24.94 -3.87,-32.1 -2.55,-7.16 -6.83,-13.42 -12.92,-18.68l6 0c5.6,0 12.6,-0.5 20.83,-1.4 8.31,-0.91 19.92,-2.39 34.9,-4.53l0 298.97z"/>
  <path id="_35" class="fil0" d="M12201.75 16254.5c0,10.29 1.32,18.85 4.03,25.76 2.64,6.92 6.92,12.92 12.76,18.11l-78.53 0c6.01,-5.19 10.29,-11.19 12.93,-18.11 2.55,-6.91 3.87,-15.47 3.87,-25.76l0 -250.57c0,-10.29 -1.32,-18.85 -3.87,-25.77 -2.64,-6.91 -6.92,-13 -12.93,-18.1l5.35 0c5.19,0 11.45,-0.42 18.94,-1.16 7.49,-0.74 19.92,-2.3 37.45,-4.77l0 300.37z"/>
  <path id="_36" class="fil0" d="M12307.36 16142.3l125.53 0c-0.99,-16.54 -7.08,-30.04 -18.36,-40.58 -11.28,-10.45 -25.27,-15.72 -41.98,-15.72 -18.03,0 -32.84,5.02 -44.45,15.06 -11.53,9.96 -18.52,23.79 -20.74,41.24zm-3.38 33.09c1.15,29.31 10.45,52.6 27.91,69.89 17.45,17.28 40.25,25.93 68.4,25.93 12.51,0 25.76,-2.06 39.68,-6.18 13.91,-4.11 29.05,-10.45 45.27,-19.01l-26.01 45.35c-14.08,5.11 -27.08,8.98 -39.1,11.53 -12.1,2.55 -23.46,3.87 -34.08,3.87 -39.1,0 -71.29,-11.86 -96.56,-35.48 -25.27,-23.63 -37.86,-53.59 -37.86,-89.89 0,-37.29 11.6,-67.83 34.9,-91.7 23.21,-23.87 52.93,-35.81 89.15,-35.81 33.33,0 59.76,10.87 79.43,32.68 19.59,21.73 29.63,51.37 30.13,88.82l-181.26 0z"/>
  <path id="_37" class="fil0" d="M12660.57 16107.73c-3.7,-2.8 -7.49,-4.86 -11.36,-6.09 -3.87,-1.24 -8.15,-1.81 -12.76,-1.81 -17.12,0 -30.12,5.76 -39.01,17.28 -8.97,11.53 -13.42,28.15 -13.42,49.89l0 87.5c0,10.29 1.32,18.85 4.03,25.76 2.64,6.92 6.92,13.01 12.76,18.11l-79.02 0c6.01,-5.1 10.29,-11.19 12.92,-18.11 2.56,-6.91 3.87,-15.47 3.87,-25.76l0 -146.03c0,-10.45 -1.31,-19.26 -4.03,-26.34 -2.64,-7.08 -6.92,-13.17 -12.76,-18.36l5.35 0c7.9,0 16.22,-0.49 24.94,-1.4 8.81,-0.9 18.36,-2.22 28.81,-4.03l3.62 37.37c7.08,-12.51 15.23,-21.81 24.37,-27.82 9.22,-6.01 19.67,-9.06 31.44,-9.06 2.88,0 5.85,0.17 8.89,0.5 3.05,0.33 6.84,0.99 11.36,1.97l0 46.43z"/>
  <path id="_38" class="fil0" d="M12665.59 16274.66c0,-8.56 2.97,-15.72 8.89,-21.73 6.01,-5.92 13.26,-8.89 21.74,-8.89 8.39,0 15.55,2.97 21.56,8.89 6.01,6.01 9.06,13.17 9.06,21.73 0,8.4 -3.05,15.56 -9.06,21.57 -6.01,6.01 -13.17,9.05 -21.56,9.05 -8.48,0 -15.73,-3.04 -21.74,-9.05 -5.92,-6.01 -8.89,-13.17 -8.89,-21.57z"/>
  <g id="_2494298966832">
   <g>
    <polygon class="fil1 str0" points="4829.2,2394.65 12792.14,2394.65 12792.14,10357.59 4829.2,10357.59 "/>
    <polygon id="_1_14" class="fil2" points="4829.2,2394.65 12792.14,2394.65 12792.14,10357.59 4829.2,10357.59 "/>
   </g>
   <rect class="fil3" x="4829.18" y="2394.65" width="7962.94" height="7939.02"/>
   <rect class="fil4" x="5485.74" y="3130.83" width="6634.63" height="6474.15"/>
   <path class="fil0" d="M5547.42 4809.38c80.13,-2.12 145.4,-23.35 195.82,-64.74 50.41,-40.86 84.37,-97.11 100.82,-168.22 16.46,-71.64 25.48,-193.69 26.54,-366.69 0.53,-173 3.18,-287.09 7.96,-342.28 9.55,-87.03 26.53,-156.55 52,-209.61 24.94,-52.54 56.25,-94.99 93.4,-126.83 37.15,-31.31 84.91,-55.72 142.75,-72.17 39.27,-10.09 102.95,-15.39 192.1,-15.39l86.5 0 0 245.17 -47.76 0c-106.66,0 -177.24,19.63 -212.27,58.37 -34.49,38.74 -52,125.24 -52,260.03 0,271.17 -5.84,442.57 -17.51,514.21 -18.58,110.91 -50.95,196.35 -96.05,256.31 -45.64,59.97 -116.75,113.57 -214.39,159.73 115.15,47.76 198.47,120.47 250.47,218.11 51.48,97.64 77.48,257.9 77.48,480.25 0,201.66 1.06,321.59 3.18,359.79 8.49,70.58 29.19,119.4 62.62,147.53 33.96,28.12 99.77,41.92 197.94,41.92l48.29 0 0 245.17 -87.03 0c-101.36,0 -175.12,-8.49 -220.76,-24.94 -65.8,-23.88 -120.99,-62.09 -164.5,-115.69 -43.52,-53.06 -71.64,-120.46 -84.38,-202.18 -13.27,-81.72 -20.16,-215.98 -21.23,-402.25 -1.06,-186.26 -10.08,-315.21 -26.53,-386.32 -16.45,-71.64 -49.35,-127.89 -99.23,-169.28 -50.42,-41.4 -114.63,-63.15 -194.23,-65.28l0 -254.72z"/>
   <path class="fil0" d="M12026.93 4809.38c-80.13,-2.12 -145.41,-23.35 -195.82,-64.74 -50.41,-40.86 -84.38,-97.11 -100.83,-168.22 -16.45,-71.64 -25.47,-193.7 -26.53,-366.69 -0.53,-173 -3.18,-287.1 -7.96,-342.29 -9.55,-87.02 -26.53,-156.54 -52,-209.61 -24.95,-52.54 -56.26,-94.99 -93.4,-126.83 -37.15,-31.31 -84.91,-55.72 -142.75,-72.17 -39.27,-10.08 -102.95,-15.39 -192.1,-15.39l-86.5 0 0 245.17 47.76 0c106.66,0 177.24,19.63 212.26,58.37 34.5,38.74 52.01,125.24 52.01,260.03 0,271.17 5.84,442.58 17.51,514.22 18.58,110.91 50.95,196.35 96.05,256.31 45.64,59.97 116.75,113.56 214.39,159.73 -115.15,47.76 -198.47,120.46 -250.47,218.11 -51.48,97.64 -77.48,257.9 -77.48,480.25 0,201.66 -1.06,321.59 -3.18,359.79 -8.49,70.58 -29.19,119.41 -62.62,147.53 -33.97,28.13 -99.77,41.92 -197.94,41.92l-48.29 0 0 245.17 87.03 0c101.35,0 175.12,-8.49 220.75,-24.94 65.81,-23.88 121,-62.09 164.51,-115.68 43.52,-53.07 71.64,-120.47 84.38,-202.19 13.26,-81.72 20.16,-215.98 21.22,-402.25 1.07,-186.26 10.09,-315.21 26.54,-386.32 16.45,-71.64 49.35,-127.89 99.23,-169.29 50.42,-41.39 114.63,-63.15 194.23,-65.27l0 -254.72z"/>
   <path class="fil5" d="M6820.26 6505.2l280.61 0 0 877.95c0,114.83 -10,203.2 -30.32,265.13 -27.09,80.63 -76.12,145.47 -147.4,194.49 -70.96,48.71 -164.82,73.22 -281.58,73.22 -136.75,0 -241.9,-38.06 -315.44,-114.5 -73.86,-76.45 -110.96,-188.69 -111.6,-336.41l265.13 -30.97c3.22,79.03 14.51,134.83 34.51,167.4 29.99,49.67 75.47,74.51 136.76,74.51 61.6,0 105.47,-17.74 130.95,-53.54 25.48,-35.48 38.38,-109.34 38.38,-221.59l0 -895.69z"/>
   <path id="_1_15" class="fil5" d="M7325.68 7441.85l272.87 -27.09c16.45,91.28 49.35,158.05 99.34,200.94 50,42.9 117.41,64.19 202.24,64.19 89.66,0 157.4,-19.03 202.87,-57.09 45.48,-38.06 68.38,-82.57 68.38,-133.53 0,-32.9 -9.67,-60.64 -28.7,-83.86 -19.03,-22.9 -52.58,-42.9 -100.31,-59.67 -32.58,-11.61 -106.76,-31.61 -222.88,-60.64 -149.33,-37.41 -254.16,-83.22 -314.47,-137.72 -84.83,-76.45 -127.09,-169.66 -127.09,-279.65 0,-70.63 20,-137.08 59.67,-198.68 40,-61.61 97.41,-108.37 172.56,-140.63 75.16,-32.25 165.47,-48.38 271.9,-48.38 173.21,0 303.84,38.38 391.25,115.47 87.73,77.09 133.53,179.65 138.04,308.35l-280.61 9.67c-11.93,-71.6 -37.41,-122.88 -76.44,-154.17 -39.03,-31.29 -97.73,-47.09 -175.78,-47.09 -80.64,0 -143.86,16.77 -189.33,50.32 -29.36,21.61 -44.19,50.31 -44.19,86.44 0,32.89 13.87,60.96 41.61,84.18 35.15,29.99 120.63,60.96 256.41,93.21 135.79,31.93 236.1,65.48 300.93,99.67 65.16,34.51 116.12,81.28 152.89,140.95 36.77,59.67 55.15,133.21 55.15,220.62 0,79.34 -21.93,153.85 -66.12,223.19 -44.19,69.35 -106.44,120.96 -187.07,154.5 -80.64,33.87 -181.27,50.64 -301.58,50.64 -175.13,0 -309.63,-40.32 -403.49,-121.28 -93.86,-80.63 -149.66,-198.36 -168.05,-352.86z"/>
   <path id="_2_16" class="fil5" d="M8631.98 7206.4c0,-141.27 21.28,-259.97 63.54,-356.08 31.28,-70.64 74.5,-134.18 129.01,-190.3 54.51,-56.12 114.18,-97.73 179.01,-125.15 86.44,-36.45 186.11,-54.83 299,-54.83 204.49,0 367.69,63.54 490.58,190.3 122.56,127.08 183.85,303.51 183.85,529.61 0,224.16 -60.96,399.63 -182.56,526.06 -121.6,126.76 -284.48,189.98 -488,189.98 -206.11,0 -370.28,-62.9 -491.88,-189.01 -121.59,-125.79 -182.55,-299.32 -182.55,-520.58zm288.35 -9.35c0,157.07 36.44,276.09 109.01,357.37 72.58,80.96 164.82,121.6 276.42,121.6 111.92,0 203.52,-40.32 275.45,-120.63 71.6,-80.64 107.41,-201.27 107.41,-362.21 0,-159.02 -34.84,-277.71 -104.83,-355.77 -69.67,-78.37 -162.24,-117.4 -278.03,-117.4 -115.47,0 -208.68,39.67 -279.32,118.69 -70.63,79.35 -106.11,198.69 -106.11,358.35z"/>
   <polygon id="_3_17" class="fil5" points="10195.32,7890.83 10195.32,6505.2 10466.9,6505.2 11037.15,7433.79 11037.15,6505.2 11296.47,6505.2 11296.47,7890.83 11016.19,7890.83 10454.64,6979.98 10454.64,7890.83 "/>
   <path id="_4_18" class="fil6" d="M6914.92 9522.38l0 -1385.63 589.28 0c148.05,0 255.78,12.58 322.87,37.41 67.41,24.84 120.95,69.03 161.27,132.57 40.31,63.86 60.63,136.43 60.63,218.36 0,104.18 -30.32,189.97 -91.28,257.71 -60.96,67.73 -151.91,110.3 -273.19,128.04 60.32,35.16 109.99,73.87 149.02,116.12 39.35,42.25 92.24,117.4 158.69,225.13l169.01 270.29 -334.48 0 -200.62 -302.54c-71.92,-107.41 -121.27,-175.14 -148.04,-203.2 -26.45,-27.74 -54.51,-47.09 -84.19,-57.41 -29.99,-10.33 -77.08,-15.49 -141.59,-15.49l-56.77 0 0 578.64 -280.61 0zm280.61 -799.25l207.07 0c134.18,0 217.72,-5.81 251.26,-17.1 33.22,-11.29 59.67,-30.96 78.38,-58.7 19.03,-27.74 28.38,-62.57 28.38,-104.18 0,-46.77 -12.58,-84.18 -37.41,-113.21 -24.84,-28.71 -59.99,-46.77 -105.15,-54.19 -22.9,-3.23 -90.96,-4.84 -204.17,-4.84l-218.36 0 0 352.22z"/>
   <path id="_5_19" class="fil6" d="M8312.49 9522.38l0 -1385.63 448.66 0c169.97,0 280.61,6.77 332.21,20.64 79.35,20.97 145.79,66.12 199.33,135.79 53.54,69.67 80.31,159.66 80.31,269.97 0,85.15 -15.48,156.43 -46.12,214.49 -30.96,58.05 -69.99,103.53 -117.4,136.75 -47.42,32.9 -95.8,54.83 -144.82,65.48 -66.77,13.22 -163.21,20 -289.65,20l-181.91 0 0 522.51 -280.61 0zm280.61 -1151.47l0 394.79 152.56 0c109.99,0 183.21,-7.42 220.3,-21.93 37.09,-14.52 66.12,-37.09 87.08,-68.38 20.97,-30.96 31.61,-66.77 31.61,-108.05 0,-50.64 -14.83,-92.25 -44.18,-125.15 -29.68,-32.9 -66.77,-53.54 -112.25,-61.92 -33.22,-6.13 -99.99,-9.36 -200.62,-9.36l-134.5 0z"/>
   <path id="_6_20" class="fil6" d="M10489.64 9011.48l270.94 83.21c-41.61,152.56 -110.96,265.77 -207.72,339.96 -96.76,73.86 -219.33,110.95 -368.02,110.95 -184.17,0 -335.44,-62.89 -454.13,-188.68 -118.38,-125.79 -177.72,-297.71 -177.72,-516.07 0,-230.61 59.67,-409.95 178.68,-537.67 119.02,-127.73 275.78,-191.59 469.94,-191.59 169.66,0 307.38,50.32 413.18,150.63 63.22,59.34 110.31,144.49 141.92,255.77l-276.74 65.8c-16.45,-71.61 -50.64,-128.37 -102.57,-169.98 -52.25,-41.61 -115.47,-62.25 -189.66,-62.25 -102.89,0 -186.42,36.77 -250.29,110.63 -64.18,73.54 -96.11,192.88 -96.11,358.02 0,174.82 31.61,299.64 94.5,373.82 63.22,74.51 145.14,111.6 246.1,111.6 74.51,0 138.69,-23.54 192.23,-70.96 53.54,-47.41 92.25,-121.59 115.47,-223.19z"/>
   <polygon class="fil3" points="6445.31,4048.3 7562.42,3478.25 7560.81,3770.63 6950.28,4060.01 7550.16,4332.31 7557.25,4604.45 6450.6,4048.5 "/>
   <polygon class="fil3" points="11129.04,5912.77 10011.93,5342.72 10013.54,5635.1 10624.07,5924.48 10024.19,6196.78 10017.1,6468.92 11123.75,5912.97 "/>
   <g>
    <g>
     <polygon class="fil1 str1" points="7771.74,3777.86 9834.39,3777.86 9834.39,4132.21 7771.74,4132.21 "/>
     <polygon id="_1_21" class="fil3" points="7771.74,3777.86 9834.39,3777.86 9834.39,4132.21 7771.74,4132.21 "/>
    </g>
    <g>
     <polygon class="fil1 str2" points="7771.74,4285.86 9834.39,4285.86 9834.39,4640.2 7771.74,4640.2 "/>
     <polygon id="_1_22" class="fil3" points="7771.74,4285.86 9834.39,4285.86 9834.39,4640.2 7771.74,4640.2 "/>
    </g>
    <g>
     <polygon class="fil1 str3" points="7771.74,5301.86 9834.39,5301.86 9834.39,5656.2 7771.74,5656.2 "/>
     <polygon id="_1_23" class="fil3" points="7771.74,5301.86 9834.39,5301.86 9834.39,5656.2 7771.74,5656.2 "/>
    </g>
    <g>
     <polygon class="fil1 str4" points="7771.74,4793.86 9834.39,4793.86 9834.39,5148.2 7771.74,5148.2 "/>
     <polygon id="_1_24" class="fil3" points="7771.74,4793.86 9834.39,4793.86 9834.39,5148.2 7771.74,5148.2 "/>
    </g>
    <g>
     <polygon class="fil1 str5" points="7771.74,5809.86 9834.39,5809.86 9834.39,6164.21 7771.74,6164.21 "/>
     <polygon id="_1_25" class="fil3" points="7771.74,5809.86 9834.39,5809.86 9834.39,6164.21 7771.74,6164.21 "/>
    </g>
   </g>
  </g>
 </g>
</svg>
