<?xml version="1.0" encoding="UTF-8"?>
<!DOCTYPE svg PUBLIC "-//W3C//DTD SVG 1.1//EN" "http://www.w3.org/Graphics/SVG/1.1/DTD/svg11.dtd">
<!-- Creator: CorelDRAW -->
<svg xmlns="http://www.w3.org/2000/svg" xml:space="preserve" width="79.6294mm" height="79.6294mm" version="1.1" style="shape-rendering:geometricPrecision; text-rendering:geometricPrecision; image-rendering:optimizeQuality; fill-rule:evenodd; clip-rule:evenodd"
viewBox="0 0 6774.78 6774.78"
 xmlns:xlink="http://www.w3.org/1999/xlink"
 xmlns:xodm="http://www.corel.com/coreldraw/odm/2003">
 <defs>
  <style type="text/css">
   <![CDATA[
    .fil4 {fill:#FEFEFE}
    .fil0 {fill:#FEFEFE}
    .fil2 {fill:#E31E24}
    .fil3 {fill:#1F1B20}
    .fil7 {fill:#0E5594}
    .fil8 {fill:#008DD2}
    .fil6 {fill:#FEFEFE;fill-rule:nonzero}
    .fil1 {fill:#1F1B20;fill-rule:nonzero}
    .fil5 {fill:#1F1B20;fill-rule:nonzero}
   ]]>
  </style>
 </defs>
 <g id="Layer_x0020_1">
  <metadata id="CorelCorpID_0Corel-Layer"/>
  <g id="_2228917749040">
   <rect class="fil0" width="6774.78" height="6774.78"/>
   <path class="fil1" d="M4876.26 2795.28l198.73 0.05 -9.12 -384.55c-3.55,-149.65 -48.46,-245.81 -158.86,-352.98 -80.73,-78.37 -253.82,-151.07 -454.76,-158.34l-522.84 -9.85 34.01 245.33 483.26 -9.85c165.32,-1.04 412.84,103.76 418.62,299.63l10.95 370.56z"/>
   <polygon class="fil2" points="4508.4,2795.91 5440,2795.33 5020.27,3979.44 "/>
   <g>
    <path class="fil3" d="M2023.82 4047.64c1117.72,0 2023.81,-906.1 2023.81,-2023.82 0,-1117.72 -906.1,-2023.81 -2023.81,-2023.81 -1117.72,0 -2023.82,906.1 -2023.82,2023.81 0,1117.72 906.1,2023.82 2023.82,2023.82zm-3.78 -165.61c1028.73,0 1862.7,-833.97 1862.7,-1862.7 0,-1028.73 -833.97,-1862.69 -1862.7,-1862.69 -1028.73,0 -1862.69,833.96 -1862.69,1862.69 0,1028.73 833.96,1862.7 1862.69,1862.7z"/>
    <path class="fil3" d="M2021.3 3723.99c945.11,0 1711.28,-766.17 1711.28,-1711.27 0,-945.11 -766.17,-1711.28 -1711.28,-1711.28 -945.1,0 -1711.27,766.17 -1711.27,1711.28 0,945.1 766.17,1711.27 1711.27,1711.27z"/>
    <path class="fil4" d="M1992 2911.14c522.21,0 945.55,-423.34 945.55,-945.55 0,-522.21 -423.34,-945.54 -945.55,-945.54 -522.21,0 -945.55,423.34 -945.55,945.54 0,522.21 423.34,945.55 945.55,945.55z"/>
    <path class="fil5" d="M2408.69 2295.91l0 231.03 -875.01 0c9.39,-87.93 37.89,-171 85.19,-249.53 47.3,-78.53 140.98,-182.83 280.45,-312.89 112.49,-104.9 181.31,-176.16 206.78,-213.45 34.25,-51.54 51.54,-102.48 51.54,-153.12 0,-55.79 -14.85,-98.54 -44.87,-128.55 -29.72,-30.02 -70.95,-44.87 -123.41,-44.87 -52.14,0 -93.38,15.77 -124.31,47.3 -30.62,31.23 -48.21,83.38 -53.06,156.45l-249.22 -24.86c14.85,-137.65 61.24,-236.49 139.46,-296.53 78.23,-59.73 175.86,-89.74 293.19,-89.74 128.55,0 229.52,34.87 303.2,104.3 73.37,69.42 110.06,155.84 110.06,259.23 0,58.82 -10.61,114.61 -31.53,167.97 -20.92,53.06 -54.27,108.54 -100.05,166.75 -30.02,38.8 -84.9,94.29 -163.73,166.75 -79.13,72.46 -129.16,120.37 -150.08,144.32 -21.23,23.65 -38.21,47 -51.24,69.43l496.63 0z"/>
    <path class="fil6" d="M747.77 1508.17c-36.56,-19.92 -64.27,-42.15 -83.18,-66.63 -13.87,-18.05 -24.22,-38.19 -31.06,-60.2 -6.84,-22.02 -9.2,-43.31 -7.15,-63.95 2.75,-27.51 12.04,-55.88 27.95,-85.1 28.82,-52.91 68.27,-86.18 118.38,-100.11 50.15,-13.81 104.44,-4.8 162.94,27.07 58,31.59 94.81,72.1 110.39,121.37 15.65,49.33 9.06,100.38 -19.63,153.04 -29.05,53.33 -68.45,86.94 -118.22,100.63 -49.69,13.73 -103.18,5.05 -160.42,-26.13zm38.22 -75.93c40.63,22.14 76.57,29.48 107.83,22.16 31.17,-7.37 54.69,-25.52 70.42,-54.39 15.77,-28.95 18.25,-58.34 7.61,-88.27 -10.77,-29.89 -36.94,-56.15 -78.58,-78.83 -41.14,-22.41 -76.77,-30.13 -106.83,-23.01 -30.09,6.98 -53.23,25.43 -69.55,55.39 -16.28,29.88 -19.15,59.59 -8.65,89 10.57,29.46 36.46,55.46 77.76,77.96zm945.97 -561.9l-80.58 37.89 -71.46 -69.09 -148.17 69.68 8.85 98.55 -79.11 37.2 -30.31 -436.91 79.03 -37.16 321.75 299.83zm-205.65 -82.23l-115.65 -112.58 14.43 160.19 101.22 -47.6zm422.17 -352.78l82.44 6.22 -16.63 220.61c-2.65,35.06 -3.31,57.79 -2.09,68.27 2.25,16.95 9.48,31.02 21.79,42.05 12.41,11.13 29.94,17.5 52.69,19.22 23.02,1.74 40.81,-1.69 53.28,-10.38 12.47,-8.68 20.37,-19.81 23.79,-33.56 3.42,-13.76 6.38,-36.69 8.81,-68.91l16.99 -225.35 82.45 6.22 -16.15 214.07c-3.68,48.9 -8.47,83.33 -14.45,103.18 -5.97,19.84 -15.4,36.29 -28.4,49.32 -12.89,13.03 -29.64,22.83 -50.16,29.56 -20.61,6.74 -46.9,8.95 -79.02,6.53 -38.76,-2.92 -67.8,-9.59 -87.11,-20.1 -19.32,-10.51 -34.26,-23.35 -44.84,-38.64 -10.57,-15.28 -17.02,-30.82 -19.52,-46.93 -3.65,-23.71 -3.7,-58.41 -0.26,-103.99l16.39 -217.39zm609.45 553.32l162.27 -297.93 -106.15 -57.82 33.01 -60.59 284.41 154.91 -33 60.59 -105.65 -57.55 -162.28 297.94 -72.61 -39.55zm342.91 239.63l347.79 -213.81 43.31 70.44 -136.99 84.21 84.21 136.99 136.99 -84.21 43.29 70.43 -347.79 213.8 -43.3 -70.43 152.04 -93.47 -84.21 -136.98 -152.04 93.46 -43.3 -70.43z"/>
    <path class="fil6" d="M3277.91 2443.82c36.56,19.92 64.27,42.15 83.18,66.63 13.87,18.05 24.22,38.19 31.06,60.2 6.84,22.02 9.2,43.31 7.15,63.95 -2.75,27.51 -12.04,55.88 -27.95,85.1 -28.82,52.91 -68.27,86.18 -118.38,100.11 -50.15,13.81 -104.44,4.8 -162.94,-27.07 -58,-31.59 -94.81,-72.1 -110.39,-121.37 -15.65,-49.33 -9.06,-100.38 19.63,-153.04 29.05,-53.33 68.45,-86.94 118.22,-100.63 49.69,-13.73 103.18,-5.05 160.42,26.13zm-38.22 75.93c-40.63,-22.14 -76.57,-29.48 -107.83,-22.16 -31.17,7.37 -54.69,25.52 -70.42,54.39 -15.77,28.95 -18.25,58.34 -7.61,88.27 10.77,29.89 36.94,56.15 78.58,78.83 41.14,22.41 76.77,30.13 106.83,23.01 30.09,-6.98 53.23,-25.43 69.55,-55.39 16.28,-29.88 19.15,-59.59 8.65,-89 -10.57,-29.46 -36.46,-55.46 -77.76,-77.96zm-945.97 561.9l80.58 -37.89 71.46 69.09 148.17 -69.68 -8.85 -98.55 79.11 -37.2 30.31 436.91 -79.03 37.16 -321.75 -299.83zm205.65 82.23l115.65 112.58 -14.43 -160.19 -101.22 47.6zm-422.17 352.78l-82.44 -6.22 16.63 -220.61c2.65,-35.06 3.31,-57.79 2.09,-68.27 -2.25,-16.95 -9.48,-31.02 -21.79,-42.05 -12.41,-11.13 -29.94,-17.5 -52.69,-19.22 -23.02,-1.74 -40.81,1.69 -53.28,10.38 -12.47,8.68 -20.37,19.81 -23.79,33.56 -3.42,13.76 -6.38,36.69 -8.81,68.91l-16.99 225.35 -82.45 -6.22 16.15 -214.07c3.68,-48.9 8.47,-83.33 14.45,-103.18 5.97,-19.84 15.4,-36.29 28.4,-49.32 12.89,-13.03 29.64,-22.83 50.16,-29.56 20.61,-6.74 46.9,-8.95 79.02,-6.53 38.76,2.92 67.8,9.59 87.11,20.1 19.32,10.51 34.26,23.35 44.84,38.64 10.57,15.28 17.02,30.82 19.52,46.93 3.65,23.71 3.7,58.41 0.26,103.99l-16.39 217.39zm-609.45 -553.32l-162.27 297.93 106.15 57.82 -33.01 60.59 -284.41 -154.91 33 -60.59 105.65 57.55 162.28 -297.94 72.61 39.55zm-342.91 -239.63l-347.79 213.81 -43.31 -70.44 136.99 -84.21 -84.21 -136.99 -136.99 84.21 -43.29 -70.43 347.79 -213.8 43.3 70.43 -152.04 93.47 84.21 136.98 152.04 -93.46 43.3 70.43z"/>
   </g>
   <polygon class="fil7" points="606.13,5411.21 1693.7,4047.64 5081.09,4047.64 6239.19,5411.21 5081.08,6774.78 1693.69,6774.78 "/>
   <polygon class="fil8" points="997.49,5402.79 1934.68,4299.63 4853.66,4299.63 5851.63,5402.79 4853.66,6505.95 1934.67,6505.95 "/>
   <polygon class="fil6" points="1798.15,5827.01 1798.15,4914.41 1982.97,4914.41 1982.97,5273.84 2342.4,5273.84 2342.4,4914.41 2527.22,4914.41 2527.22,5827.01 2342.4,5827.01 2342.4,5428.07 1982.97,5428.07 1982.97,5827.01 "/>
   <polygon id="_1" class="fil6" points="2923.82,5827.01 2923.82,5068.63 2653.61,5068.63 2653.61,4914.41 3377.57,4914.41 3377.57,5068.63 3108.64,5068.63 3108.64,5827.01 "/>
   <polygon id="_2" class="fil6" points="3702.38,5827.01 3702.38,5068.63 3432.17,5068.63 3432.17,4914.41 4156.13,4914.41 4156.13,5068.63 3887.19,5068.63 3887.19,5827.01 "/>
   <path id="_3" class="fil6" d="M4275.72 5827.01l0 -912.6 295.5 0c111.95,0 184.81,4.46 218.8,13.6 52.26,13.81 96.02,43.54 131.29,89.43 35.27,45.89 52.89,105.16 52.89,177.81 0,56.08 -10.19,103.03 -30.37,141.26 -20.39,38.24 -46.1,68.19 -77.33,90.07 -31.22,21.67 -63.09,36.12 -95.38,43.13 -43.97,8.7 -107.49,13.17 -190.76,13.17l-119.81 0 0 344.14 -184.82 0zm184.82 -758.38l0 260.02 100.48 0c72.44,0 120.66,-4.89 145.09,-14.45 24.43,-9.56 43.54,-24.43 57.35,-45.04 13.81,-20.39 20.82,-43.97 20.82,-71.16 0,-33.35 -9.77,-60.75 -29.1,-82.42 -19.55,-21.67 -43.98,-35.27 -73.93,-40.79 -21.87,-4.03 -65.85,-6.16 -132.13,-6.16l-88.58 0z"/>
  </g>
 </g>
</svg>
