<?xml version="1.0" encoding="UTF-8"?>
<!DOCTYPE svg PUBLIC "-//W3C//DTD SVG 1.1//EN" "http://www.w3.org/Graphics/SVG/1.1/DTD/svg11.dtd">
<!-- Creator: CorelDRAW -->
<svg xmlns="http://www.w3.org/2000/svg" xml:space="preserve" width="79.7056mm" height="79.7056mm" version="1.1" style="shape-rendering:geometricPrecision; text-rendering:geometricPrecision; image-rendering:optimizeQuality; fill-rule:evenodd; clip-rule:evenodd"
viewBox="0 0 6795.2 6795.2"
 xmlns:xlink="http://www.w3.org/1999/xlink"
 xmlns:xodm="http://www.corel.com/coreldraw/odm/2003">
 <defs>
  <style type="text/css">
   <![CDATA[
    .str1 {stroke:#1F1B20;stroke-width:60.16;stroke-miterlimit:22.9256}
    .str2 {stroke:#1F1B20;stroke-width:60.16;stroke-miterlimit:22.9256}
    .str3 {stroke:#1F1B20;stroke-width:5.05;stroke-miterlimit:22.9256}
    .str6 {stroke:#1F1B20;stroke-width:5.05;stroke-miterlimit:22.9256}
    .str5 {stroke:#1F1B20;stroke-width:5.05;stroke-miterlimit:22.9256}
    .str4 {stroke:#1F1B20;stroke-width:5.05;stroke-miterlimit:22.9256}
    .str0 {stroke:#434242;stroke-width:6.5;stroke-miterlimit:22.9256}
    .fil0 {fill:none}
    .fil5 {fill:none;fill-rule:nonzero}
    .fil3 {fill:#FEFEFE}
    .fil1 {fill:#FEFEFE}
    .fil7 {fill:#E31E24}
    .fil2 {fill:#1F1B20}
    .fil8 {fill:#E31E24;fill-rule:nonzero}
    .fil6 {fill:#1F1B20;fill-rule:nonzero}
    .fil4 {fill:#1F1B20;fill-rule:nonzero}
    .fil9 {fill:#008DD2;fill-rule:nonzero}
   ]]>
  </style>
 </defs>
 <g id="Layer_x0020_1">
  <metadata id="CorelCorpID_0Corel-Layer"/>
  <g id="_2530598729632">
   <g>
    <polygon class="fil0 str0" points="3.25,3.25 6791.95,3.25 6791.95,6791.95 3.25,6791.95 "/>
    <polygon id="_1" class="fil1" points="3.25,3.25 6791.95,3.25 6791.95,6791.95 3.25,6791.95 "/>
   </g>
   <rect class="fil2" x="3.24" y="3.25" width="6788.71" height="6768.31"/>
   <rect class="fil3" x="562.97" y="630.87" width="5748.66" height="5519.46"/>
   <path class="fil4" d="M777.1 2026.33c72.73,-1.93 131.97,-21.19 177.74,-58.76 45.76,-37.09 76.58,-88.14 91.51,-152.69 14.93,-65.02 23.12,-175.8 24.08,-332.82 0.48,-157.02 2.89,-260.57 7.22,-310.66 8.67,-78.99 24.08,-142.08 47.2,-190.25 22.63,-47.68 51.06,-86.22 84.77,-115.12 33.72,-28.42 77.07,-50.57 129.57,-65.5 35.64,-9.16 93.44,-13.97 174.36,-13.97l78.5 0 0 222.53 -43.34 0c-96.81,0 -160.87,17.82 -192.66,52.98 -31.31,35.17 -47.2,113.67 -47.2,236.02 0,246.12 -5.3,401.7 -15.9,466.72 -16.85,100.66 -46.24,178.21 -87.18,232.63 -41.42,54.43 -105.96,103.08 -194.58,144.98 104.51,43.35 180.13,109.34 227.34,197.96 46.72,88.62 70.33,234.08 70.33,435.89 0,183.03 0.96,291.88 2.89,326.56 7.7,64.06 26.49,108.37 56.83,133.9 30.83,25.52 90.55,38.05 179.66,38.05l43.83 0 0 222.53 -78.99 0c-92,0 -158.95,-7.71 -200.36,-22.64 -59.73,-21.67 -109.82,-56.35 -149.31,-105 -39.5,-48.17 -65.02,-109.34 -76.58,-183.51 -12.05,-74.18 -18.3,-196.03 -19.27,-365.09 -0.96,-169.07 -9.16,-286.1 -24.08,-350.65 -14.93,-65.02 -44.79,-116.08 -90.07,-153.64 -45.76,-37.57 -104.04,-57.32 -176.29,-59.24l0 -231.2z"/>
   <path id="_1_0" class="fil5 str1" d="M777.1 2026.33c72.73,-1.93 131.97,-21.19 177.74,-58.76 45.76,-37.09 76.58,-88.14 91.51,-152.69 14.93,-65.02 23.12,-175.8 24.08,-332.82 0.48,-157.02 2.89,-260.57 7.22,-310.66 8.67,-78.99 24.08,-142.08 47.2,-190.25 22.63,-47.68 51.06,-86.22 84.77,-115.12 33.72,-28.42 77.07,-50.57 129.57,-65.5 35.64,-9.16 93.44,-13.97 174.36,-13.97l78.5 0 0 222.53 -43.34 0c-96.81,0 -160.87,17.82 -192.66,52.98 -31.31,35.17 -47.2,113.67 -47.2,236.02 0,246.12 -5.3,401.7 -15.9,466.72 -16.85,100.66 -46.24,178.21 -87.18,232.63 -41.42,54.43 -105.96,103.08 -194.58,144.98 104.51,43.35 180.13,109.34 227.34,197.96 46.72,88.62 70.33,234.08 70.33,435.89 0,183.03 0.96,291.88 2.89,326.56 7.7,64.06 26.49,108.37 56.83,133.9 30.83,25.52 90.55,38.05 179.66,38.05l43.83 0 0 222.53 -78.99 0c-92,0 -158.95,-7.71 -200.36,-22.64 -59.73,-21.67 -109.82,-56.35 -149.31,-105 -39.5,-48.17 -65.02,-109.34 -76.58,-183.51 -12.05,-74.18 -18.3,-196.03 -19.27,-365.09 -0.96,-169.07 -9.16,-286.1 -24.08,-350.65 -14.93,-65.02 -44.79,-116.08 -90.07,-153.64 -45.76,-37.57 -104.04,-57.32 -176.29,-59.24l0 -231.2z"/>
   <path class="fil4" d="M4137.57 2026.33c-72.73,-1.93 -131.97,-21.19 -177.74,-58.76 -45.76,-37.09 -76.58,-88.14 -91.51,-152.69 -14.93,-65.02 -23.12,-175.8 -24.08,-332.82 -0.48,-157.02 -2.89,-260.57 -7.22,-310.66 -8.67,-78.99 -24.08,-142.08 -47.2,-190.25 -22.63,-47.68 -51.06,-86.22 -84.77,-115.12 -33.72,-28.42 -77.07,-50.57 -129.57,-65.5 -35.64,-9.16 -93.44,-13.97 -174.36,-13.97l-78.5 0 0 222.53 43.34 0c96.81,0 160.87,17.82 192.66,52.98 31.31,35.17 47.2,113.67 47.2,236.02 0,246.12 5.3,401.7 15.9,466.72 16.85,100.66 46.24,178.21 87.18,232.63 41.42,54.43 105.96,103.08 194.58,144.98 -104.51,43.35 -180.13,109.34 -227.34,197.96 -46.72,88.62 -70.33,234.08 -70.33,435.89 0,183.03 -0.96,291.88 -2.89,326.56 -7.7,64.06 -26.49,108.37 -56.83,133.9 -30.83,25.52 -90.55,38.05 -179.66,38.05l-43.83 0 0 222.53 78.99 0c92,0 158.95,-7.71 200.36,-22.64 59.73,-21.67 109.82,-56.35 149.31,-105 39.5,-48.17 65.02,-109.34 76.58,-183.51 12.05,-74.18 18.3,-196.03 19.27,-365.09 0.96,-169.07 9.16,-286.1 24.08,-350.65 14.93,-65.02 44.79,-116.08 90.07,-153.64 45.76,-37.57 104.04,-57.32 176.29,-59.24l0 -231.2z"/>
   <path id="_1_1" class="fil5 str2" d="M4137.57 2026.33c-72.73,-1.93 -131.97,-21.19 -177.74,-58.76 -45.76,-37.09 -76.58,-88.14 -91.51,-152.69 -14.93,-65.02 -23.12,-175.8 -24.08,-332.82 -0.48,-157.02 -2.89,-260.57 -7.22,-310.66 -8.67,-78.99 -24.08,-142.08 -47.2,-190.25 -22.63,-47.68 -51.06,-86.22 -84.77,-115.12 -33.72,-28.42 -77.07,-50.57 -129.57,-65.5 -35.64,-9.16 -93.44,-13.97 -174.36,-13.97l-78.5 0 0 222.53 43.34 0c96.81,0 160.87,17.82 192.66,52.98 31.31,35.17 47.2,113.67 47.2,236.02 0,246.12 5.3,401.7 15.9,466.72 16.85,100.66 46.24,178.21 87.18,232.63 41.42,54.43 105.96,103.08 194.58,144.98 -104.51,43.35 -180.13,109.34 -227.34,197.96 -46.72,88.62 -70.33,234.08 -70.33,435.89 0,183.03 -0.96,291.88 -2.89,326.56 -7.7,64.06 -26.49,108.37 -56.83,133.9 -30.83,25.52 -90.55,38.05 -179.66,38.05l-43.83 0 0 222.53 78.99 0c92,0 158.95,-7.71 200.36,-22.64 59.73,-21.67 109.82,-56.35 149.31,-105 39.5,-48.17 65.02,-109.34 76.58,-183.51 12.05,-74.18 18.3,-196.03 19.27,-365.09 0.96,-169.07 9.16,-286.1 24.08,-350.65 14.93,-65.02 44.79,-116.08 90.07,-153.64 45.76,-37.57 104.04,-57.32 176.29,-59.24l0 -231.2z"/>
   <path class="fil6" d="M5340.57 2070.71l275.87 0.07 -12.67 -533.82c-4.93,-207.73 -67.27,-341.22 -220.52,-490 -112.08,-108.8 -352.35,-209.7 -631.29,-219.8l-605.74 -23.56 0 340.55 598.02 -3.78c229.49,-1.44 573.08,144.03 581.12,415.93l15.2 514.4z"/>
   <polygon class="fil7" points="4834.88,2056.51 6128.1,2055.71 5545.46,3699.43 "/>
   <path class="fil8" d="M1737.78 3720.88l239.23 0 0 748.49c0,97.9 -8.53,173.24 -25.85,226.03 -23.1,68.74 -64.9,124.02 -125.66,165.81 -60.5,41.53 -140.52,62.42 -240.06,62.42 -116.58,0 -206.23,-32.45 -268.92,-97.62 -62.97,-65.18 -94.6,-160.87 -95.14,-286.8l226.03 -26.4c2.75,67.38 12.37,114.95 29.42,142.71 25.57,42.35 64.34,63.52 116.59,63.52 52.52,0 89.92,-15.12 111.64,-45.64 21.72,-30.25 32.72,-93.22 32.72,-188.91l0 -763.61z"/>
   <path id="_1_2" class="fil8" d="M2168.67 4519.41l232.63 -23.1c14.02,77.82 42.07,134.74 84.69,171.31 42.63,36.57 100.1,54.72 172.42,54.72 76.44,0 134.19,-16.22 172.95,-48.67 38.77,-32.45 58.3,-70.39 58.3,-113.84 0,-28.05 -8.24,-51.7 -24.47,-71.49 -16.22,-19.52 -44.83,-36.57 -85.52,-50.87 -27.78,-9.9 -91.02,-26.95 -190.01,-51.7 -127.31,-31.89 -216.68,-70.95 -268.1,-117.41 -72.32,-65.18 -108.35,-144.64 -108.35,-238.41 0,-60.21 17.05,-116.87 50.87,-169.38 34.1,-52.52 83.05,-92.39 147.11,-119.89 64.08,-27.49 141.07,-41.25 231.8,-41.25 147.67,0 259.03,32.72 333.56,98.44 74.79,65.72 113.84,153.16 117.68,262.88l-239.23 8.24c-10.17,-61.04 -31.89,-104.76 -65.17,-131.44 -33.27,-26.68 -83.32,-40.15 -149.86,-40.15 -68.75,0 -122.65,14.3 -161.41,42.9 -25.03,18.42 -37.67,42.89 -37.67,73.69 0,28.04 11.82,51.97 35.47,71.77 29.97,25.57 102.84,51.97 218.6,79.47 115.77,27.22 201.28,55.82 256.55,84.97 55.55,29.42 99,69.29 130.34,120.17 31.35,50.87 47.02,113.57 47.02,188.09 0,67.64 -18.7,131.16 -56.37,190.28 -37.67,59.12 -90.74,103.12 -159.48,131.72 -68.75,28.88 -154.54,43.17 -257.11,43.17 -149.3,0 -263.97,-34.37 -343.99,-103.4 -80.02,-68.74 -127.59,-169.11 -143.27,-300.83z"/>
   <path id="_2" class="fil8" d="M3282.34 4318.68c0,-120.44 18.14,-221.63 54.17,-303.57 26.67,-60.22 63.51,-114.39 109.99,-162.24 46.47,-47.84 97.34,-83.32 152.61,-106.7 73.69,-31.07 158.67,-46.74 254.91,-46.74 174.34,0 313.47,54.17 418.24,162.24 104.49,108.34 156.74,258.75 156.74,451.51 0,191.1 -51.97,340.7 -155.64,448.49 -103.67,108.07 -242.53,161.97 -416.04,161.97 -175.72,0 -315.68,-53.62 -419.35,-161.14 -103.66,-107.24 -155.63,-255.18 -155.63,-443.81zm245.83 -7.97c0,133.91 31.07,235.38 92.94,304.67 61.88,69.02 140.52,103.67 235.66,103.67 95.42,0 173.51,-34.37 234.83,-102.84 61.04,-68.75 91.57,-171.59 91.57,-308.8 0,-135.57 -29.7,-236.76 -89.37,-303.31 -59.4,-66.81 -138.32,-100.09 -237.03,-100.09 -98.44,0 -177.91,33.82 -238.13,101.19 -60.21,67.65 -90.46,169.39 -90.46,305.51z"/>
   <polygon id="_3" class="fil8" points="4615.14,4902.18 4615.14,3720.88 4846.68,3720.88 5332.83,4512.54 5332.83,3720.88 5553.91,3720.88 5553.91,4902.18 5314.97,4902.18 4836.22,4125.65 4836.22,4902.18 "/>
   <path id="_4" class="fil9" d="M1818.48 6084.08l0 -1181.3 502.38 0c126.22,0 218.06,10.72 275.26,31.89 57.47,21.18 103.11,58.85 137.49,113.02 34.37,54.44 51.69,116.31 51.69,186.16 0,88.82 -25.85,161.96 -77.82,219.71 -51.97,57.74 -129.51,94.03 -232.9,109.16 51.43,29.98 93.77,62.98 127.05,99 33.55,36.02 78.64,100.09 135.29,191.93l144.09 230.43 -285.16 0 -171.04 -257.93c-61.31,-91.57 -103.39,-149.31 -126.21,-173.24 -22.55,-23.65 -46.47,-40.15 -71.78,-48.94 -25.57,-8.81 -65.71,-13.21 -120.71,-13.21l-48.4 0 0 493.31 -239.23 0zm239.23 -681.39l176.53 0c114.39,0 185.61,-4.95 214.21,-14.58 28.32,-9.63 50.87,-26.39 66.82,-50.04 16.22,-23.65 24.2,-53.34 24.2,-88.82 0,-39.87 -10.72,-71.77 -31.89,-96.52 -21.18,-24.48 -51.14,-39.87 -89.64,-46.2 -19.52,-2.75 -77.55,-4.13 -174.06,-4.13l-186.16 0 0 300.28z"/>
   <path id="_5" class="fil9" d="M3009.96 6084.08l0 -1181.3 382.5 0c144.91,0 239.23,5.77 283.22,17.6 67.65,17.88 124.29,56.37 169.94,115.77 45.64,59.4 68.47,136.12 68.47,230.16 0,72.59 -13.2,133.36 -39.32,182.86 -26.39,49.49 -59.67,88.26 -100.09,116.58 -40.43,28.05 -81.67,46.74 -123.46,55.82 -56.92,11.27 -139.14,17.05 -246.94,17.05l-155.09 0 0 445.46 -239.23 0zm239.23 -981.67l0 336.57 130.06 0c93.77,0 156.19,-6.33 187.81,-18.7 31.62,-12.38 56.37,-31.62 74.24,-58.3 17.88,-26.39 26.95,-56.92 26.95,-92.12 0,-43.17 -12.64,-78.65 -37.67,-106.7 -25.3,-28.05 -56.92,-45.64 -95.7,-52.79 -28.32,-5.23 -85.25,-7.98 -171.04,-7.98l-114.67 0z"/>
   <path id="_6" class="fil9" d="M4866.06 5648.52l230.99 70.94c-35.47,130.06 -94.6,226.58 -177.09,289.83 -82.49,62.97 -186.99,94.59 -313.75,94.59 -157.01,0 -285.98,-53.62 -387.16,-160.86 -100.92,-107.24 -151.51,-253.81 -151.51,-439.97 0,-196.6 50.87,-349.5 152.33,-458.38 101.47,-108.89 235.11,-163.34 400.64,-163.34 144.64,0 262.05,42.9 352.25,128.42 53.9,50.59 94.04,123.18 120.99,218.05l-235.93 56.1c-14.02,-61.05 -43.17,-109.44 -87.44,-144.91 -44.55,-35.47 -98.44,-53.07 -161.69,-53.07 -87.72,0 -158.93,31.35 -213.38,94.32 -54.72,62.7 -81.94,164.44 -81.94,305.23 0,149.04 26.95,255.45 80.56,318.7 53.9,63.52 123.74,95.14 209.81,95.14 63.52,0 118.24,-20.07 163.88,-60.5 45.64,-40.42 78.65,-103.66 98.44,-190.28z"/>
   <g>
    <polygon class="fil0 str3" points="1587.88,1188.1 3346.36,1188.1 3346.36,1490.19 1587.88,1490.19 "/>
    <polygon id="_1_3" class="fil2" points="1587.88,1188.1 3346.36,1188.1 3346.36,1490.19 1587.88,1490.19 "/>
   </g>
   <g>
    <polygon class="fil0 str4" points="1587.88,1757.59 3346.36,1757.59 3346.36,2059.68 1587.88,2059.68 "/>
    <polygon id="_1_4" class="fil2" points="1587.88,1757.59 3346.36,1757.59 3346.36,2059.68 1587.88,2059.68 "/>
   </g>
   <g>
    <polygon class="fil0 str5" points="1587.88,2836.9 3346.36,2836.9 3346.36,3138.99 1587.88,3138.99 "/>
    <polygon id="_1_5" class="fil2" points="1587.88,2836.9 3346.36,2836.9 3346.36,3138.99 1587.88,3138.99 "/>
   </g>
   <g>
    <polygon class="fil0 str6" points="1587.88,2305.77 3346.36,2305.77 3346.36,2607.86 1587.88,2607.86 "/>
    <polygon id="_1_6" class="fil2" points="1587.88,2305.77 3346.36,2305.77 3346.36,2607.86 1587.88,2607.86 "/>
   </g>
  </g>
 </g>
</svg>
