<?xml version="1.0" encoding="UTF-8"?>
<!DOCTYPE svg PUBLIC "-//W3C//DTD SVG 1.1//EN" "http://www.w3.org/Graphics/SVG/1.1/DTD/svg11.dtd">
<!-- Creator: CorelDRAW -->
<svg xmlns="http://www.w3.org/2000/svg" xml:space="preserve" width="79.7087mm" height="79.6516mm" version="1.1" style="shape-rendering:geometricPrecision; text-rendering:geometricPrecision; image-rendering:optimizeQuality; fill-rule:evenodd; clip-rule:evenodd"
viewBox="0 0 6757.87 6753.03"
 xmlns:xlink="http://www.w3.org/1999/xlink"
 xmlns:xodm="http://www.corel.com/coreldraw/odm/2003">
 <defs>
  <style type="text/css">
   <![CDATA[
    .str0 {stroke:#1F1B20;stroke-width:6.46;stroke-miterlimit:22.9256}
    .fil1 {fill:none;fill-rule:nonzero}
    .fil0 {fill:#FEFEFE}
    .fil3 {fill:#E31E24}
    .fil2 {fill:#1F1B20}
    .fil6 {fill:#28203A}
    .fil5 {fill:#008DD2}
    .fil7 {fill:#FEFEFE;fill-rule:nonzero}
    .fil4 {fill:#1F1B20;fill-rule:nonzero}
   ]]>
  </style>
 </defs>
 <g id="Layer_x0020_1">
  <metadata id="CorelCorpID_0Corel-Layer"/>
  <g id="_2102527674704">
   <rect class="fil0" width="6751.14" height="6751.14"/>
   <g>
    <polygon class="fil1 str0" points="14.66,3992.77 6751.14,3992.77 6751.14,6751.14 14.66,6751.14 "/>
    <polygon id="_1" class="fil2" points="14.66,3992.77 6751.14,3992.77 6751.14,6751.14 14.66,6751.14 "/>
   </g>
   <g>
    <polygon class="fil1 str0" points="428.51,4428.3 6320.49,4428.3 6320.49,6344.37 428.51,6344.37 "/>
    <polygon id="_1_0" class="fil3" points="428.51,4428.3 6320.49,4428.3 6320.49,6344.37 428.51,6344.37 "/>
   </g>
   <path class="fil4" d="M5684.05 2382.66l365.05 0.08 -14.74 -600.38c-5.74,-233.63 -78.32,-383.77 -256.74,-551.1 -130.48,-122.37 -410.22,-235.86 -734.95,-247.22l-1018.56 -23.13 0 383.03 1009.58 -7.63c267.17,-1.62 623.32,161.99 632.67,467.8l17.69 578.55z"/>
   <polygon class="fil3" points="5153.6,1934.3 6608.09,1933.4 5952.79,3782.11 "/>
   <path class="fil5" d="M2026.56 2529.86c1111.07,0 2010.84,-290.13 2011.77,-500.99l3.25 -731.19c-101.53,410.54 -1493.05,500.99 -2028.2,500.99 -208.06,0 -1887.05,-43.03 -2008.99,-471.46 -14.13,251.58 10.39,491.46 10.39,701.66 0,210.19 900.7,500.99 2011.78,500.99z"/>
   <path class="fil5" d="M2026.56 4146.35c1111.07,0 2010.84,-290.13 2011.77,-500.99l3.25 -731.19c-101.53,410.54 -1493.05,500.99 -2028.2,500.99 -208.06,0 -1887.05,-43.03 -2008.99,-471.46 -14.13,251.58 10.39,491.46 10.39,701.66 0,210.19 900.7,500.99 2011.78,500.99z"/>
   <path class="fil6" d="M2029.8 972.95c1111.07,0 2011.78,-217.81 2011.78,-486.47 0,-268.67 -900.71,-486.48 -2011.78,-486.48 -1111.08,0 -2011.78,217.81 -2011.78,486.48 0,268.66 900.7,486.47 2011.78,486.47z"/>
   <path class="fil4" d="M431.57 2684.02l226.44 -22.48c13.65,75.74 40.95,131.14 82.43,166.74 41.48,35.6 97.42,53.26 167.81,53.26 74.4,0 130.62,-15.79 168.35,-47.38 37.74,-31.58 56.74,-68.51 56.74,-110.8 0,-27.3 -8.03,-50.32 -23.82,-69.59 -15.79,-19 -43.63,-35.59 -83.24,-49.51 -27.03,-9.64 -88.59,-26.23 -184.94,-50.32 -123.92,-31.05 -210.9,-69.05 -260.95,-114.29 -70.39,-63.43 -105.45,-140.78 -105.45,-232.05 0,-58.61 16.59,-113.74 49.51,-164.87 33.18,-51.12 80.82,-89.93 143.19,-116.69 62.36,-26.77 137.3,-40.14 225.62,-40.14 143.73,0 252.12,31.84 324.66,95.81 72.8,63.97 110.81,149.08 114.56,255.87l-232.85 8.03c-9.9,-59.42 -31.05,-101.98 -63.43,-127.94 -32.39,-25.96 -81.09,-39.08 -145.87,-39.08 -66.91,0 -119.37,13.92 -157.11,41.76 -24.35,17.93 -36.67,41.76 -36.67,71.73 0,27.3 11.51,50.59 34.53,69.86 29.17,24.89 100.09,50.58 212.78,77.35 112.68,26.49 195.91,54.33 249.71,82.7 54.07,28.64 96.35,67.44 126.87,116.96 30.51,49.51 45.77,110.54 45.77,183.07 0,65.84 -18.19,127.66 -54.86,185.21 -36.67,57.54 -88.33,100.37 -155.24,128.2 -66.91,28.11 -150.42,42.02 -250.25,42.02 -145.33,0 -256.94,-33.46 -334.82,-100.63 -77.89,-66.92 -124.19,-164.6 -139.45,-292.81z"/>
   <polygon id="_1_1" class="fil4" points="2819.24,3056.59 2819.24,1916.41 3052.09,1916.41 3052.09,2862.28 3628.6,2862.28 3628.6,3056.59 "/>
   <path id="_2" class="fil4" d="M2487.9 3055.52c56.74,40.95 118.57,73.33 185.48,97.42l-85.38 165.4c-34.79,-10.44 -69.05,-24.89 -102.5,-43.36 -7.23,-3.75 -58.62,-37.74 -154.17,-102.51 -75.21,32.92 -158.71,49.51 -250.25,49.51 -176.64,0 -315.29,-52.19 -415.38,-156.3 -100.1,-104.38 -150.15,-250.79 -150.15,-439.47 0,-188.16 50.32,-334.56 150.68,-438.94 100.37,-104.65 236.6,-156.84 408.43,-156.84 170.49,0 305.65,52.19 405.48,156.84 99.83,104.38 149.89,250.51 149.89,438.67 0,99.3 -13.92,186.82 -41.76,262.29 -20.87,57.54 -54.34,113.48 -100.37,167.28zm-186.28 -130.62c29.71,-35.33 51.92,-77.62 66.91,-127.4 14.72,-49.78 22.21,-106.78 22.21,-171.29 0,-133.02 -29.17,-232.32 -87.78,-298.16 -58.62,-65.57 -135.16,-98.49 -229.64,-98.49 -94.74,0 -171.56,32.92 -230.17,99.03 -58.88,66.11 -88.33,165.41 -88.33,298.16 0,134.63 29.44,235.52 88.33,302.17 58.88,66.91 133.29,100.37 223.21,100.37 33.73,0 65.31,-5.62 95.02,-16.59 -46.84,-30.78 -94.74,-54.6 -143.19,-71.73l65.04 -134.89c76.01,26.49 148.81,65.84 218.4,118.83z"/>
   <polygon class="fil7" points="816.27,5970.85 816.27,4804.38 1679.72,4804.38 1679.72,5001.51 1052.49,5001.51 1052.49,5260.54 1635.73,5260.54 1635.73,5457.67 1052.49,5457.67 1052.49,5773.73 1702.53,5773.73 1702.53,5970.85 "/>
   <polygon id="_1_2" class="fil7" points="1784.8,5970.85 2187.47,5362.63 1822.27,4804.38 2097.32,4804.38 2327.04,5151.66 2556.75,4804.38 2832.35,4804.38 2466.33,5362.91 2868.19,5970.85 2585.26,5970.85 2326.77,5575.79 2068,5970.85 "/>
   <polygon id="_2_3" class="fil7" points="3251.85,5970.85 3251.85,5001.51 2906.46,5001.51 2906.46,4804.38 3831.83,4804.38 3831.83,5001.51 3488.08,5001.51 3488.08,5970.85 "/>
   <polygon id="_3" class="fil7" points="3800.87,5970.85 3800.87,5747.66 4024.07,5747.66 4024.07,5970.85 "/>
   <path id="_4" class="fil7" d="M4675.46 4804.38l236.23 0 0 739.1c0,96.66 -8.42,171.06 -25.52,223.19 -22.81,67.88 -64.09,122.46 -124.09,163.73 -59.74,41 -138.75,61.64 -237.04,61.64 -115.13,0 -203.65,-32.04 -265.55,-96.39 -62.18,-64.36 -93.4,-158.85 -93.95,-283.21l223.19 -26.06c2.72,66.52 12.23,113.5 29.05,140.92 25.26,41.81 63.54,62.72 115.13,62.72 51.86,0 88.79,-14.93 110.24,-45.07 21.45,-29.87 32.31,-92.05 32.31,-186.54l0 -754.03z"/>
   <path id="_5" class="fil7" d="M5100.95 5592.89l229.71 -22.81c13.84,76.85 41.54,133.05 83.63,169.17 42.09,36.11 98.84,54.03 170.24,54.03 75.49,0 132.51,-16.02 170.79,-48.06 38.29,-32.04 57.57,-69.51 57.57,-112.41 0,-27.69 -8.15,-51.05 -24.17,-70.6 -16.02,-19.28 -44.26,-36.11 -84.44,-50.23 -27.43,-9.77 -89.88,-26.6 -187.62,-51.04 -125.71,-31.51 -213.96,-70.06 -264.74,-115.95 -71.41,-64.35 -106.98,-142.82 -106.98,-235.41 0,-59.46 16.83,-115.4 50.23,-167.26 33.67,-51.86 82,-91.23 145.27,-118.38 63.26,-27.16 139.29,-40.73 228.89,-40.73 145.81,0 255.78,32.31 329.36,97.2 73.85,64.9 112.41,151.24 116.21,259.58l-236.23 8.15c-10.05,-60.28 -31.5,-103.45 -64.35,-129.78 -32.85,-26.34 -82.27,-39.64 -147.98,-39.64 -67.88,0 -121.1,14.12 -159.39,42.36 -24.71,18.19 -37.19,42.36 -37.19,72.77 0,27.7 11.67,51.32 35.02,70.87 29.6,25.25 101.55,51.32 215.86,78.47 114.31,26.88 198.75,55.13 253.34,83.91 54.85,29.05 97.75,68.42 128.7,118.65 30.95,50.23 46.43,112.14 46.43,185.72 0,66.8 -18.46,129.52 -55.66,187.89 -37.2,58.38 -89.61,101.82 -157.48,130.06 -67.88,28.51 -152.6,42.63 -253.88,42.63 -147.44,0 -260.66,-33.94 -339.68,-102.09 -79.01,-67.88 -125.99,-166.99 -141.46,-297.05z"/>
  </g>
 </g>
</svg>
