<?xml version="1.0" encoding="UTF-8"?>
<!DOCTYPE svg PUBLIC "-//W3C//DTD SVG 1.1//EN" "http://www.w3.org/Graphics/SVG/1.1/DTD/svg11.dtd">
<!-- Creator: CorelDRAW -->
<svg xmlns="http://www.w3.org/2000/svg" xml:space="preserve" width="190mm" height="260mm" version="1.1" style="shape-rendering:geometricPrecision; text-rendering:geometricPrecision; image-rendering:optimizeQuality; fill-rule:evenodd; clip-rule:evenodd"
viewBox="0 0 19000 26000"
 xmlns:xlink="http://www.w3.org/1999/xlink"
 xmlns:xodm="http://www.corel.com/coreldraw/odm/2003">
 <defs>
  <style type="text/css">
   <![CDATA[
    .str2 {stroke:#E31E24;stroke-width:7.62;stroke-miterlimit:22.9256}
    .str1 {stroke:#1F1B20;stroke-width:7.62;stroke-miterlimit:22.9256}
    .str0 {stroke:#1F1B20;stroke-width:7.62;stroke-miterlimit:22.9256}
    .fil2 {fill:none;fill-rule:nonzero}
    .fil8 {fill:#FEFEFE}
    .fil1 {fill:#FEFEFE}
    .fil5 {fill:#E31E24}
    .fil4 {fill:#1F1B20}
    .fil9 {fill:#28203A}
    .fil7 {fill:#008DD2}
    .fil6 {fill:#FEFEFE;fill-rule:nonzero}
    .fil0 {fill:#1F1B20;fill-rule:nonzero}
    .fil3 {fill:#008DD2;fill-rule:nonzero}
   ]]>
  </style>
 </defs>
 <g id="Layer_x0020_1">
  <metadata id="CorelCorpID_0Corel-Layer"/>
  <path class="fil0" d="M3509.66 15251.24c0,16.88 1.56,29.39 4.61,37.54 3.04,8.06 8.07,15.39 15.14,21.81l-91.86 0c7.24,-6.42 12.35,-13.75 15.31,-21.81 2.96,-8.15 4.45,-20.66 4.45,-37.54l0 -238.96 -27 0c-18.69,0 -33.83,1.4 -45.44,4.28 -11.61,2.88 -20.91,7.57 -27.82,13.99l16.71 -54.82 239.62 0 -15.64 53.84c-5.03,-5.93 -11.61,-10.29 -19.68,-13.09 -8.15,-2.8 -18.44,-4.2 -30.78,-4.2l-37.62 0 0 238.96z"/>
  <path id="_1" class="fil0" d="M3774.88 15318.49c-17.04,-3.54 -30.54,-10.86 -40.42,-21.89 -9.88,-11.12 -19.18,-30.46 -27.82,-58.12l-61.74 -194.51c-4.85,-15.64 -10.12,-28.89 -15.8,-39.92 -5.68,-11.03 -12.1,-20.42 -19.18,-28.32l70.13 0c0,4.2 0.41,8.56 1.24,13.26 0.82,4.69 1.97,9.79 3.62,15.47l77.13 249.99 66.1 -209.98c2.71,-8.89 4.69,-15.97 5.76,-21.41 1.15,-5.35 1.73,-10.04 1.73,-14.07 0,-4.53 -1.32,-9.3 -3.87,-14.32 -2.55,-5.11 -6.92,-11.36 -13.01,-18.94l67.75 0 0 7c0,14.16 2.96,30.62 8.89,49.39 0.98,3.04 1.64,5.27 1.97,6.5l65.53 215.09 64.37 -200.85c2.46,-7.82 4.36,-15.23 5.68,-22.06 1.39,-6.83 2.05,-12.68 2.05,-17.45 0,-5.93 -1.48,-12.02 -4.61,-18.11 -3.04,-6.09 -7.9,-12.59 -14.65,-19.51l74.25 0 -113.6 342.76c-15.72,-3.21 -28.81,-10.29 -39.26,-21.32 -10.45,-11.03 -18.85,-26.5 -25.11,-46.42l-57.12 -180.52 -80.01 248.26z"/>
  <path id="_2" class="fil0" d="M4115.34 15154.52l125.53 0c-0.99,-16.54 -7.08,-30.04 -18.36,-40.58 -11.28,-10.45 -25.27,-15.72 -41.98,-15.72 -18.03,0 -32.84,5.02 -44.45,15.06 -11.53,9.96 -18.52,23.79 -20.74,41.24zm-3.38 33.09c1.15,29.31 10.45,52.6 27.91,69.89 17.45,17.28 40.25,25.93 68.4,25.93 12.51,0 25.76,-2.06 39.68,-6.18 13.91,-4.11 29.05,-10.45 45.27,-19.01l-26.01 45.35c-14.08,5.11 -27.08,8.98 -39.1,11.53 -12.1,2.55 -23.46,3.87 -34.08,3.87 -39.1,0 -71.29,-11.86 -96.56,-35.48 -25.27,-23.63 -37.86,-53.59 -37.86,-89.89 0,-37.29 11.6,-67.83 34.9,-91.7 23.21,-23.87 52.93,-35.81 89.15,-35.81 33.33,0 59.76,10.87 79.43,32.68 19.59,21.73 29.63,51.37 30.13,88.82l-181.26 0z"/>
  <path id="_3" class="fil0" d="M4392.49 15273.55c6.26,3.54 12.68,6.17 19.35,7.82 6.58,1.73 13.66,2.55 21.24,2.55 27.16,0 48.73,-8.15 64.53,-24.37 15.89,-16.21 23.79,-38.19 23.79,-65.85 0,-25.02 -6.5,-45.35 -19.59,-60.83 -13.01,-15.56 -30.05,-23.29 -51.12,-23.29 -6.01,0 -12.51,0.82 -19.59,2.55 -7.08,1.64 -15.06,4.11 -23.87,7.32l25.35 -45.02c5.27,-0.74 10.04,-1.4 14.32,-1.81 4.28,-0.41 8.32,-0.58 12.19,-0.58 33.58,0 60.58,10.62 80.83,31.94 20.25,21.32 30.37,49.64 30.37,85.03 0,40.01 -13.08,71.86 -39.34,95.49 -26.18,23.62 -61.66,35.47 -106.35,35.47 -11.94,0 -25.77,-0.98 -41.49,-3.04 -15.8,-1.98 -33.58,-4.86 -53.34,-8.73 5.84,-5.1 10.12,-11.27 12.76,-18.27 2.72,-7.08 4.03,-15.81 4.03,-26.26l0 -252.95c0,-10.46 -1.31,-19.18 -4.03,-26.18 -2.64,-7 -6.92,-13.01 -12.76,-18.19l62.72 0 0 307.2z"/>
  <path id="_4" class="fil0" d="M4845.47 15265.32c0,9.63 1.48,18.02 4.45,25.27 2.96,7.24 7.57,13.58 13.83,19.01l-63.22 0 0 -118.61c0,-15.15 -0.99,-27 -3.05,-35.56 -1.97,-8.65 -5.18,-16.14 -9.71,-22.56 -6.26,-9.05 -14.73,-16.13 -25.44,-21.4 -10.7,-5.19 -22.14,-7.82 -34.32,-7.82 -21.32,0 -39.18,8.07 -53.59,24.12 -14.4,16.13 -21.56,36.22 -21.56,60.34 0,26.99 8.23,49.47 24.61,67.41 16.38,17.95 36.87,26.92 61.4,26.92 7.08,0 14.82,-0.91 23.3,-2.64 8.4,-1.81 17.29,-4.52 26.59,-8.23l-29.14 42.31c-6.42,0.99 -12.1,1.65 -17.04,2.06 -4.86,0.41 -9.39,0.58 -13.58,0.58 -38.61,0 -69.4,-11.2 -92.28,-33.67 -22.8,-22.39 -34.24,-52.52 -34.24,-90.3 0,-34.08 11.52,-62.97 34.65,-86.76 23.05,-23.79 50.96,-35.72 83.8,-35.72 14.16,0 27.74,2.3 40.91,6.99 13.09,4.69 26.01,11.69 38.69,20.99l0 -74.99c0,-14.24 -1.32,-24.94 -3.87,-32.1 -2.55,-7.16 -6.83,-13.42 -12.92,-18.68l6 0c5.6,0 12.6,-0.5 20.83,-1.4 8.31,-0.91 19.92,-2.39 34.9,-4.53l0 298.97z"/>
  <path id="_5" class="fil0" d="M5134.48 15277.99l-20.17 31.53c-23.78,0 -40.74,-4.28 -50.95,-12.84 -10.21,-8.64 -15.31,-22.97 -15.31,-43.05l0 -69.48c-2.55,0.66 -6.5,1.73 -11.85,3.13 -59.6,16.3 -89.4,34 -89.4,53.1 0,12.26 5.02,22.14 14.98,29.71 9.96,7.57 23.14,11.36 39.52,11.36 4.52,0 9.63,-0.41 15.39,-1.32 5.84,-0.9 12.35,-2.3 19.51,-4.03l-26.75 35.89c-5.93,1.4 -11.36,2.47 -16.22,3.13 -4.94,0.57 -9.71,0.9 -14.32,0.9 -23.96,0 -43.71,-6.99 -59.19,-20.99 -15.56,-13.99 -23.29,-31.52 -23.29,-52.76 0,-8.07 1.48,-15.64 4.36,-22.89 2.88,-7.24 7,-13.74 12.43,-19.59 9.96,-9.96 31.44,-18.6 64.45,-26.01 6.75,-1.4 11.94,-2.63 15.64,-3.62 22.06,-4.94 36.55,-9.71 43.63,-14.32 7.08,-4.61 10.62,-10.79 10.62,-18.69 0,-10.12 -4.78,-18.27 -14.49,-24.36 -9.63,-6.09 -22.55,-9.14 -38.85,-9.14 -8.48,0 -18.03,1.48 -28.48,4.53 -10.46,3.04 -21.82,7.65 -34.25,13.74l31.69 -50.21c8.24,-1.15 15.97,-2.06 23.3,-2.63 7.33,-0.66 13.99,-0.99 20.17,-0.99 12.01,0 22.96,1.4 32.76,4.2 9.79,2.8 18.52,6.99 26.09,12.67 9.8,7.17 16.71,16.22 20.83,26.92 4.11,10.78 6.17,27.49 6.17,50.05l0 56.71c0,26.1 2.8,42.15 8.4,48.24 5.59,6.09 16.79,9.8 33.58,11.11z"/>
  <path id="_6" class="fil0" d="M5179.42 15110.07l-32.1 0 0 -17.29c19.34,-1.72 34.49,-10.61 45.52,-26.67 10.95,-15.96 16.87,-37.7 17.7,-65.19l14.32 0 0 75.07 69.64 0 0 43.96c-3.87,-3.46 -8.56,-6.01 -14.08,-7.57 -5.6,-1.57 -12.84,-2.31 -21.81,-2.31l-33.75 0 0 114.17c0,20.83 3.46,36.22 10.45,46.02 7,9.79 17.78,14.65 32.44,14.65 3.37,-0.17 6.91,-0.5 10.61,-1.07 3.71,-0.58 7.41,-1.32 11.12,-2.31l-23.63 34.49c-0.33,0 -0.74,0 -1.23,0 -6.42,0.66 -11.12,0.99 -14,0.99 -23.62,0 -41.4,-5.93 -53.34,-17.86 -11.93,-11.86 -17.86,-29.47 -17.86,-52.77l0 -136.31z"/>
  <path id="_7" class="fil0" d="M5562.76 15277.99l-20.17 31.53c-23.78,0 -40.74,-4.28 -50.95,-12.84 -10.21,-8.64 -15.31,-22.97 -15.31,-43.05l0 -69.48c-2.55,0.66 -6.5,1.73 -11.85,3.13 -59.6,16.3 -89.4,34 -89.4,53.1 0,12.26 5.02,22.14 14.98,29.71 9.96,7.57 23.14,11.36 39.52,11.36 4.52,0 9.63,-0.41 15.39,-1.32 5.84,-0.9 12.35,-2.3 19.51,-4.03l-26.75 35.89c-5.93,1.4 -11.36,2.47 -16.22,3.13 -4.94,0.57 -9.71,0.9 -14.32,0.9 -23.96,0 -43.71,-6.99 -59.19,-20.99 -15.56,-13.99 -23.29,-31.52 -23.29,-52.76 0,-8.07 1.48,-15.64 4.36,-22.89 2.88,-7.24 7,-13.74 12.43,-19.59 9.96,-9.96 31.44,-18.6 64.45,-26.01 6.75,-1.4 11.94,-2.63 15.64,-3.62 22.06,-4.94 36.55,-9.71 43.63,-14.32 7.08,-4.61 10.62,-10.79 10.62,-18.69 0,-10.12 -4.78,-18.27 -14.49,-24.36 -9.63,-6.09 -22.55,-9.14 -38.85,-9.14 -8.48,0 -18.03,1.48 -28.48,4.53 -10.46,3.04 -21.82,7.65 -34.25,13.74l31.69 -50.21c8.24,-1.15 15.97,-2.06 23.3,-2.63 7.33,-0.66 13.99,-0.99 20.17,-0.99 12.01,0 22.96,1.4 32.76,4.2 9.79,2.8 18.52,6.99 26.09,12.67 9.8,7.17 16.71,16.22 20.83,26.92 4.11,10.78 6.17,27.49 6.17,50.05l0 56.71c0,26.1 2.8,42.15 8.4,48.24 5.59,6.09 16.79,9.8 33.58,11.11z"/>
  <path id="_8" class="fil0" d="M5668.94 15251.32c0,16.88 1.49,29.31 4.45,37.46 2.96,8.15 8.07,15.39 15.31,21.81l-91.86 0c7.24,-6.42 12.34,-13.66 15.31,-21.81 2.96,-8.15 4.44,-20.58 4.44,-37.46l0 -216.73c0,-16.88 -1.48,-29.39 -4.44,-37.37 -2.97,-8.07 -8.07,-15.23 -15.31,-21.49l91.86 0c-7.24,6.26 -12.35,13.42 -15.31,21.49 -2.96,7.98 -4.45,20.49 -4.45,37.37l0 216.73z"/>
  <path id="_9" class="fil0" d="M5797.27 15266.72c0,10.29 1.32,18.85 4.03,25.76 2.64,6.92 6.92,13.01 12.76,18.11l-79.02 0c6.01,-5.1 10.29,-11.19 12.92,-18.11 2.56,-6.91 3.87,-15.47 3.87,-25.76l0 -146.03c0,-10.45 -1.31,-19.26 -4.03,-26.34 -2.64,-7.08 -6.92,-13.17 -12.76,-18.36l5.35 0c7.9,0 16.22,-0.49 24.94,-1.4 8.81,-0.9 18.36,-2.22 28.81,-4.03l2.14 37.54c12.1,-12.93 24.2,-22.39 36.47,-28.49 12.18,-6 25.19,-9.05 39.02,-9.05 26.01,0 47.24,7.9 63.54,23.79 16.3,15.89 24.45,36.63 24.45,62.23l0 110.14c0,10.29 1.32,18.85 3.87,25.76 2.63,6.92 6.91,13.01 12.92,18.11l-79.51 0c5.92,-5.1 10.2,-11.19 12.84,-18.11 2.63,-6.91 3.95,-15.47 3.95,-25.76l0 -83.88c0,-25.52 -4.61,-44.12 -13.91,-55.81 -9.22,-11.61 -23.87,-17.45 -44.04,-17.45 -20.91,0 -35.89,5.35 -44.95,16.05 -9.13,10.7 -13.66,28.56 -13.66,53.59l0 87.5z"/>
  <path id="_10" class="fil0" d="M6011.12 15413.32c6.01,-5.19 10.29,-11.2 12.92,-18.11 2.56,-6.91 3.87,-15.56 3.87,-25.85l0 -248.84c0,-10.37 -1.31,-19.17 -4.03,-26.25 -2.64,-7 -6.92,-13.17 -12.76,-18.28l6.34 0c8.64,0 17.45,-0.49 26.26,-1.4 8.8,-0.9 17.86,-2.22 27,-4.03l2.14 37.45c12.1,-13.17 25.35,-22.96 39.67,-29.55 14.41,-6.58 29.88,-9.88 46.26,-9.88 32.52,0 59.85,11.45 82.15,34.33 22.31,22.88 33.42,51.12 33.42,84.7 0,21.98 -4.28,42.15 -12.92,60.34 -8.56,18.27 -20.91,33.34 -36.96,45.19 -10.62,8.07 -21.9,13.99 -33.75,17.94 -11.93,3.96 -24.69,5.93 -38.36,5.93 -5.76,0 -11.85,-0.41 -18.11,-1.15 -6.25,-0.82 -12.51,-1.98 -18.76,-3.38l-29.23 -42.31c9.96,4.45 19.18,7.82 27.74,9.96 8.48,2.23 16.55,3.3 24.12,3.3 26.51,0 47.17,-7.74 62.07,-23.13 14.9,-15.48 22.3,-37.05 22.3,-64.7 0,-26.51 -7.4,-48.32 -22.22,-65.36 -14.82,-17.04 -33.5,-25.6 -56.22,-25.6 -9.63,0 -18.85,1.73 -27.49,5.1 -8.73,3.38 -16.47,8.23 -23.38,14.65 -7.08,6.42 -12.1,14.57 -14.98,24.29 -2.88,9.71 -4.37,26.17 -4.37,49.3l0 14.74 0 156.64c0,10.29 1.32,18.94 4.04,25.85 2.63,6.91 6.91,12.92 12.76,18.11l-79.52 0z"/>
  <path id="_11" class="fil0" d="M6487.73 15278.98c-12.1,12.84 -24.2,22.31 -36.47,28.4 -12.18,6.09 -25.19,9.14 -39.02,9.14 -25.84,0 -47,-7.99 -63.38,-23.96 -16.38,-15.97 -24.61,-36.87 -24.61,-62.56l0 -109.39c0,-10.46 -1.32,-19.26 -4.04,-26.26 -2.63,-7.08 -6.91,-13.25 -12.75,-18.36l6.83 0c9.3,0 18.68,-0.49 28.07,-1.4 9.38,-0.9 18.6,-2.22 27.82,-4.03l0.25 133.93c0,25.35 4.61,43.87 13.74,55.56 9.14,11.61 23.71,17.45 43.8,17.45 21.07,0 36.13,-5.35 45.19,-16.13 9.05,-10.79 13.58,-28.81 13.58,-54l0 -86.76c0,-10.46 -1.32,-19.26 -3.95,-26.26 -2.64,-7.08 -6.92,-13.25 -12.84,-18.36l6 0c8.48,0 17.37,-0.49 26.51,-1.4 9.22,-0.9 19.18,-2.22 29.72,-4.03l0 190.06c0,10.29 1.31,18.94 3.86,25.85 2.64,6.92 6.92,12.93 12.93,18.11l-4.36 0c-7.08,0 -14.9,0.49 -23.38,1.4 -8.56,0.99 -18.93,2.55 -31.12,4.61l-2.38 -31.61z"/>
  <path id="_12" class="fil0" d="M6605.76 15110.07l-32.1 0 0 -17.29c19.34,-1.72 34.49,-10.61 45.52,-26.67 10.95,-15.96 16.87,-37.7 17.7,-65.19l14.32 0 0 75.07 69.64 0 0 43.96c-3.87,-3.46 -8.56,-6.01 -14.08,-7.57 -5.6,-1.57 -12.84,-2.31 -21.81,-2.31l-33.75 0 0 114.17c0,20.83 3.46,36.22 10.45,46.02 7,9.79 17.78,14.65 32.44,14.65 3.37,-0.17 6.91,-0.5 10.61,-1.07 3.71,-0.58 7.41,-1.32 11.12,-2.31l-23.63 34.49c-0.33,0 -0.74,0 -1.23,0 -6.42,0.66 -11.12,0.99 -14,0.99 -23.62,0 -41.4,-5.93 -53.34,-17.86 -11.93,-11.86 -17.86,-29.47 -17.86,-52.77l0 -136.31z"/>
  <path id="_13" class="fil0" d="M6832.95 15151.56l98.94 0 -47.58 -129.32 -51.36 129.32zm-45.36 113.67c-1.48,3.38 -2.55,6.92 -3.29,10.46 -0.66,3.62 -1.07,7.41 -1.07,11.28 0,3.21 1.15,6.75 3.54,10.61 2.31,3.87 6.09,8.15 11.2,13.01l-79.03 0c6.59,-4.53 12.52,-10.7 17.7,-18.6 5.27,-7.82 10.54,-18.61 16.05,-32.27l94.25 -238.96c1.9,-4.53 3.38,-8.89 4.37,-13.25 0.9,-4.28 1.4,-8.15 1.4,-11.53 0,-3.87 -0.91,-7.41 -2.72,-10.62 -1.89,-3.21 -4.86,-6.42 -9.06,-9.63l76.23 0 106.51 280.61c4.94,12.68 10.29,22.97 15.97,30.95 5.77,7.99 13.09,15.73 22.06,23.3l-95.81 0 1.23 -1.23c8.81,-9.31 13.26,-16.14 13.26,-20.5 0,-5.1 -1.98,-12.68 -5.85,-22.64 -0.49,-1.64 -0.82,-2.8 -1.15,-3.62l-28.73 -77.46 -124.95 0 -32.11 80.09z"/>
  <path id="_14" class="fil0" d="M7292.68 15265.32c0,9.63 1.48,18.02 4.45,25.27 2.96,7.24 7.57,13.58 13.83,19.01l-63.22 0 0 -118.61c0,-15.15 -0.99,-27 -3.05,-35.56 -1.97,-8.65 -5.18,-16.14 -9.71,-22.56 -6.26,-9.05 -14.73,-16.13 -25.44,-21.4 -10.7,-5.19 -22.14,-7.82 -34.32,-7.82 -21.32,0 -39.18,8.07 -53.59,24.12 -14.4,16.13 -21.56,36.22 -21.56,60.34 0,26.99 8.23,49.47 24.61,67.41 16.38,17.95 36.87,26.92 61.4,26.92 7.08,0 14.82,-0.91 23.3,-2.64 8.4,-1.81 17.29,-4.52 26.59,-8.23l-29.14 42.31c-6.42,0.99 -12.1,1.65 -17.04,2.06 -4.86,0.41 -9.39,0.58 -13.58,0.58 -38.61,0 -69.4,-11.2 -92.28,-33.67 -22.8,-22.39 -34.24,-52.52 -34.24,-90.3 0,-34.08 11.52,-62.97 34.65,-86.76 23.05,-23.79 50.96,-35.72 83.8,-35.72 14.16,0 27.74,2.3 40.91,6.99 13.09,4.69 26.01,11.69 38.69,20.99l0 -74.99c0,-14.24 -1.32,-24.94 -3.87,-32.1 -2.55,-7.16 -6.83,-13.42 -12.92,-18.68l6 0c5.6,0 12.6,-0.5 20.83,-1.4 8.31,-0.91 19.92,-2.39 34.9,-4.53l0 298.97z"/>
  <path id="_15" class="fil0" d="M7581.69 15277.99l-20.17 31.53c-23.78,0 -40.74,-4.28 -50.95,-12.84 -10.21,-8.64 -15.31,-22.97 -15.31,-43.05l0 -69.48c-2.55,0.66 -6.5,1.73 -11.85,3.13 -59.6,16.3 -89.4,34 -89.4,53.1 0,12.26 5.02,22.14 14.98,29.71 9.96,7.57 23.14,11.36 39.52,11.36 4.52,0 9.63,-0.41 15.39,-1.32 5.84,-0.9 12.35,-2.3 19.51,-4.03l-26.75 35.89c-5.93,1.4 -11.36,2.47 -16.22,3.13 -4.94,0.57 -9.71,0.9 -14.32,0.9 -23.96,0 -43.71,-6.99 -59.19,-20.99 -15.56,-13.99 -23.29,-31.52 -23.29,-52.76 0,-8.07 1.48,-15.64 4.36,-22.89 2.88,-7.24 7,-13.74 12.43,-19.59 9.96,-9.96 31.44,-18.6 64.45,-26.01 6.75,-1.4 11.94,-2.63 15.64,-3.62 22.06,-4.94 36.55,-9.71 43.63,-14.32 7.08,-4.61 10.62,-10.79 10.62,-18.69 0,-10.12 -4.78,-18.27 -14.49,-24.36 -9.63,-6.09 -22.55,-9.14 -38.85,-9.14 -8.48,0 -18.03,1.48 -28.48,4.53 -10.46,3.04 -21.82,7.65 -34.25,13.74l31.69 -50.21c8.24,-1.15 15.97,-2.06 23.3,-2.63 7.33,-0.66 13.99,-0.99 20.17,-0.99 12.01,0 22.96,1.4 32.76,4.2 9.79,2.8 18.52,6.99 26.09,12.67 9.8,7.17 16.71,16.22 20.83,26.92 4.11,10.78 6.17,27.49 6.17,50.05l0 56.71c0,26.1 2.8,42.15 8.4,48.24 5.59,6.09 16.79,9.8 33.58,11.11z"/>
  <path id="_16" class="fil0" d="M7604.9 15413.32c6.01,-5.19 10.29,-11.2 12.92,-18.11 2.56,-6.91 3.87,-15.56 3.87,-25.85l0 -248.84c0,-10.37 -1.31,-19.17 -4.03,-26.25 -2.64,-7 -6.92,-13.17 -12.76,-18.28l6.34 0c8.64,0 17.45,-0.49 26.26,-1.4 8.8,-0.9 17.86,-2.22 27,-4.03l2.14 37.45c12.1,-13.17 25.35,-22.96 39.67,-29.55 14.41,-6.58 29.88,-9.88 46.26,-9.88 32.52,0 59.85,11.45 82.15,34.33 22.31,22.88 33.42,51.12 33.42,84.7 0,21.98 -4.28,42.15 -12.92,60.34 -8.56,18.27 -20.91,33.34 -36.96,45.19 -10.62,8.07 -21.9,13.99 -33.75,17.94 -11.93,3.96 -24.69,5.93 -38.36,5.93 -5.76,0 -11.85,-0.41 -18.11,-1.15 -6.25,-0.82 -12.51,-1.98 -18.76,-3.38l-29.23 -42.31c9.96,4.45 19.18,7.82 27.74,9.96 8.48,2.23 16.55,3.3 24.12,3.3 26.51,0 47.17,-7.74 62.07,-23.13 14.9,-15.48 22.3,-37.05 22.3,-64.7 0,-26.51 -7.4,-48.32 -22.22,-65.36 -14.82,-17.04 -33.5,-25.6 -56.22,-25.6 -9.63,0 -18.85,1.73 -27.49,5.1 -8.73,3.38 -16.47,8.23 -23.38,14.65 -7.08,6.42 -12.1,14.57 -14.98,24.29 -2.88,9.71 -4.37,26.17 -4.37,49.3l0 14.74 0 156.64c0,10.29 1.32,18.94 4.04,25.85 2.63,6.91 6.91,12.92 12.76,18.11l-79.52 0z"/>
  <path id="_17" class="fil0" d="M7923.46 15110.07l-32.1 0 0 -17.29c19.34,-1.72 34.49,-10.61 45.52,-26.67 10.95,-15.96 16.87,-37.7 17.7,-65.19l14.32 0 0 75.07 69.64 0 0 43.96c-3.87,-3.46 -8.56,-6.01 -14.08,-7.57 -5.6,-1.57 -12.84,-2.31 -21.81,-2.31l-33.75 0 0 114.17c0,20.83 3.46,36.22 10.45,46.02 7,9.79 17.78,14.65 32.44,14.65 3.37,-0.17 6.91,-0.5 10.61,-1.07 3.71,-0.58 7.41,-1.32 11.12,-2.31l-23.63 34.49c-0.33,0 -0.74,0 -1.23,0 -6.42,0.66 -11.12,0.99 -14,0.99 -23.62,0 -41.4,-5.93 -53.34,-17.86 -11.93,-11.86 -17.86,-29.47 -17.86,-52.77l0 -136.31z"/>
  <path id="_18" class="fil0" d="M8121.59 15186.21c0,29.22 7.49,52.93 22.56,71.04 15.06,18.11 34.65,27.16 58.77,27.16 22.72,0 41.24,-8.06 55.65,-24.28 14.4,-16.13 21.56,-37.04 21.56,-62.64 0,-27.49 -7.65,-50.21 -23.05,-68.08 -15.39,-17.86 -34.9,-26.75 -58.52,-26.75 -22.23,0 -40.58,7.9 -55.15,23.79 -14.57,15.81 -21.82,35.73 -21.82,59.76zm-51.86 9.88c0,-17.7 3.38,-34.33 10.05,-49.8 6.66,-15.48 16.38,-29.39 29.3,-41.57 12.35,-11.61 26.84,-20.58 43.38,-27 16.63,-6.42 33.83,-9.63 51.61,-9.63 18.52,0 35.23,2.96 50.21,8.89 14.99,6.01 28.49,15.06 40.59,27.25 11.85,11.93 20.99,25.27 27.24,40.17 6.26,14.81 9.39,30.37 9.39,46.59 0,17.86 -3.3,34.49 -9.88,50.04 -6.59,15.48 -16.38,29.23 -29.22,41.33 -12.19,11.36 -26.59,20.25 -43.14,26.58 -16.62,6.34 -33.83,9.55 -51.69,9.55 -18.77,0 -35.56,-2.88 -50.38,-8.64 -14.81,-5.85 -28.31,-14.82 -40.58,-27 -11.85,-11.94 -20.99,-25.35 -27.33,-40.42 -6.34,-14.98 -9.55,-30.45 -9.55,-46.34z"/>
  <path id="_19" class="fil0" d="M8504.44 15119.95c-3.7,-2.8 -7.49,-4.86 -11.36,-6.09 -3.87,-1.24 -8.15,-1.81 -12.76,-1.81 -17.12,0 -30.12,5.76 -39.01,17.28 -8.97,11.53 -13.42,28.15 -13.42,49.89l0 87.5c0,10.29 1.32,18.85 4.03,25.76 2.64,6.92 6.92,13.01 12.76,18.11l-79.02 0c6.01,-5.1 10.29,-11.19 12.92,-18.11 2.56,-6.91 3.87,-15.47 3.87,-25.76l0 -146.03c0,-10.45 -1.31,-19.26 -4.03,-26.34 -2.64,-7.08 -6.92,-13.17 -12.76,-18.36l5.35 0c7.9,0 16.22,-0.49 24.94,-1.4 8.81,-0.9 18.36,-2.22 28.81,-4.03l3.62 37.37c7.08,-12.51 15.23,-21.81 24.37,-27.82 9.22,-6.01 19.67,-9.06 31.44,-9.06 2.88,0 5.85,0.17 8.89,0.5 3.05,0.33 6.84,0.99 11.36,1.97l0 46.43z"/>
  <path class="fil0" d="M3000.79 16239.02c0,16.88 1.56,29.39 4.61,37.54 3.04,8.06 8.07,15.39 15.14,21.81l-91.86 0c7.24,-6.42 12.35,-13.75 15.31,-21.81 2.96,-8.15 4.45,-20.66 4.45,-37.54l0 -238.96 -27 0c-18.69,0 -33.83,1.4 -45.44,4.28 -11.61,2.88 -20.91,7.57 -27.82,13.99l16.71 -54.82 239.62 0 -15.64 53.84c-5.03,-5.93 -11.61,-10.29 -19.68,-13.09 -8.15,-2.8 -18.44,-4.2 -30.78,-4.2l-37.62 0 0 238.96z"/>
  <path id="_1_0" class="fil0" d="M3213.73 16107.73c-3.7,-2.8 -7.49,-4.86 -11.36,-6.09 -3.87,-1.24 -8.15,-1.81 -12.76,-1.81 -17.12,0 -30.12,5.76 -39.01,17.28 -8.97,11.53 -13.42,28.15 -13.42,49.89l0 87.5c0,10.29 1.32,18.85 4.03,25.76 2.64,6.92 6.92,13.01 12.76,18.11l-79.02 0c6.01,-5.1 10.29,-11.19 12.92,-18.11 2.56,-6.91 3.87,-15.47 3.87,-25.76l0 -146.03c0,-10.45 -1.31,-19.26 -4.03,-26.34 -2.64,-7.08 -6.92,-13.17 -12.76,-18.36l5.35 0c7.9,0 16.22,-0.49 24.94,-1.4 8.81,-0.9 18.36,-2.22 28.81,-4.03l3.62 37.37c7.08,-12.51 15.23,-21.81 24.37,-27.82 9.22,-6.01 19.67,-9.06 31.44,-9.06 2.88,0 5.85,0.17 8.89,0.5 3.05,0.33 6.84,0.99 11.36,1.97l0 46.43z"/>
  <path id="_2_1" class="fil0" d="M3478.87 16265.77l-20.17 31.53c-23.78,0 -40.74,-4.28 -50.95,-12.84 -10.21,-8.64 -15.31,-22.97 -15.31,-43.05l0 -69.48c-2.55,0.66 -6.5,1.73 -11.85,3.13 -59.6,16.3 -89.4,34 -89.4,53.1 0,12.26 5.02,22.14 14.98,29.71 9.96,7.57 23.14,11.36 39.52,11.36 4.52,0 9.63,-0.41 15.39,-1.32 5.84,-0.9 12.35,-2.3 19.51,-4.03l-26.75 35.89c-5.93,1.4 -11.36,2.47 -16.22,3.13 -4.94,0.57 -9.71,0.9 -14.32,0.9 -23.96,0 -43.71,-6.99 -59.19,-20.99 -15.56,-13.99 -23.29,-31.52 -23.29,-52.76 0,-8.07 1.48,-15.64 4.36,-22.89 2.88,-7.24 7,-13.74 12.43,-19.59 9.96,-9.96 31.44,-18.6 64.45,-26.01 6.75,-1.4 11.94,-2.63 15.64,-3.62 22.06,-4.94 36.55,-9.71 43.63,-14.32 7.08,-4.61 10.62,-10.79 10.62,-18.69 0,-10.12 -4.78,-18.27 -14.49,-24.36 -9.63,-6.09 -22.55,-9.14 -38.85,-9.14 -8.48,0 -18.03,1.48 -28.48,4.53 -10.46,3.04 -21.82,7.65 -34.25,13.74l31.69 -50.21c8.24,-1.15 15.97,-2.06 23.3,-2.63 7.33,-0.66 13.99,-0.99 20.17,-0.99 12.01,0 22.96,1.4 32.76,4.2 9.79,2.8 18.52,6.99 26.09,12.67 9.8,7.17 16.71,16.22 20.83,26.92 4.11,10.78 6.17,27.49 6.17,50.05l0 56.71c0,26.1 2.8,42.15 8.4,48.24 5.59,6.09 16.79,9.8 33.58,11.11z"/>
  <path id="_3_2" class="fil0" d="M3564.31 16254.5c0,10.29 1.32,18.85 4.03,25.76 2.64,6.92 6.92,13.01 12.76,18.11l-79.02 0c6.01,-5.1 10.29,-11.19 12.92,-18.11 2.56,-6.91 3.87,-15.47 3.87,-25.76l0 -146.03c0,-10.45 -1.31,-19.26 -4.03,-26.34 -2.64,-7.08 -6.92,-13.17 -12.76,-18.36l5.35 0c7.9,0 16.22,-0.49 24.94,-1.4 8.81,-0.9 18.36,-2.22 28.81,-4.03l2.14 37.54c12.1,-12.93 24.2,-22.39 36.47,-28.49 12.18,-6 25.19,-9.05 39.02,-9.05 26.01,0 47.24,7.9 63.54,23.79 16.3,15.89 24.45,36.63 24.45,62.23l0 110.14c0,10.29 1.32,18.85 3.87,25.76 2.63,6.92 6.91,13.01 12.92,18.11l-79.51 0c5.92,-5.1 10.2,-11.19 12.84,-18.11 2.63,-6.91 3.95,-15.47 3.95,-25.76l0 -83.88c0,-25.52 -4.61,-44.12 -13.91,-55.81 -9.22,-11.61 -23.87,-17.45 -44.04,-17.45 -20.91,0 -35.89,5.35 -44.95,16.05 -9.13,10.7 -13.66,28.56 -13.66,53.59l0 87.5z"/>
  <path id="_4_3" class="fil0" d="M3790.01 16293.51l-19.26 -53.42c18.19,12.18 34.99,21.24 50.38,27.16 15.39,5.93 30.04,8.89 43.87,8.89 17.21,0 30.95,-3.29 41.32,-9.96 10.38,-6.66 15.56,-15.55 15.56,-26.67 0,-13.82 -17.53,-27.65 -52.68,-41.65 -8.48,-3.37 -15.06,-6.09 -19.76,-8.15 -20.74,-8.72 -35.88,-18.35 -45.27,-28.97 -9.46,-10.62 -14.16,-23.13 -14.16,-37.62 0,-20.74 8.23,-37.21 24.62,-49.39 16.38,-12.26 38.85,-18.35 67.33,-18.35 9.14,0 19.18,0.65 30.13,2.05 10.94,1.32 22.39,3.3 34.49,5.93l0 41.9c-12.19,-6.09 -24.12,-10.78 -35.65,-13.99 -11.6,-3.21 -22.71,-4.78 -33.5,-4.78 -12.18,0 -21.89,2.64 -29.14,7.82 -7.24,5.27 -10.86,12.18 -10.86,20.83 0,12.43 14.57,23.87 43.79,34.49 12.51,4.52 22.47,8.39 29.8,11.6 20.9,8.81 36.22,18.52 46.01,29.14 9.8,10.62 14.73,22.89 14.73,36.88 0,24.12 -10.37,43.46 -31.11,58.11 -20.74,14.57 -48.57,21.9 -83.63,21.9 -12.68,0 -24.53,-1.15 -35.4,-3.37 -10.95,-2.23 -21.48,-5.68 -31.61,-10.38z"/>
  <path id="_5_4" class="fil0" d="M4076.88 16254.41c0,10.38 1.32,18.94 3.87,25.85 2.64,6.92 6.92,12.92 12.92,18.11l-79.02 0c5.93,-5.19 10.21,-11.19 12.84,-18.11 2.64,-6.91 3.95,-15.47 3.95,-25.85l0 -156.56 -26.67 0 26.67 -34.08c0,-1.31 -0.08,-3.21 -0.24,-5.76 -0.17,-2.55 -0.25,-4.44 -0.25,-5.6 0,-33.25 8.64,-58.03 25.93,-74.33 17.29,-16.3 43.54,-24.45 78.78,-24.45 4.19,0 8.64,0.17 13.33,0.5 4.77,0.33 9.38,0.74 13.83,1.15l-26.92 34.41c-5.18,-1.07 -9.79,-1.89 -13.99,-2.55 -4.2,-0.58 -7.99,-0.91 -11.44,-0.91 -12.19,0 -20.91,3.54 -25.93,10.62 -5.11,7.16 -7.66,19.43 -7.66,36.88l0 30.04 59.27 0 0 34.08 -59.27 0 0 156.56z"/>
  <path id="_6_5" class="fil0" d="M4212.7 16173.99c0,29.22 7.49,52.93 22.56,71.04 15.06,18.11 34.65,27.16 58.77,27.16 22.72,0 41.24,-8.06 55.65,-24.28 14.4,-16.13 21.56,-37.04 21.56,-62.64 0,-27.49 -7.65,-50.21 -23.05,-68.08 -15.39,-17.86 -34.9,-26.75 -58.52,-26.75 -22.23,0 -40.58,7.9 -55.15,23.79 -14.57,15.81 -21.82,35.73 -21.82,59.76zm-51.86 9.88c0,-17.7 3.38,-34.33 10.05,-49.8 6.66,-15.48 16.38,-29.39 29.3,-41.57 12.35,-11.61 26.84,-20.58 43.38,-27 16.63,-6.42 33.83,-9.63 51.61,-9.63 18.52,0 35.23,2.96 50.21,8.89 14.99,6.01 28.49,15.06 40.59,27.25 11.85,11.93 20.99,25.27 27.24,40.17 6.26,14.81 9.39,30.37 9.39,46.59 0,17.86 -3.3,34.49 -9.88,50.04 -6.59,15.48 -16.38,29.23 -29.22,41.33 -12.19,11.36 -26.59,20.25 -43.14,26.58 -16.62,6.34 -33.83,9.55 -51.69,9.55 -18.77,0 -35.56,-2.88 -50.38,-8.64 -14.81,-5.85 -28.31,-14.82 -40.58,-27 -11.85,-11.94 -20.99,-25.35 -27.33,-40.42 -6.34,-14.98 -9.55,-30.45 -9.55,-46.34z"/>
  <path id="_7_6" class="fil0" d="M4595.55 16107.73c-3.7,-2.8 -7.49,-4.86 -11.36,-6.09 -3.87,-1.24 -8.15,-1.81 -12.76,-1.81 -17.12,0 -30.12,5.76 -39.01,17.28 -8.97,11.53 -13.42,28.15 -13.42,49.89l0 87.5c0,10.29 1.32,18.85 4.03,25.76 2.64,6.92 6.92,13.01 12.76,18.11l-79.02 0c6.01,-5.1 10.29,-11.19 12.92,-18.11 2.56,-6.91 3.87,-15.47 3.87,-25.76l0 -146.03c0,-10.45 -1.31,-19.26 -4.03,-26.34 -2.64,-7.08 -6.92,-13.17 -12.76,-18.36l5.35 0c7.9,0 16.22,-0.49 24.94,-1.4 8.81,-0.9 18.36,-2.22 28.81,-4.03l3.62 37.37c7.08,-12.51 15.23,-21.81 24.37,-27.82 9.22,-6.01 19.67,-9.06 31.44,-9.06 2.88,0 5.85,0.17 8.89,0.5 3.05,0.33 6.84,0.99 11.36,1.97l0 46.43z"/>
  <path id="_8_7" class="fil0" d="M4687.83 16254.5c0,10.29 1.32,18.85 4.03,25.76 2.64,6.92 6.92,13.01 12.76,18.11l-79.02 0c6.01,-5.1 10.29,-11.19 12.92,-18.11 2.56,-6.91 3.87,-15.47 3.87,-25.76l0 -146.03c0,-10.45 -1.31,-19.26 -4.03,-26.34 -2.64,-7.08 -6.92,-13.17 -12.76,-18.36l5.35 0c7.9,0 16.22,-0.49 24.94,-1.4 8.81,-0.9 18.36,-2.22 28.81,-4.03l2.14 37.54c11.94,-12.76 24.04,-22.23 36.47,-28.32 12.35,-6.17 25.35,-9.22 39.02,-9.22 16.38,0 31.19,3.37 44.36,10.21 13.17,6.75 25.11,17.12 35.73,30.95 14.65,-14.16 28.56,-24.62 41.81,-31.2 13.34,-6.67 26.84,-9.96 40.67,-9.96 25.93,0 47,7.9 63.13,23.71 16.22,15.72 24.29,36.54 24.29,62.31l0 110.14c0,10.29 1.31,18.85 3.95,25.76 2.63,6.92 6.91,13.01 12.84,18.11l-79.02 0c5.92,-5.1 10.2,-11.19 12.84,-18.11 2.63,-6.91 3.95,-15.47 3.95,-25.76l0 -83.88c0,-25.52 -4.61,-44.12 -13.91,-55.81 -9.22,-11.61 -23.87,-17.45 -44.04,-17.45 -20.91,0 -35.89,5.35 -44.95,16.05 -9.13,10.7 -13.66,28.56 -13.66,53.59l0 87.5c0,10.29 1.32,18.85 3.87,25.76 2.63,6.92 6.91,13.01 12.92,18.11l-79.51 0c5.92,-5.1 10.2,-11.19 12.84,-18.11 2.63,-6.91 3.95,-15.47 3.95,-25.76l0 -83.88c0,-25.52 -4.61,-44.12 -13.91,-55.81 -9.22,-11.61 -23.87,-17.45 -44.04,-17.45 -20.91,0 -35.89,5.35 -44.95,16.05 -9.13,10.7 -13.66,28.56 -13.66,53.59l0 87.5z"/>
  <path id="_9_8" class="fil0" d="M5220.25 16001.05c0,-8.23 2.88,-15.15 8.72,-20.99 5.77,-5.76 12.84,-8.65 20.99,-8.65 8.07,0 14.98,2.89 20.58,8.65 5.68,5.84 8.48,12.76 8.48,20.99 0,8.31 -2.8,15.39 -8.31,21.07 -5.6,5.68 -12.51,8.56 -20.75,8.56 -8.31,0 -15.39,-2.88 -21.15,-8.64 -5.68,-5.85 -8.56,-12.84 -8.56,-20.99zm54.33 253.45c0,10.29 1.31,18.85 3.95,25.76 2.63,6.92 6.91,12.92 12.84,18.11l-78.53 0c5.93,-5.19 10.21,-11.19 12.84,-18.11 2.63,-6.91 3.95,-15.47 3.95,-25.76l0 -146.11c0,-10.46 -1.4,-19.18 -4.11,-26.26 -2.72,-7.08 -6.92,-13.25 -12.68,-18.36 13.83,-0.33 25.76,-0.99 35.72,-1.89 9.96,-0.91 18.61,-2.06 26.02,-3.54l0 196.16z"/>
  <path id="_10_9" class="fil0" d="M5391.22 16254.5c0,10.29 1.32,18.85 4.03,25.76 2.64,6.92 6.92,13.01 12.76,18.11l-79.02 0c6.01,-5.1 10.29,-11.19 12.92,-18.11 2.56,-6.91 3.87,-15.47 3.87,-25.76l0 -146.03c0,-10.45 -1.31,-19.26 -4.03,-26.34 -2.64,-7.08 -6.92,-13.17 -12.76,-18.36l5.35 0c7.9,0 16.22,-0.49 24.94,-1.4 8.81,-0.9 18.36,-2.22 28.81,-4.03l2.14 37.54c12.1,-12.93 24.2,-22.39 36.47,-28.49 12.18,-6 25.19,-9.05 39.02,-9.05 26.01,0 47.24,7.9 63.54,23.79 16.3,15.89 24.45,36.63 24.45,62.23l0 110.14c0,10.29 1.32,18.85 3.87,25.76 2.63,6.92 6.91,13.01 12.92,18.11l-79.51 0c5.92,-5.1 10.2,-11.19 12.84,-18.11 2.63,-6.91 3.95,-15.47 3.95,-25.76l0 -83.88c0,-25.52 -4.61,-44.12 -13.91,-55.81 -9.22,-11.61 -23.87,-17.45 -44.04,-17.45 -20.91,0 -35.89,5.35 -44.95,16.05 -9.13,10.7 -13.66,28.56 -13.66,53.59l0 87.5z"/>
  <path id="_11_10" class="fil0" d="M5605.07 16401.1c6.01,-5.19 10.29,-11.2 12.92,-18.11 2.56,-6.91 3.87,-15.56 3.87,-25.85l0 -248.84c0,-10.37 -1.31,-19.17 -4.03,-26.25 -2.64,-7 -6.92,-13.17 -12.76,-18.28l6.34 0c8.64,0 17.45,-0.49 26.26,-1.4 8.8,-0.9 17.86,-2.22 27,-4.03l2.14 37.45c12.1,-13.17 25.35,-22.96 39.67,-29.55 14.41,-6.58 29.88,-9.88 46.26,-9.88 32.52,0 59.85,11.45 82.15,34.33 22.31,22.88 33.42,51.12 33.42,84.7 0,21.98 -4.28,42.15 -12.92,60.34 -8.56,18.27 -20.91,33.34 -36.96,45.19 -10.62,8.07 -21.9,13.99 -33.75,17.94 -11.93,3.96 -24.69,5.93 -38.36,5.93 -5.76,0 -11.85,-0.41 -18.11,-1.15 -6.25,-0.82 -12.51,-1.98 -18.76,-3.38l-29.23 -42.31c9.96,4.45 19.18,7.82 27.74,9.96 8.48,2.23 16.55,3.3 24.12,3.3 26.51,0 47.17,-7.74 62.07,-23.13 14.9,-15.48 22.3,-37.05 22.3,-64.7 0,-26.51 -7.4,-48.32 -22.22,-65.36 -14.82,-17.04 -33.5,-25.6 -56.22,-25.6 -9.63,0 -18.85,1.73 -27.49,5.1 -8.73,3.38 -16.47,8.23 -23.38,14.65 -7.08,6.42 -12.1,14.57 -14.98,24.29 -2.88,9.71 -4.37,26.17 -4.37,49.3l0 14.74 0 156.64c0,10.29 1.32,18.94 4.04,25.85 2.63,6.91 6.91,12.92 12.76,18.11l-79.52 0z"/>
  <path id="_12_11" class="fil0" d="M6081.68 16266.76c-12.1,12.84 -24.2,22.31 -36.47,28.4 -12.18,6.09 -25.19,9.14 -39.02,9.14 -25.84,0 -47,-7.99 -63.38,-23.96 -16.38,-15.97 -24.61,-36.87 -24.61,-62.56l0 -109.39c0,-10.46 -1.32,-19.26 -4.04,-26.26 -2.63,-7.08 -6.91,-13.25 -12.75,-18.36l6.83 0c9.3,0 18.68,-0.49 28.07,-1.4 9.38,-0.9 18.6,-2.22 27.82,-4.03l0.25 133.93c0,25.35 4.61,43.87 13.74,55.56 9.14,11.61 23.71,17.45 43.8,17.45 21.07,0 36.13,-5.35 45.19,-16.13 9.05,-10.79 13.58,-28.81 13.58,-54l0 -86.76c0,-10.46 -1.32,-19.26 -3.95,-26.26 -2.64,-7.08 -6.92,-13.25 -12.84,-18.36l6 0c8.48,0 17.37,-0.49 26.51,-1.4 9.22,-0.9 19.18,-2.22 29.72,-4.03l0 190.06c0,10.29 1.31,18.94 3.86,25.85 2.64,6.92 6.92,12.93 12.93,18.11l-4.36 0c-7.08,0 -14.9,0.49 -23.38,1.4 -8.56,0.99 -18.93,2.55 -31.12,4.61l-2.38 -31.61z"/>
  <path id="_13_12" class="fil0" d="M6199.71 16097.85l-32.1 0 0 -17.29c19.34,-1.72 34.49,-10.61 45.52,-26.67 10.95,-15.96 16.87,-37.7 17.7,-65.19l14.32 0 0 75.07 69.64 0 0 43.96c-3.87,-3.46 -8.56,-6.01 -14.08,-7.57 -5.6,-1.57 -12.84,-2.31 -21.81,-2.31l-33.75 0 0 114.17c0,20.83 3.46,36.22 10.45,46.02 7,9.79 17.78,14.65 32.44,14.65 3.37,-0.17 6.91,-0.5 10.61,-1.07 3.71,-0.58 7.41,-1.32 11.12,-2.31l-23.63 34.49c-0.33,0 -0.74,0 -1.23,0 -6.42,0.66 -11.12,0.99 -14,0.99 -23.62,0 -41.4,-5.93 -53.34,-17.86 -11.93,-11.86 -17.86,-29.47 -17.86,-52.77l0 -136.31z"/>
  <path id="_14_13" class="fil0" d="M6575.56 16292.36c0,26.51 -1.73,45.03 -5.27,55.65 -3.54,10.61 -9.71,20.08 -18.6,28.48 -8.97,8.48 -20.91,15.64 -35.81,21.32 -14.81,5.68 -31.85,9.79 -50.95,12.18 21.81,-15.39 37.04,-31.03 45.52,-46.92 8.48,-15.8 12.76,-39.35 12.76,-70.71l0 -269.99c0,-16.88 -1.56,-29.39 -4.61,-37.37 -3.05,-8.07 -8.07,-15.23 -15.15,-21.49l91.87 0c-7.25,6.26 -12.35,13.42 -15.31,21.49 -2.97,7.98 -4.45,20.49 -4.45,37.37l0 269.99z"/>
  <path id="_15_14" class="fil0" d="M6649.23 16290.88l-15.97 -60.67c19.51,13.01 38.36,22.64 56.72,28.98 18.35,6.34 36.46,9.55 54.49,9.55 23.05,0 41.49,-4.94 55.48,-14.82 13.99,-9.88 20.99,-22.72 20.99,-38.44 0,-4.53 -0.74,-8.97 -2.14,-13.5 -1.48,-4.53 -3.54,-8.73 -6.34,-12.76 -6.09,-9.22 -26.59,-22.31 -61.49,-39.35 -8.81,-4.19 -15.64,-7.49 -20.49,-9.87 -32.6,-16.47 -54.99,-31.53 -67.17,-45.36 -12.1,-13.83 -18.19,-30.29 -18.19,-49.22 0,-27.25 11.11,-48.82 33.25,-64.79 22.23,-16.05 52.6,-24.03 91.21,-24.03 11.03,0 23.29,0.74 36.63,2.14 13.33,1.48 27.82,3.7 43.38,6.83l0 56.22c-13.83,-10.45 -27.74,-18.27 -41.74,-23.38 -13.99,-5.18 -28.56,-7.73 -43.71,-7.73 -19.18,0 -34.57,4.11 -46.18,12.26 -11.68,8.23 -17.53,18.93 -17.53,32.1 0,11.78 4.61,22.15 13.75,31.12 9.22,9.05 29.8,21.07 61.82,36.22 1.81,0.82 4.52,2.06 8.23,3.87 27,12.34 47.16,23.79 60.5,34.16 9.96,7.74 17.7,17.12 23.21,28.23 5.52,11.11 8.32,22.89 8.32,35.48 0,28.73 -13.17,53.09 -39.52,73.1 -26.34,20 -59.34,30.04 -98.86,30.04 -12.67,0 -26.34,-1.4 -40.99,-4.12 -14.57,-2.71 -30.46,-6.83 -47.66,-12.26z"/>
  <path id="_16_15" class="fil0" d="M7098.02 15991.17c-37.29,0 -68,12.76 -92.2,38.36 -24.2,25.52 -36.3,58.2 -36.3,97.87 0,41.08 11.94,75.07 35.89,102.15 23.96,27.09 53.92,40.67 89.73,40.67 37.12,0 67.74,-12.84 91.94,-38.44 24.2,-25.69 36.3,-58.45 36.3,-98.29 0,-40.99 -11.93,-74.99 -35.89,-101.9 -23.95,-26.92 -53.83,-40.42 -89.47,-40.42zm-2.06 315.1c-25.52,0 -49.64,-4.11 -72.19,-12.26 -22.64,-8.23 -41.98,-20.01 -58.28,-35.23 -17.04,-16.14 -30.13,-35.07 -39.43,-56.8 -9.22,-21.81 -13.83,-44.7 -13.83,-68.65 0,-18.77 2.97,-37.04 8.81,-54.74 5.84,-17.7 14.4,-34.16 25.68,-49.39 17.53,-23.71 39.18,-41.82 64.95,-54.57 25.85,-12.68 53.91,-19.02 84.29,-19.02 26.09,0 50.38,4.03 72.93,12.18 22.64,8.15 41.98,19.84 58.28,35.07 17.37,16.13 30.62,35.15 39.76,57.04 9.13,21.98 13.74,45.61 13.74,71.04 0,23.3 -5.1,46.18 -15.39,68.49 -10.29,22.39 -24.78,42.14 -43.46,59.35 -16.71,15.55 -35.73,27.41 -57.13,35.47 -21.4,7.99 -44.28,12.02 -68.73,12.02z"/>
  <path id="_17_16" class="fil0" d="M7649.69 15963.51c-7.24,6.26 -12.34,13.42 -15.31,21.49 -2.96,7.98 -4.44,20.49 -4.44,37.37l0 283.9c-11.77,-0.33 -22.89,-4.11 -33.42,-11.36 -10.54,-7.24 -23.79,-21.07 -39.76,-41.4l-172.78 -217.89 0 203.48c0,17.45 1.48,30.21 4.36,38.03 2.89,7.9 7.82,14.98 14.9,21.24l-76.06 0c7.08,-6.42 12.1,-13.66 15.15,-21.81 3.05,-8.15 4.61,-20.58 4.61,-37.46l0 -216.73c0,-16.88 -1.56,-29.39 -4.61,-37.37 -3.05,-8.07 -8.07,-15.23 -15.15,-21.49l68 0 198.21 251.47 0 -192.61c0,-16.88 -1.56,-29.39 -4.61,-37.37 -3.04,-8.07 -8.07,-15.23 -15.14,-21.49l76.05 0z"/>
  <path id="_18_17" class="fil0" d="M7862.56 16097.85l-32.1 0 0 -17.29c19.34,-1.72 34.49,-10.61 45.52,-26.67 10.95,-15.96 16.87,-37.7 17.7,-65.19l14.32 0 0 75.07 69.64 0 0 43.96c-3.87,-3.46 -8.56,-6.01 -14.08,-7.57 -5.6,-1.57 -12.84,-2.31 -21.81,-2.31l-33.75 0 0 114.17c0,20.83 3.46,36.22 10.45,46.02 7,9.79 17.78,14.65 32.44,14.65 3.37,-0.17 6.91,-0.5 10.61,-1.07 3.71,-0.58 7.41,-1.32 11.12,-2.31l-23.63 34.49c-0.33,0 -0.74,0 -1.23,0 -6.42,0.66 -11.12,0.99 -14,0.99 -23.62,0 -41.4,-5.93 -53.34,-17.86 -11.93,-11.86 -17.86,-29.47 -17.86,-52.77l0 -136.31z"/>
  <path id="_19_18" class="fil0" d="M8060.69 16173.99c0,29.22 7.49,52.93 22.56,71.04 15.06,18.11 34.65,27.16 58.77,27.16 22.72,0 41.24,-8.06 55.65,-24.28 14.4,-16.13 21.56,-37.04 21.56,-62.64 0,-27.49 -7.65,-50.21 -23.05,-68.08 -15.39,-17.86 -34.9,-26.75 -58.52,-26.75 -22.23,0 -40.58,7.9 -55.15,23.79 -14.57,15.81 -21.82,35.73 -21.82,59.76zm-51.86 9.88c0,-17.7 3.38,-34.33 10.05,-49.8 6.66,-15.48 16.38,-29.39 29.3,-41.57 12.35,-11.61 26.84,-20.58 43.38,-27 16.63,-6.42 33.83,-9.63 51.61,-9.63 18.52,0 35.23,2.96 50.21,8.89 14.99,6.01 28.49,15.06 40.59,27.25 11.85,11.93 20.99,25.27 27.24,40.17 6.26,14.81 9.39,30.37 9.39,46.59 0,17.86 -3.3,34.49 -9.88,50.04 -6.59,15.48 -16.38,29.23 -29.22,41.33 -12.19,11.36 -26.59,20.25 -43.14,26.58 -16.62,6.34 -33.83,9.55 -51.69,9.55 -18.77,0 -35.56,-2.88 -50.38,-8.64 -14.81,-5.85 -28.31,-14.82 -40.58,-27 -11.85,-11.94 -20.99,-25.35 -27.33,-40.42 -6.34,-14.98 -9.55,-30.45 -9.55,-46.34z"/>
  <path id="_20" class="fil0" d="M8521 16254.41c0,10.38 1.32,18.94 3.87,25.85 2.64,6.92 6.92,12.92 12.92,18.11l-79.02 0c5.93,-5.19 10.21,-11.19 12.84,-18.11 2.64,-6.91 3.95,-15.47 3.95,-25.85l0 -156.56 -26.67 0 26.67 -34.08c0,-1.31 -0.08,-3.21 -0.24,-5.76 -0.17,-2.55 -0.25,-4.44 -0.25,-5.6 0,-33.25 8.64,-58.03 25.93,-74.33 17.29,-16.3 43.54,-24.45 78.78,-24.45 4.19,0 8.64,0.17 13.33,0.5 4.77,0.33 9.38,0.74 13.83,1.15l-26.92 34.41c-5.18,-1.07 -9.79,-1.89 -13.99,-2.55 -4.2,-0.58 -7.99,-0.91 -11.44,-0.91 -12.19,0 -20.91,3.54 -25.93,10.62 -5.11,7.16 -7.66,19.43 -7.66,36.88l0 30.04 59.27 0 0 34.08 -59.27 0 0 156.56z"/>
  <path id="_21" class="fil0" d="M8616.82 16001.05c0,-8.23 2.88,-15.15 8.72,-20.99 5.77,-5.76 12.84,-8.65 20.99,-8.65 8.07,0 14.98,2.89 20.58,8.65 5.68,5.84 8.48,12.76 8.48,20.99 0,8.31 -2.8,15.39 -8.31,21.07 -5.6,5.68 -12.51,8.56 -20.75,8.56 -8.31,0 -15.39,-2.88 -21.15,-8.64 -5.68,-5.85 -8.56,-12.84 -8.56,-20.99zm54.33 253.45c0,10.29 1.31,18.85 3.95,25.76 2.63,6.92 6.91,12.92 12.84,18.11l-78.53 0c5.93,-5.19 10.21,-11.19 12.84,-18.11 2.63,-6.91 3.95,-15.47 3.95,-25.76l0 -146.11c0,-10.46 -1.4,-19.18 -4.11,-26.26 -2.72,-7.08 -6.92,-13.25 -12.68,-18.36 13.83,-0.33 25.76,-0.99 35.72,-1.89 9.96,-0.91 18.61,-2.06 26.02,-3.54l0 196.16z"/>
  <path id="_22" class="fil0" d="M8779.81 16142.3l125.53 0c-0.99,-16.54 -7.08,-30.04 -18.36,-40.58 -11.28,-10.45 -25.27,-15.72 -41.98,-15.72 -18.03,0 -32.84,5.02 -44.45,15.06 -11.53,9.96 -18.52,23.79 -20.74,41.24zm-3.38 33.09c1.15,29.31 10.45,52.6 27.91,69.89 17.45,17.28 40.25,25.93 68.4,25.93 12.51,0 25.76,-2.06 39.68,-6.18 13.91,-4.11 29.05,-10.45 45.27,-19.01l-26.01 45.35c-14.08,5.11 -27.08,8.98 -39.1,11.53 -12.1,2.55 -23.46,3.87 -34.08,3.87 -39.1,0 -71.29,-11.86 -96.56,-35.48 -25.27,-23.63 -37.86,-53.59 -37.86,-89.89 0,-37.29 11.6,-67.83 34.9,-91.7 23.21,-23.87 52.93,-35.81 89.15,-35.81 33.33,0 59.76,10.87 79.43,32.68 19.59,21.73 29.63,51.37 30.13,88.82l-181.26 0z"/>
  <path id="_23" class="fil0" d="M9056.47 16254.5c0,10.29 1.32,18.85 4.03,25.76 2.64,6.92 6.92,12.92 12.76,18.11l-78.53 0c6.01,-5.19 10.29,-11.19 12.93,-18.11 2.55,-6.91 3.87,-15.47 3.87,-25.76l0 -250.57c0,-10.29 -1.32,-18.85 -3.87,-25.77 -2.64,-6.91 -6.92,-13 -12.93,-18.1l5.35 0c5.19,0 11.45,-0.42 18.94,-1.16 7.49,-0.74 19.92,-2.3 37.45,-4.77l0 300.37z"/>
  <path id="_24" class="fil0" d="M9349.34 16253.1c0,9.63 1.48,18.02 4.45,25.27 2.96,7.24 7.57,13.58 13.83,19.01l-63.22 0 0 -118.61c0,-15.15 -0.99,-27 -3.05,-35.56 -1.97,-8.65 -5.18,-16.14 -9.71,-22.56 -6.26,-9.05 -14.73,-16.13 -25.44,-21.4 -10.7,-5.19 -22.14,-7.82 -34.32,-7.82 -21.32,0 -39.18,8.07 -53.59,24.12 -14.4,16.13 -21.56,36.22 -21.56,60.34 0,26.99 8.23,49.47 24.61,67.41 16.38,17.95 36.87,26.92 61.4,26.92 7.08,0 14.82,-0.91 23.3,-2.64 8.4,-1.81 17.29,-4.52 26.59,-8.23l-29.14 42.31c-6.42,0.99 -12.1,1.65 -17.04,2.06 -4.86,0.41 -9.39,0.58 -13.58,0.58 -38.61,0 -69.4,-11.2 -92.28,-33.67 -22.8,-22.39 -34.24,-52.52 -34.24,-90.3 0,-34.08 11.52,-62.97 34.65,-86.76 23.05,-23.79 50.96,-35.72 83.8,-35.72 14.16,0 27.74,2.3 40.91,6.99 13.09,4.69 26.01,11.69 38.69,20.99l0 -74.99c0,-14.24 -1.32,-24.94 -3.87,-32.1 -2.55,-7.16 -6.83,-13.42 -12.92,-18.68l6 0c5.6,0 12.6,-0.5 20.83,-1.4 8.31,-0.91 19.92,-2.39 34.9,-4.53l0 298.97z"/>
  <polygon id="_25" class="fil0" points="9366.71,16344.3 9500.97,15955.61 9528.21,15955.61 9394.37,16344.3 "/>
  <path id="_26" class="fil0" d="M9540.48 16401.1c6.01,-5.19 10.29,-11.2 12.92,-18.11 2.56,-6.91 3.87,-15.56 3.87,-25.85l0 -248.84c0,-10.37 -1.31,-19.17 -4.03,-26.25 -2.64,-7 -6.92,-13.17 -12.76,-18.28l6.34 0c8.64,0 17.45,-0.49 26.26,-1.4 8.8,-0.9 17.86,-2.22 27,-4.03l2.14 37.45c12.1,-13.17 25.35,-22.96 39.67,-29.55 14.41,-6.58 29.88,-9.88 46.26,-9.88 32.52,0 59.85,11.45 82.15,34.33 22.31,22.88 33.42,51.12 33.42,84.7 0,21.98 -4.28,42.15 -12.92,60.34 -8.56,18.27 -20.91,33.34 -36.96,45.19 -10.62,8.07 -21.9,13.99 -33.75,17.94 -11.93,3.96 -24.69,5.93 -38.36,5.93 -5.76,0 -11.85,-0.41 -18.11,-1.15 -6.25,-0.82 -12.51,-1.98 -18.76,-3.38l-29.23 -42.31c9.96,4.45 19.18,7.82 27.74,9.96 8.48,2.23 16.55,3.3 24.12,3.3 26.51,0 47.17,-7.74 62.07,-23.13 14.9,-15.48 22.3,-37.05 22.3,-64.7 0,-26.51 -7.4,-48.32 -22.22,-65.36 -14.82,-17.04 -33.5,-25.6 -56.22,-25.6 -9.63,0 -18.85,1.73 -27.49,5.1 -8.73,3.38 -16.47,8.23 -23.38,14.65 -7.08,6.42 -12.1,14.57 -14.98,24.29 -2.88,9.71 -4.37,26.17 -4.37,49.3l0 14.74 0 156.64c0,10.29 1.32,18.94 4.04,25.85 2.63,6.91 6.91,12.92 12.76,18.11l-79.52 0z"/>
  <path id="_27" class="fil0" d="M10072.4 16265.77l-20.17 31.53c-23.78,0 -40.74,-4.28 -50.95,-12.84 -10.21,-8.64 -15.31,-22.97 -15.31,-43.05l0 -69.48c-2.55,0.66 -6.5,1.73 -11.85,3.13 -59.6,16.3 -89.4,34 -89.4,53.1 0,12.26 5.02,22.14 14.98,29.71 9.96,7.57 23.14,11.36 39.52,11.36 4.52,0 9.63,-0.41 15.39,-1.32 5.84,-0.9 12.35,-2.3 19.51,-4.03l-26.75 35.89c-5.93,1.4 -11.36,2.47 -16.22,3.13 -4.94,0.57 -9.71,0.9 -14.32,0.9 -23.96,0 -43.71,-6.99 -59.19,-20.99 -15.56,-13.99 -23.29,-31.52 -23.29,-52.76 0,-8.07 1.48,-15.64 4.36,-22.89 2.88,-7.24 7,-13.74 12.43,-19.59 9.96,-9.96 31.44,-18.6 64.45,-26.01 6.75,-1.4 11.94,-2.63 15.64,-3.62 22.06,-4.94 36.55,-9.71 43.63,-14.32 7.08,-4.61 10.62,-10.79 10.62,-18.69 0,-10.12 -4.78,-18.27 -14.49,-24.36 -9.63,-6.09 -22.55,-9.14 -38.85,-9.14 -8.48,0 -18.03,1.48 -28.48,4.53 -10.46,3.04 -21.82,7.65 -34.25,13.74l31.69 -50.21c8.24,-1.15 15.97,-2.06 23.3,-2.63 7.33,-0.66 13.99,-0.99 20.17,-0.99 12.01,0 22.96,1.4 32.76,4.2 9.79,2.8 18.52,6.99 26.09,12.67 9.8,7.17 16.71,16.22 20.83,26.92 4.11,10.78 6.17,27.49 6.17,50.05l0 56.71c0,26.1 2.8,42.15 8.4,48.24 5.59,6.09 16.79,9.8 33.58,11.11z"/>
  <path id="_28" class="fil0" d="M10234.39 16107.73c-3.7,-2.8 -7.49,-4.86 -11.36,-6.09 -3.87,-1.24 -8.15,-1.81 -12.76,-1.81 -17.12,0 -30.12,5.76 -39.01,17.28 -8.97,11.53 -13.42,28.15 -13.42,49.89l0 87.5c0,10.29 1.32,18.85 4.03,25.76 2.64,6.92 6.92,13.01 12.76,18.11l-79.02 0c6.01,-5.1 10.29,-11.19 12.92,-18.11 2.56,-6.91 3.87,-15.47 3.87,-25.76l0 -146.03c0,-10.45 -1.31,-19.26 -4.03,-26.34 -2.64,-7.08 -6.92,-13.17 -12.76,-18.36l5.35 0c7.9,0 16.22,-0.49 24.94,-1.4 8.81,-0.9 18.36,-2.22 28.81,-4.03l3.62 37.37c7.08,-12.51 15.23,-21.81 24.37,-27.82 9.22,-6.01 19.67,-9.06 31.44,-9.06 2.88,0 5.85,0.17 8.89,0.5 3.05,0.33 6.84,0.99 11.36,1.97l0 46.43z"/>
  <path id="_29" class="fil0" d="M10499.53 16265.77l-20.17 31.53c-23.78,0 -40.74,-4.28 -50.95,-12.84 -10.21,-8.64 -15.31,-22.97 -15.31,-43.05l0 -69.48c-2.55,0.66 -6.5,1.73 -11.85,3.13 -59.6,16.3 -89.4,34 -89.4,53.1 0,12.26 5.02,22.14 14.98,29.71 9.96,7.57 23.14,11.36 39.52,11.36 4.52,0 9.63,-0.41 15.39,-1.32 5.84,-0.9 12.35,-2.3 19.51,-4.03l-26.75 35.89c-5.93,1.4 -11.36,2.47 -16.22,3.13 -4.94,0.57 -9.71,0.9 -14.32,0.9 -23.96,0 -43.71,-6.99 -59.19,-20.99 -15.56,-13.99 -23.29,-31.52 -23.29,-52.76 0,-8.07 1.48,-15.64 4.36,-22.89 2.88,-7.24 7,-13.74 12.43,-19.59 9.96,-9.96 31.44,-18.6 64.45,-26.01 6.75,-1.4 11.94,-2.63 15.64,-3.62 22.06,-4.94 36.55,-9.71 43.63,-14.32 7.08,-4.61 10.62,-10.79 10.62,-18.69 0,-10.12 -4.78,-18.27 -14.49,-24.36 -9.63,-6.09 -22.55,-9.14 -38.85,-9.14 -8.48,0 -18.03,1.48 -28.48,4.53 -10.46,3.04 -21.82,7.65 -34.25,13.74l31.69 -50.21c8.24,-1.15 15.97,-2.06 23.3,-2.63 7.33,-0.66 13.99,-0.99 20.17,-0.99 12.01,0 22.96,1.4 32.76,4.2 9.79,2.8 18.52,6.99 26.09,12.67 9.8,7.17 16.71,16.22 20.83,26.92 4.11,10.78 6.17,27.49 6.17,50.05l0 56.71c0,26.1 2.8,42.15 8.4,48.24 5.59,6.09 16.79,9.8 33.58,11.11z"/>
  <path id="_30" class="fil0" d="M10584.97 16254.5c0,10.29 1.32,18.85 4.03,25.76 2.64,6.92 6.92,13.01 12.76,18.11l-79.02 0c6.01,-5.1 10.29,-11.19 12.92,-18.11 2.56,-6.91 3.87,-15.47 3.87,-25.76l0 -146.03c0,-10.45 -1.31,-19.26 -4.03,-26.34 -2.64,-7.08 -6.92,-13.17 -12.76,-18.36l5.35 0c7.9,0 16.22,-0.49 24.94,-1.4 8.81,-0.9 18.36,-2.22 28.81,-4.03l2.14 37.54c11.94,-12.76 24.04,-22.23 36.47,-28.32 12.35,-6.17 25.35,-9.22 39.02,-9.22 16.38,0 31.19,3.37 44.36,10.21 13.17,6.75 25.11,17.12 35.73,30.95 14.65,-14.16 28.56,-24.62 41.81,-31.2 13.34,-6.67 26.84,-9.96 40.67,-9.96 25.93,0 47,7.9 63.13,23.71 16.22,15.72 24.29,36.54 24.29,62.31l0 110.14c0,10.29 1.31,18.85 3.95,25.76 2.63,6.92 6.91,13.01 12.84,18.11l-79.02 0c5.92,-5.1 10.2,-11.19 12.84,-18.11 2.63,-6.91 3.95,-15.47 3.95,-25.76l0 -83.88c0,-25.52 -4.61,-44.12 -13.91,-55.81 -9.22,-11.61 -23.87,-17.45 -44.04,-17.45 -20.91,0 -35.89,5.35 -44.95,16.05 -9.13,10.7 -13.66,28.56 -13.66,53.59l0 87.5c0,10.29 1.32,18.85 3.87,25.76 2.63,6.92 6.91,13.01 12.92,18.11l-79.51 0c5.92,-5.1 10.2,-11.19 12.84,-18.11 2.63,-6.91 3.95,-15.47 3.95,-25.76l0 -83.88c0,-25.52 -4.61,-44.12 -13.91,-55.81 -9.22,-11.61 -23.87,-17.45 -44.04,-17.45 -20.91,0 -35.89,5.35 -44.95,16.05 -9.13,10.7 -13.66,28.56 -13.66,53.59l0 87.5z"/>
  <path id="_31" class="fil0" d="M11015.65 16142.3l125.53 0c-0.99,-16.54 -7.08,-30.04 -18.36,-40.58 -11.28,-10.45 -25.27,-15.72 -41.98,-15.72 -18.03,0 -32.84,5.02 -44.45,15.06 -11.53,9.96 -18.52,23.79 -20.74,41.24zm-3.38 33.09c1.15,29.31 10.45,52.6 27.91,69.89 17.45,17.28 40.25,25.93 68.4,25.93 12.51,0 25.76,-2.06 39.68,-6.18 13.91,-4.11 29.05,-10.45 45.27,-19.01l-26.01 45.35c-14.08,5.11 -27.08,8.98 -39.1,11.53 -12.1,2.55 -23.46,3.87 -34.08,3.87 -39.1,0 -71.29,-11.86 -96.56,-35.48 -25.27,-23.63 -37.86,-53.59 -37.86,-89.89 0,-37.29 11.6,-67.83 34.9,-91.7 23.21,-23.87 52.93,-35.81 89.15,-35.81 33.33,0 59.76,10.87 79.43,32.68 19.59,21.73 29.63,51.37 30.13,88.82l-181.26 0z"/>
  <path id="_32" class="fil0" d="M11251.81 16097.85l-32.1 0 0 -17.29c19.34,-1.72 34.49,-10.61 45.52,-26.67 10.95,-15.96 16.87,-37.7 17.7,-65.19l14.32 0 0 75.07 69.64 0 0 43.96c-3.87,-3.46 -8.56,-6.01 -14.08,-7.57 -5.6,-1.57 -12.84,-2.31 -21.81,-2.31l-33.75 0 0 114.17c0,20.83 3.46,36.22 10.45,46.02 7,9.79 17.78,14.65 32.44,14.65 3.37,-0.17 6.91,-0.5 10.61,-1.07 3.71,-0.58 7.41,-1.32 11.12,-2.31l-23.63 34.49c-0.33,0 -0.74,0 -1.23,0 -6.42,0.66 -11.12,0.99 -14,0.99 -23.62,0 -41.4,-5.93 -53.34,-17.86 -11.93,-11.86 -17.86,-29.47 -17.86,-52.77l0 -136.31z"/>
  <path id="_33" class="fil0" d="M11454.31 16142.3l125.53 0c-0.99,-16.54 -7.08,-30.04 -18.36,-40.58 -11.28,-10.45 -25.27,-15.72 -41.98,-15.72 -18.03,0 -32.84,5.02 -44.45,15.06 -11.53,9.96 -18.52,23.79 -20.74,41.24zm-3.38 33.09c1.15,29.31 10.45,52.6 27.91,69.89 17.45,17.28 40.25,25.93 68.4,25.93 12.51,0 25.76,-2.06 39.68,-6.18 13.91,-4.11 29.05,-10.45 45.27,-19.01l-26.01 45.35c-14.08,5.11 -27.08,8.98 -39.1,11.53 -12.1,2.55 -23.46,3.87 -34.08,3.87 -39.1,0 -71.29,-11.86 -96.56,-35.48 -25.27,-23.63 -37.86,-53.59 -37.86,-89.89 0,-37.29 11.6,-67.83 34.9,-91.7 23.21,-23.87 52.93,-35.81 89.15,-35.81 33.33,0 59.76,10.87 79.43,32.68 19.59,21.73 29.63,51.37 30.13,88.82l-181.26 0z"/>
  <path id="_34" class="fil0" d="M11807.52 16107.73c-3.7,-2.8 -7.49,-4.86 -11.36,-6.09 -3.87,-1.24 -8.15,-1.81 -12.76,-1.81 -17.12,0 -30.12,5.76 -39.01,17.28 -8.97,11.53 -13.42,28.15 -13.42,49.89l0 87.5c0,10.29 1.32,18.85 4.03,25.76 2.64,6.92 6.92,13.01 12.76,18.11l-79.02 0c6.01,-5.1 10.29,-11.19 12.92,-18.11 2.56,-6.91 3.87,-15.47 3.87,-25.76l0 -146.03c0,-10.45 -1.31,-19.26 -4.03,-26.34 -2.64,-7.08 -6.92,-13.17 -12.76,-18.36l5.35 0c7.9,0 16.22,-0.49 24.94,-1.4 8.81,-0.9 18.36,-2.22 28.81,-4.03l3.62 37.37c7.08,-12.51 15.23,-21.81 24.37,-27.82 9.22,-6.01 19.67,-9.06 31.44,-9.06 2.88,0 5.85,0.17 8.89,0.5 3.05,0.33 6.84,0.99 11.36,1.97l0 46.43z"/>
  <path id="_35" class="fil0" d="M12206.92 16063.77l-108.25 242.5c-12.34,-3.87 -22.63,-10.2 -30.95,-19.01 -8.23,-8.89 -17.04,-24.12 -26.34,-45.85l-53.34 -126.77c-5.84,-13.5 -11.36,-23.87 -16.71,-31.11 -5.27,-7.25 -11.69,-13.83 -19.26,-19.76l7.24 0c14,0 25.44,-0.66 34.33,-2.06 8.97,-1.31 15.64,-3.45 20.17,-6.33l73.59 186.77 57.12 -127.51c2.88,-6.09 4.86,-11.03 5.93,-14.81 1.07,-3.79 1.56,-7.25 1.56,-10.29 0,-3.95 -1.15,-7.99 -3.37,-11.94 -2.22,-3.87 -6.17,-8.56 -11.85,-13.83l70.13 0z"/>
  <path id="_36" class="fil0" d="M12458.72 16265.77l-20.17 31.53c-23.78,0 -40.74,-4.28 -50.95,-12.84 -10.21,-8.64 -15.31,-22.97 -15.31,-43.05l0 -69.48c-2.55,0.66 -6.5,1.73 -11.85,3.13 -59.6,16.3 -89.4,34 -89.4,53.1 0,12.26 5.02,22.14 14.98,29.71 9.96,7.57 23.14,11.36 39.52,11.36 4.52,0 9.63,-0.41 15.39,-1.32 5.84,-0.9 12.35,-2.3 19.51,-4.03l-26.75 35.89c-5.93,1.4 -11.36,2.47 -16.22,3.13 -4.94,0.57 -9.71,0.9 -14.32,0.9 -23.96,0 -43.71,-6.99 -59.19,-20.99 -15.56,-13.99 -23.29,-31.52 -23.29,-52.76 0,-8.07 1.48,-15.64 4.36,-22.89 2.88,-7.24 7,-13.74 12.43,-19.59 9.96,-9.96 31.44,-18.6 64.45,-26.01 6.75,-1.4 11.94,-2.63 15.64,-3.62 22.06,-4.94 36.55,-9.71 43.63,-14.32 7.08,-4.61 10.62,-10.79 10.62,-18.69 0,-10.12 -4.78,-18.27 -14.49,-24.36 -9.63,-6.09 -22.55,-9.14 -38.85,-9.14 -8.48,0 -18.03,1.48 -28.48,4.53 -10.46,3.04 -21.82,7.65 -34.25,13.74l31.69 -50.21c8.24,-1.15 15.97,-2.06 23.3,-2.63 7.33,-0.66 13.99,-0.99 20.17,-0.99 12.01,0 22.96,1.4 32.76,4.2 9.79,2.8 18.52,6.99 26.09,12.67 9.8,7.17 16.71,16.22 20.83,26.92 4.11,10.78 6.17,27.49 6.17,50.05l0 56.71c0,26.1 2.8,42.15 8.4,48.24 5.59,6.09 16.79,9.8 33.58,11.11z"/>
  <path id="_37" class="fil0" d="M12544.16 16254.5c0,10.29 1.32,18.85 4.03,25.76 2.64,6.92 6.92,12.92 12.76,18.11l-78.53 0c6.01,-5.19 10.29,-11.19 12.93,-18.11 2.55,-6.91 3.87,-15.47 3.87,-25.76l0 -250.57c0,-10.29 -1.32,-18.85 -3.87,-25.77 -2.64,-6.91 -6.92,-13 -12.93,-18.1l5.35 0c5.19,0 11.45,-0.42 18.94,-1.16 7.49,-0.74 19.92,-2.3 37.45,-4.77l0 300.37z"/>
  <path id="_38" class="fil0" d="M12775.3 16266.76c-12.1,12.84 -24.2,22.31 -36.47,28.4 -12.18,6.09 -25.19,9.14 -39.02,9.14 -25.84,0 -47,-7.99 -63.38,-23.96 -16.38,-15.97 -24.61,-36.87 -24.61,-62.56l0 -109.39c0,-10.46 -1.32,-19.26 -4.04,-26.26 -2.63,-7.08 -6.91,-13.25 -12.75,-18.36l6.83 0c9.3,0 18.68,-0.49 28.07,-1.4 9.38,-0.9 18.6,-2.22 27.82,-4.03l0.25 133.93c0,25.35 4.61,43.87 13.74,55.56 9.14,11.61 23.71,17.45 43.8,17.45 21.07,0 36.13,-5.35 45.19,-16.13 9.05,-10.79 13.58,-28.81 13.58,-54l0 -86.76c0,-10.46 -1.32,-19.26 -3.95,-26.26 -2.64,-7.08 -6.92,-13.25 -12.84,-18.36l6 0c8.48,0 17.37,-0.49 26.51,-1.4 9.22,-0.9 19.18,-2.22 29.72,-4.03l0 190.06c0,10.29 1.31,18.94 3.86,25.85 2.64,6.92 6.92,12.93 12.93,18.11l-4.36 0c-7.08,0 -14.9,0.49 -23.38,1.4 -8.56,0.99 -18.93,2.55 -31.12,4.61l-2.38 -31.61z"/>
  <path id="_39" class="fil0" d="M12925.85 16142.3l125.53 0c-0.99,-16.54 -7.08,-30.04 -18.36,-40.58 -11.28,-10.45 -25.27,-15.72 -41.98,-15.72 -18.03,0 -32.84,5.02 -44.45,15.06 -11.53,9.96 -18.52,23.79 -20.74,41.24zm-3.38 33.09c1.15,29.31 10.45,52.6 27.91,69.89 17.45,17.28 40.25,25.93 68.4,25.93 12.51,0 25.76,-2.06 39.68,-6.18 13.91,-4.11 29.05,-10.45 45.27,-19.01l-26.01 45.35c-14.08,5.11 -27.08,8.98 -39.1,11.53 -12.1,2.55 -23.46,3.87 -34.08,3.87 -39.1,0 -71.29,-11.86 -96.56,-35.48 -25.27,-23.63 -37.86,-53.59 -37.86,-89.89 0,-37.29 11.6,-67.83 34.9,-91.7 23.21,-23.87 52.93,-35.81 89.15,-35.81 33.33,0 59.76,10.87 79.43,32.68 19.59,21.73 29.63,51.37 30.13,88.82l-181.26 0z"/>
  <path id="_40" class="fil0" d="M13152.13 16293.51l-19.26 -53.42c18.19,12.18 34.99,21.24 50.38,27.16 15.39,5.93 30.04,8.89 43.87,8.89 17.21,0 30.95,-3.29 41.32,-9.96 10.38,-6.66 15.56,-15.55 15.56,-26.67 0,-13.82 -17.53,-27.65 -52.68,-41.65 -8.48,-3.37 -15.06,-6.09 -19.76,-8.15 -20.74,-8.72 -35.88,-18.35 -45.27,-28.97 -9.46,-10.62 -14.16,-23.13 -14.16,-37.62 0,-20.74 8.23,-37.21 24.62,-49.39 16.38,-12.26 38.85,-18.35 67.33,-18.35 9.14,0 19.18,0.65 30.13,2.05 10.94,1.32 22.39,3.3 34.49,5.93l0 41.9c-12.19,-6.09 -24.12,-10.78 -35.65,-13.99 -11.6,-3.21 -22.71,-4.78 -33.5,-4.78 -12.18,0 -21.89,2.64 -29.14,7.82 -7.24,5.27 -10.86,12.18 -10.86,20.83 0,12.43 14.57,23.87 43.79,34.49 12.51,4.52 22.47,8.39 29.8,11.6 20.9,8.81 36.22,18.52 46.01,29.14 9.8,10.62 14.73,22.89 14.73,36.88 0,24.12 -10.37,43.46 -31.11,58.11 -20.74,14.57 -48.57,21.9 -83.63,21.9 -12.68,0 -24.53,-1.15 -35.4,-3.37 -10.95,-2.23 -21.48,-5.68 -31.61,-10.38z"/>
  <path id="_41" class="fil0" d="M13585.11 16254.41c0,10.38 1.32,18.94 3.87,25.85 2.64,6.92 6.92,12.92 12.92,18.11l-79.02 0c5.93,-5.19 10.21,-11.19 12.84,-18.11 2.64,-6.91 3.95,-15.47 3.95,-25.85l0 -156.56 -26.67 0 26.67 -34.08c0,-1.31 -0.08,-3.21 -0.24,-5.76 -0.17,-2.55 -0.25,-4.44 -0.25,-5.6 0,-33.25 8.64,-58.03 25.93,-74.33 17.29,-16.3 43.54,-24.45 78.78,-24.45 4.19,0 8.64,0.17 13.33,0.5 4.77,0.33 9.38,0.74 13.83,1.15l-26.92 34.41c-5.18,-1.07 -9.79,-1.89 -13.99,-2.55 -4.2,-0.58 -7.99,-0.91 -11.44,-0.91 -12.19,0 -20.91,3.54 -25.93,10.62 -5.11,7.16 -7.66,19.43 -7.66,36.88l0 30.04 59.27 0 0 34.08 -59.27 0 0 156.56z"/>
  <path id="_42" class="fil0" d="M13720.93 16173.99c0,29.22 7.49,52.93 22.56,71.04 15.06,18.11 34.65,27.16 58.77,27.16 22.72,0 41.24,-8.06 55.65,-24.28 14.4,-16.13 21.56,-37.04 21.56,-62.64 0,-27.49 -7.65,-50.21 -23.05,-68.08 -15.39,-17.86 -34.9,-26.75 -58.52,-26.75 -22.23,0 -40.58,7.9 -55.15,23.79 -14.57,15.81 -21.82,35.73 -21.82,59.76zm-51.86 9.88c0,-17.7 3.38,-34.33 10.05,-49.8 6.66,-15.48 16.38,-29.39 29.3,-41.57 12.35,-11.61 26.84,-20.58 43.38,-27 16.63,-6.42 33.83,-9.63 51.61,-9.63 18.52,0 35.23,2.96 50.21,8.89 14.99,6.01 28.49,15.06 40.59,27.25 11.85,11.93 20.99,25.27 27.24,40.17 6.26,14.81 9.39,30.37 9.39,46.59 0,17.86 -3.3,34.49 -9.88,50.04 -6.59,15.48 -16.38,29.23 -29.22,41.33 -12.19,11.36 -26.59,20.25 -43.14,26.58 -16.62,6.34 -33.83,9.55 -51.69,9.55 -18.77,0 -35.56,-2.88 -50.38,-8.64 -14.81,-5.85 -28.31,-14.82 -40.58,-27 -11.85,-11.94 -20.99,-25.35 -27.33,-40.42 -6.34,-14.98 -9.55,-30.45 -9.55,-46.34z"/>
  <path id="_43" class="fil0" d="M14103.78 16107.73c-3.7,-2.8 -7.49,-4.86 -11.36,-6.09 -3.87,-1.24 -8.15,-1.81 -12.76,-1.81 -17.12,0 -30.12,5.76 -39.01,17.28 -8.97,11.53 -13.42,28.15 -13.42,49.89l0 87.5c0,10.29 1.32,18.85 4.03,25.76 2.64,6.92 6.92,13.01 12.76,18.11l-79.02 0c6.01,-5.1 10.29,-11.19 12.92,-18.11 2.56,-6.91 3.87,-15.47 3.87,-25.76l0 -146.03c0,-10.45 -1.31,-19.26 -4.03,-26.34 -2.64,-7.08 -6.92,-13.17 -12.76,-18.36l5.35 0c7.9,0 16.22,-0.49 24.94,-1.4 8.81,-0.9 18.36,-2.22 28.81,-4.03l3.62 37.37c7.08,-12.51 15.23,-21.81 24.37,-27.82 9.22,-6.01 19.67,-9.06 31.44,-9.06 2.88,0 5.85,0.17 8.89,0.5 3.05,0.33 6.84,0.99 11.36,1.97l0 46.43z"/>
  <path id="_44" class="fil0" d="M3000.79 16831.36c0,16.88 1.56,29.39 4.61,37.54 3.04,8.06 8.07,15.39 15.14,21.81l-91.86 0c7.24,-6.42 12.35,-13.75 15.31,-21.81 2.96,-8.15 4.45,-20.66 4.45,-37.54l0 -238.96 -27 0c-18.69,0 -33.83,1.4 -45.44,4.28 -11.61,2.88 -20.91,7.57 -27.82,13.99l16.71 -54.82 239.62 0 -15.64 53.84c-5.03,-5.93 -11.61,-10.29 -19.68,-13.09 -8.15,-2.8 -18.44,-4.2 -30.78,-4.2l-37.62 0 0 238.96z"/>
  <path id="_45" class="fil0" d="M3210.69 16831.44c0,16.88 1.48,29.31 4.45,37.46 2.96,8.15 8.06,15.39 15.31,21.81l-91.87 0c7.08,-6.42 12.1,-13.66 15.15,-21.81 3.05,-8.15 4.61,-20.58 4.61,-37.46l0 -216.98c0,-16.79 -1.56,-29.22 -4.61,-37.21 -3.05,-8.06 -8.07,-15.14 -15.15,-21.4l183.73 0 0 52.35c-8.23,-6.42 -17.2,-11.03 -27.08,-13.91 -9.8,-2.88 -21.16,-4.36 -34,-4.36 -6.66,0 -14.07,0.49 -22.22,1.56 -8.23,1.08 -17.53,2.64 -27.82,4.7l0 94.49 81.98 0 0 48.9c-3.87,-4.53 -9.05,-7.74 -15.64,-9.55 -6.67,-1.89 -18.68,-2.8 -36.22,-2.8l-30.62 0 0 104.21z"/>
  <path id="_46" class="fil0" d="M3444.88 16831.44c0,16.88 1.48,29.31 4.45,37.46 2.96,8.15 8.06,15.39 15.31,21.81l-91.87 0c7.08,-6.42 12.1,-13.66 15.15,-21.81 3.05,-8.15 4.61,-20.58 4.61,-37.46l0 -216.9c0,-16.87 -1.56,-29.22 -4.61,-37.29 -3.05,-7.98 -8.07,-15.14 -15.15,-21.4l119.85 0c36.55,0 65.61,8.32 87.26,24.94 21.65,16.63 32.43,38.77 32.43,66.43 0,27.17 -9.88,49.06 -29.72,65.77 -19.75,16.71 -45.93,25.11 -78.61,25.11 -5.51,0 -11.36,-0.33 -17.78,-0.99 -6.33,-0.66 -13,-1.65 -20.08,-2.96 30.04,-5.6 52.76,-15.23 68.24,-28.81 15.39,-13.59 23.13,-30.87 23.13,-51.7 0,-19.34 -6.75,-34.57 -20.17,-45.85 -13.42,-11.27 -31.61,-16.87 -54.57,-16.87 -5.02,0 -10.62,0.33 -17.04,1.07 -6.34,0.74 -13.26,1.81 -20.83,3.29l0 236.16z"/>
  <path id="_47" class="fil0" d="M3785.75 16898.61c-17.04,-3.54 -30.54,-10.86 -40.42,-21.89 -9.88,-11.12 -19.18,-30.46 -27.82,-58.12l-61.74 -194.51c-4.85,-15.64 -10.12,-28.89 -15.8,-39.92 -5.68,-11.03 -12.1,-20.42 -19.18,-28.32l70.13 0c0,4.2 0.41,8.56 1.24,13.26 0.82,4.69 1.97,9.79 3.62,15.47l77.13 249.99 66.1 -209.98c2.71,-8.89 4.69,-15.97 5.76,-21.41 1.15,-5.35 1.73,-10.04 1.73,-14.07 0,-4.53 -1.32,-9.3 -3.87,-14.32 -2.55,-5.11 -6.92,-11.36 -13.01,-18.94l67.75 0 0 7c0,14.16 2.96,30.62 8.89,49.39 0.98,3.04 1.64,5.27 1.97,6.5l65.53 215.09 64.37 -200.85c2.46,-7.82 4.36,-15.23 5.68,-22.06 1.39,-6.83 2.05,-12.68 2.05,-17.45 0,-5.93 -1.48,-12.02 -4.61,-18.11 -3.04,-6.09 -7.9,-12.59 -14.65,-19.51l74.25 0 -113.6 342.76c-15.72,-3.21 -28.81,-10.29 -39.26,-21.32 -10.45,-11.03 -18.85,-26.5 -25.11,-46.42l-57.12 -180.52 -80.01 248.26z"/>
  <path id="_48" class="fil0" d="M4126.21 16734.64l125.53 0c-0.99,-16.54 -7.08,-30.04 -18.36,-40.58 -11.28,-10.45 -25.27,-15.72 -41.98,-15.72 -18.03,0 -32.84,5.02 -44.45,15.06 -11.53,9.96 -18.52,23.79 -20.74,41.24zm-3.38 33.09c1.15,29.31 10.45,52.6 27.91,69.89 17.45,17.28 40.25,25.93 68.4,25.93 12.51,0 25.76,-2.06 39.68,-6.18 13.91,-4.11 29.05,-10.45 45.27,-19.01l-26.01 45.35c-14.08,5.11 -27.08,8.98 -39.1,11.53 -12.1,2.55 -23.46,3.87 -34.08,3.87 -39.1,0 -71.29,-11.86 -96.56,-35.48 -25.27,-23.63 -37.86,-53.59 -37.86,-89.89 0,-37.29 11.6,-67.83 34.9,-91.7 23.21,-23.87 52.93,-35.81 89.15,-35.81 33.33,0 59.76,10.87 79.43,32.68 19.59,21.73 29.63,51.37 30.13,88.82l-181.26 0z"/>
  <path id="_49" class="fil0" d="M4403.36 16853.67c6.26,3.54 12.68,6.17 19.35,7.82 6.58,1.73 13.66,2.55 21.24,2.55 27.16,0 48.73,-8.15 64.53,-24.37 15.89,-16.21 23.79,-38.19 23.79,-65.85 0,-25.02 -6.5,-45.35 -19.59,-60.83 -13.01,-15.56 -30.05,-23.29 -51.12,-23.29 -6.01,0 -12.51,0.82 -19.59,2.55 -7.08,1.64 -15.06,4.11 -23.87,7.32l25.35 -45.02c5.27,-0.74 10.04,-1.4 14.32,-1.81 4.28,-0.41 8.32,-0.58 12.19,-0.58 33.58,0 60.58,10.62 80.83,31.94 20.25,21.32 30.37,49.64 30.37,85.03 0,40.01 -13.08,71.86 -39.34,95.49 -26.18,23.62 -61.66,35.47 -106.35,35.47 -11.94,0 -25.77,-0.98 -41.49,-3.04 -15.8,-1.98 -33.58,-4.86 -53.34,-8.73 5.84,-5.1 10.12,-11.27 12.76,-18.27 2.72,-7.08 4.03,-15.81 4.03,-26.26l0 -252.95c0,-10.46 -1.31,-19.18 -4.03,-26.18 -2.64,-7 -6.92,-13.01 -12.76,-18.19l62.72 0 0 307.2z"/>
  <path id="_50" class="fil0" d="M4692.86 16850.13c12.19,1.89 22.72,3.29 31.61,4.2 8.81,0.9 16.47,1.31 22.89,1.31 37.29,0 68.07,-12.59 92.35,-37.7 24.29,-25.18 36.39,-57.04 36.39,-95.65 0,-39.51 -12.02,-71.28 -36.14,-95.32 -24.12,-24.03 -56.22,-36.05 -96.22,-36.05 -8.24,0 -16.55,0.57 -25.11,1.65 -8.48,1.15 -17.12,2.96 -25.77,5.35l0 252.21zm-72.1 40.58c7.08,-6.26 12.01,-13.34 14.9,-21.24 2.88,-7.9 4.36,-20.66 4.36,-38.19l0 -216.74c0,-17.45 -1.48,-30.12 -4.36,-37.86 -2.89,-7.82 -7.82,-14.74 -14.9,-20.83l116.72 0c31.36,0 57.21,3.05 77.62,9.14 20.42,6.09 39.35,16.13 56.72,29.88 19.42,15.48 34.08,33.58 43.87,54.25 9.8,20.74 14.74,43.79 14.74,69.22 0,22.97 -3.63,44.29 -10.95,63.88 -7.33,19.59 -18.28,37.37 -32.93,53.26 -17.86,19.51 -39.59,33.5 -65.27,42.22 -25.6,8.65 -58.86,13.01 -99.69,13.01l-100.83 0z"/>
  <path id="_51" class="fil0" d="M5205.11 16858.11l-20.17 31.53c-23.78,0 -40.74,-4.28 -50.95,-12.84 -10.21,-8.64 -15.31,-22.97 -15.31,-43.05l0 -69.48c-2.55,0.66 -6.5,1.73 -11.85,3.13 -59.6,16.3 -89.4,34 -89.4,53.1 0,12.26 5.02,22.14 14.98,29.71 9.96,7.57 23.14,11.36 39.52,11.36 4.52,0 9.63,-0.41 15.39,-1.32 5.84,-0.9 12.35,-2.3 19.51,-4.03l-26.75 35.89c-5.93,1.4 -11.36,2.47 -16.22,3.13 -4.94,0.57 -9.71,0.9 -14.32,0.9 -23.96,0 -43.71,-6.99 -59.19,-20.99 -15.56,-13.99 -23.29,-31.52 -23.29,-52.76 0,-8.07 1.48,-15.64 4.36,-22.89 2.88,-7.24 7,-13.74 12.43,-19.59 9.96,-9.96 31.44,-18.6 64.45,-26.01 6.75,-1.4 11.94,-2.63 15.64,-3.62 22.06,-4.94 36.55,-9.71 43.63,-14.32 7.08,-4.61 10.62,-10.79 10.62,-18.69 0,-10.12 -4.78,-18.27 -14.49,-24.36 -9.63,-6.09 -22.55,-9.14 -38.85,-9.14 -8.48,0 -18.03,1.48 -28.48,4.53 -10.46,3.04 -21.82,7.65 -34.25,13.74l31.69 -50.21c8.24,-1.15 15.97,-2.06 23.3,-2.63 7.33,-0.66 13.99,-0.99 20.17,-0.99 12.01,0 22.96,1.4 32.76,4.2 9.79,2.8 18.52,6.99 26.09,12.67 9.8,7.17 16.71,16.22 20.83,26.92 4.11,10.78 6.17,27.49 6.17,50.05l0 56.71c0,26.1 2.8,42.15 8.4,48.24 5.59,6.09 16.79,9.8 33.58,11.11z"/>
  <path id="_52" class="fil0" d="M5250.05 16690.19l-32.1 0 0 -17.29c19.34,-1.72 34.49,-10.61 45.52,-26.67 10.95,-15.96 16.87,-37.7 17.7,-65.19l14.32 0 0 75.07 69.64 0 0 43.96c-3.87,-3.46 -8.56,-6.01 -14.08,-7.57 -5.6,-1.57 -12.84,-2.31 -21.81,-2.31l-33.75 0 0 114.17c0,20.83 3.46,36.22 10.45,46.02 7,9.79 17.78,14.65 32.44,14.65 3.37,-0.17 6.91,-0.5 10.61,-1.07 3.71,-0.58 7.41,-1.32 11.12,-2.31l-23.63 34.49c-0.33,0 -0.74,0 -1.23,0 -6.42,0.66 -11.12,0.99 -14,0.99 -23.62,0 -41.4,-5.93 -53.34,-17.86 -11.93,-11.86 -17.86,-29.47 -17.86,-52.77l0 -136.31z"/>
  <path id="_53" class="fil0" d="M5633.39 16858.11l-20.17 31.53c-23.78,0 -40.74,-4.28 -50.95,-12.84 -10.21,-8.64 -15.31,-22.97 -15.31,-43.05l0 -69.48c-2.55,0.66 -6.5,1.73 -11.85,3.13 -59.6,16.3 -89.4,34 -89.4,53.1 0,12.26 5.02,22.14 14.98,29.71 9.96,7.57 23.14,11.36 39.52,11.36 4.52,0 9.63,-0.41 15.39,-1.32 5.84,-0.9 12.35,-2.3 19.51,-4.03l-26.75 35.89c-5.93,1.4 -11.36,2.47 -16.22,3.13 -4.94,0.57 -9.71,0.9 -14.32,0.9 -23.96,0 -43.71,-6.99 -59.19,-20.99 -15.56,-13.99 -23.29,-31.52 -23.29,-52.76 0,-8.07 1.48,-15.64 4.36,-22.89 2.88,-7.24 7,-13.74 12.43,-19.59 9.96,-9.96 31.44,-18.6 64.45,-26.01 6.75,-1.4 11.94,-2.63 15.64,-3.62 22.06,-4.94 36.55,-9.71 43.63,-14.32 7.08,-4.61 10.62,-10.79 10.62,-18.69 0,-10.12 -4.78,-18.27 -14.49,-24.36 -9.63,-6.09 -22.55,-9.14 -38.85,-9.14 -8.48,0 -18.03,1.48 -28.48,4.53 -10.46,3.04 -21.82,7.65 -34.25,13.74l31.69 -50.21c8.24,-1.15 15.97,-2.06 23.3,-2.63 7.33,-0.66 13.99,-0.99 20.17,-0.99 12.01,0 22.96,1.4 32.76,4.2 9.79,2.8 18.52,6.99 26.09,12.67 9.8,7.17 16.71,16.22 20.83,26.92 4.11,10.78 6.17,27.49 6.17,50.05l0 56.71c0,26.1 2.8,42.15 8.4,48.24 5.59,6.09 16.79,9.8 33.58,11.11z"/>
  <path id="_54" class="fil0" d="M5738.09 16831.44c0,16.88 1.48,29.31 4.45,37.46 2.96,8.15 8.06,15.39 15.31,21.81l-91.87 0c7.08,-6.42 12.1,-13.66 15.15,-21.81 3.05,-8.15 4.61,-20.58 4.61,-37.46l0 -216.9c0,-16.87 -1.56,-29.22 -4.61,-37.29 -3.05,-7.98 -8.07,-15.14 -15.15,-21.4l119.85 0c36.55,0 65.61,8.32 87.26,24.94 21.65,16.63 32.43,38.77 32.43,66.43 0,27.17 -9.88,49.06 -29.72,65.77 -19.75,16.71 -45.93,25.11 -78.61,25.11 -5.51,0 -11.36,-0.33 -17.78,-0.99 -6.33,-0.66 -13,-1.65 -20.08,-2.96 30.04,-5.6 52.76,-15.23 68.24,-28.81 15.39,-13.59 23.13,-30.87 23.13,-51.7 0,-19.34 -6.75,-34.57 -20.17,-45.85 -13.42,-11.27 -31.61,-16.87 -54.57,-16.87 -5.02,0 -10.62,0.33 -17.04,1.07 -6.34,0.74 -13.26,1.81 -20.83,3.29l0 236.16z"/>
  <path id="_55" class="fil0" d="M6080.93 16700.07c-3.7,-2.8 -7.49,-4.86 -11.36,-6.09 -3.87,-1.24 -8.15,-1.81 -12.76,-1.81 -17.12,0 -30.12,5.76 -39.01,17.28 -8.97,11.53 -13.42,28.15 -13.42,49.89l0 87.5c0,10.29 1.32,18.85 4.03,25.76 2.64,6.92 6.92,13.01 12.76,18.11l-79.02 0c6.01,-5.1 10.29,-11.19 12.92,-18.11 2.56,-6.91 3.87,-15.47 3.87,-25.76l0 -146.03c0,-10.45 -1.31,-19.26 -4.03,-26.34 -2.64,-7.08 -6.92,-13.17 -12.76,-18.36l5.35 0c7.9,0 16.22,-0.49 24.94,-1.4 8.81,-0.9 18.36,-2.22 28.81,-4.03l3.62 37.37c7.08,-12.51 15.23,-21.81 24.37,-27.82 9.22,-6.01 19.67,-9.06 31.44,-9.06 2.88,0 5.85,0.17 8.89,0.5 3.05,0.33 6.84,0.99 11.36,1.97l0 46.43z"/>
  <path id="_56" class="fil0" d="M6160.86 16766.33c0,29.22 7.49,52.93 22.56,71.04 15.06,18.11 34.65,27.16 58.77,27.16 22.72,0 41.24,-8.06 55.65,-24.28 14.4,-16.13 21.56,-37.04 21.56,-62.64 0,-27.49 -7.65,-50.21 -23.05,-68.08 -15.39,-17.86 -34.9,-26.75 -58.52,-26.75 -22.23,0 -40.58,7.9 -55.15,23.79 -14.57,15.81 -21.82,35.73 -21.82,59.76zm-51.86 9.88c0,-17.7 3.38,-34.33 10.05,-49.8 6.66,-15.48 16.38,-29.39 29.3,-41.57 12.35,-11.61 26.84,-20.58 43.38,-27 16.63,-6.42 33.83,-9.63 51.61,-9.63 18.52,0 35.23,2.96 50.21,8.89 14.99,6.01 28.49,15.06 40.59,27.25 11.85,11.93 20.99,25.27 27.24,40.17 6.26,14.81 9.39,30.37 9.39,46.59 0,17.86 -3.3,34.49 -9.88,50.04 -6.59,15.48 -16.38,29.23 -29.22,41.33 -12.19,11.36 -26.59,20.25 -43.14,26.58 -16.62,6.34 -33.83,9.55 -51.69,9.55 -18.77,0 -35.56,-2.88 -50.38,-8.64 -14.81,-5.85 -28.31,-14.82 -40.58,-27 -11.85,-11.94 -20.99,-25.35 -27.33,-40.42 -6.34,-14.98 -9.55,-30.45 -9.55,-46.34z"/>
  <path id="_57" class="fil0" d="M6628.17 16656.11l-108.25 242.5c-12.34,-3.87 -22.63,-10.2 -30.95,-19.01 -8.23,-8.89 -17.04,-24.12 -26.34,-45.85l-53.34 -126.77c-5.84,-13.5 -11.36,-23.87 -16.71,-31.11 -5.27,-7.25 -11.69,-13.83 -19.26,-19.76l7.24 0c14,0 25.44,-0.66 34.33,-2.06 8.97,-1.31 15.64,-3.45 20.17,-6.33l73.59 186.77 57.12 -127.51c2.88,-6.09 4.86,-11.03 5.93,-14.81 1.07,-3.79 1.56,-7.25 1.56,-10.29 0,-3.95 -1.15,-7.99 -3.37,-11.94 -2.22,-3.87 -6.17,-8.56 -11.85,-13.83l70.13 0z"/>
  <path id="_58" class="fil0" d="M6654.76 16593.39c0,-8.23 2.88,-15.15 8.72,-20.99 5.77,-5.76 12.84,-8.65 20.99,-8.65 8.07,0 14.98,2.89 20.58,8.65 5.68,5.84 8.48,12.76 8.48,20.99 0,8.31 -2.8,15.39 -8.31,21.07 -5.6,5.68 -12.51,8.56 -20.75,8.56 -8.31,0 -15.39,-2.88 -21.15,-8.64 -5.68,-5.85 -8.56,-12.84 -8.56,-20.99zm54.33 253.45c0,10.29 1.31,18.85 3.95,25.76 2.63,6.92 6.91,12.92 12.84,18.11l-78.53 0c5.93,-5.19 10.21,-11.19 12.84,-18.11 2.63,-6.91 3.95,-15.47 3.95,-25.76l0 -146.11c0,-10.46 -1.4,-19.18 -4.11,-26.26 -2.72,-7.08 -6.92,-13.25 -12.68,-18.36 13.83,-0.33 25.76,-0.99 35.72,-1.89 9.96,-0.91 18.61,-2.06 26.02,-3.54l0 196.16z"/>
  <path id="_59" class="fil0" d="M7005.01 16845.44c0,9.63 1.48,18.02 4.45,25.27 2.96,7.24 7.57,13.58 13.83,19.01l-63.22 0 0 -118.61c0,-15.15 -0.99,-27 -3.05,-35.56 -1.97,-8.65 -5.18,-16.14 -9.71,-22.56 -6.26,-9.05 -14.73,-16.13 -25.44,-21.4 -10.7,-5.19 -22.14,-7.82 -34.32,-7.82 -21.32,0 -39.18,8.07 -53.59,24.12 -14.4,16.13 -21.56,36.22 -21.56,60.34 0,26.99 8.23,49.47 24.61,67.41 16.38,17.95 36.87,26.92 61.4,26.92 7.08,0 14.82,-0.91 23.3,-2.64 8.4,-1.81 17.29,-4.52 26.59,-8.23l-29.14 42.31c-6.42,0.99 -12.1,1.65 -17.04,2.06 -4.86,0.41 -9.39,0.58 -13.58,0.58 -38.61,0 -69.4,-11.2 -92.28,-33.67 -22.8,-22.39 -34.24,-52.52 -34.24,-90.3 0,-34.08 11.52,-62.97 34.65,-86.76 23.05,-23.79 50.96,-35.72 83.8,-35.72 14.16,0 27.74,2.3 40.91,6.99 13.09,4.69 26.01,11.69 38.69,20.99l0 -74.99c0,-14.24 -1.32,-24.94 -3.87,-32.1 -2.55,-7.16 -6.83,-13.42 -12.92,-18.68l6 0c5.6,0 12.6,-0.5 20.83,-1.4 8.31,-0.91 19.92,-2.39 34.9,-4.53l0 298.97z"/>
  <path id="_60" class="fil0" d="M7113.18 16734.64l125.53 0c-0.99,-16.54 -7.08,-30.04 -18.36,-40.58 -11.28,-10.45 -25.27,-15.72 -41.98,-15.72 -18.03,0 -32.84,5.02 -44.45,15.06 -11.53,9.96 -18.52,23.79 -20.74,41.24zm-3.38 33.09c1.15,29.31 10.45,52.6 27.91,69.89 17.45,17.28 40.25,25.93 68.4,25.93 12.51,0 25.76,-2.06 39.68,-6.18 13.91,-4.11 29.05,-10.45 45.27,-19.01l-26.01 45.35c-14.08,5.11 -27.08,8.98 -39.1,11.53 -12.1,2.55 -23.46,3.87 -34.08,3.87 -39.1,0 -71.29,-11.86 -96.56,-35.48 -25.27,-23.63 -37.86,-53.59 -37.86,-89.89 0,-37.29 11.6,-67.83 34.9,-91.7 23.21,-23.87 52.93,-35.81 89.15,-35.81 33.33,0 59.76,10.87 79.43,32.68 19.59,21.73 29.63,51.37 30.13,88.82l-181.26 0z"/>
  <path id="_61" class="fil0" d="M7466.39 16700.07c-3.7,-2.8 -7.49,-4.86 -11.36,-6.09 -3.87,-1.24 -8.15,-1.81 -12.76,-1.81 -17.12,0 -30.12,5.76 -39.01,17.28 -8.97,11.53 -13.42,28.15 -13.42,49.89l0 87.5c0,10.29 1.32,18.85 4.03,25.76 2.64,6.92 6.92,13.01 12.76,18.11l-79.02 0c6.01,-5.1 10.29,-11.19 12.92,-18.11 2.56,-6.91 3.87,-15.47 3.87,-25.76l0 -146.03c0,-10.45 -1.31,-19.26 -4.03,-26.34 -2.64,-7.08 -6.92,-13.17 -12.76,-18.36l5.35 0c7.9,0 16.22,-0.49 24.94,-1.4 8.81,-0.9 18.36,-2.22 28.81,-4.03l3.62 37.37c7.08,-12.51 15.23,-21.81 24.37,-27.82 9.22,-6.01 19.67,-9.06 31.44,-9.06 2.88,0 5.85,0.17 8.89,0.5 3.05,0.33 6.84,0.99 11.36,1.97l0 46.43z"/>
  <path id="_62" class="fil0" d="M7471.41 16867c0,-8.56 2.97,-15.72 8.89,-21.73 6.01,-5.92 13.26,-8.89 21.74,-8.89 8.39,0 15.55,2.97 21.56,8.89 6.01,6.01 9.06,13.17 9.06,21.73 0,8.4 -3.05,15.56 -9.06,21.57 -6.01,6.01 -13.17,9.05 -21.56,9.05 -8.48,0 -15.73,-3.04 -21.74,-9.05 -5.92,-6.01 -8.89,-13.17 -8.89,-21.57z"/>
  <rect class="fil1" x="4799.2" y="2394.65" width="7962.94" height="7962.94"/>
  <g>
   <path class="fil2 str0" d="M11102.37 3281l-0.09 -365.97 708.15 16.8c275.57,6.54 452.66,89.24 650.02,292.54 144.34,148.68 278.19,467.43 291.59,837.45l14.3 2822.28 -451.78 0 21.98 -2812.04c1.91,-304.43 -191.07,-760.25 -551.77,-770.9l-682.4 -20.16z"/>
   <path id="_1_19" class="fil3" d="M11102.37 3281l-0.09 -365.97 708.15 16.8c275.57,6.54 452.66,89.24 650.02,292.54 144.34,148.68 278.19,467.43 291.59,837.45l14.3 2822.28 -451.78 0 21.98 -2812.04c1.91,-304.43 -191.07,-760.25 -551.77,-770.9l-682.4 -20.16z"/>
  </g>
  <g id="_2493562226272">
   <path class="fil4" d="M7752.27 3282.85c0,44.52 38.6,88.33 74.85,102.31 49.46,19.08 149.32,-13.03 160,-141.45 -89.1,-20.76 -32.69,-13.48 -119.81,-4.02 -49.03,5.33 -115.04,-4.38 -115.04,43.16z"/>
   <path class="fil4" d="M8887.43 4574.59l-78.29 0c15.75,58.96 -0.24,42.97 58.72,58.72 14.81,-26.38 10.69,-21.64 19.57,-58.72z"/>
   <path class="fil4" d="M5051.35 5005.16c3.05,3.51 7.69,4.4 8.96,10.6 1.27,6.23 7.2,8.43 8.94,10.65 155.54,199.31 206.23,409.2 376.27,426.19 243.74,24.35 33.24,-8.91 214.91,78.66 41.35,19.91 36.46,7.64 74.62,42.81l71.46 85.24c79.89,77.97 103.5,69.26 184.29,50.45 66.55,285.65 -187.69,313.46 -43.04,511.83 134.32,184.22 83.61,149.62 130.23,223 91.92,144.75 205.54,-97.69 206.51,517.77 0.27,166.69 39.74,272.44 -97.33,198.5 -163.61,-88.26 -496.93,-336.17 -612.14,-467.76 -170.62,-194.86 -321.2,-402.2 -438.94,-637.5 -124.26,-248.33 -309.95,-808.81 -221.74,-1187.44 127.38,85.31 70.32,235.62 176.15,313.16 -6.96,-83.51 -32.2,-92.64 -39.15,-176.16zm4912.53 -184l0 315.12c-19.08,296.19 -92.65,592.08 -228.31,873.6 -76.41,158.54 -119.28,290.55 -227.61,418.26l-139.21 173.95c-220.41,283.98 -576.35,523.83 -898.82,686.51 -636.57,321.09 -1521.99,319.46 -2159.69,0.18 -429.34,-214.95 -767.37,-478.55 -1039.96,-878.08 -87.96,-128.91 -153.92,-252.27 -225.79,-400.51 -65.49,-135.11 -126.83,-330.05 -161.13,-484.73 -34.16,-154.02 -66.87,-386.45 -66.87,-559.44 0,-169.39 32.98,-429.99 70.32,-575.55 210.83,-821.94 680.25,-1424.48 1455.95,-1773.4 425.37,-191.33 532.2,-176.32 917.24,-217.97 292.82,-31.67 110.1,-6.67 296.9,2.64 1361.18,67.99 2328.83,1203.77 2406.98,2419.42zm-313.15 -383.57c-168.73,44.74 -117.46,-19.57 -215.29,-19.57 -86.88,0 -76.68,19.57 -176.15,19.57 2.1,-94.37 20.48,-138.63 58.72,-195.72l156.57 78.29c7.57,-90.9 -20.99,-34.23 39.14,-78.29l3.32 31.49c0.6,2.19 1.51,8.67 2.39,11.07 15.79,42.89 0.54,18.72 38.59,48.46 42.47,33.21 32.53,-9.03 92.71,104.7zm-665.44 -900.31c84.29,19.64 134.97,2.53 176.15,58.72 -112.29,29.98 -103.94,117.94 -176.15,254.43l-234.86 0c51.11,-76.32 156.57,-131.59 156.57,-254.43 0,-102.83 -61.56,-73.55 -15.84,-170.23 28.79,-60.88 74.83,-98.2 113.69,-142.92 0,138.81 -46.97,136.79 -19.56,254.43zm-3111.91 -411c70.07,37.07 43.92,35.13 117.42,19.57 0,123.55 48.79,215.29 -234.87,215.29 -28.61,0 -28.7,-24.14 -39.14,-39.15 57.2,-13.32 90.64,-34.18 137,-58.71 -19.06,-81.84 -36.84,-53.79 -39.14,-156.58 -64.15,42.96 -34.68,38.85 -117.43,19.58 125.28,-187.08 219.01,-145.1 352.29,-176.15l0 78.28c-93.18,0 -107.32,-4.9 -176.13,97.87zm391.43 -274.01l-38.17 22.51 38.17 -22.51zm2622.62 1722.32l58.72 -117.43c-70.57,-37.34 -148.26,-76.18 -156.58,-176.15 135.58,71.74 234.79,164.42 274.01,332.73l58.71 0c1.92,-86.02 13.24,-60.97 19.57,-137.02 122.4,32.69 60.85,93.86 122.83,151.19 36.66,33.91 164.63,44.54 229.46,44.54 -8.1,363.68 -315.74,134.05 -396.12,129.87 -55.92,-2.93 -78.9,49.65 -132.31,85.42l-215.29 -117.43 0 -137c-155.59,-12.96 -154.47,-36.26 -318.04,14.68 -111.19,34.62 -197.52,24.91 -264.78,107.08 -73.77,90.12 -43.14,164.71 -130.42,241.45 -57.76,50.79 -123.92,80.76 -145.6,245.83 -29.37,223.63 -34.71,426.3 138.72,580.8 134.66,119.95 363.2,-27.43 473.94,13.74l128.75 68.59c0,359.99 112.6,427.25 31.66,618.81 -70.55,166.97 -52.93,91.58 -33.53,283.23 11.31,111.83 18.52,214.88 41.01,311.41 -509.43,269.55 -993.17,404.39 -1599.95,327.77 -147.21,-18.59 -416.6,-76.03 -533.38,-132.06 30.61,-131.42 151.09,-151.03 239.78,-229.94 166.56,-148.19 110.21,-144.04 143.75,-208.53 14.75,-28.34 45.31,-46.95 75.93,-61.09 198.24,-91.63 119.11,-89.8 178.32,-291.4 27.21,-92.67 201.2,-204.74 94.6,-332.28 -41.03,-49.08 -252.82,-117.51 -322,-148.3 -172.05,-76.55 -78.65,-227.36 -220.17,-269.11 -125.74,-37.1 -58.85,12.96 -168.19,-66.68 -161.15,-117.34 -393.25,-173.88 -511.32,2.45 -136.67,-91.53 -191.97,18.98 -196.63,-116.71 -4.7,-137.15 89.2,-137.73 -136.09,-137.73 5.17,-62 36.74,-149.92 58.72,-195.72 -94.37,7.86 -75.98,20.61 -131.47,64.25 -65.43,51.44 -55.27,33.61 -162.11,33.61 0,-197.66 -81.18,-410.5 334.31,-413.05 122.38,-0.75 115.84,43.71 115.84,158.61 124.95,-33.35 6.27,-129.31 96.27,-256.02 29.2,-41.1 53.25,-53.94 82.95,-93.2 28.7,-37.92 46.71,-81.58 74.86,-120.86 48.54,-67.73 109.93,-138.56 171.43,-200.43 97.37,-97.97 76.55,-112.35 259.5,-112.35 -16.62,-62.27 -19.54,-31.77 -47.22,-89.78l-50.63 -145.09c128.51,0 178.3,-27.31 254.43,-78.3 -20.01,85.93 -50.85,81.8 -58.71,176.16 103.82,0 115.58,0.9 195.71,19.57 -8.43,-101.32 -27.73,-99.9 -97.86,-137l0 -176.15c-154.31,-63.75 -50.42,78.63 -142.74,-189.97 -19.01,-55.3 -19.26,-33.69 -52.98,-84.03 -133.16,48.2 90.45,-54.58 -35.99,25.9 -120.63,76.78 -48.87,-167.7 -218.43,-123.76 -124.74,83.54 -80.87,136.58 -88.23,274.77 -0.76,14.51 -86.29,223.81 -127.08,253.67 -59.46,-123.96 42.44,-102.32 -122.64,-170.92 -106.37,-44.19 -93.19,-70.61 -170.93,-122.66 215.92,-322.44 162.36,-250.97 430.59,-430.58 0,-82.36 8.22,-79.07 -19.57,-137 -73.79,19.7 -90.67,50.51 -97.86,137 -115.41,-30.81 -97.86,-114.83 -97.86,-254.43 210.53,111.4 68.11,101.93 352.29,78.29 45.57,195.58 105.24,111.08 -40.07,253.39 -24.08,23.59 -39.33,51.76 -57.79,79.33 74.92,15.87 62.65,-5.97 119.5,17.3 79.01,32.34 30.69,41.41 154.51,41.41 36.28,-87.83 -105.67,-74.62 58.71,-78.28 -24.28,-90.93 -30.81,-17.31 -39.15,-117.43 12.65,2.94 104.14,65.25 141.16,-57.91 30.43,-101.22 -65.86,-27.23 -120.31,-78.1 -50.1,-46.78 -1.72,20.59 -15.01,-72.83 -0.43,-3.15 -2.16,-10.51 -2.57,-13.06 -9.18,-56.25 -39.96,-51.79 -171.39,-179.24 -2.82,-2.74 -7.55,-6.49 -10.36,-9.08 -67.52,-62.22 -58.97,25.61 -36.8,-79.08l-137 0c49.65,-34.5 96.88,-30.18 146.46,-49.26 49.7,-19.13 86.07,-63.72 111.55,-103.73 54.36,-85.32 5.63,-86.77 90.73,-125.49 55.61,-25.3 107.68,-26.21 160.12,-15.11l0 39.15c-70.71,5.89 -93.26,24.4 -156.58,39.15 13.42,57.58 19.58,59.73 19.58,137 98.4,0 171.91,-27.61 228,5.6 67.08,39.72 103.28,111.55 65.57,190.12 40.35,21.34 46.39,27.15 97.86,39.14 -52.98,33.62 -48.95,7.16 -97.86,58.72 17.18,64.32 28.4,64.44 78.29,97.86 -67.96,101.5 -66.21,118.9 -6.81,261.19 40.07,95.95 97.45,147.04 222.1,149.81 5.16,-62.02 37.37,-150.36 56.87,-197.56 69.14,-167.31 -13.1,23.81 199.31,-172.56 66.77,-61.72 183.41,-98.47 272.27,-119.17l13.01 -84.84c1.55,-4.49 4.26,-9.22 5.99,-13.58 1.72,-4.29 4.66,-8.9 6.46,-13.12 1.79,-4.21 4.72,-8.85 6.49,-13.07 37.45,-90.04 46.33,-344.72 46.33,-462.55 238.11,0 990.1,321.46 1115.6,508.87 -74.59,101.79 -2.65,-45.55 -153.8,159.36 -21.32,28.9 -33.06,33.67 -55.95,61.47 -115.05,139.59 -19.03,122.55 -220.84,229.33 8.16,97.97 40.97,139.09 58.72,215.28l136.1 -41.87 20.49 218.02c-60.89,-44.6 -39.16,-52.31 -39.16,-156.58 -106.84,71.55 -39.14,72.86 -39.14,215.29 -151.69,0 -98.26,18.1 -187.73,86.28 -47.03,35.84 -130.85,95.22 -184.14,109.45 31.78,119.05 97.86,42.7 97.86,234.85 -293.38,0 -234.86,-78.84 -234.86,254.44 354.17,169.94 146.61,-175.93 567.58,-274 102.36,193.42 162.92,95.52 176.15,254.43z"/>
  </g>
  <g>
   <polygon class="fil2 str1" points="4816.49,7408.35 12762.13,7408.35 12762.13,10357.59 4816.49,10357.59 "/>
   <polygon id="_1_20" class="fil4" points="4816.49,7408.35 12762.13,7408.35 12762.13,10357.59 4816.49,10357.59 "/>
  </g>
  <g>
   <polygon class="fil2 str1" points="5304.62,7902.24 12254.19,7902.24 12254.19,9877.8 5304.62,9877.8 "/>
   <polygon id="_1_21" class="fil5" points="5304.62,7902.24 12254.19,7902.24 12254.19,9877.8 5304.62,9877.8 "/>
  </g>
  <path class="fil6" d="M6671.01 8179.71l274.65 0 0 859.3c0,112.38 -9.79,198.88 -29.68,259.49 -26.52,78.93 -74.5,142.38 -144.27,190.36 -69.45,47.67 -161.31,71.66 -275.59,71.66 -133.85,0 -236.77,-37.25 -308.74,-112.07 -72.29,-74.81 -108.6,-184.67 -109.23,-329.26l259.49 -30.3c3.16,77.34 14.21,131.95 33.78,163.84 29.36,48.61 73.87,72.92 133.85,72.92 60.3,0 103.23,-17.36 128.17,-52.4 24.94,-34.73 37.57,-107.02 37.57,-216.88l0 -876.66z"/>
  <path id="_1_22" class="fil6" d="M7165.69 9096.46l267.08 -26.51c16.1,89.34 48.3,154.68 97.23,196.67 48.93,41.99 114.91,62.82 197.93,62.82 87.76,0 154.06,-18.62 198.57,-55.88 44.51,-37.25 66.92,-80.81 66.92,-130.69 0,-32.2 -9.47,-59.35 -28.09,-82.08 -18.63,-22.41 -51.46,-41.98 -98.18,-58.4 -31.88,-11.37 -104.49,-30.94 -218.14,-59.35 -146.16,-36.62 -248.76,-81.45 -307.79,-134.8 -83.03,-74.82 -124.38,-166.05 -124.38,-273.7 0,-69.13 19.57,-134.16 58.4,-194.46 39.14,-60.3 95.33,-106.07 168.89,-137.64 73.55,-31.57 161.95,-47.35 266.12,-47.35 169.53,0 297.38,37.56 382.93,113.01 85.87,75.45 130.7,175.84 135.12,301.8l-274.65 9.47c-11.68,-70.08 -36.62,-120.28 -74.82,-150.9 -38.2,-30.62 -95.65,-46.09 -172.05,-46.09 -78.92,0 -140.8,16.42 -185.31,49.25 -28.72,21.15 -43.25,49.25 -43.25,84.6 0,32.2 13.58,59.67 40.73,82.4 34.41,29.36 118.06,59.66 250.97,91.23 132.9,31.25 231.08,64.08 294.53,97.55 63.77,33.78 113.65,79.55 149.64,137.95 35.99,58.4 53.98,130.38 53.98,215.93 0,77.66 -21.46,150.58 -64.71,218.46 -43.25,67.87 -104.18,118.38 -183.1,151.21 -78.92,33.15 -177.42,49.56 -295.17,49.56 -171.42,0 -303.06,-39.46 -394.92,-118.69 -91.87,-78.93 -146.48,-194.15 -164.48,-345.37z"/>
  <path id="_2_23" class="fil6" d="M8444.23 8866.01c0,-138.27 20.83,-254.44 62.19,-348.52 30.62,-69.13 72.92,-131.32 126.27,-186.25 53.35,-54.93 111.76,-95.65 175.21,-122.49 84.6,-35.67 182.15,-53.66 292.64,-53.66 200.15,0 359.88,62.19 480.16,186.25 119.96,124.38 179.94,297.06 179.94,518.36 0,219.4 -59.66,391.13 -178.68,514.88 -119.01,124.07 -278.43,185.94 -477.63,185.94 -201.73,0 -362.41,-61.56 -481.42,-184.99 -119.02,-123.12 -178.68,-292.96 -178.68,-509.52zm282.22 -9.15c0,153.74 35.67,270.23 106.7,349.78 71.03,79.24 161.32,119.01 270.55,119.01 109.54,0 199.19,-39.46 269.59,-118.06 70.09,-78.93 105.13,-196.99 105.13,-354.52 0,-155.63 -34.1,-271.81 -102.6,-348.2 -68.19,-76.71 -158.79,-114.91 -272.12,-114.91 -113.02,0 -204.25,38.83 -273.39,116.17 -69.13,77.66 -103.86,194.46 -103.86,350.73z"/>
  <polygon id="_3_24" class="fil6" points="9974.36,9535.9 9974.36,8179.71 10240.17,8179.71 10798.3,9088.57 10798.3,8179.71 11052.12,8179.71 11052.12,9535.9 10777.78,9535.9 10228.17,8644.4 10228.17,9535.9 "/>
  <g id="_2493562225264">
   <path class="fil7" d="M10744.41 6105.77c1114.88,0 2017.74,-291.13 2018.67,-502.7l3.26 -733.69c-101.88,411.95 -1498.17,502.7 -2035.16,502.7 -208.77,0 -1893.53,-43.17 -2015.88,-473.08 -14.18,252.45 10.43,493.16 10.43,704.07 0,210.92 903.79,502.7 2018.68,502.7z"/>
   <path class="fil8" d="M10747.36 5396.88c1114.88,0 2017.74,-291.13 2018.67,-502.7l3.26 -733.69c-101.88,411.95 -1498.17,502.7 -2035.16,502.7 -208.77,0 -1893.53,-43.17 -2015.88,-473.08 -14.18,252.45 10.43,493.16 10.43,704.07 0,210.92 903.79,502.7 2018.68,502.7z"/>
   <path class="fil8" d="M10763.47 6818.36c1114.88,0 2017.74,-291.13 2018.67,-502.7l3.26 -733.69c-101.88,411.95 -1498.17,502.7 -2035.16,502.7 -208.77,0 -1893.53,-43.17 -2015.88,-473.08 -14.18,252.45 10.43,493.16 10.43,704.07 0,210.92 903.79,502.7 2018.68,502.7z"/>
   <path class="fil7" d="M10744.41 7527.81c1114.88,0 2017.74,-291.13 2018.67,-502.7l3.26 -733.7c-101.88,411.95 -1498.17,502.7 -2035.16,502.7 -208.77,0 -1893.53,-43.17 -2015.88,-473.07 -14.18,252.45 10.43,493.15 10.43,704.07 0,210.91 903.79,502.7 2018.68,502.7z"/>
   <path class="fil9" d="M10747.66 4643.52c1114.88,0 2018.68,-218.56 2018.68,-488.15 0,-269.59 -903.8,-488.14 -2018.68,-488.14 -1114.89,0 -2018.68,218.55 -2018.68,488.14 0,269.59 903.79,488.15 2018.68,488.15z"/>
  </g>
  <g>
   <polygon class="fil2 str2" points="11083.09,4110.21 11084.16,2394.65 8903.61,3167.57 "/>
   <polygon id="_1_25" class="fil5" points="11083.09,4110.21 11084.16,2394.65 8903.61,3167.57 "/>
  </g>
 </g>
</svg>
